<?xml version="1.0" encoding="utf-8"?>
<!-- Generator: Adobe Illustrator 24.2.1, SVG Export Plug-In . SVG Version: 6.00 Build 0)  -->
<svg version="1.1" xmlns="http://www.w3.org/2000/svg" xmlns:xlink="http://www.w3.org/1999/xlink" x="0px" y="0px"
	 viewBox="0 0 747.01 510.76" style="enable-background:new 0 0 747.01 510.76;" xml:space="preserve">
<style type="text/css">
	.st0{fill:#C6C6C6;stroke:#C6C6C6;stroke-width:1.8769;stroke-miterlimit:10;}
	
		.st1{fill:none;stroke:#C6C6C6;stroke-width:1.8769;stroke-miterlimit:10;stroke-dasharray:1.0797,1.0797,1.0797,1.0797,1.0797,1.0797;}
	.st2{fill:#02ACBB;stroke:#02ACBB;stroke-width:1.8769;stroke-miterlimit:10;}
	.st3{fill:none;stroke:#898989;stroke-width:1.4077;stroke-miterlimit:10;}
	.st4{fill:#898989;}
	.st5{fill:none;stroke:#B1E5E5;stroke-width:1.4077;stroke-miterlimit:10;}
	.st6{fill:none;stroke:#02ACBB;stroke-width:1.4077;stroke-miterlimit:10;}
	.st7{fill:none;stroke:#FB809F;stroke-width:1.4077;stroke-miterlimit:10;}
	.st8{fill:#02ACBB;}
	.st9{font-family:'Galvji-Bold';}
	.st10{font-size:13.9019px;}
	.st11{fill:#FB809F;}
	.st12{fill:#B1E5E5;}
	.st13{fill:none;stroke:#02ACBB;stroke-width:1.2643;stroke-miterlimit:10;}
	.st14{fill:none;stroke:#02ACBB;stroke-width:1.4042;stroke-miterlimit:10;}
	.st15{fill:#FFFFFF;}
	.st16{font-family:'Galvji';}
	.st17{font-size:13.6076px;}
	.st18{fill:none;stroke:#B1E5E5;stroke-width:1.4667;stroke-miterlimit:10;}
	.st19{fill:#C6C6C6;}
	.st20{fill:#E8E8E8;}
	.st21{filter:url(#Adobe_OpacityMaskFilter);}
	.st22{mask:url(#SVGID_1_);fill:#A3A3A3;}
	.st23{fill:#6D6D6D;}
	.st24{fill:#686868;}
	.st25{fill:#7F7F7F;}
	.st26{fill:#A3A3A3;}
	.st27{fill:#DDDDDD;}
	.st28{fill:#9B9B9B;}
	.st29{fill:#818181;}
	.st30{fill:#BADDDD;}
	.st31{fill:#7DC7C9;}
</style>
<g id="Capa_2">
</g>
<g id="Capa_1">
	<g>
		<circle class="st0" cx="299.14" cy="143.36" r="1.8"/>
		<circle class="st0" cx="327.59" cy="129.22" r="1.8"/>
		<circle class="st0" cx="359.48" cy="118.93" r="1.8"/>
		<circle class="st0" cx="404.78" cy="143.88" r="1.8"/>
		<circle class="st0" cx="396.14" cy="176.67" r="1.8"/>
		<circle class="st0" cx="388.49" cy="115.33" r="1.8"/>
		<circle class="st0" cx="377.14" cy="134.75" r="1.8"/>
		<circle class="st0" cx="332.99" cy="100.86" r="1.8"/>
		<circle class="st0" cx="316.92" cy="113.54" r="1.8"/>
		<circle class="st0" cx="288.73" cy="113.54" r="1.8"/>
		<circle class="st0" cx="269.95" cy="146.95" r="1.8"/>
		<circle class="st0" cx="277.73" cy="168.19" r="1.8"/>
		<circle class="st0" cx="286.93" cy="199.36" r="1.8"/>
		<circle class="st0" cx="384.89" cy="207.73" r="1.8"/>
		<circle class="st0" cx="416.57" cy="146.95" r="1.8"/>
		<circle class="st0" cx="420.16" cy="226.84" r="1.8"/>
		<circle class="st0" cx="338.49" cy="248.71" r="1.8"/>
		<circle class="st0" cx="277.73" cy="234.91" r="1.8"/>
		<circle class="st0" cx="304.7" cy="233.11" r="1.8"/>
		<circle class="st0" cx="268.15" cy="209.52" r="1.8"/>
		<circle class="st0" cx="390.29" cy="247.84" r="1.8"/>
		<circle class="st0" cx="427.61" cy="183.24" r="1.8"/>
		<circle class="st0" cx="408.63" cy="210.84" r="1.8"/>
		<circle class="st0" cx="364.03" cy="275.29" r="1.8"/>
		<circle class="st0" cx="361.28" cy="249.27" r="1.8"/>
		<circle class="st0" cx="406.9" cy="165.23" r="1.8"/>
		<circle class="st0" cx="402.98" cy="198.54" r="1.8"/>
		<circle class="st0" cx="395.33" cy="137.2" r="1.8"/>
		<circle class="st0" cx="391.73" cy="229.59" r="1.8"/>
		<circle class="st0" cx="423.4" cy="168.82" r="1.8"/>
		<circle class="st0" cx="427" cy="248.71" r="1.8"/>
		<circle class="st0" cx="397.12" cy="269.71" r="1.8"/>
		<circle class="st0" cx="434.44" cy="205.11" r="1.8"/>
		<circle class="st0" cx="403.56" cy="226" r="1.8"/>
		<circle class="st0" cx="302.85" cy="216.68" r="1.8"/>
		<circle class="st0" cx="291.86" cy="184.99" r="1.8"/>
		<circle class="st0" cx="325.48" cy="236.86" r="1.8"/>
		<circle class="st0" cx="288.45" cy="152.14" r="1.8"/>
		<circle class="st0" cx="286.43" cy="220.64" r="1.8"/>
		<circle class="st0" cx="248.37" cy="150.31" r="1.8"/>
		<circle class="st0" cx="266.11" cy="118.38" r="1.8"/>
		<circle class="st0" cx="273.41" cy="189.89" r="1.8"/>
		<circle class="st0" cx="264.78" cy="169.55" r="1.8"/>
		<circle class="st0" cx="385.89" cy="240.73" r="1.8"/>
		<circle class="st0" cx="352.57" cy="236.81" r="1.8"/>
		<circle class="st0" cx="413.91" cy="242.52" r="1.8"/>
		<circle class="st0" cx="321.52" cy="225.55" r="1.8"/>
		<circle class="st0" cx="382.29" cy="257.23" r="1.8"/>
		<circle class="st0" cx="302.41" cy="260.83" r="1.8"/>
		<circle class="st0" cx="290" cy="234.91" r="1.8"/>
		<circle class="st0" cx="346.01" cy="268.27" r="1.8"/>
		<circle class="st0" cx="325.12" cy="247.49" r="1.8"/>
		<circle class="st0" cx="398.59" cy="113.23" r="1.8"/>
		<circle class="st0" cx="394.67" cy="146.55" r="1.8"/>
		<circle class="st0" cx="387.02" cy="85.21" r="1.8"/>
		<circle class="st0" cx="383.42" cy="177.6" r="1.8"/>
		<circle class="st0" cx="415.1" cy="116.83" r="1.8"/>
		<circle class="st0" cx="418.69" cy="196.71" r="1.8"/>
		<circle class="st0" cx="388.81" cy="217.72" r="1.8"/>
		<circle class="st0" cx="426.13" cy="153.11" r="1.8"/>
		<circle class="st0" cx="410.43" cy="175.8" r="1.8"/>
		<circle class="st0" cx="385.35" cy="165.15" r="1.8"/>
		<circle class="st0" cx="364.57" cy="138.82" r="1.8"/>
		<circle class="st0" cx="413.91" cy="186.27" r="1.8"/>
		<circle class="st0" cx="350.56" cy="108.91" r="1.8"/>
		<circle class="st0" cx="371.14" cy="174.28" r="1.8"/>
		<circle class="st0" cx="312.11" cy="120.33" r="1.8"/>
		<circle class="st0" cx="318.38" cy="84.35" r="1.8"/>
		<circle class="st0" cx="296.34" cy="124.86" r="1.8"/>
		<circle class="st0" cx="337.59" cy="126.96" r="1.8"/>
		<circle class="st0" cx="260.33" cy="158.69" r="1.8"/>
		<circle class="st0" cx="269.95" cy="113.13" r="1.8"/>
		<circle class="st0" cx="253.52" cy="137.94" r="1.8"/>
		<circle class="st0" cx="243.15" cy="130.39" r="1.8"/>
		<circle class="st0" cx="263.58" cy="100.67" r="1.8"/>
		<circle class="st0" cx="272.82" cy="180.56" r="1.8"/>
		<circle class="st0" cx="274.61" cy="136.96" r="1.8"/>
		<circle class="st0" cx="258.54" cy="148.34" r="1.8"/>
		<circle class="st0" cx="254.08" cy="174.37" r="1.8"/>
		<circle class="st0" cx="258.86" cy="128.57" r="1.8"/>
		<circle class="st0" cx="245.53" cy="105.85" r="1.8"/>
		<circle class="st0" cx="253.52" cy="108.63" r="1.8"/>
		<circle class="st0" cx="267.17" cy="251.07" r="1.8"/>
		<circle class="st0" cx="264.78" cy="197.33" r="1.8"/>
		<circle class="st0" cx="249.29" cy="218.22" r="1.8"/>
		<circle class="st0" cx="240.15" cy="212.63" r="1.8"/>
		<circle class="st0" cx="260.58" cy="182.91" r="1.8"/>
		<circle class="st0" cx="264.17" cy="262.8" r="1.8"/>
		<circle class="st0" cx="271.61" cy="219.2" r="1.8"/>
		<circle class="st0" cx="250.84" cy="240.09" r="1.8"/>
		<circle class="st0" cx="251.08" cy="256.62" r="1.8"/>
		<circle class="st0" cx="255.86" cy="210.81" r="1.8"/>
		<circle class="st0" cx="242.53" cy="188.1" r="1.8"/>
		<circle class="st0" cx="250.52" cy="190.87" r="1.8"/>
		<circle class="st0" cx="294.54" cy="246.91" r="1.8"/>
		<circle class="st0" cx="291.8" cy="266.79" r="1.8"/>
		<circle class="st0" cx="278.47" cy="244.08" r="1.8"/>
		<circle class="st0" cx="278.71" cy="260.6" r="1.8"/>
		<circle class="st0" cx="324" cy="280.42" r="1.8"/>
		<circle class="st0" cx="311.3" cy="264.29" r="1.8"/>
		<circle class="st0" cx="336.7" cy="271.24" r="1.8"/>
		<circle class="st0" cx="327.84" cy="118.21" r="1.8"/>
		<circle class="st0" cx="300.63" cy="115.81" r="1.8"/>
		<circle class="st0" cx="312.5" cy="92.3" r="1.8"/>
		<circle class="st0" cx="298.74" cy="101.46" r="1.8"/>
		<circle class="st0" cx="383.42" cy="108.91" r="1.8"/>
		<circle class="st0" cx="373.3" cy="107.07" r="1.8"/>
		<circle class="st0" cx="372.65" cy="116.41" r="1.8"/>
		<circle class="st0" cx="324.99" cy="259.58" r="1.8"/>
		<circle class="st0" cx="392.87" cy="200.34" r="1.8"/>
		<circle class="st0" cx="392.94" cy="188.1" r="1.8"/>
		<circle class="st0" cx="382.33" cy="192.08" r="1.8"/>
		<circle class="st0" cx="344.21" cy="190.9" r="1.8"/>
		<circle class="st0" cx="346.61" cy="224.2" r="1.8"/>
		<circle class="st0" cx="405.1" cy="256.38" r="1.8"/>
		<circle class="st0" cx="429.4" cy="222.4" r="1.8"/>
		<circle class="st0" cx="378.86" cy="283.89" r="1.8"/>
		<circle class="st0" cx="420.49" cy="211.32" r="1.8"/>
		<circle class="st0" cx="227.42" cy="187.3" r="1.8"/>
		<circle class="st0" cx="400.39" cy="154.55" r="1.8"/>
		<circle class="st0" cx="437.96" cy="171.31" r="1.8"/>
		<circle class="st0" cx="435.3" cy="119.41" r="1.8"/>
		<circle class="st0" cx="417.53" cy="161.09" r="1.8"/>
		<circle class="st0" cx="437.96" cy="131.37" r="1.8"/>
		<circle class="st0" cx="360.57" cy="156.89" r="1.8"/>
		<circle class="st0" cx="446.95" cy="199.39" r="1.8"/>
		<circle class="st0" cx="402.98" cy="240.09" r="1.8"/>
		<circle class="st0" cx="443.35" cy="225.86" r="1.8"/>
		<circle class="st0" cx="219.12" cy="165.15" r="1.8"/>
		<circle class="st0" cx="227.42" cy="200.51" r="1.8"/>
		<circle class="st0" cx="219.12" cy="148.51" r="1.8"/>
		<circle class="st0" cx="215.2" cy="181.83" r="1.8"/>
		<circle class="st0" cx="235.16" cy="151.31" r="1.8"/>
		<circle class="st0" cx="239.22" cy="232" r="1.8"/>
		<circle class="st0" cx="232.64" cy="172.48" r="1.8"/>
		<circle class="st0" cx="245.53" cy="267.91" r="1.8"/>
		<circle class="st0" cx="241.01" cy="246.6" r="1.8"/>
		<circle class="st0" cx="348.44" cy="283.71" r="1.8"/>
		<circle class="st0" cx="394.67" cy="285.68" r="1.8"/>
		<circle class="st0" cx="371.51" cy="303.47" r="1.8"/>
		<circle class="st0" cx="338" cy="302.08" r="1.8"/>
		<circle class="st0" cx="364.17" cy="292.67" r="1.8"/>
		<circle class="st0" cx="330.65" cy="295.54" r="1.8"/>
		<circle class="st0" cx="340.7" cy="289.98" r="1.8"/>
		<circle class="st0" cx="225.6" cy="241.89" r="1.8"/>
		<circle class="st0" cx="316.22" cy="298.43" r="1.8"/>
		<circle class="st0" cx="369.67" cy="82.54" r="1.8"/>
		<circle class="st0" cx="327.84" cy="74.53" r="1.8"/>
		<circle class="st0" cx="364.36" cy="112.45" r="1.8"/>
		<circle class="st0" cx="348.55" cy="82.87" r="1.8"/>
		<circle class="st0" cx="348.77" cy="118.93" r="1.8"/>
		<circle class="st0" cx="288.2" cy="68.24" r="1.8"/>
		<circle class="st0" cx="310.06" cy="61.26" r="1.8"/>
		<circle class="st0" cx="340.84" cy="66.04" r="1.8"/>
		<circle class="st0" cx="354.48" cy="70.04" r="1.8"/>
		<circle class="st0" cx="427.15" cy="136.58" r="1.8"/>
		<circle class="st0" cx="455.11" cy="166.05" r="1.8"/>
		<circle class="st0" cx="365.29" cy="97.27" r="1.8"/>
		<circle class="st0" cx="444.68" cy="148.38" r="1.8"/>
		<circle class="st0" cx="421.96" cy="104.45" r="1.8"/>
		<circle class="st0" cx="225.63" cy="135.41" r="1.8"/>
		<circle class="st0" cx="456.91" cy="189.89" r="1.8"/>
		<circle class="st0" cx="442.41" cy="247.43" r="1.8"/>
		<circle class="st0" cx="433.5" cy="236.35" r="1.8"/>
		<circle class="st0" cx="276.73" cy="274.11" r="1.8"/>
		<circle class="st0" cx="223.8" cy="220.61" r="1.8"/>
		<circle class="st0" cx="284.63" cy="289.08" r="1.8"/>
		<circle class="st0" cx="257.48" cy="282.81" r="1.8"/>
		<circle class="st0" cx="312.87" cy="281.54" r="1.8"/>
		<circle class="st0" cx="378.86" cy="267.91" r="1.8"/>
		<circle class="st0" cx="301.97" cy="286.98" r="1.8"/>
		<circle class="st0" cx="413.87" cy="266.59" r="1.8"/>
		<circle class="st0" cx="427.98" cy="264.84" r="1.8"/>
		<circle class="st0" cx="304.3" cy="72.28" r="1.8"/>
		<circle class="st0" cx="401" cy="78.38" r="1.8"/>
		<circle class="st0" cx="258.54" cy="92.3" r="1.8"/>
		<circle class="st0" cx="284.78" cy="80.37" r="1.8"/>
		<circle class="st0" cx="247.49" cy="117.61" r="1.8"/>
		<circle class="st0" cx="289.02" cy="90.29" r="1.8"/>
		<circle class="st0" cx="379.58" cy="72.6" r="1.8"/>
		<circle class="st0" cx="261.69" cy="85.03" r="1.8"/>
		<circle class="st0" cx="275.85" cy="83.72" r="1.8"/>
		<circle class="st0" cx="403.55" cy="99.31" r="1.8"/>
		<circle class="st0" cx="334.78" cy="88.49" r="1.8"/>
		<circle class="st0" cx="365.83" cy="67.83" r="1.8"/>
		<circle class="st0" cx="411.63" cy="130.39" r="1.8"/>
		<circle class="st0" cx="358.78" cy="205.11" r="1.8"/>
		<circle class="st0" cx="336.2" cy="153.93" r="1.8"/>
		<circle class="st0" cx="310.06" cy="159.29" r="1.8"/>
		<path class="st1" d="M291.86,184.99c0,0,11.5-2.8,33.13,19.1"/>
		<polyline class="st1" points="332.99,100.86 327.84,118.21 337.59,126.96 327.59,129.22 364.57,138.82 		"/>
		<polyline class="st1" points="245.53,105.85 253.52,108.63 266.11,118.38 258.86,128.57 243.15,130.39 253.52,137.94 
			269.95,146.95 258.54,148.34 277.73,168.19 		"/>
		<path class="st1" d="M397.12,269.71l-14.83-12.48c0,0-17.1,11.74-21.01-7.96"/>
		<polyline class="st1" points="426.13,153.11 423.4,168.82 406.9,165.23 385.35,165.15 374.93,158.03 371.14,174.28 383.42,177.6 
			392.94,188.1 392.87,200.34 384.89,207.73 382.33,192.08 		"/>
		<path class="st1" d="M342.73,209.52l-21.21,16.03l31.05,11.25l-27.09,0.05c0,0,9.18,11.62,11.21,34.39l11.74,12.46
			c2.43,17.24,23.07,19.76,23.07,19.76L338,302.08"/>
		<polyline class="st1" points="427,248.71 413.91,242.52 420.16,226.84 408.63,210.84 		"/>
		<polyline class="st1" points="260.33,158.69 264.78,169.55 277.73,168.19 		"/>
		<polyline class="st1" points="371.14,174.28 344.21,190.9 364.17,190.9 		"/>
		<polyline class="st1" points="250.84,240.09 268.15,209.52 271.61,219.2 286.43,220.64 286.93,199.36 310.62,204.75 		"/>
		<path class="st1" d="M405.36,226l-16.55-8.28l19.82-6.88l-5.65-12.29c0,0-3-19.31,7.45-22.74s17.18,7.44,17.18,7.44l6.84,21.87"/>
		<polyline class="st1" points="404.78,143.88 416.57,146.95 406.9,165.23 		"/>
		<path class="st1" d="M269.95,113.13c0,0,15.79,4.89,32.78,58.66"/>
		<polyline class="st1" points="215.2,181.83 227.42,200.51 223.8,220.61 240.15,212.63 249.29,218.22 255.86,210.81 264.78,197.33 
			260.58,182.91 272.82,180.56 291.86,184.99 		"/>
		<path class="st1" d="M225.6,241.89l15.42,4.72l10.07,10.01l13.09,6.19l3-11.74l11.29-6.99l-0.73-9.17c0,0,6.68-5.57,12.27,0
			c0,0,7.86,5.99,14.7-1.8"/>
		<path class="st1" d="M225.63,135.41c0,0,14.31-0.19,22.75,14.9l5.71,24.07l-3.56,16.5l14.26,6.46c0,0,8.7,11.5,22.15,2.03
			l4.93-14.37l10.87-13.2l-25-3.6l10.72-16.05l-13.84-15.18c0,0,20.45-10.83,14.11-23.42s-23.35-12.86-23.35-12.86"/>
		<path class="st1" d="M310.06,61.26l-21.85,6.98l-3.42,12.13l4.24,9.92l9.72,11.17l13.76-9.16c0,0,1.96,18.68-11.87,23.51
			l-4.29,9.05l2.8,18.5l12.97-23.03l4.82-6.79"/>
		<polyline class="st1" points="327.59,166.05 310.06,159.29 299.14,143.36 		"/>
		<line class="st1" x1="324.25" y1="187.3" x2="310.06" y2="159.29"/>
		<polyline class="st1" points="327.59,129.22 336.2,153.93 350.21,174.02 		"/>
		<polyline class="st1" points="352.57,236.81 346.61,224.2 358.78,205.11 		"/>
		<path class="st1" d="M364.57,138.82c0,0,5.92,11.82-3.99,18.08"/>
		<polyline class="st1" points="219.12,148.51 219.12,165.15 235.16,151.31 248.37,150.31 		"/>
		<polyline class="st1" points="227.42,187.3 232.64,172.48 242.53,188.1 250.52,190.87 		"/>
		<line class="st1" x1="239.22" y1="232" x2="241.01" y2="246.6"/>
		<polyline class="st1" points="245.53,267.91 257.48,282.81 276.73,274.11 264.17,262.8 		"/>
		<line class="st1" x1="312.87" y1="281.54" x2="311.3" y2="264.29"/>
		<polyline class="st1" points="346.01,268.27 338.49,248.71 352.57,236.81 361.28,249.27 388.81,217.72 363.08,221.45 
			391.73,229.59 385.89,240.73 392.08,247.84 		"/>
		<polyline class="st1" points="340.84,66.04 348.55,82.87 350.56,108.91 348.77,118.93 337.59,126.96 		"/>
		<polyline class="st1" points="401,78.38 403.55,99.31 415.1,116.83 398.59,113.23 383.42,108.91 		"/>
		<polyline class="st1" points="327.84,74.53 334.78,88.49 318.38,84.35 316.92,113.54 318.72,146.95 		"/>
		<line class="st1" x1="304.3" y1="72.28" x2="298.74" y2="101.46"/>
		<path class="st1" d="M261.69,85.03l14.16-1.31c0,0,10.84,9.03,12.88,29.82"/>
		<line class="st1" x1="247.49" y1="117.61" x2="253.52" y2="108.63"/>
		<path class="st1" d="M330.65,295.54l10.05-5.55l-16.7-9.56l-12.7-16.13c0,0-6.41,10.48-19.5,2.5l10.17,20.2
			c0,0,10.9,1.08,14.25,11.45s-38.58,6.6-31.58-9.35c7-15.95-5.92-28.48-5.92-28.48l15.83-13.69l7.87,13.91l22.58-1.24
			c0,0,8.68-4.82,0.13-12.09c-8.55-7.27-22.27-30.81-22.27-30.81"/>
		<polyline class="st1" points="435.3,119.41 411.63,130.39 395.33,137.2 		"/>
		<path class="st1" d="M421.96,104.45l5.19,32.12l17.53,11.8l-6.72,22.93l17.15-5.26c0,0,7.16,12.15,1.8,23.84l-9.96,9.5
			c0,0-11.79-13.95-28.25-2.68l-4.78-10.44l-3.49-10.47"/>
		<polyline class="st1" points="443.35,225.86 442.41,247.43 433.5,236.35 429.4,222.4 420.49,211.32 408.63,210.84 		"/>
		<polyline class="st1" points="394.67,285.68 378.86,283.89 364.17,292.67 364.03,275.29 378.86,267.91 382.29,257.23 
			390.61,247.62 		"/>
		<polyline class="st1" points="427.98,264.84 413.87,266.59 405.1,256.38 402.98,240.09 403.56,226 		"/>
		<polyline class="st1" points="354.48,70.04 365.83,67.83 369.67,82.54 365.29,97.27 364.36,112.45 359.48,118.93 351.25,145.59 		
			"/>
		<polyline class="st1" points="379.58,72.6 387.02,85.21 383.42,108.91 373.3,107.07 372.65,116.41 377.14,134.75 364.57,138.82 
			351.25,145.59 394.67,146.55 395.33,137.2 388.49,115.33 		"/>
		<line class="st1" x1="437.96" y1="131.37" x2="427.15" y2="136.58"/>
		<g>
			<circle class="st2" cx="318.03" cy="146.29" r="3.6"/>
			<circle class="st2" cx="326.9" cy="165.39" r="3.6"/>
			<circle class="st2" cx="374.24" cy="157.37" r="3.6"/>
			<circle class="st2" cx="350.56" cy="144.94" r="3.6"/>
			<circle class="st2" cx="323.56" cy="186.65" r="3.6"/>
			<circle class="st2" cx="363.48" cy="190.24" r="3.6"/>
			<circle class="st2" cx="302.04" cy="171.13" r="3.6"/>
			<circle class="st2" cx="349.52" cy="173.36" r="3.6"/>
			<circle class="st2" cx="342.04" cy="208.87" r="3.6"/>
			<circle class="st2" cx="309.93" cy="204.09" r="3.6"/>
			<circle class="st2" cx="362.39" cy="220.79" r="3.6"/>
		</g>
		<circle class="st2" cx="324.99" cy="204.09" r="3.6"/>
	</g>
	<g>
		<g>
			<g>
				<polyline class="st3" points="185.32,246.48 25.12,246.48 25.12,166.05 				"/>
				<g>
					<polygon class="st4" points="182.51,244.09 184.9,246.48 182.51,248.87 184.54,248.87 186.93,246.48 184.54,244.09 					"/>
				</g>
				<g>
					<polygon class="st4" points="27.5,168.85 25.12,166.46 22.73,168.85 22.73,166.82 25.12,164.44 27.5,166.82 					"/>
				</g>
			</g>
		</g>
		<g>
			<g>
				
					<rect x="54.68" y="159.38" transform="matrix(-1.836970e-16 1 -1 -1.836970e-16 245.8329 116.8631)" class="st5" width="19.6" height="43.94"/>
				<line class="st5" x1="125.51" y1="181.35" x2="86.45" y2="181.35"/>
				<line class="st5" x1="42.52" y1="181.1" x2="29.26" y2="181.1"/>
				<line class="st5" x1="69.02" y1="171.55" x2="69.02" y2="191.15"/>
			</g>
			<g>
				
					<rect x="100.96" y="188.02" transform="matrix(-1.836970e-16 1 -1 -1.836970e-16 315.5813 94.4863)" class="st6" width="19.17" height="34.02"/>
				<line class="st6" x1="165.76" y1="205.03" x2="127.56" y2="205.03"/>
				<line class="st6" x1="93.54" y1="204.79" x2="71.62" y2="204.79"/>
				<line class="st6" x1="103.01" y1="195.45" x2="103.01" y2="214.62"/>
			</g>
			<g>
				
					<rect x="135.69" y="211.38" transform="matrix(-1.836970e-16 1 -1 -1.836970e-16 375.0613 84.5079)" class="st7" width="19.17" height="36.8"/>
				<line class="st7" x1="182.78" y1="229.78" x2="163.68" y2="229.78"/>
				<line class="st7" x1="126.88" y1="229.54" x2="88.64" y2="229.54"/>
				<line class="st7" x1="141.69" y1="220.2" x2="141.69" y2="239.37"/>
			</g>
		</g>
		<g>
			<path class="st6" d="M186.89,59.97c-26.9,0-26.9,38.59-53.8,38.59c-26.9,0-26.9-38.59-53.8-38.59c-26.9,0-26.9,38.59-53.8,38.59"
				/>
			<path class="st6" d="M25.96,59.97c26.89,0,26.89,38.59,53.79,38.59c26.9,0,26.9-38.59,53.79-38.59c26.9,0,26.9,38.59,53.8,38.59"
				/>
			<path class="st6" d="M133.54,59.97c26.9,0,26.9,38.59,53.8,38.59"/>
			<path class="st6" d="M84.21,98.17"/>
			<path class="st7" d="M74.12,97.93c1.74,0.4,3.61,0.62,5.63,0.62c1.58,0,3.06-0.13,4.46-0.38"/>
		</g>
		<circle class="st3" cx="78.74" cy="96.58" r="10.85"/>
		<g>
			<line class="st6" x1="186.89" y1="132.73" x2="25.5" y2="132.73"/>
			<line class="st7" x1="115.23" y1="132.73" x2="95.45" y2="132.73"/>
		</g>
		<g>
			<line class="st6" x1="186.89" y1="126.34" x2="25.5" y2="126.34"/>
			<line class="st7" x1="115.23" y1="126.34" x2="95.45" y2="126.34"/>
		</g>
		<g>
			<g>
				<polyline class="st3" points="78.5,107.54 78.5,113.88 104.89,113.88 104.89,118.35 				"/>
				<g>
					<polygon class="st4" points="102.5,115.54 104.89,117.93 107.28,115.54 107.28,117.57 104.89,119.95 102.5,117.57 					"/>
				</g>
			</g>
		</g>
		<g>
			<g>
				<line class="st3" x1="105.34" y1="138.29" x2="105.34" y2="155.36"/>
				<g>
					<polygon class="st4" points="102.95,152.55 105.34,154.94 107.73,152.55 107.73,154.58 105.34,156.96 102.95,154.58 					"/>
				</g>
			</g>
		</g>
		<g>
			<g>
				<g>
					<path class="st6" d="M40.34,270.92c5.21,0,5.21,10.17,10.41,10.17c5.21,0,5.21-10.17,10.41-10.17
						c5.21,0,5.21,10.17,10.41,10.17c5.21,0,5.21-10.17,10.41-10.17"/>
				</g>
				<path class="st6" d="M40.58,281.08c5.21,0,5.21-10.17,10.41-10.17c5.21,0,5.21,10.17,10.41,10.17c5.21,0,5.21-10.17,10.41-10.17
					s5.21,10.17,10.41,10.17"/>
			</g>
			<g>
				<path class="st6" d="M60.02,295.1c5.21,0,5.21,10.17,10.41,10.17c5.21,0,5.21-10.17,10.41-10.17c5.21,0,5.21,10.17,10.41,10.17
					c5.21,0,5.21-10.17,10.41-10.17"/>
			</g>
			<path class="st6" d="M120.58,274.8c0.81,3.43-1.3,6.87-4.73,7.68c-1.88,0.45-3.77,0.01-5.22-1.04c-0.76,0.88-1.79,1.54-3.01,1.83
				c-3.07,0.73-6.15-1.17-6.88-4.24c-0.29-1.23-0.16-2.46,0.29-3.53c-0.89-0.76-1.56-1.8-1.85-3.03c-0.73-3.07,1.17-6.15,4.24-6.88
				c1.93-0.46,3.85,0.12,5.21,1.37c0.64-0.71,1.49-1.24,2.5-1.48c2.62-0.62,5.25,1,5.87,3.62c0.11,0.48,0.15,0.95,0.12,1.41
				C118.8,271.32,120.11,272.85,120.58,274.8z"/>
			<g>
				<circle class="st6" cx="120.77" cy="295.19" r="2.67"/>
				<circle class="st6" cx="133.92" cy="295.19" r="2.67"/>
				<circle class="st6" cx="147.07" cy="287.67" r="2.67"/>
				<line class="st6" x1="123.45" y1="295.19" x2="131.25" y2="295.19"/>
				<circle class="st6" cx="147.07" cy="302.59" r="2.67"/>
				<line class="st6" x1="136.25" y1="296.5" x2="144.74" y2="301.28"/>
				<line class="st6" x1="136.24" y1="293.87" x2="144.75" y2="289"/>
			</g>
			<g>
				<text transform="matrix(0.9598 0 0 1 146.1532 277.6752)" class="st8 st9 st10">CH</text>
				<text transform="matrix(0.5596 0 0 0.583 166.4935 282.3041)" class="st8 st9 st10">3</text>
			</g>
		</g>
	</g>
	<g>
		<g>
			
				<rect x="551.07" y="52.95" transform="matrix(-1.836970e-16 1 -1 -1.836970e-16 652.0005 -462.7585)" class="st8" width="12.62" height="83.35"/>
			
				<rect x="563.71" y="65.59" transform="matrix(-1.836970e-16 1 -1 -1.836970e-16 664.64 -475.3979)" class="st11" width="12.62" height="58.07"/>
			<g>
				<g>
					
						<rect x="700.65" y="79.46" transform="matrix(-1.836970e-16 1 -1 -1.836970e-16 801.5842 -612.3421)" class="st8" width="12.62" height="30.33"/>
					
						<rect x="686.62" y="93.49" transform="matrix(-1.836970e-16 1 -1 -1.836970e-16 787.5521 -598.31)" class="st12" width="12.62" height="2.27"/>
				</g>
				
					<rect x="705.59" y="84.39" transform="matrix(-1.836970e-16 1 -1 -1.836970e-16 806.5187 -617.2766)" class="st11" width="12.62" height="20.46"/>
			</g>
		</g>
		
			<rect x="513.52" y="90.5" transform="matrix(-1.836970e-16 1 -1 -1.836970e-16 614.4504 -425.2083)" class="st12" width="12.62" height="8.25"/>
		
			<rect x="494.23" y="58.01" transform="matrix(-1.836970e-16 1 -1 -1.836970e-16 573.7104 -427.3701)" class="st8" width="12.62" height="30.33"/>
		
			<rect x="485.42" y="66.81" transform="matrix(-1.836970e-16 1 -1 -1.836970e-16 564.9006 -418.5603)" class="st12" width="12.62" height="12.71"/>
		
			<rect x="507.97" y="71.75" transform="matrix(-1.836970e-16 1 -1 -1.836970e-16 587.4506 -441.1102)" class="st11" width="12.62" height="2.85"/>
		<g>
			
				<rect x="643.81" y="31.5" transform="matrix(-1.836970e-16 1 -1 -1.836970e-16 723.2941 -576.9537)" class="st8" width="12.62" height="83.35"/>
			
				<rect x="619.47" y="55.84" transform="matrix(-1.836970e-16 1 -1 -1.836970e-16 698.9522 -552.6119)" class="st12" width="12.62" height="34.66"/>
			
				<rect x="682.65" y="70.33" transform="matrix(-1.836970e-16 1 -1 -1.836970e-16 762.1315 -615.7912)" class="st11" width="12.62" height="5.67"/>
		</g>
		<g>
			
				<rect x="535.9" y="76.72" transform="matrix(-1.836970e-16 1 -1 -1.836970e-16 675.77 -408.6586)" class="st8" width="12.62" height="113.68"/>
			
				<rect x="494.23" y="118.39" transform="matrix(-1.836970e-16 1 -1 -1.836970e-16 634.096 -366.9846)" class="st8" width="12.62" height="30.33"/>
			
				<rect x="485.42" y="127.2" transform="matrix(-1.836970e-16 1 -1 -1.836970e-16 625.2863 -358.1748)" class="st12" width="12.62" height="12.71"/>
			
				<rect x="507.97" y="132.13" transform="matrix(-1.836970e-16 1 -1 -1.836970e-16 647.8361 -380.7247)" class="st11" width="12.62" height="2.85"/>
			
				<rect x="551.07" y="91.88" transform="matrix(-1.836970e-16 1 -1 -1.836970e-16 690.9352 -423.8238)" class="st8" width="12.62" height="83.35"/>
			
				<rect x="513.52" y="129.43" transform="matrix(-1.836970e-16 1 -1 -1.836970e-16 653.3851 -386.2737)" class="st12" width="12.62" height="8.25"/>
			
				<rect x="563.71" y="104.52" transform="matrix(-1.836970e-16 1 -1 -1.836970e-16 703.5747 -436.4633)" class="st11" width="12.62" height="58.07"/>
		</g>
		<g>
			
				<rect x="658.98" y="76.72" transform="matrix(-1.836970e-16 1 -1 -1.836970e-16 798.8448 -531.7333)" class="st8" width="12.62" height="113.68"/>
			<g>
				
					<rect x="643.81" y="91.88" transform="matrix(-1.836970e-16 1 -1 -1.836970e-16 783.6796 -516.5682)" class="st8" width="12.62" height="83.35"/>
				
					<rect x="619.47" y="116.22" transform="matrix(-1.836970e-16 1 -1 -1.836970e-16 759.3378 -492.2263)" class="st12" width="12.62" height="34.66"/>
				
					<rect x="682.65" y="130.72" transform="matrix(-1.836970e-16 1 -1 -1.836970e-16 822.5172 -555.4056)" class="st11" width="12.62" height="5.67"/>
			</g>
			<g>
				<g>
					
						<rect x="700.65" y="118.39" transform="matrix(-1.836970e-16 1 -1 -1.836970e-16 840.5189 -573.4074)" class="st8" width="12.62" height="30.33"/>
					
						<rect x="686.62" y="132.42" transform="matrix(-1.836970e-16 1 -1 -1.836970e-16 826.4868 -559.3753)" class="st12" width="12.62" height="2.27"/>
				</g>
				
					<rect x="705.59" y="123.33" transform="matrix(-1.836970e-16 1 -1 -1.836970e-16 845.4534 -578.3419)" class="st11" width="12.62" height="20.46"/>
			</g>
		</g>
		<path class="st13" d="M515.71,103.12v0.67c0,0.42,0.78,0.76,1.75,0.76h79.85c0.96,0,1.75-0.34,1.75-0.76v-0.67"/>
		<path class="st13" d="M608.45,81.65v0.67c0,0.42,0.78,0.76,1.75,0.76h79.85c0.96,0,1.75-0.34,1.75-0.76v-0.67"/>
		<path class="st13" d="M485.38,81.65v0.67c0,0.42,0.78,0.76,1.75,0.76h26.84c0.96,0,1.75-0.34,1.75-0.76v-0.67"/>
		<path class="st13" d="M691.8,103.12v0.67c0,0.42,0.78,0.76,1.75,0.76h26.84c0.96,0,1.75-0.34,1.75-0.76v-0.67"/>
		<g>
			<g>
				<line class="st13" x1="500.54" y1="83.11" x2="500.54" y2="122.55"/>
				<g>
					<polygon class="st8" points="498.4,120.03 500.54,122.17 502.68,120.03 502.68,121.85 500.54,123.99 498.4,121.85 					"/>
				</g>
			</g>
		</g>
		<g>
			<g>
				<line class="st13" x1="557.38" y1="104.89" x2="557.38" y2="122.55"/>
				<g>
					<polygon class="st8" points="555.24,120.03 557.38,122.17 559.52,120.03 559.52,121.85 557.38,123.99 555.24,121.85 					"/>
				</g>
			</g>
		</g>
		<g>
			<g>
				<line class="st13" x1="650.12" y1="83.11" x2="650.12" y2="122.55"/>
				<g>
					<polygon class="st8" points="647.98,120.03 650.12,122.17 652.27,120.03 652.27,121.85 650.12,123.99 647.98,121.85 					"/>
				</g>
			</g>
		</g>
		<g>
			<g>
				<line class="st13" x1="706.96" y1="104.89" x2="706.96" y2="122.55"/>
				<g>
					<polygon class="st8" points="704.82,120.03 706.96,122.17 709.11,120.03 709.11,121.85 706.96,123.99 704.82,121.85 					"/>
				</g>
			</g>
		</g>
	</g>
	<g>
		<line class="st14" x1="547.89" y1="169.26" x2="566.31" y2="169.26"/>
		<polyline class="st14" points="566.31,194.52 547.89,194.52 547.89,182.76 		"/>
		<polyline class="st14" points="557.1,169.26 557.1,182.76 547.89,182.76 518.41,182.76 518.41,194.52 500,194.52 		"/>
		<polyline class="st14" points="509.58,194.52 509.58,217.54 491.16,217.54 		"/>
		<polyline class="st14" points="557.1,194.52 557.1,206.03 534.56,206.03 534.56,217.54 552.97,217.54 		"/>
		<line class="st14" x1="652.94" y1="169.13" x2="671.35" y2="169.13"/>
		<polyline class="st14" points="643.73,194.52 662.15,194.52 662.15,169.26 		"/>
		<polyline class="st14" points="652.94,194.52 652.94,206.03 594.54,206.03 594.54,217.54 576.13,217.54 576.13,206.03 
			557.1,206.03 		"/>
		<polyline class="st14" points="662.15,181.89 688.16,181.89 688.16,194.52 706.58,194.52 		"/>
		<polyline class="st14" points="652.94,206.03 652.94,217.54 671.35,217.54 		"/>
		<polyline class="st14" points="697.93,194.52 697.93,217.54 716.34,217.54 		"/>
		<path class="st14" d="M662.43,217.54"/>
		<path class="st14" d="M707.13,217.54"/>
		<g>
			<rect x="542.81" y="164.18" class="st15" width="10.17" height="10.17"/>
			<path class="st8" d="M552.27,164.88v8.76h-8.76v-8.76H552.27 M553.68,163.48h-11.57v11.57h11.57V163.48L553.68,163.48z"/>
		</g>
		<g>
			<circle class="st15" cx="566.31" cy="169.26" r="5.08"/>
			<path class="st8" d="M566.31,164.88c2.42,0,4.38,1.97,4.38,4.38c0,2.42-1.97,4.38-4.38,4.38s-4.38-1.97-4.38-4.38
				C561.93,166.85,563.89,164.88,566.31,164.88 M566.31,163.48c-3.2,0-5.79,2.59-5.79,5.79s2.59,5.79,5.79,5.79
				c3.19,0,5.78-2.59,5.78-5.79S569.5,163.48,566.31,163.48L566.31,163.48z"/>
		</g>
		<g>
			<rect x="647.85" y="164.05" class="st15" width="10.17" height="10.17"/>
			<path class="st8" d="M657.32,164.75v8.76h-8.76v-8.76H657.32 M658.72,163.35h-11.57v11.57h11.57V163.35L658.72,163.35z"/>
		</g>
		<g>
			<path class="st15" d="M671.35,174.21c-2.8,0-5.08-2.28-5.08-5.08s2.28-5.08,5.08-5.08s5.08,2.28,5.08,5.08
				S674.16,174.21,671.35,174.21z"/>
			<path class="st8" d="M671.35,164.75c2.42,0,4.38,1.97,4.38,4.38c0,2.42-1.97,4.38-4.38,4.38s-4.38-1.97-4.38-4.38
				C666.97,166.72,668.94,164.75,671.35,164.75 M671.35,163.35c-3.2,0-5.79,2.59-5.79,5.79s2.59,5.79,5.79,5.79
				c3.19,0,5.78-2.59,5.78-5.79S674.55,163.35,671.35,163.35L671.35,163.35z"/>
		</g>
		<g>
			<g>
				<rect x="494.92" y="189.44" class="st15" width="10.17" height="10.17"/>
				<path class="st8" d="M504.38,190.14v8.76h-8.76v-8.76H504.38 M505.78,188.73h-11.57v11.57h11.57V188.73L505.78,188.73z"/>
			</g>
			<g>
				<circle class="st15" cx="518.41" cy="194.52" r="5.08"/>
				<path class="st8" d="M518.41,190.14c2.42,0,4.38,1.97,4.38,4.38s-1.97,4.38-4.38,4.38s-4.38-1.97-4.38-4.38
					S516,190.14,518.41,190.14 M518.41,188.73c-3.2,0-5.79,2.59-5.79,5.79s2.59,5.79,5.79,5.79c3.19,0,5.78-2.59,5.78-5.79
					S521.61,188.73,518.41,188.73L518.41,188.73z"/>
			</g>
			<g>
				<rect x="542.81" y="189.44" class="st15" width="10.17" height="10.17"/>
				<path class="st8" d="M552.27,190.14v8.76h-8.76v-8.76H552.27 M553.68,188.73h-11.57v11.57h11.57V188.73L553.68,188.73z"/>
			</g>
			<g>
				<circle class="st15" cx="566.31" cy="194.52" r="5.08"/>
				<path class="st8" d="M566.31,190.14c2.42,0,4.38,1.97,4.38,4.38s-1.97,4.38-4.38,4.38s-4.38-1.97-4.38-4.38
					S563.89,190.14,566.31,190.14 M566.31,188.73c-3.2,0-5.79,2.59-5.79,5.79s2.59,5.79,5.79,5.79c3.19,0,5.78-2.59,5.78-5.79
					S569.5,188.73,566.31,188.73L566.31,188.73z"/>
			</g>
		</g>
		<g>
			<rect x="529.47" y="212.46" class="st15" width="10.17" height="10.17"/>
			<path class="st8" d="M538.94,213.16v8.76h-8.76v-8.76H538.94 M540.34,211.75h-11.57v11.57h11.57V211.75L540.34,211.75z"/>
		</g>
		<g>
			<path class="st15" d="M552.97,222.62c-2.8,0-5.08-2.28-5.08-5.08s2.28-5.08,5.08-5.08s5.08,2.28,5.08,5.08
				S555.78,222.62,552.97,222.62z"/>
			<path class="st8" d="M552.97,213.16c2.42,0,4.38,1.97,4.38,4.38s-1.97,4.38-4.38,4.38s-4.38-1.97-4.38-4.38
				S550.56,213.16,552.97,213.16 M552.97,211.75c-3.2,0-5.79,2.59-5.79,5.79c0,3.19,2.59,5.79,5.79,5.79c3.19,0,5.79-2.59,5.79-5.79
				C558.76,214.34,556.17,211.75,552.97,211.75L552.97,211.75z"/>
		</g>
		<g>
			<rect x="486.08" y="212.46" class="st15" width="10.17" height="10.17"/>
			<path class="st8" d="M495.54,213.16v8.76h-8.76v-8.76H495.54 M496.95,211.75h-11.57v11.57h11.57V211.75L496.95,211.75z"/>
		</g>
		<g>
			<path class="st15" d="M509.58,222.62c-2.8,0-5.08-2.28-5.08-5.08s2.28-5.08,5.08-5.08s5.08,2.28,5.08,5.08
				S512.38,222.62,509.58,222.62z"/>
			<path class="st8" d="M509.58,213.16c2.42,0,4.38,1.97,4.38,4.38s-1.97,4.38-4.38,4.38s-4.38-1.97-4.38-4.38
				S507.16,213.16,509.58,213.16 M509.58,211.75c-3.2,0-5.79,2.59-5.79,5.79c0,3.19,2.59,5.79,5.79,5.79c3.19,0,5.78-2.59,5.78-5.79
				C515.36,214.34,512.77,211.75,509.58,211.75L509.58,211.75z"/>
		</g>
		<g>
			<rect x="692.84" y="212.46" class="st15" width="10.17" height="10.17"/>
			<path class="st8" d="M702.31,213.16v8.76h-8.76v-8.76H702.31 M703.71,211.75h-11.57v11.57h11.57V211.75L703.71,211.75z"/>
		</g>
		<g>
			<path class="st15" d="M716.34,222.62c-2.8,0-5.08-2.28-5.08-5.08s2.28-5.08,5.08-5.08s5.08,2.28,5.08,5.08
				S719.15,222.62,716.34,222.62z"/>
			<path class="st8" d="M716.34,213.16c2.42,0,4.38,1.97,4.38,4.38s-1.97,4.38-4.38,4.38s-4.38-1.97-4.38-4.38
				S713.93,213.16,716.34,213.16 M716.34,211.75c-3.19,0-5.78,2.59-5.78,5.79c0,3.19,2.59,5.79,5.78,5.79c3.2,0,5.79-2.59,5.79-5.79
				C722.13,214.34,719.54,211.75,716.34,211.75L716.34,211.75z"/>
		</g>
		<g>
			<rect x="647.85" y="212.46" class="st15" width="10.17" height="10.17"/>
			<path class="st8" d="M657.32,213.16v8.76h-8.76v-8.76H657.32 M658.72,211.75h-11.57v11.57h11.57V211.75L658.72,211.75z"/>
		</g>
		<g>
			<path class="st15" d="M671.35,222.62c-2.8,0-5.08-2.28-5.08-5.08s2.28-5.08,5.08-5.08s5.08,2.28,5.08,5.08
				S674.16,222.62,671.35,222.62z"/>
			<path class="st8" d="M671.35,213.16c2.42,0,4.38,1.97,4.38,4.38s-1.97,4.38-4.38,4.38s-4.38-1.97-4.38-4.38
				S668.94,213.16,671.35,213.16 M671.35,211.75c-3.2,0-5.79,2.59-5.79,5.79c0,3.19,2.59,5.79,5.79,5.79c3.19,0,5.78-2.59,5.78-5.79
				C677.14,214.34,674.55,211.75,671.35,211.75L671.35,211.75z"/>
		</g>
		<g>
			<rect x="571.04" y="212.46" class="st15" width="10.17" height="10.17"/>
			<path class="st8" d="M580.51,213.16v8.76h-8.76v-8.76H580.51 M581.91,211.75h-11.57v11.57h11.57V211.75L581.91,211.75z"/>
		</g>
		<g>
			<path class="st15" d="M594.54,222.62c-2.8,0-5.08-2.28-5.08-5.08s2.28-5.08,5.08-5.08s5.08,2.28,5.08,5.08
				S597.35,222.62,594.54,222.62z"/>
			<path class="st8" d="M594.54,213.16c2.42,0,4.38,1.97,4.38,4.38s-1.97,4.38-4.38,4.38s-4.38-1.97-4.38-4.38
				S592.13,213.16,594.54,213.16 M594.54,211.75c-3.19,0-5.78,2.59-5.78,5.79c0,3.19,2.59,5.79,5.78,5.79c3.2,0,5.79-2.59,5.79-5.79
				C600.33,214.34,597.74,211.75,594.54,211.75L594.54,211.75z"/>
		</g>
		<g>
			<rect x="638.65" y="189.44" class="st15" width="10.17" height="10.17"/>
			<path class="st8" d="M648.11,190.14v8.76h-8.76v-8.76H648.11 M649.51,188.73h-11.57v11.57h11.57V188.73L649.51,188.73z"/>
		</g>
		<g>
			<circle class="st15" cx="662.15" cy="194.52" r="5.08"/>
			<path class="st8" d="M662.15,190.14c2.42,0,4.38,1.97,4.38,4.38s-1.97,4.38-4.38,4.38s-4.38-1.97-4.38-4.38
				S659.73,190.14,662.15,190.14 M662.15,188.73c-3.2,0-5.79,2.59-5.79,5.79s2.59,5.79,5.79,5.79c3.19,0,5.78-2.59,5.78-5.79
				S665.34,188.73,662.15,188.73L662.15,188.73z"/>
		</g>
		<g>
			<rect x="683.08" y="189.44" class="st15" width="10.17" height="10.17"/>
			<path class="st8" d="M692.54,190.14v8.76h-8.76v-8.76H692.54 M693.95,188.73h-11.57v11.57h11.57V188.73L693.95,188.73z"/>
		</g>
		<g>
			<circle class="st15" cx="706.58" cy="194.52" r="5.08"/>
			<path class="st8" d="M706.58,190.14c2.42,0,4.38,1.97,4.38,4.38s-1.97,4.38-4.38,4.38s-4.38-1.97-4.38-4.38
				S704.16,190.14,706.58,190.14 M706.58,188.73c-3.2,0-5.79,2.59-5.79,5.79s2.59,5.79,5.79,5.79c3.19,0,5.78-2.59,5.78-5.79
				S709.77,188.73,706.58,188.73L706.58,188.73z"/>
		</g>
	</g>
	<g>
		<g>
			<g>
				<polyline class="st3" points="504.47,248.41 504.47,304.38 555.89,304.38 				"/>
				<g>
					<polygon class="st4" points="502.09,251.22 504.47,248.83 506.86,251.22 506.86,249.19 504.47,246.8 502.09,249.19 					"/>
				</g>
				<g>
					<polygon class="st4" points="553.09,306.77 555.48,304.38 553.09,302 555.12,302 557.5,304.38 555.12,306.77 					"/>
				</g>
			</g>
		</g>
		<g>
			<line class="st3" x1="522.31" y1="274.58" x2="522.31" y2="298.12"/>
			<rect x="517.65" y="280.1" class="st11" width="9.33" height="12.49"/>
			<line class="st3" x1="539.66" y1="253.07" x2="539.66" y2="281.82"/>
			<rect x="535" y="259.82" class="st8" width="9.33" height="15.26"/>
		</g>
		<g>
			<g>
				<polyline class="st3" points="581.54,248.41 581.54,304.38 632.96,304.38 				"/>
				<g>
					<polygon class="st4" points="579.15,251.22 581.54,248.83 583.93,251.22 583.93,249.19 581.54,246.8 579.15,249.19 					"/>
				</g>
				<g>
					<polygon class="st4" points="630.15,306.77 632.54,304.38 630.15,302 632.18,302 634.57,304.38 632.18,306.77 					"/>
				</g>
			</g>
		</g>
		<g>
			<line class="st3" x1="599.38" y1="252.88" x2="599.38" y2="276.42"/>
			<rect x="594.71" y="258.41" class="st11" width="9.33" height="12.49"/>
			<line class="st3" x1="616.73" y1="269.55" x2="616.73" y2="298.31"/>
			<rect x="612.06" y="276.3" class="st8" width="9.33" height="15.26"/>
		</g>
		<g>
			<g>
				<path class="st8" d="M497.56,270.42l1.76-0.91l-1.28-2.47c-1.15-2.21-3.41-3.58-5.9-3.58c-2.49,0-4.75,1.37-5.9,3.58l-1.28,2.47
					l1.76,0.91l1.28-2.47c0.12-0.23,0.26-0.45,0.41-0.65l-1.41,8.36h1.92v2.73h1.98v-2.73h2.5v2.73h1.98v-2.73h1.92l-1.41-8.36
					c0.15,0.2,0.29,0.42,0.41,0.65L497.56,270.42z M493.59,265.66l1.36,8.02h-5.61l1.36-8.02c0.46-0.15,0.95-0.23,1.45-0.23
					C492.64,265.43,493.13,265.51,493.59,265.66L493.59,265.66z"/>
				<path class="st8" d="M492.14,262.42c2.15,0,3.9-1.75,3.9-3.9c0-2.15-1.75-3.9-3.9-3.9c-2.15,0-3.9,1.75-3.9,3.9
					C488.24,260.67,489.99,262.42,492.14,262.42z M492.14,256.6c1.06,0,1.92,0.86,1.92,1.92c0,1.06-0.86,1.92-1.92,1.92
					c-1.06,0-1.92-0.86-1.92-1.92C490.22,257.46,491.08,256.6,492.14,256.6z"/>
			</g>
			<g>
				<path class="st11" d="M492.14,288.25c-1.39,0-2.64,0.76-3.28,1.99l-0.71,1.37l0.98,0.51l0.55-1.07v5.51h1.1v-2.32h2.72v2.32h1.1
					v-5.51l0.55,1.07l0.98-0.51l-0.71-1.37C494.78,289.02,493.52,288.25,492.14,288.25L492.14,288.25z M490.78,289.74
					c0.4-0.25,0.87-0.38,1.36-0.38c0.49,0,0.96,0.14,1.36,0.38v3.41h-2.72V289.74z"/>
				<path class="st11" d="M492.14,287.68c1.2,0,2.17-0.97,2.17-2.17s-0.97-2.17-2.17-2.17c-1.2,0-2.17,0.97-2.17,2.17
					S490.94,287.68,492.14,287.68z M492.14,284.44c0.59,0,1.07,0.48,1.07,1.07s-0.48,1.07-1.07,1.07c-0.59,0-1.07-0.48-1.07-1.07
					S491.55,284.44,492.14,284.44z"/>
			</g>
		</g>
		<g>
			<g>
				<path class="st8" d="M572.58,292.13l0.98-0.51l-0.71-1.37c-0.64-1.23-1.9-1.99-3.28-1.99c-1.39,0-2.64,0.76-3.28,1.99
					l-0.71,1.37l0.98,0.51l0.71-1.37c0.07-0.13,0.14-0.25,0.23-0.36l-0.79,4.65h1.07v1.52h1.1v-1.52h1.39v1.52h1.1v-1.52h1.07
					l-0.79-4.65c0.08,0.11,0.16,0.23,0.23,0.36L572.58,292.13z M570.37,289.48l0.75,4.46H568l0.75-4.46
					c0.26-0.08,0.53-0.13,0.81-0.13C569.84,289.36,570.12,289.4,570.37,289.48L570.37,289.48z"/>
				<path class="st8" d="M569.57,287.68c1.2,0,2.17-0.97,2.17-2.17s-0.97-2.17-2.17-2.17c-1.2,0-2.17,0.97-2.17,2.17
					S568.37,287.68,569.57,287.68z M569.57,284.44c0.59,0,1.07,0.48,1.07,1.07s-0.48,1.07-1.07,1.07c-0.59,0-1.07-0.48-1.07-1.07
					S568.98,284.44,569.57,284.44z"/>
			</g>
			<g>
				<path class="st11" d="M569.57,263.45c-2.49,0-4.75,1.37-5.9,3.58l-1.28,2.47l1.76,0.91l1-1.92v9.9h1.98v-4.17h4.89v4.17h1.98
					v-9.9l1,1.92l1.76-0.91l-1.28-2.47C574.32,264.82,572.06,263.45,569.57,263.45L569.57,263.45z M567.12,266.12
					c0.72-0.44,1.56-0.69,2.45-0.69c0.88,0,1.73,0.25,2.45,0.69v6.13h-4.89V266.12z"/>
				<path class="st11" d="M569.57,262.42c2.15,0,3.9-1.75,3.9-3.9s-1.75-3.9-3.9-3.9c-2.15,0-3.9,1.75-3.9,3.9
					S567.41,262.42,569.57,262.42z M569.57,256.6c1.06,0,1.92,0.86,1.92,1.92s-0.86,1.92-1.92,1.92s-1.92-0.86-1.92-1.92
					S568.51,256.6,569.57,256.6z"/>
			</g>
		</g>
		<g>
			<g>
				<g>
					<path class="st11" d="M657.23,248.35c1.28,0,2.4,0.9,2.66,2.15l4.19,19.58c0.43,2.02,2.24,3.48,4.31,3.48
						c2.11,0,3.93-1.5,4.33-3.58l3.55-19.12c0.28-1.45,1.55-2.5,3.03-2.5c0.25,0,0.5,0.03,0.74,0.09c0.81,0.2,1.49,0.7,1.92,1.41
						c0.42,0.71,0.54,1.54,0.33,2.35l-4.6,18.32c-0.86,3.31-0.89,6.82-0.09,10.14l4.73,19.98c0.3,1.26-0.39,2.56-1.61,3.02
						c-0.3,0.11-0.6,0.17-0.91,0.17c-1.22,0-2.26-0.82-2.53-2l-4.33-19.13c-0.47-2.04-2.27-3.47-4.36-3.47
						c-2.11,0-3.91,1.44-4.37,3.5l-4.23,18.98c-0.28,1.23-1.39,2.12-2.66,2.12c-0.23,0-0.45-0.03-0.68-0.09
						c-1.43-0.36-2.32-1.83-1.98-3.26l4.61-19.39c0.76-3.19,0.76-6.55,0-9.74l-4.72-19.69c-0.17-0.72-0.05-1.46,0.35-2.09
						c0.4-0.63,1.03-1.06,1.76-1.2C656.86,248.37,657.05,248.35,657.23,248.35 M657.23,246.94c-0.27,0-0.54,0.03-0.82,0.08
						c-2.3,0.46-3.75,2.73-3.21,5l4.72,19.69c0.72,2.99,0.72,6.1,0,9.08l-4.61,19.39c-0.52,2.19,0.81,4.39,3,4.95
						c0.34,0.09,0.69,0.13,1.02,0.13c1.89,0,3.6-1.3,4.03-3.22l4.23-18.98c0.31-1.4,1.56-2.39,3-2.39c1.43,0,2.67,0.98,2.99,2.37
						l4.33,19.12c0.43,1.87,2.1,3.1,3.9,3.1c0.47,0,0.94-0.08,1.41-0.26c1.89-0.71,2.96-2.71,2.49-4.67l-4.73-19.98
						c-0.75-3.11-0.72-6.36,0.08-9.47l4.61-18.33c0.63-2.42-0.85-4.88-3.28-5.48c-0.36-0.09-0.72-0.13-1.08-0.13
						c-2.1,0-4,1.48-4.41,3.64l-3.55,19.13c-0.27,1.41-1.51,2.43-2.94,2.43c-1.41,0-2.64-0.99-2.93-2.37l-4.19-19.58
						C660.85,248.27,659.14,246.94,657.23,246.94L657.23,246.94z"/>
				</g>
			</g>
			<g>
				<g>
					<path class="st11" d="M695.55,248.35c1.28,0,2.4,0.9,2.66,2.15l4.19,19.58c0.43,2.02,2.24,3.48,4.31,3.48
						c2.11,0,3.93-1.5,4.33-3.58l3.55-19.12c0.28-1.45,1.55-2.5,3.03-2.5c0.25,0,0.5,0.03,0.74,0.09c0.81,0.2,1.49,0.7,1.92,1.41
						c0.42,0.71,0.54,1.54,0.33,2.35l-4.6,18.32c-0.86,3.31-0.89,6.82-0.09,10.14l4.73,19.98c0.3,1.26-0.39,2.56-1.61,3.02
						c-0.3,0.11-0.6,0.17-0.91,0.17c-1.22,0-2.26-0.82-2.53-2l-4.33-19.13c-0.47-2.04-2.27-3.47-4.36-3.47
						c-2.11,0-3.91,1.44-4.37,3.5l-4.23,18.98c-0.28,1.23-1.39,2.12-2.66,2.12c-0.23,0-0.45-0.03-0.68-0.09
						c-1.43-0.36-2.32-1.83-1.98-3.26l4.61-19.39c0.76-3.19,0.76-6.55,0-9.74l-4.72-19.69c-0.17-0.72-0.05-1.46,0.35-2.09
						c0.4-0.63,1.03-1.06,1.76-1.2C695.18,248.37,695.37,248.35,695.55,248.35 M695.55,246.94c-0.27,0-0.54,0.03-0.82,0.08
						c-2.3,0.46-3.75,2.73-3.21,5l4.72,19.69c0.72,2.99,0.72,6.1,0,9.08l-4.61,19.39c-0.52,2.19,0.81,4.39,3,4.95
						c0.34,0.09,0.69,0.13,1.02,0.13c1.89,0,3.6-1.3,4.03-3.22l4.23-18.98c0.31-1.4,1.56-2.39,3-2.39c1.43,0,2.67,0.98,2.99,2.37
						l4.33,19.12c0.43,1.87,2.1,3.1,3.9,3.1c0.47,0,0.94-0.08,1.41-0.26c1.89-0.71,2.96-2.71,2.49-4.67l-4.73-19.98
						c-0.75-3.11-0.72-6.36,0.08-9.47l4.61-18.33c0.63-2.42-0.85-4.88-3.28-5.48c-0.36-0.09-0.72-0.13-1.08-0.13
						c-2.1,0-4,1.48-4.41,3.64l-3.55,19.13c-0.27,1.41-1.51,2.43-2.94,2.43c-1.41,0-2.64-0.99-2.93-2.37l-4.19-19.58
						C699.17,248.27,697.46,246.94,695.55,246.94L695.55,246.94z"/>
				</g>
			</g>
		</g>
	</g>
	<g>
		<path class="st8" d="M222.59,342.95h-98.73c-6.44,0-11.66-5.22-11.66-11.66v0c0-6.44,5.22-11.66,11.66-11.66h98.73
			c6.44,0,11.66,5.22,11.66,11.66v0C234.25,337.73,229.03,342.95,222.59,342.95z"/>
		<text transform="matrix(1 0 0 1 132.8958 335.31)" class="st15 st16 st17">Multi-omics</text>
		<path class="st8" d="M664.76,342.95H542.33c-6.44,0-11.66-5.22-11.66-11.66v0c0-6.44,5.22-11.66,11.66-11.66h122.43
			c6.44,0,11.66,5.22,11.66,11.66v0C676.42,337.73,671.2,342.95,664.76,342.95z"/>
		<text transform="matrix(1 0 0 1 550.7088 335.31)" class="st15 st16 st17">Sex differences</text>
	</g>
	<g>
		<path class="st11" d="M175.86,45.1H36.59c-6.44,0-11.66-5.22-11.66-11.66v0c0-6.44,5.22-11.66,11.66-11.66h139.26
			c6.44,0,11.66,5.22,11.66,11.66v0C187.52,39.88,182.3,45.1,175.86,45.1z"/>
		<text transform="matrix(1 0 0 1 41.3016 37.4618)" class="st15 st16 st17">Statistical genetics</text>
		<path class="st11" d="M680.94,45.1H526.15c-6.05,0-10.95-4.9-10.95-10.95v-1.42c0-6.05,4.9-10.95,10.95-10.95h154.79
			c6.05,0,10.95,4.9,10.95,10.95v1.42C691.89,40.2,686.99,45.1,680.94,45.1z"/>
		<text transform="matrix(1 0 0 1 536.41 37.4618)" class="st15 st16 st17">Population genetics</text>
	</g>
	<path class="st11" d="M457.91,260.45h-119.4c-6.44,0-11.66-5.22-11.66-11.66v0c0-6.44,5.22-11.66,11.66-11.66h119.4
		c6.44,0,11.66,5.22,11.66,11.66v0C469.57,255.23,464.35,260.45,457.91,260.45z"/>
	<text transform="matrix(1 0 0 1 348.1707 252.8129)" class="st15 st16 st17">Bioinformatics</text>
	<path class="st8" d="M311.96,99.97h-92.79c-6.44,0-11.66-5.22-11.66-11.66v0c0-6.44,5.22-11.66,11.66-11.66h92.79
		c6.44,0,11.66,5.22,11.66,11.66v0C323.62,94.75,318.4,99.97,311.96,99.97z"/>
	<text transform="matrix(1 0 0 1 219.5067 92.3314)" class="st15 st16 st17">Mental health</text>
	<path class="st18" d="M745.43,15.22v335.92c0,6.99-5.66,12.65-12.65,12.65H393.99l-20.46,20.46l-20.45-20.46H14.24
		c-6.99,0-12.65-5.66-12.65-12.65V15.22c0-6.99,5.66-12.65,12.65-12.65h718.53C739.76,2.57,745.43,8.23,745.43,15.22z"/>
	<path class="st8" d="M740.76,508.2H6.25c-3.43,0-5.68-1.84-4.21-3.43l37.66-40.7c0.77-0.84,2.41-1.37,4.21-1.37H703.1
		c1.8,0,3.44,0.53,4.21,1.37l37.66,40.7C746.44,506.36,744.19,508.2,740.76,508.2z"/>
	<g>
		<path class="st19" d="M540.52,460.41c-4.35-2.27-12.89-1.42-10.97,4.73v0c0.37,0.81,3.84,4.49,4.36,6.45
			c0.66,2.46-1.74,8.5-1.74,8.5s-2.09,1.3-1.14,2.31c0.07,0.08,0.18,0.12,0.29,0.12h3.88c0.22,0,0.42-0.09,0.57-0.25
			c0.99-1.03,4.09-5.13,5.3-8.54c0.64-1.78,1.53-6.54,1.53-6.54C543.27,465.52,542.09,461.23,540.52,460.41z"/>
		<path class="st19" d="M497.35,461.6c3.2,2.79,2.68,7.06,0.83,9.77c-3.56,6.22-7.79,10.08-8.81,10.95
			c-0.14,0.12-0.33,0.19-0.51,0.19h-3.77c-0.21,0-0.38-0.16-0.39-0.36c-0.04-0.57,0.12-1.68,1.75-2.14c1.1-2.25,1.88-4.64,2.3-7.11
			l1.97-12.19C492.91,459.65,495.52,460,497.35,461.6z"/>
		<g>
			<path class="st20" d="M561.71,409.87c-2.36,3.74-0.97,9.02-1.12,14.73c-0.2,7.62-6.32,14.35-10.7,13.43
				c-13.89-3.38-43.58,4.4-53.82-1.22c-3.07-1.68-3.24-5.45-10.22-9.96c-0.86-0.55-1.99,0.18-1.99,1.2l-0.75,3.31
				c0,0-5.33,3.37-5.55,8.01c-0.07,1.38-2.6,1.91-2.59,4.1c0.11,2.37,2.41,5.14,7.18,5.87c2.88,0.45,5.27,2.47,6.2,5.23
				c0.68,2.09,1.47,4.13,2.38,6.13c0.42,0.9,0.87,1.77,1.36,2.61c2.15,3.66,4.25,5.93,6.1,8.05c2.21,2.54,4.05,4.9,5.18,9.19
				c0,0-1.06,0.57-0.95,1.61c0.02,0.2,0.19,0.35,0.39,0.35h3.93c0.14,0,1.75-1.48,2.15-3.61c0.54-2.9-0.23-8.28-1.37-12.46
				c-0.09-0.31,0.1-0.64,0.41-0.72c0.07-0.02,0.15-0.03,0.22-0.02c4.69,0.49,14.12,0.05,21.4-0.57c4.39-0.36,8-0.79,9.33-1.12
				c0.21-0.05,0.42,0.02,0.56,0.17c1,1.05,2.05,2.05,3.15,3c2.03,1.77,3.87,3.19,4.4,3.89c0.06,0.09,0.09,0.2,0.07,0.3l-1.67,8.71
				c0,0-1.97,1.19-0.9,2.31c0.07,0.08,0.18,0.12,0.29,0.12h3.92c0.21,0,0.41-0.08,0.56-0.23c1.49-1.57,5.63-10.41,5.49-12.03
				c-0.21-2.6-2.25-7.09-1.2-11.54c0.56-2.37,1.65-10.29,0.68-13.98c-0.05-0.18,0.04-0.36,0.2-0.44
				c3.14-1.57,10.18-7.15,11.38-16.01c0.7-5.11-1.13-10.13,0.55-13.7c1.16-2.46,5.6-3.68,5.6-6.13
				C571.96,403.86,565.69,403.57,561.71,409.87L561.71,409.87z"/>
		</g>
		<defs>
			<filter id="Adobe_OpacityMaskFilter" filterUnits="userSpaceOnUse" x="474.97" y="405.07" width="96.99" height="77.45">
				<feColorMatrix  type="matrix" values="1 0 0 0 0  0 1 0 0 0  0 0 1 0 0  0 0 0 1 0"/>
			</filter>
		</defs>
		<mask maskUnits="userSpaceOnUse" x="474.97" y="405.07" width="96.99" height="77.45" id="SVGID_1_">
			<g class="st21">
				<path class="st15" d="M517.93,450.65c1.72,1.98,3.8,4.14,6.42,4.06c2.52-0.07,4.43-2.18,6.38-3.77
					c3.11-2.54,7.05-4.06,11.06-4.27c2.97-0.15,5.94,0.39,8.9,0.18c2.96-0.2,6.12-1.35,7.6-3.92c2.03-3.54-0.1-8.3-3.51-10.54
					c-3.41-2.24-7.68-2.62-11.75-2.94c-5.62-0.44-11.24-0.87-16.87-1.31c-3.9-0.3-7.9-0.6-11.67,0.43c-3.18,0.87-9.52,4.48-8.04,8.6
					c0.81,2.26,3.82,4.61,5.38,6.42C513.87,445.95,515.9,448.3,517.93,450.65z"/>
				<path class="st15" d="M571.19,423.65c1.55,2.58,2.34,5.58,2.55,8.58c0.24,3.56-0.44,7.42-2.94,9.97
					c-2.27,2.32-5.79,3.2-8.98,2.63c-3.2-0.57-6.06-2.47-8.18-4.93c-3.17-3.66-4.8-8.62-4.42-13.45c0.35-4.43,2.96-12.11,8.4-12.32
					C562.71,413.94,568.77,419.61,571.19,423.65z"/>
				<path class="st15" d="M567.41,414.62c2.46,1.65,5.31,3.18,8.23,2.7c3.81-0.63,6.38-4.86,5.87-8.69s-3.53-7.01-7.1-8.51
					s-7.59-1.52-11.42-0.95c-1.31,0.19-2.66,0.48-3.68,1.32c-2.38,1.96-2.29,6.67-0.33,8.91
					C560.97,411.65,564.92,412.95,567.41,414.62z"/>
				<path class="st15" d="M482.74,434.77c1.06-0.8,1.67-2.22,2.92-2.65c1.59-0.56,3.21,0.78,4.18,2.16
					c0.97,1.38,1.85,3.03,3.46,3.56c1.64,0.54,3.5-0.4,4.48-1.84c0.97-1.43,1.23-3.23,1.26-4.96c0.04-1.86-0.18-3.83-1.3-5.32
					c-1.13-1.51-3.04-2.28-4.92-2.46c-1.88-0.18-3.77,0.17-5.62,0.51c-2.35,0.44-4.77,0.9-6.74,2.24c-1.84,1.24-3.8,4.38-3.3,6.75
					C477.67,435.16,480.81,436.24,482.74,434.77z"/>
			</g>
		</mask>
		<path class="st22" d="M561.71,409.87c-2.36,3.74-0.97,9.02-1.12,14.73c-0.2,7.62-6.32,14.35-10.7,13.43
			c-13.89-3.38-43.58,4.4-53.82-1.22c-3.07-1.68-3.24-5.45-10.22-9.96c-0.86-0.55-1.99,0.18-1.99,1.2l-0.75,3.31
			c0,0-5.33,3.37-5.55,8.01c-0.07,1.38-2.6,1.91-2.59,4.1c0.11,2.37,2.41,5.14,7.18,5.87c2.88,0.45,5.27,2.47,6.2,5.23
			c0.68,2.09,1.47,4.13,2.38,6.13c0.42,0.9,0.87,1.77,1.36,2.61c2.15,3.66,4.25,5.93,6.1,8.05c2.21,2.54,4.05,4.9,5.18,9.19
			c0,0-1.06,0.57-0.95,1.61c0.02,0.2,0.19,0.35,0.39,0.35h3.93c0.14,0,1.75-1.48,2.15-3.61c0.54-2.9-0.23-8.28-1.37-12.46
			c-0.09-0.31,0.1-0.64,0.41-0.72c0.07-0.02,0.15-0.03,0.22-0.02c4.69,0.49,14.12,0.05,21.4-0.57c4.39-0.36,8-0.79,9.33-1.12
			c0.21-0.05,0.42,0.02,0.56,0.17c1,1.05,2.05,2.05,3.15,3c2.03,1.77,3.87,3.19,4.4,3.89c0.06,0.09,0.09,0.2,0.07,0.3l-1.67,8.71
			c0,0-1.97,1.19-0.9,2.31c0.07,0.08,0.18,0.12,0.29,0.12h3.92c0.21,0,0.41-0.08,0.56-0.23c1.49-1.57,5.63-10.41,5.49-12.03
			c-0.21-2.6-2.25-7.09-1.2-11.54c0.56-2.37,1.65-10.29,0.68-13.98c-0.05-0.18,0.04-0.36,0.2-0.44c3.14-1.57,10.18-7.15,11.38-16.01
			c0.7-5.11-1.13-10.13,0.55-13.7c1.16-2.46,5.6-3.68,5.6-6.13C571.96,403.86,565.69,403.57,561.71,409.87L561.71,409.87z"/>
		<path class="st11" d="M495.5,435.67c-1.9,6.71-8.48,12.57-11,14.64c-0.34,0.27-0.43,0.75-0.21,1.13c0.46,0.82,1.63,1.79,2.44,1.75
			c0.15-0.01,0.29-0.06,0.41-0.14c5.21-3.43,9.44-8.78,11.59-15.78C498.94,436.7,495.7,435.14,495.5,435.67L495.5,435.67z"/>
		<circle class="st11" cx="474.48" cy="442.16" r="1.15"/>
		<circle class="st23" cx="480.07" cy="439.26" r="0.94"/>
	</g>
	<g>
		<path class="st24" d="M411.83,394.73h-6.62v77.7l6.62-13.24c3.64,0,6.62-2.98,6.62-6.62v-51.21
			C418.45,397.71,415.47,394.73,411.83,394.73z"/>
		<path class="st25" d="M411.83,401.35c0-3.64-2.98-6.62-6.62-6.62h-69.97c-3.64,0-6.62,2.98-6.62,6.62v51.21
			c0,3.64,2.98,6.62,6.62,6.62l38.3,13.24l31.68-13.24c3.64,0,6.62-2.98,6.62-6.62l-16.55-25.6L411.83,401.35z"/>
		<path class="st26" d="M414.57,472.43v16.55h7.19c3.66,0,6.62-2.96,6.62-6.62L414.57,472.43z"/>
		<path class="st19" d="M336.02,475.74l-17.34,6.62c0,3.66,2.96,6.62,6.62,6.62h36.64l11.59-10.57l11.59,10.57h29.45
			c3.66,0,6.62-2.96,6.62-6.62v-6.62H336.02z"/>
		<path class="st26" d="M361.94,475.74h23.18v13.24h-23.18V475.74z"/>
		<path class="st19" d="M420.17,463.2c-1.04-2.43-3.44-4.01-6.09-4.01h-7.19l14.3,23.18h7.19L420.17,463.2z"/>
		<path class="st27" d="M412.98,463.2l1.1,2.61l-5.19,3.3l8.04,3.32l4.26,9.93H318.68l8.21-19.16c1.04-2.43,3.44-4.01,6.09-4.01
			h73.92C409.55,459.19,411.94,460.76,412.98,463.2L412.98,463.2z"/>
		<path class="st15" d="M405.21,401.35l-18.76,25.6l18.76,25.6h6.62v-51.21H405.21z"/>
		<path class="st15" d="M335.23,401.35h69.97v51.21h-69.97V401.35z"/>
		<path class="st24" d="M416.94,472.43l-2.85-6.62h-81.1l-2.84,6.62H416.94z"/>
	</g>
	<g>
		<g>
			<path class="st28" d="M305.41,450.44l-2.5,1.92h-11.45l-1.31-1.92l2.58-3.77c0.28-0.41,0.75-0.66,1.25-0.66h7.6
				c0.5,0,0.97,0.25,1.25,0.66L305.41,450.44z"/>
			<path class="st29" d="M302.83,446.67c-0.28-0.41-0.75-0.66-1.25-0.66h-1.75c0.5,0,0.97,0.25,1.25,0.66l2.58,3.77h1.75
				L302.83,446.67z"/>
		</g>
		<g>
			<path class="st25" d="M313.7,453.7v15.59c0,0.74-0.6,1.34-1.34,1.34H283.2c-0.74,0-1.34-0.6-1.34-1.34V453.7
				c0-0.74,0.6-1.34,1.34-1.34h29.16C313.1,452.36,313.7,452.96,313.7,453.7z"/>
			<path class="st24" d="M312.36,452.36h-1.53c0.74,0,1.34,0.6,1.34,1.34v15.59c0,0.74-0.6,1.34-1.34,1.34h1.53
				c0.74,0,1.34-0.6,1.34-1.34V453.7C313.7,452.96,313.1,452.36,312.36,452.36z"/>
		</g>
		<path class="st27" d="M313.7,451.78v2.93h-31.84v-2.93c0-0.74,0.6-1.34,1.34-1.34h29.16C313.1,450.44,313.7,451.04,313.7,451.78
			L313.7,451.78z"/>
		<path class="st19" d="M312.36,450.44h-1.53c0.74,0,1.34,0.6,1.34,1.34v2.93h1.53v-2.93C313.7,451.04,313.1,450.44,312.36,450.44z"
			/>
		<g>
			<path class="st24" d="M310.43,453.06h-1.49c-0.27,0-0.48-0.22-0.48-0.48c0-0.27,0.22-0.48,0.48-0.48h1.49
				c0.27,0,0.48,0.22,0.48,0.48C310.91,452.84,310.69,453.06,310.43,453.06z"/>
		</g>
		<path class="st28" d="M288.44,450.44h-3.97v-1.02c0-0.41,0.33-0.73,0.73-0.73h2.5c0.41,0,0.73,0.33,0.73,0.73L288.44,450.44
			L288.44,450.44z"/>
		<circle class="st28" cx="297.78" cy="460.63" r="8.21"/>
		<path class="st24" d="M297.78,452.41c-0.23,0-0.46,0.01-0.69,0.03c4.21,0.35,7.52,3.88,7.52,8.18s-3.31,7.83-7.52,8.18
			c0.23,0.02,0.46,0.03,0.69,0.03c4.54,0,8.21-3.68,8.21-8.21S302.32,452.41,297.78,452.41L297.78,452.41z"/>
		<circle class="st30" cx="297.78" cy="460.63" r="6.07"/>
		<path class="st31" d="M297.78,454.56c-0.26,0-0.52,0.02-0.78,0.05c2.98,0.38,5.29,2.93,5.29,6.02s-2.31,5.64-5.29,6.02
			c0.26,0.03,0.52,0.05,0.78,0.05c3.35,0,6.07-2.72,6.07-6.07C303.85,457.28,301.13,454.56,297.78,454.56L297.78,454.56z"/>
		<g>
			<g>
				<path class="st24" d="M309.79,468.59c-0.27,0-0.48-0.22-0.48-0.48v-0.2c0-0.27,0.22-0.48,0.48-0.48c0.27,0,0.48,0.22,0.48,0.48
					v0.2C310.27,468.38,310.06,468.59,309.79,468.59z"/>
			</g>
			<g>
				<path class="st24" d="M285.77,468.59c-0.27,0-0.48-0.22-0.48-0.48v-0.2c0-0.27,0.22-0.48,0.48-0.48c0.27,0,0.48,0.22,0.48,0.48
					v0.2C286.25,468.38,286.03,468.59,285.77,468.59z"/>
			</g>
		</g>
	</g>
</g>
</svg>
