<?xml version="1.0" encoding="utf-8"?>
<!-- Generator: Adobe Illustrator 24.2.1, SVG Export Plug-In . SVG Version: 6.00 Build 0)  -->
<svg version="1.1" id="Capa_1" xmlns="http://www.w3.org/2000/svg" xmlns:xlink="http://www.w3.org/1999/xlink" x="0px" y="0px"
	 viewBox="0 0 747 664.2" style="enable-background:new 0 0 747 664.2;" xml:space="preserve">
<style type="text/css">
	.st0{fill:none;stroke:#898989;stroke-width:1.494;stroke-miterlimit:10;}
	.st1{fill:#898989;}
	.st2{fill:none;stroke:#02ACBB;stroke-width:2.0805;stroke-miterlimit:10;}
	.st3{fill:none;stroke:#FB809F;stroke-width:2.0805;stroke-miterlimit:10;}
	.st4{fill:none;stroke:#898989;stroke-width:2.0805;stroke-miterlimit:10;}
	.st5{fill:#02ACBB;}
	.st6{font-family:'Galvji-Bold';}
	.st7{font-size:19.9651px;}
	.st8{font-size:11.6397px;}
	.st9{fill:#FB809F;}
	.st10{fill:#B1E5E5;}
	.st11{fill:none;stroke:#02ACBB;stroke-width:1.791;stroke-miterlimit:10;}
	.st12{fill:none;stroke:#02ACBB;stroke-width:2.0493;stroke-miterlimit:10;}
	.st13{fill:#FFFFFF;}
	.st14{fill:#C6C6C6;stroke:#C6C6C6;stroke-width:2.1764;stroke-miterlimit:10;}
	.st15{fill:none;stroke:#C6C6C6;stroke-width:2.1764;stroke-miterlimit:10;stroke-dasharray:1.252,1.252,1.252,1.252,1.252,1.252;}
	.st16{fill:#02ACBB;stroke:#02ACBB;stroke-width:2.1764;stroke-miterlimit:10;}
	.st17{fill:none;stroke:#B1E5E5;stroke-width:2.0805;stroke-miterlimit:10;}
	.st18{fill:none;stroke:#898989;stroke-width:1.8901;stroke-miterlimit:10;}
	.st19{enable-background:new    ;}
	.st20{fill:#7F7F7F;}
	.st21{fill:#C6C6C6;}
	.st22{fill:#E8E8E8;}
	.st23{fill:#6D6D6D;}
	.st24{fill:#686868;}
	.st25{fill:#A3A3A3;}
	.st26{fill:#DDDDDD;}
	.st27{fill:#9B9B9B;}
	.st28{fill:#818181;}
	.st29{fill:#BADDDD;}
	.st30{fill:#7DC7C9;}
</style>
<g id="Capa_2_1_">
</g>
<g>
	<g>
		<line class="st0" x1="-167.4" y1="175.6" x2="-167.4" y2="193.7"/>
		<g>
			<polygon class="st1" points="-170,190.7 -167.4,193.3 -164.9,190.7 -164.9,192.9 -167.4,195.4 -170,192.9 			"/>
		</g>
	</g>
</g>
<g>
	<g>
		<path class="st2" d="M203.8,102.6c-30.6,0-30.6,44.1-61.4,44.1s-30.6-44.1-61.4-44.1s-30.6,44.1-61.4,44.1"/>
		<path class="st2" d="M20.1,102.6c30.6,0,30.6,44.1,61.4,44.1s30.6-44.1,61.4-44.1c30.6,0,30.6,44.1,61.4,44.1"/>
		<path class="st2" d="M142.9,102.6c30.6,0,30.6,44.1,61.4,44.1"/>
		<path class="st2" d="M86.6,146.2"/>
		<path class="st3" d="M75.1,146c1.9,0.4,4.1,0.8,6.5,0.8c1.8,0,3.4-0.1,5.1-0.4"/>
	</g>
	<circle class="st4" cx="80.3" cy="144.4" r="12.4"/>
	<g>
		<line class="st2" x1="203.8" y1="185.6" x2="19.6" y2="185.6"/>
		<line class="st3" x1="122.1" y1="185.6" x2="99.5" y2="185.6"/>
	</g>
	<g>
		<line class="st2" x1="203.8" y1="178.3" x2="19.6" y2="178.3"/>
		<line class="st3" x1="122.1" y1="178.3" x2="99.5" y2="178.3"/>
	</g>
	<g>
		<g>
			<polyline class="st4" points="80.1,156.9 80.1,164.1 110.2,164.1 110.2,169.2 			"/>
			<g>
				<polygon class="st1" points="107.4,166.1 110.2,168.8 112.9,166.1 112.9,168.3 110.2,171 107.4,168.3 				"/>
			</g>
		</g>
	</g>
</g>
<g>
	<g>
		<g>
			<path class="st2" d="M33.6,338.5c7.4,0,7.4,14.6,14.9,14.6s7.4-14.6,14.9-14.6c7.4,0,7.4,14.6,14.9,14.6
				c7.4,0,7.4-14.6,14.9-14.6"/>
		</g>
		<path class="st2" d="M33.8,353.1c7.4,0,7.4-14.6,14.9-14.6s7.4,14.6,14.9,14.6c7.4,0,7.4-14.6,14.9-14.6c7.4,0,7.7,14.6,15.2,14.6
			"/>
	</g>
	<g>
		<path class="st2" d="M61.9,373.2c7.4,0,7.4,14.6,14.9,14.6c7.4,0,7.4-14.6,14.9-14.6s7.4,14.6,14.9,14.6s7.4-14.6,14.9-14.6"/>
	</g>
	<path class="st2" d="M148.7,344.1c1.2,4.9-1.9,9.9-6.8,11.1c-2.7,0.7-5.4,0-7.4-1.5c-1.1,1.2-2.6,2.2-4.3,2.6
		c-4.5,1.1-8.8-1.6-9.9-6.1c-0.4-1.8-0.3-3.5,0.4-5c-1.2-1.1-2.3-2.6-2.7-4.3c-1.1-4.5,1.6-8.8,6.1-9.9c2.7-0.7,5.5,0.1,7.4,2
		c0.9-1.1,2.2-1.8,3.7-2.2c3.8-0.9,7.6,1.5,8.4,5.1c0.1,0.7,0.3,1.4,0.1,2C146.2,339.1,148.1,341.2,148.7,344.1z"/>
	<g>
		<circle class="st2" cx="149" cy="373.3" r="3.8"/>
		<circle class="st2" cx="167.9" cy="373.3" r="3.8"/>
		<circle class="st2" cx="186.8" cy="362.5" r="3.8"/>
		<line class="st2" x1="152.9" y1="373.3" x2="164.2" y2="373.3"/>
		<circle class="st2" cx="186.8" cy="384" r="3.8"/>
		<line class="st2" x1="171.3" y1="375.2" x2="183.5" y2="382.1"/>
		<line class="st2" x1="171.2" y1="371.4" x2="183.5" y2="364.5"/>
	</g>
	<g>
		<text transform="matrix(0.9598 0 0 1 185.4989 348.1919)" class="st5 st6 st7">CH</text>
		<text transform="matrix(0.9599 0 0 1 214.7128 354.8403)" class="st5 st6 st8">3</text>
	</g>
</g>
<g>
	<g>
		<rect x="574.6" y="115.6" class="st5" width="118.1" height="17.9"/>
		<rect x="610.4" y="115.6" class="st9" width="82.2" height="17.9"/>
	</g>
	<rect x="574.6" y="115.6" class="st10" width="11.7" height="17.9"/>
	<rect x="531.6" y="85.2" class="st5" width="43" height="17.9"/>
	<rect x="531.6" y="85.2" class="st10" width="18" height="17.9"/>
	<rect x="570.5" y="85.2" class="st9" width="4" height="17.9"/>
	<g>
		<rect x="531.6" y="170.8" class="st5" width="161" height="17.9"/>
		<rect x="531.6" y="170.8" class="st5" width="43" height="17.9"/>
		<rect x="531.6" y="170.8" class="st10" width="18" height="17.9"/>
		<rect x="570.6" y="170.8" class="st9" width="4" height="17.9"/>
		<rect x="574.6" y="170.8" class="st5" width="118.1" height="17.9"/>
		<rect x="574.6" y="170.8" class="st10" width="11.7" height="17.9"/>
		<rect x="610.4" y="170.8" class="st9" width="82.2" height="17.9"/>
	</g>
	<path class="st11" d="M574.6,136.6v0.9c0,0.5,1.1,1.1,2.5,1.1h113.1c1.3,0,2.5-0.5,2.5-1.1v-0.9"/>
	<path class="st11" d="M531.6,106.2v0.9c0,0.5,1.1,1.1,2.5,1.1h38c1.3,0,2.5-0.5,2.5-1.1v-0.9"/>
	<g>
		<g>
			<line class="st11" x1="553.1" y1="108.2" x2="553.1" y2="164.1"/>
			<g>
				<polygon class="st5" points="550.1,160.5 553.1,163.6 556.2,160.5 556.2,163.2 553.1,166.1 550.1,163.2 				"/>
			</g>
		</g>
	</g>
	<g>
		<g>
			<line class="st11" x1="633.6" y1="139.1" x2="633.6" y2="164.1"/>
			<g>
				<polygon class="st5" points="630.5,160.5 633.6,163.6 636.7,160.5 636.7,163.2 633.6,166.1 630.5,163.2 				"/>
			</g>
		</g>
	</g>
</g>
<g>
	<line class="st12" x1="374" y1="10.4" x2="401" y2="10.4"/>
	<polyline class="st12" points="401,47.3 374,47.3 374,30.1 	"/>
	<polyline class="st12" points="387.5,10.4 387.5,30.1 374,30.1 331.1,30.1 331.1,47.3 304.2,47.3 	"/>
	<polyline class="st12" points="318.2,47.3 318.2,80.9 291.2,80.9 	"/>
	<polyline class="st12" points="387.5,47.3 387.5,64.1 354.6,64.1 354.6,80.9 381.4,80.9 	"/>
	<polyline class="st12" points="442.1,80.9 415.3,80.9 415.3,64.1 387.5,64.1 	"/>
	<g>
		<rect x="366.6" y="3" class="st13" width="14.9" height="14.9"/>
		<path class="st5" d="M380.5,4v12.8h-12.8V4H380.5 M382.5,1.9h-16.9v16.9h16.9V1.9L382.5,1.9z"/>
	</g>
	<g>
		<circle class="st13" cx="401" cy="10.4" r="7.4"/>
		<path class="st5" d="M401,4c3.6,0,6.3,2.9,6.3,6.3c0,3.6-2.9,6.3-6.3,6.3c-3.6,0-6.3-2.9-6.3-6.3C394.5,6.9,397.4,4,401,4
			 M401,1.9c-4.7,0-8.4,3.7-8.4,8.4s3.7,8.4,8.4,8.4c4.7,0,8.4-3.7,8.4-8.4S405.6,1.9,401,1.9L401,1.9z"/>
	</g>
	<g>
		<g>
			<rect x="296.7" y="39.9" class="st13" width="14.9" height="14.9"/>
			<path class="st5" d="M310.6,40.8v12.8h-12.8V40.8H310.6 M312.5,38.8h-16.9v16.9h16.9V38.8L312.5,38.8z"/>
		</g>
		<g>
			<circle class="st13" cx="331.1" cy="47.3" r="7.4"/>
			<path class="st5" d="M331.1,40.8c3.6,0,6.3,2.9,6.3,6.3c0,3.6-2.9,6.3-6.3,6.3c-3.4,0-6.3-2.9-6.3-6.3
				C324.6,43.7,327.5,40.8,331.1,40.8 M331.1,38.8c-4.7,0-8.4,3.7-8.4,8.4s3.7,8.4,8.4,8.4c4.7,0,8.4-3.7,8.4-8.4
				S335.6,38.8,331.1,38.8L331.1,38.8z"/>
		</g>
		<g>
			<rect x="366.6" y="39.9" class="st13" width="14.9" height="14.9"/>
			<path class="st5" d="M380.5,40.8v12.8h-12.8V40.8H380.5 M382.5,38.8h-16.9v16.9h16.9V38.8L382.5,38.8z"/>
		</g>
		<g>
			<circle class="st13" cx="401" cy="47.3" r="7.4"/>
			<path class="st5" d="M401,40.8c3.6,0,6.3,2.9,6.3,6.3c0,3.6-2.9,6.3-6.3,6.3c-3.6,0-6.3-2.9-6.3-6.3
				C394.5,43.7,397.4,40.8,401,40.8 M401,38.8c-4.7,0-8.4,3.7-8.4,8.4s3.7,8.4,8.4,8.4c4.7,0,8.4-3.7,8.4-8.4S405.6,38.8,401,38.8
				L401,38.8z"/>
		</g>
	</g>
	<g>
		<rect x="347.2" y="73.4" class="st13" width="14.9" height="14.9"/>
		<path class="st5" d="M360.9,74.5v12.8h-12.8V74.5H360.9 M363,72.5h-16.9v16.9H363V72.5L363,72.5z"/>
	</g>
	<g>
		<path class="st13" d="M381.4,88.3c-4.1,0-7.4-3.3-7.4-7.4c0-4.1,3.3-7.4,7.4-7.4s7.4,3.3,7.4,7.4C388.9,85,385.6,88.3,381.4,88.3z
			"/>
		<path class="st5" d="M381.4,74.5c3.6,0,6.3,2.9,6.3,6.3c0,3.6-2.9,6.3-6.3,6.3c-3.4,0-6.3-2.9-6.3-6.3
			C375.1,77.4,378,74.5,381.4,74.5 M381.4,72.5c-4.7,0-8.4,3.7-8.4,8.4c0,4.7,3.7,8.4,8.4,8.4c4.7,0,8.4-3.7,8.4-8.4
			C390,76.2,386.1,72.5,381.4,72.5L381.4,72.5z"/>
	</g>
	<g>
		<rect x="283.8" y="73.4" class="st13" width="14.9" height="14.9"/>
		<path class="st5" d="M297.7,74.5v12.8h-12.8V74.5H297.7 M299.8,72.5h-16.9v16.9h16.9V72.5L299.8,72.5z"/>
	</g>
	<g>
		<path class="st13" d="M318.2,88.3c-4.1,0-7.4-3.3-7.4-7.4c0-4.1,3.3-7.4,7.4-7.4s7.4,3.3,7.4,7.4C325.6,85,322.3,88.3,318.2,88.3z
			"/>
		<path class="st5" d="M318.2,74.5c3.6,0,6.3,2.9,6.3,6.3c0,3.6-2.9,6.3-6.3,6.3c-3.6,0-6.3-2.9-6.3-6.3
			C311.7,77.4,314.6,74.5,318.2,74.5 M318.2,72.5c-4.7,0-8.4,3.7-8.4,8.4c0,4.7,3.7,8.4,8.4,8.4s8.4-3.7,8.4-8.4
			C326.6,76.2,322.9,72.5,318.2,72.5L318.2,72.5z"/>
	</g>
	<g>
		<rect x="407.8" y="73.4" class="st13" width="14.9" height="14.9"/>
		<path class="st5" d="M421.7,74.5v12.8h-12.8V74.5H421.7 M423.6,72.5h-16.9v16.9h16.9V72.5L423.6,72.5z"/>
	</g>
	<g>
		<path class="st13" d="M442.1,88.3c-4.1,0-7.4-3.3-7.4-7.4c0-4.1,3.3-7.4,7.4-7.4s7.4,3.3,7.4,7.4C449.5,85,446.2,88.3,442.1,88.3z
			"/>
		<path class="st5" d="M442.1,74.5c3.6,0,6.3,2.9,6.3,6.3c0,3.6-2.9,6.3-6.3,6.3s-6.3-2.9-6.3-6.3C435.7,77.4,438.6,74.5,442.1,74.5
			 M442.1,72.5c-4.7,0-8.4,3.7-8.4,8.4c0,4.7,3.7,8.4,8.4,8.4c4.7,0,8.4-3.7,8.4-8.4C450.6,76.2,446.8,72.5,442.1,72.5L442.1,72.5z"
			/>
	</g>
</g>
<g>
	<circle class="st14" cx="323.6" cy="216.4" r="2.1"/>
	<circle class="st14" cx="356.6" cy="200" r="2.1"/>
	<circle class="st14" cx="393.7" cy="188.1" r="2.1"/>
	<circle class="st14" cx="446.2" cy="216.9" r="2.1"/>
	<circle class="st14" cx="436.2" cy="255" r="2.1"/>
	<circle class="st14" cx="427.3" cy="183.8" r="2.1"/>
	<circle class="st14" cx="414.1" cy="206.5" r="2.1"/>
	<circle class="st14" cx="363" cy="167.1" r="2.1"/>
	<circle class="st14" cx="344.3" cy="181.8" r="2.1"/>
	<circle class="st14" cx="311.6" cy="181.8" r="2.1"/>
	<circle class="st14" cx="289.9" cy="220.6" r="2.1"/>
	<circle class="st14" cx="298.8" cy="245.1" r="2.1"/>
	<circle class="st14" cx="309.6" cy="281.3" r="2.1"/>
	<circle class="st14" cx="423.1" cy="291" r="2.1"/>
	<circle class="st14" cx="459.9" cy="220.6" r="2.1"/>
	<circle class="st14" cx="464" cy="313.2" r="2.1"/>
	<circle class="st14" cx="369.3" cy="338.5" r="2.1"/>
	<circle class="st14" cx="298.8" cy="322.6" r="2.1"/>
	<circle class="st14" cx="330.1" cy="320.4" r="2.1"/>
	<circle class="st14" cx="287.7" cy="293.1" r="2.1"/>
	<circle class="st14" cx="429.4" cy="337.6" r="2.1"/>
	<circle class="st14" cx="472.7" cy="262.6" r="2.1"/>
	<circle class="st14" cx="450.6" cy="294.6" r="2.1"/>
	<circle class="st14" cx="398.9" cy="369.4" r="2.1"/>
	<circle class="st14" cx="395.8" cy="339.2" r="2.1"/>
	<circle class="st14" cx="448.6" cy="241.7" r="2.1"/>
	<circle class="st14" cx="444.1" cy="280.4" r="2.1"/>
	<circle class="st14" cx="435.2" cy="209.3" r="2.1"/>
	<circle class="st14" cx="431" cy="316.4" r="2.1"/>
	<circle class="st14" cx="467.8" cy="245.9" r="2.1"/>
	<circle class="st14" cx="471.9" cy="338.5" r="2.1"/>
	<circle class="st14" cx="437.3" cy="362.9" r="2.1"/>
	<circle class="st14" cx="480.5" cy="288" r="2.1"/>
	<circle class="st14" cx="444.8" cy="312.2" r="2.1"/>
	<circle class="st14" cx="328" cy="301.4" r="2.1"/>
	<circle class="st14" cx="315.2" cy="264.7" r="2.1"/>
	<circle class="st14" cx="354.2" cy="324.8" r="2.1"/>
	<circle class="st14" cx="311.3" cy="226.6" r="2.1"/>
	<circle class="st14" cx="308.9" cy="306" r="2.1"/>
	<circle class="st14" cx="264.9" cy="224.5" r="2.1"/>
	<circle class="st14" cx="285.4" cy="187.4" r="2.1"/>
	<circle class="st14" cx="293.8" cy="270.4" r="2.1"/>
	<circle class="st14" cx="283.9" cy="246.8" r="2.1"/>
	<circle class="st14" cx="424.3" cy="329.3" r="2.1"/>
	<circle class="st14" cx="385.6" cy="324.8" r="2.1"/>
	<circle class="st14" cx="456.7" cy="331.3" r="2.1"/>
	<circle class="st14" cx="349.7" cy="311.7" r="2.1"/>
	<circle class="st14" cx="420.1" cy="348.4" r="2.1"/>
	<circle class="st14" cx="327.5" cy="352.6" r="2.1"/>
	<circle class="st14" cx="313.1" cy="322.6" r="2.1"/>
	<circle class="st14" cx="378.1" cy="361.3" r="2.1"/>
	<circle class="st14" cx="353.8" cy="337.1" r="2.1"/>
	<circle class="st14" cx="439" cy="181.4" r="2.1"/>
	<circle class="st14" cx="434.4" cy="220.1" r="2.1"/>
	<circle class="st14" cx="425.6" cy="149" r="2.1"/>
	<circle class="st14" cx="421.4" cy="256.1" r="2.1"/>
	<circle class="st14" cx="458.1" cy="185.6" r="2.1"/>
	<circle class="st14" cx="462.3" cy="278.2" r="2.1"/>
	<circle class="st14" cx="427.7" cy="302.6" r="2.1"/>
	<circle class="st14" cx="470.9" cy="227.7" r="2.1"/>
	<circle class="st14" cx="452.8" cy="254" r="2.1"/>
	<circle class="st14" cx="423.6" cy="241.6" r="2.1"/>
	<circle class="st14" cx="399.6" cy="211.2" r="2.1"/>
	<circle class="st14" cx="456.7" cy="266.1" r="2.1"/>
	<circle class="st14" cx="383.3" cy="176.4" r="2.1"/>
	<circle class="st14" cx="407.2" cy="252.2" r="2.1"/>
	<circle class="st14" cx="338.7" cy="189.6" r="2.1"/>
	<circle class="st14" cx="346" cy="148" r="2.1"/>
	<circle class="st14" cx="320.5" cy="195" r="2.1"/>
	<circle class="st14" cx="368.2" cy="197.4" r="2.1"/>
	<circle class="st14" cx="278.6" cy="234.2" r="2.1"/>
	<circle class="st14" cx="289.9" cy="181.3" r="2.1"/>
	<circle class="st14" cx="270.8" cy="210.1" r="2.1"/>
	<circle class="st14" cx="258.7" cy="201.3" r="2.1"/>
	<circle class="st14" cx="282.5" cy="166.9" r="2.1"/>
	<circle class="st14" cx="293.2" cy="259.6" r="2.1"/>
	<circle class="st14" cx="295.2" cy="209" r="2.1"/>
	<circle class="st14" cx="276.6" cy="222.2" r="2.1"/>
	<circle class="st14" cx="271.4" cy="252.3" r="2.1"/>
	<circle class="st14" cx="277" cy="199.2" r="2.1"/>
	<circle class="st14" cx="261.5" cy="172.9" r="2.1"/>
	<circle class="st14" cx="270.8" cy="176.1" r="2.1"/>
	<circle class="st14" cx="286.6" cy="341.3" r="2.1"/>
	<circle class="st14" cx="283.9" cy="279" r="2.1"/>
	<circle class="st14" cx="265.9" cy="303.1" r="2.1"/>
	<circle class="st14" cx="255.3" cy="296.7" r="2.1"/>
	<circle class="st14" cx="279" cy="262.3" r="2.1"/>
	<circle class="st14" cx="283.1" cy="354.9" r="2.1"/>
	<circle class="st14" cx="291.7" cy="304.4" r="2.1"/>
	<circle class="st14" cx="267.7" cy="328.5" r="2.1"/>
	<circle class="st14" cx="267.9" cy="347.7" r="2.1"/>
	<circle class="st14" cx="273.5" cy="294.6" r="2.1"/>
	<circle class="st14" cx="258.1" cy="268.3" r="2.1"/>
	<circle class="st14" cx="267.3" cy="271.5" r="2.1"/>
	<circle class="st14" cx="318.4" cy="336.5" r="2.1"/>
	<circle class="st14" cx="315.1" cy="359.5" r="2.1"/>
	<circle class="st14" cx="299.7" cy="333.2" r="2.1"/>
	<circle class="st14" cx="300" cy="352.3" r="2.1"/>
	<circle class="st14" cx="352.5" cy="375.4" r="2.1"/>
	<circle class="st14" cx="337.7" cy="356.6" r="2.1"/>
	<circle class="st14" cx="367.2" cy="364.7" r="2.1"/>
	<circle class="st14" cx="357" cy="187.2" r="2.1"/>
	<circle class="st14" cx="325.4" cy="184.4" r="2.1"/>
	<circle class="st14" cx="339.2" cy="157.2" r="2.1"/>
	<circle class="st14" cx="323.2" cy="167.8" r="2.1"/>
	<circle class="st14" cx="421.4" cy="176.4" r="2.1"/>
	<circle class="st14" cx="409.6" cy="174.3" r="2.1"/>
	<circle class="st14" cx="409" cy="185.2" r="2.1"/>
	<circle class="st14" cx="353.7" cy="351.1" r="2.1"/>
	<circle class="st14" cx="432.4" cy="282.5" r="2.1"/>
	<circle class="st14" cx="432.5" cy="268.3" r="2.1"/>
	<circle class="st14" cx="420.1" cy="272.9" r="2.1"/>
	<circle class="st14" cx="376" cy="271.5" r="2.1"/>
	<circle class="st14" cx="378.7" cy="310.1" r="2.1"/>
	<circle class="st14" cx="446.6" cy="347.4" r="2.1"/>
	<circle class="st14" cx="474.8" cy="308.1" r="2.1"/>
	<circle class="st14" cx="416.1" cy="379.3" r="2.1"/>
	<circle class="st14" cx="464.4" cy="295.2" r="2.1"/>
	<circle class="st14" cx="240.5" cy="267.3" r="2.1"/>
	<circle class="st14" cx="441.1" cy="229.4" r="2.1"/>
	<circle class="st14" cx="484.7" cy="248.8" r="2.1"/>
	<circle class="st14" cx="481.5" cy="188.6" r="2.1"/>
	<circle class="st14" cx="461" cy="236.9" r="2.1"/>
	<circle class="st14" cx="484.7" cy="202.5" r="2.1"/>
	<circle class="st14" cx="394.9" cy="232" r="2.1"/>
	<circle class="st14" cx="495.1" cy="281.4" r="2.1"/>
	<circle class="st14" cx="444.1" cy="328.5" r="2.1"/>
	<circle class="st14" cx="490.9" cy="312" r="2.1"/>
	<circle class="st14" cx="230.9" cy="241.6" r="2.1"/>
	<circle class="st14" cx="240.5" cy="282.6" r="2.1"/>
	<circle class="st14" cx="230.9" cy="222.4" r="2.1"/>
	<circle class="st14" cx="226.4" cy="261" r="2.1"/>
	<circle class="st14" cx="249.5" cy="225.6" r="2.1"/>
	<circle class="st14" cx="254.2" cy="319.2" r="2.1"/>
	<circle class="st14" cx="246.6" cy="250.2" r="2.1"/>
	<circle class="st14" cx="261.5" cy="360.8" r="2.1"/>
	<circle class="st14" cx="256.2" cy="336.1" r="2.1"/>
	<circle class="st14" cx="380.9" cy="379.1" r="2.1"/>
	<circle class="st14" cx="434.4" cy="381.4" r="2.1"/>
	<circle class="st14" cx="407.6" cy="402" r="2.1"/>
	<circle class="st14" cx="368.8" cy="400.4" r="2.1"/>
	<circle class="st14" cx="399.1" cy="389.6" r="2.1"/>
	<circle class="st14" cx="360.2" cy="392.8" r="2.1"/>
	<circle class="st14" cx="371.8" cy="386.4" r="2.1"/>
	<circle class="st14" cx="238.4" cy="330.7" r="2.1"/>
	<circle class="st14" cx="343.5" cy="396.2" r="2.1"/>
	<circle class="st14" cx="405.5" cy="145.8" r="2.1"/>
	<circle class="st14" cx="357" cy="136.5" r="2.1"/>
	<circle class="st14" cx="399.4" cy="180.6" r="2.1"/>
	<circle class="st14" cx="381" cy="146.3" r="2.1"/>
	<circle class="st14" cx="381.2" cy="188.1" r="2.1"/>
	<circle class="st14" cx="311" cy="129.3" r="2.1"/>
	<circle class="st14" cx="336.3" cy="121.2" r="2.1"/>
	<circle class="st14" cx="372" cy="126.7" r="2.1"/>
	<circle class="st14" cx="387.9" cy="131.4" r="2.1"/>
	<circle class="st14" cx="472.1" cy="208.5" r="2.1"/>
	<circle class="st14" cx="504.6" cy="242.7" r="2.1"/>
	<circle class="st14" cx="400.3" cy="163" r="2.1"/>
	<circle class="st14" cx="492.5" cy="222.2" r="2.1"/>
	<circle class="st14" cx="466.1" cy="171.3" r="2.1"/>
	<circle class="st14" cx="238.4" cy="207.2" r="2.1"/>
	<circle class="st14" cx="506.7" cy="270.4" r="2.1"/>
	<circle class="st14" cx="489.8" cy="337" r="2.1"/>
	<circle class="st14" cx="479.4" cy="324.2" r="2.1"/>
	<circle class="st14" cx="297.8" cy="368" r="2.1"/>
	<circle class="st14" cx="236.4" cy="306" r="2.1"/>
	<circle class="st14" cx="306.8" cy="385.3" r="2.1"/>
	<circle class="st14" cx="275.4" cy="378.1" r="2.1"/>
	<circle class="st14" cx="339.6" cy="376.6" r="2.1"/>
	<circle class="st14" cx="416.1" cy="360.8" r="2.1"/>
	<circle class="st14" cx="326.9" cy="382.9" r="2.1"/>
	<circle class="st14" cx="456.7" cy="359.3" r="2.1"/>
	<circle class="st14" cx="473.1" cy="357.2" r="2.1"/>
	<circle class="st14" cx="329.7" cy="134" r="2.1"/>
	<circle class="st14" cx="441.8" cy="141" r="2.1"/>
	<circle class="st14" cx="276.6" cy="157.2" r="2.1"/>
	<circle class="st14" cx="307" cy="143.3" r="2.1"/>
	<circle class="st14" cx="263.8" cy="186.6" r="2.1"/>
	<circle class="st14" cx="312" cy="154.9" r="2.1"/>
	<circle class="st14" cx="417" cy="134.3" r="2.1"/>
	<circle class="st14" cx="280.3" cy="148.8" r="2.1"/>
	<circle class="st14" cx="296.7" cy="147.2" r="2.1"/>
	<circle class="st14" cx="444.7" cy="165.3" r="2.1"/>
	<circle class="st14" cx="365.1" cy="152.8" r="2.1"/>
	<circle class="st14" cx="401" cy="128.8" r="2.1"/>
	<circle class="st14" cx="454.1" cy="201.3" r="2.1"/>
	<circle class="st14" cx="392.8" cy="288" r="2.1"/>
	<circle class="st14" cx="366.7" cy="228.6" r="2.1"/>
	<circle class="st14" cx="336.3" cy="234.9" r="2.1"/>
	<path class="st15" d="M315.2,264.7c0,0,13.3-3.3,38.5,22.2"/>
	<polyline class="st15" points="363,167.1 357,187.2 368.2,197.4 356.6,200 399.6,211.2 	"/>
	<polyline class="st15" points="261.5,172.9 270.8,176.1 285.4,187.4 277,199.2 258.7,201.3 270.8,210.1 289.9,220.6 276.6,222.2 
		298.8,245.1 	"/>
	<path class="st15" d="M437.3,362.9l-17.2-14.4c0,0-19.8,13.7-24.4-9.2"/>
	<polyline class="st15" points="470.9,227.7 467.8,245.9 448.6,241.7 423.6,241.6 411.6,233.4 407.2,252.2 421.4,256.1 432.5,268.3 
		432.4,282.5 423.1,291 420.1,272.9 	"/>
	<path class="st15" d="M374.2,293.1l-24.6,18.6l36.1,13l-31.5,0.1c0,0,10.6,13.4,13,39.9l13.7,14.4c2.8,20,26.8,22.9,26.8,22.9
		l-38.9-1.6"/>
	<polyline class="st15" points="471.9,338.5 456.7,331.3 464,313.2 450.6,294.6 	"/>
	<polyline class="st15" points="278.6,234.2 283.9,246.8 298.8,245.1 	"/>
	<polyline class="st15" points="407.2,252.2 376,271.5 399.1,271.5 	"/>
	<polyline class="st15" points="267.7,328.5 287.7,293.1 291.7,304.4 308.9,306 309.6,281.3 337,287.5 	"/>
	<path class="st15" d="M446.9,312.2l-19.2-9.6l22.9-8l-6.6-14.2c0,0-3.5-22.4,8.6-26.3s19.9,8.6,19.9,8.6l8,25.3"/>
	<polyline class="st15" points="446.2,216.9 459.9,220.6 448.6,241.7 	"/>
	<path class="st15" d="M289.9,181.3c0,0,18.4,5.7,38,68.1"/>
	<polyline class="st15" points="226.4,261 240.5,282.6 236.4,306 255.3,296.7 265.9,303.1 273.5,294.6 283.9,279 279,262.3 
		293.2,259.6 315.2,264.7 	"/>
	<path class="st15" d="M238.4,330.7l17.9,5.5l11.7,11.6l15.2,7.2l3.5-13.7l13.1-8.1l-0.9-10.6c0,0,7.8-6.4,14.2,0c0,0,9.1,7,17-2.1"
		/>
	<path class="st15" d="M238.4,207.2c0,0,16.6-0.2,26.3,17.3l6.7,27.9l-4.2,19.1l16.5,7.5c0,0,10.1,13.3,25.7,2.4l5.7-16.7l12.6-15.3
		l-29-4.2l12.5-18.6l-16-17.7c0,0,23.7-12.6,16.4-27.2c-7.3-14.6-27.1-14.9-27.1-14.9"/>
	<path class="st15" d="M336.3,121.2l-25.3,8.1l-3.9,14l4.9,11.5l11.3,13l16-10.6c0,0,2.3,21.6-13.8,27.3l-5,10.5l3.3,21.4l15.1-26.7
		l5.6-7.9"/>
	<polyline class="st15" points="356.6,242.7 336.3,234.9 323.6,216.4 	"/>
	<line class="st15" x1="352.8" y1="267.3" x2="336.3" y2="234.9"/>
	<polyline class="st15" points="356.6,200 366.7,228.6 382.9,251.9 	"/>
	<polyline class="st15" points="385.6,324.8 378.7,310.1 392.8,288 	"/>
	<path class="st15" d="M399.6,211.2c0,0,6.9,13.7-4.6,21"/>
	<polyline class="st15" points="230.9,222.4 230.9,241.6 249.5,225.6 264.9,224.5 	"/>
	<polyline class="st15" points="240.5,267.3 246.6,250.2 258.1,268.3 267.3,271.5 	"/>
	<line class="st15" x1="254.2" y1="319.2" x2="256.2" y2="336.1"/>
	<polyline class="st15" points="261.5,360.8 275.4,378.1 297.8,368 283.1,354.9 	"/>
	<line class="st15" x1="339.6" y1="376.6" x2="337.7" y2="356.6"/>
	<polyline class="st15" points="378.1,361.3 369.3,338.5 385.6,324.8 395.8,339.2 427.7,302.6 397.8,307 431,316.4 424.3,329.3 
		431.5,337.6 	"/>
	<polyline class="st15" points="372,126.7 381,146.3 383.3,176.4 381.2,188.1 368.2,197.4 	"/>
	<polyline class="st15" points="441.8,141 444.7,165.3 458.1,185.6 439,181.4 421.4,176.4 	"/>
	<polyline class="st15" points="357,136.5 365.1,152.8 346,148 344.3,181.8 346.4,220.6 	"/>
	<line class="st15" x1="329.7" y1="134" x2="323.2" y2="167.8"/>
	<path class="st15" d="M280.3,148.8l16.4-1.5c0,0,12.6,10.5,15,34.5"/>
	<line class="st15" x1="263.8" y1="186.6" x2="270.8" y2="176.1"/>
	<path class="st15" d="M360.2,392.8l11.7-6.4l-19.3-11l-14.7-18.7c0,0-7.4,12.1-22.6,2.9L327,383c0,0,12.7,1.2,16.5,13.3
		c3.8,12.1-44.7,7.6-36.6-10.8s-6.9-33-6.9-33l18.4-15.8l9.2,16.2l26.2-1.4c0,0,10.1-5.6,0.1-14s-25.8-35.7-25.8-35.7"/>
	<polyline class="st15" points="481.5,188.6 454.1,201.3 435.2,209.3 	"/>
	<path class="st15" d="M466.1,171.3l6,37.3l20.3,13.7l-7.8,26.5l19.9-6.1c0,0,8.3,14.1,2.1,27.6l-11.6,11c0,0-13.7-16.2-32.8-3.1
		l-5.6-12.1l-4-12.1"/>
	<polyline class="st15" points="490.9,312 489.8,337 479.4,324.2 474.8,308.1 464.4,295.2 450.6,294.6 	"/>
	<polyline class="st15" points="434.4,381.4 416.1,379.3 399.1,389.6 398.9,369.4 416.1,360.8 420.1,348.4 429.7,337.2 	"/>
	<polyline class="st15" points="473.1,357.2 456.7,359.3 446.6,347.4 444.1,328.5 444.8,312.2 	"/>
	<polyline class="st15" points="387.9,131.4 401,128.8 405.5,145.8 400.3,163 399.4,180.6 393.7,188.1 384.1,219 	"/>
	<polyline class="st15" points="417,134.3 425.6,149 421.4,176.4 409.6,174.3 409,185.2 414.1,206.5 399.6,211.2 384.1,219 
		434.4,220.1 435.2,209.3 427.3,183.8 	"/>
	<line class="st15" x1="484.7" y1="202.5" x2="472.1" y2="208.5"/>
	<g>
		<circle class="st16" cx="345.6" cy="219.8" r="4.2"/>
		<circle class="st16" cx="355.9" cy="242" r="4.2"/>
		<circle class="st16" cx="410.7" cy="232.7" r="4.2"/>
		<circle class="st16" cx="383.3" cy="218.3" r="4.2"/>
		<circle class="st16" cx="352.1" cy="266.5" r="4.2"/>
		<circle class="st16" cx="398.3" cy="270.7" r="4.2"/>
		<circle class="st16" cx="327" cy="248.6" r="4.2"/>
		<circle class="st16" cx="382.1" cy="251.1" r="4.2"/>
		<circle class="st16" cx="373.5" cy="292.3" r="4.2"/>
		<circle class="st16" cx="336.2" cy="286.8" r="4.2"/>
		<circle class="st16" cx="397.1" cy="306.2" r="4.2"/>
	</g>
	<circle class="st16" cx="353.7" cy="286.8" r="4.2"/>
</g>
<g>
	<g>
		<g>
			<polyline class="st4" points="190.3,307 7.4,307 7.4,215.3 			"/>
			<g>
				<polygon class="st1" points="187.1,304.3 189.8,307 187.1,309.8 189.4,309.8 192.1,307 189.4,304.3 				"/>
			</g>
			<g>
				<polygon class="st1" points="10.1,218.4 7.4,215.7 4.8,218.4 4.8,216.1 7.4,213.5 10.1,216.1 				"/>
			</g>
		</g>
	</g>
	<g>
		<g>
			<rect x="27.3" y="221.5" class="st17" width="50.1" height="22.4"/>
			<line class="st17" x1="122.1" y1="232.7" x2="77.5" y2="232.7"/>
			<line class="st17" x1="27.3" y1="232.4" x2="12.2" y2="232.4"/>
			<line class="st17" x1="57.6" y1="221.5" x2="57.6" y2="243.9"/>
		</g>
		<g>
			<rect x="85.5" y="248.8" class="st2" width="38.8" height="21.8"/>
			<line class="st2" x1="168" y1="259.7" x2="124.3" y2="259.7"/>
			<line class="st2" x1="85.5" y1="259.5" x2="60.6" y2="259.5"/>
			<line class="st2" x1="96.4" y1="248.8" x2="96.4" y2="270.7"/>
		</g>
		<g>
			<rect x="123.6" y="277" class="st3" width="42" height="21.8"/>
			<line class="st3" x1="187.4" y1="288" x2="165.6" y2="288"/>
			<line class="st3" x1="123.6" y1="287.8" x2="79.9" y2="287.8"/>
			<line class="st3" x1="140.5" y1="277" x2="140.5" y2="298.9"/>
		</g>
	</g>
</g>
<g>
	<g>
		<g>
			<polyline class="st18" points="567.7,221.6 567.7,296.7 636.6,296.7 			"/>
			<g>
				<polygon class="st1" points="564.4,225.3 567.7,222.1 570.8,225.3 570.8,222.6 567.7,219.4 564.4,222.6 				"/>
			</g>
			<g>
				<polygon class="st1" points="632.9,299.9 636.1,296.7 632.9,293.5 635.6,293.5 638.8,296.7 635.6,299.9 				"/>
			</g>
		</g>
	</g>
	<g>
		<line class="st18" x1="591.6" y1="256.7" x2="591.6" y2="288.2"/>
		<rect x="585.2" y="264.1" class="st9" width="12.5" height="16.8"/>
		<line class="st18" x1="614.8" y1="227.8" x2="614.8" y2="266.3"/>
		<rect x="608.6" y="236.9" class="st5" width="12.5" height="20.5"/>
	</g>
	<g>
		<g>
			<polyline class="st18" points="671.1,221.6 671.1,296.7 740.1,296.7 			"/>
			<g>
				<polygon class="st1" points="667.9,225.3 671.1,222.1 674.3,225.3 674.3,222.6 671.1,219.4 667.9,222.6 				"/>
			</g>
			<g>
				<polygon class="st1" points="736.3,299.9 739.6,296.7 736.3,293.5 739.1,293.5 742.2,296.7 739.1,299.9 				"/>
			</g>
		</g>
	</g>
	<g>
		<line class="st18" x1="695.1" y1="227.5" x2="695.1" y2="259.1"/>
		<rect x="688.7" y="235" class="st9" width="12.5" height="16.8"/>
		<line class="st18" x1="718.3" y1="249.9" x2="718.3" y2="288.5"/>
		<rect x="712" y="259" class="st5" width="12.5" height="20.5"/>
	</g>
	<g>
		<g>
			<path class="st5" d="M558.3,251l2.4-1.3l-1.8-3.3c-1.5-2.9-4.6-4.8-8-4.8c-3.3,0-6.3,1.9-8,4.8l-1.8,3.3l2.4,1.3l1.8-3.3
				c0.1-0.3,0.4-0.6,0.5-0.9l-1.9,11.3h2.5v3.7h2.7v-3.7h3.4v3.7h2.7v-3.7h2.5l-1.9-11.3c0.3,0.3,0.4,0.5,0.5,0.9L558.3,251z
				 M553,244.7l1.8,10.8h-7.6l1.8-10.8c0.6-0.3,1.3-0.3,1.9-0.3C551.7,244.3,552.4,244.4,553,244.7L553,244.7z"/>
			<path class="st5" d="M551.1,240.3c2.9,0,5.2-2.4,5.2-5.2s-2.4-5.2-5.2-5.2c-2.9,0-5.2,2.4-5.2,5.2
				C545.8,238,548.2,240.3,551.1,240.3z M551.1,232.6c1.4,0,2.5,1.1,2.5,2.5c0,1.4-1.1,2.5-2.5,2.5c-1.4,0-2.5-1.1-2.5-2.5
				C548.6,233.7,549.6,232.6,551.1,232.6z"/>
		</g>
		<g>
			<path class="st9" d="M551.1,275.1c-1.9,0-3.5,1-4.4,2.7l-1,1.9l1.3,0.6l0.8-1.4v7.3h1.5V283h3.7v3.2h1.5v-7.3l0.8,1.4l1.3-0.6
				l-1-1.9C554.6,276.1,552.9,275.1,551.1,275.1L551.1,275.1z M549.2,277c0.5-0.4,1.1-0.5,1.8-0.5c0.6,0,1.3,0.1,1.8,0.5v4.6h-3.7
				L549.2,277L549.2,277z"/>
			<path class="st9" d="M551.1,274.3c1.6,0,2.9-1.3,2.9-2.9c0-1.6-1.3-2.9-2.9-2.9s-2.9,1.3-2.9,2.9
				C548.2,273,549.4,274.3,551.1,274.3z M551.1,269.9c0.8,0,1.4,0.6,1.4,1.4c0,0.8-0.6,1.4-1.4,1.4c-0.8,0-1.4-0.6-1.4-1.4
				C549.7,270.5,550.2,269.9,551.1,269.9z"/>
		</g>
	</g>
	<g>
		<g>
			<path class="st5" d="M659,280.3l1.3-0.6l-1-1.9c-0.9-1.6-2.5-2.7-4.4-2.7c-1.9,0-3.5,1-4.4,2.7l-1,1.9l1.3,0.6l1-1.9
				c0.1-0.1,0.1-0.4,0.3-0.5l-1,6.2h1.4v2h1.5v-2h1.9v2h1.5v-2h1.4l-1-6.2c0.1,0.1,0.3,0.3,0.3,0.5L659,280.3z M656.1,276.7l1,5.9
				h-4.2l1-5.9c0.4-0.1,0.8-0.1,1.1-0.1C655.3,276.5,655.7,276.6,656.1,276.7L656.1,276.7z"/>
			<path class="st5" d="M655,274.3c1.6,0,2.9-1.3,2.9-2.9c0-1.6-1.3-2.9-2.9-2.9s-2.9,1.3-2.9,2.9C652,273,653.4,274.3,655,274.3z
				 M655,269.9c0.8,0,1.4,0.6,1.4,1.4c0,0.8-0.6,1.4-1.4,1.4s-1.4-0.6-1.4-1.4C653.6,270.5,654.2,269.9,655,269.9z"/>
		</g>
		<g>
			<path class="st9" d="M655,241.7c-3.3,0-6.3,1.9-8,4.8l-1.8,3.3l2.4,1.3l1.4-2.5v13.3h2.7v-5.6h6.6v5.6h2.7v-13.3l1.4,2.5l2.4-1.3
				l-1.8-3.3C661.4,243.6,658.4,241.7,655,241.7L655,241.7z M651.7,245.3c1-0.6,2.2-0.9,3.3-0.9c1.1,0,2.3,0.4,3.3,0.9v8.2h-6.6
				L651.7,245.3L651.7,245.3z"/>
			<path class="st9" d="M655,240.3c2.9,0,5.2-2.4,5.2-5.2s-2.4-5.2-5.2-5.2c-2.9,0-5.2,2.4-5.2,5.2S652.2,240.3,655,240.3z
				 M655,232.6c1.4,0,2.5,1.1,2.5,2.5c0,1.4-1.1,2.5-2.5,2.5s-2.5-1.1-2.5-2.5C652.4,233.7,653.6,232.6,655,232.6z"/>
		</g>
	</g>
</g>
<g>
	<g>
		<g>
			<path class="st9" d="M504.9,352.6c2.1,0,3.7,1.5,4.1,3.4l6.5,30.6c0.7,3.1,3.5,5.4,6.8,5.4c3.2,0,6.2-2.4,6.8-5.6l5.6-29.8
				c0.4-2.2,2.4-4,4.7-4c0.4,0,0.7,0,1.2,0.1c1.3,0.3,2.4,1,2.9,2.2c0.6,1.2,0.9,2.4,0.6,3.7l-7.2,28.5c-1.3,5.1-1.3,10.6-0.1,15.9
				l7.3,31.2c0.4,1.9-0.6,4-2.5,4.7c-0.4,0.1-0.9,0.3-1.5,0.3c-1.9,0-3.5-1.3-4-3.1l-6.8-29.8c-0.7-3.2-3.5-5.4-6.8-5.4
				c-3.2,0-6,2.2-6.8,5.4l-6.6,29.5c-0.4,1.9-2.2,3.2-4.1,3.2c-0.3,0-0.7,0-1-0.1c-2.2-0.6-3.7-2.8-3.1-5.1l7.2-30.3
				c1.2-5,1.2-10.3,0-15.1l-7.3-30.7c-0.3-1.2-0.1-2.2,0.6-3.2c0.7-1,1.6-1.6,2.8-1.9C504.3,352.6,504.6,352.6,504.9,352.6
				 M504.9,350.4c-0.4,0-0.9,0-1.3,0.1c-3.5,0.7-5.9,4.3-5,7.8L506,389c1.2,4.7,1.2,9.6,0,14.1l-7.2,30.3c-0.9,3.4,1.3,6.9,4.7,7.8
				c0.6,0.1,1,0.1,1.6,0.1c2.9,0,5.6-2.1,6.3-5l6.6-29.5c0.4-2.2,2.5-3.7,4.7-3.7c2.2,0,4.1,1.5,4.7,3.7l6.8,29.8
				c0.7,2.9,3.2,4.8,6,4.8c0.7,0,1.5-0.1,2.2-0.4c2.9-1.2,4.6-4.3,3.8-7.3l-7.3-31.2c-1.2-4.8-1.2-9.8,0.1-14.8l7.2-28.7
				c1-3.8-1.3-7.6-5.1-8.5c-0.6-0.1-1.2-0.1-1.6-0.1c-3.2,0-6.2,2.4-6.9,5.7l-5.6,29.8c-0.4,2.2-2.4,3.8-4.6,3.8s-4.1-1.6-4.6-3.7
				l-6.5-30.6C510.5,352.4,507.9,350.4,504.9,350.4L504.9,350.4z"/>
		</g>
	</g>
	<g>
		<g>
			<path class="st9" d="M564.7,352.6c2.1,0,3.7,1.5,4.1,3.4l6.5,30.6c0.7,3.1,3.5,5.4,6.8,5.4c3.2,0,6.2-2.4,6.8-5.6l5.6-29.8
				c0.4-2.2,2.4-4,4.7-4c0.4,0,0.7,0,1.2,0.1c1.3,0.3,2.4,1,2.9,2.2c0.6,1.2,0.9,2.4,0.6,3.7l-7.2,28.5c-1.3,5.1-1.3,10.6-0.1,15.9
				l7.3,31.2c0.4,1.9-0.6,4-2.5,4.7c-0.4,0.1-0.9,0.3-1.5,0.3c-1.9,0-3.5-1.3-4-3.1l-6.8-29.8c-0.7-3.2-3.5-5.4-6.8-5.4
				c-3.2,0-6,2.2-6.8,5.4l-6.6,29.5c-0.4,1.9-2.2,3.2-4.1,3.2c-0.3,0-0.7,0-1-0.1c-2.2-0.6-3.7-2.8-3.1-5.1l7.2-30.3
				c1.2-5,1.2-10.3,0-15.1l-7.3-30.7c-0.3-1.2-0.1-2.2,0.6-3.2s1.6-1.6,2.8-1.9C564.1,352.6,564.4,352.6,564.7,352.6 M564.7,350.4
				c-0.4,0-0.9,0-1.3,0.1c-3.5,0.7-5.9,4.3-5,7.8l7.3,30.7c1.2,4.7,1.2,9.6,0,14.1l-7.2,30.3c-0.9,3.4,1.3,6.9,4.7,7.8
				c0.6,0.1,1,0.1,1.6,0.1c2.9,0,5.6-2.1,6.3-5l6.6-29.5c0.4-2.2,2.5-3.7,4.7-3.7c2.2,0,4.1,1.5,4.7,3.7l6.8,29.8
				c0.7,2.9,3.2,4.8,6,4.8c0.7,0,1.5-0.1,2.2-0.4c2.9-1.2,4.6-4.3,3.8-7.3l-7.3-31.2c-1.2-4.8-1.2-9.8,0.1-14.8L606,359
				c1-3.8-1.3-7.6-5.1-8.5c-0.6-0.1-1.2-0.1-1.6-0.1c-3.2,0-6.2,2.4-6.9,5.7l-5.6,29.8c-0.4,2.2-2.4,3.8-4.6,3.8
				c-2.2,0-4.1-1.6-4.6-3.7l-6.5-30.6C570.3,352.4,567.7,350.4,564.7,350.4L564.7,350.4z"/>
		</g>
	</g>
</g>
<g>
	<path class="st5" d="M282.2,441.5H145.4c-8.9,0-16.2-7.2-16.2-16.2l0,0c0-8.9,7.2-16.2,16.2-16.2h136.7c8.9,0,16.2,7.2,16.2,16.2
		l0,0C298.4,434.3,291.1,441.5,282.2,441.5z"/>
	<g class="st19">
		<path class="st13" d="M161.4,432.7h-1.4V419h1.6l4.6,11l0,0l4.6-11h1.6v13.7h-1.4v-10.2h-0.1l-3.9,9.1h-1.4l-3.9-9.1h-0.1
			L161.4,432.7L161.4,432.7z"/>
		<path class="st13" d="M184.5,422.1v10.6h-1.6V431h-0.1c-0.1,0.5-0.5,0.9-1,1.3c-0.5,0.4-1.2,0.5-2.1,0.5c-1.2,0-2-0.3-2.6-0.8
			c-0.7-0.5-0.9-1.4-0.9-2.5v-7.3h1.6v6.9c0,1.6,0.8,2.3,2.3,2.3c0.8,0,1.4-0.3,2.1-0.8c0.5-0.5,0.8-1.2,0.8-1.8v-6.8L184.5,422.1
			L184.5,422.1z"/>
		<path class="st13" d="M188.2,432.7v-14.4h1.6v14.4H188.2z"/>
		<path class="st13" d="M194.1,422.1v-2.6h1.6v2.6h2.3v1.3h-2.3v6.3c0,0.4,0,0.8,0.1,1c0.1,0.3,0.3,0.4,0.5,0.5
			c0.3,0.1,0.7,0.1,1,0.1c0.3,0,0.5,0,0.8,0v1.3c-0.3,0-0.7,0.1-1.2,0.1c-0.7,0-1,0-1.4-0.1c-0.4-0.1-0.7-0.3-0.9-0.5
			c-0.3-0.3-0.4-0.5-0.4-0.9c-0.1-0.4-0.1-0.8-0.1-1.3v-6.3h-1.6v-1.3L194.1,422.1L194.1,422.1z"/>
		<path class="st13" d="M200.9,418.8c0-0.4,0.1-0.7,0.4-0.8c0.3-0.1,0.5-0.4,0.8-0.4c0.4,0,0.7,0.1,0.8,0.4c0.3,0.3,0.4,0.5,0.4,0.8
			c0,0.3,0,0.4-0.1,0.7c-0.1,0.3-0.3,0.3-0.4,0.4c-0.1,0.1-0.4,0.1-0.7,0.1c-0.4,0-0.7-0.1-0.8-0.4
			C201,419.5,200.9,419.2,200.9,418.8z M201.3,432.7v-10.6h1.6v10.6H201.3z"/>
		<path class="st13" d="M212.4,427.7h-6.3v-1.4h6.3V427.7z"/>
		<path class="st13" d="M219.2,422c1.3,0,2.3,0.4,3.3,1.2c0.9,0.8,1.3,2,1.3,3.4v1.7c0,1.4-0.4,2.6-1.3,3.4c-0.8,0.8-2,1.2-3.3,1.2
			c-1.3,0-2.3-0.4-3.3-1.2c-0.8-0.8-1.2-2-1.2-3.4v-1.7c0-1.4,0.4-2.5,1.3-3.4C216.8,422.4,217.9,422,219.2,422z M216.3,426.8v1.3
			c0,0.7,0.1,1.3,0.4,1.8c0.3,0.5,0.5,0.9,1,1.2c0.4,0.3,0.9,0.4,1.6,0.4c0.9,0,1.6-0.3,2.1-0.9c0.5-0.7,0.8-1.4,0.8-2.5v-1.3
			c0-1-0.3-1.8-0.8-2.5c-0.5-0.7-1.2-0.9-2.1-0.9c-0.9,0-1.6,0.3-2.1,0.9C216.5,425,216.3,425.8,216.3,426.8z"/>
		<path class="st13" d="M226.9,432.7v-10.6h1.6v1.7h0.1c0.4-1.2,1.3-1.8,2.9-1.8c0.4,0,0.8,0,1,0.1c0.4,0.1,0.7,0.3,0.9,0.4
			c0.3,0.1,0.4,0.4,0.7,0.7c0.1,0.3,0.3,0.5,0.4,0.8h0.1c0.3-0.5,0.7-1,1.2-1.4c0.5-0.4,1.2-0.5,2-0.5c1,0,2,0.3,2.6,0.8
			c0.7,0.5,0.9,1.4,0.9,2.5v7.4h-1.6v-7c0-0.7-0.1-1.2-0.5-1.7c-0.4-0.4-0.9-0.7-1.7-0.7c-0.7,0-1.3,0.3-1.7,0.8
			c-0.5,0.5-0.7,1-0.7,1.8v6.8h-1.6v-6.9c0-0.7-0.3-1.3-0.7-1.7c-0.4-0.4-1-0.7-1.7-0.7c-0.7,0-1.3,0.3-1.7,0.7
			c-0.5,0.5-0.7,1-0.7,1.8v6.8L226.9,432.7L226.9,432.7z"/>
		<path class="st13" d="M244.5,418.8c0-0.4,0.1-0.7,0.4-0.8s0.5-0.4,0.8-0.4c0.4,0,0.7,0.1,0.8,0.4c0.3,0.3,0.4,0.5,0.4,0.8
			c0,0.3,0,0.4-0.1,0.7c-0.1,0.1-0.3,0.3-0.4,0.4c-0.1,0.1-0.4,0.1-0.7,0.1c-0.4,0-0.7-0.1-0.8-0.4
			C244.6,419.5,244.5,419.2,244.5,418.8z M244.9,432.7v-10.6h1.6v10.6H244.9z"/>
		<path class="st13" d="M250,428.4v-1.8c0-1.4,0.4-2.5,1.2-3.3c0.8-0.8,1.8-1.2,3.1-1.2c1.2,0,2.2,0.3,2.9,0.9c0.7,0.7,1,1.3,1,2.1
			h-1.6c0-0.1-0.1-0.4-0.1-0.5c-0.1-0.1-0.3-0.4-0.4-0.5c-0.1-0.1-0.4-0.4-0.8-0.5c-0.4-0.1-0.7-0.1-1-0.1c-0.9,0-1.6,0.3-2.1,0.8
			c-0.5,0.5-0.7,1.3-0.7,2.3v1.8c0,0.7,0.1,1.2,0.4,1.6c0.3,0.5,0.5,0.8,0.9,1c0.4,0.3,0.9,0.4,1.4,0.4c1.4,0,2.2-0.5,2.5-1.4h1.6
			c0,0.8-0.4,1.4-1,2.1c-0.7,0.7-1.7,0.9-2.9,0.9c-1.3,0-2.3-0.4-3.1-1.2C250.3,430.8,250,429.7,250,428.4z"/>
		<path class="st13" d="M260.7,425.1c0-1,0.4-1.8,1-2.3c0.8-0.5,1.7-0.8,2.7-0.8c0.5,0,1,0.1,1.6,0.3c0.5,0.1,0.8,0.4,1.2,0.7
			c0.3,0.3,0.5,0.5,0.8,0.9c0.1,0.4,0.3,0.8,0.3,1.2h-1.4c0-0.3-0.1-0.5-0.3-0.8c-0.1-0.3-0.4-0.4-0.8-0.7c-0.4-0.1-0.8-0.3-1.2-0.3
			c-0.4,0-0.8,0.1-1.2,0.1c-0.4,0.1-0.7,0.3-0.8,0.5c-0.1,0.3-0.3,0.5-0.3,0.9c0,0.3,0,0.5,0.1,0.7c0.1,0.1,0.3,0.3,0.4,0.4
			s0.3,0.1,0.5,0.3s0.5,0.1,0.7,0.1s0.4,0.1,0.7,0.1c0,0,0,0,0.1,0c0,0,0,0,0.1,0c0.1,0,0,0,0.1,0c0.4,0,0.7,0.1,0.9,0.1
			c0.3,0.1,0.5,0.1,0.9,0.3c0.3,0.1,0.5,0.3,0.8,0.4c0.3,0.1,0.4,0.3,0.5,0.5c0.1,0.3,0.3,0.4,0.4,0.7c0.1,0.3,0.1,0.5,0.1,0.9
			c0,1-0.4,1.8-1.2,2.3c-0.8,0.5-1.7,0.9-3,0.9c-1.2,0-2.1-0.3-2.7-0.8c-0.7-0.5-1-1.2-1-2.1h1.6c0.1,1,0.9,1.6,2.3,1.6
			c0.5,0,1-0.1,1.4-0.3c0.4-0.1,0.7-0.4,0.8-0.7c0.1-0.3,0.3-0.5,0.3-0.9c0-0.3,0-0.4-0.1-0.7c-0.1-0.1-0.3-0.3-0.4-0.4
			c-0.1-0.1-0.4-0.3-0.7-0.3c-0.3-0.1-0.5-0.1-0.7-0.3c-0.1,0-0.5-0.1-0.8-0.1c-0.5-0.1-0.9-0.1-1.2-0.3c-0.3-0.1-0.7-0.1-0.9-0.4
			c-0.4-0.1-0.7-0.3-0.8-0.5c-0.1-0.1-0.4-0.4-0.5-0.8C260.8,425.9,260.7,425.6,260.7,425.1z"/>
	</g>
</g>
<g>
	<path class="st9" d="M709.7,361.4H540.1c-8.9,0-16.2-7.2-16.2-16.2l0,0c0-8.9,7.2-16.2,16.2-16.2h169.5c8.9,0,16.2,7.2,16.2,16.2
		l0,0C725.8,354.2,718.6,361.4,709.7,361.4z"/>
	<g class="st19">
		<path class="st13" d="M552.6,348.8h1.6c0.1,0.8,0.4,1.3,1,1.8c0.7,0.5,1.4,0.7,2.5,0.7c0.9,0,1.7-0.3,2.3-0.7
			c0.7-0.4,0.9-1,0.9-1.8c0-0.5-0.1-1-0.5-1.4c-0.4-0.4-0.9-0.7-1.7-0.8l-2.5-0.7c-0.9-0.3-1.7-0.7-2.2-1.2
			c-0.7-0.5-0.9-1.3-0.9-2.3c0-0.8,0.3-1.6,0.7-2.1c0.5-0.7,1-1,1.7-1.3c0.7-0.3,1.4-0.4,2.2-0.4c0.7,0,1.2,0.1,1.7,0.3
			c0.5,0.1,1,0.4,1.4,0.7c0.5,0.3,0.8,0.7,1,1.2c0.3,0.5,0.4,1,0.4,1.7h-1.6c-0.1-0.8-0.4-1.3-0.9-1.7c-0.5-0.4-1.3-0.7-2.2-0.7
			c-0.9,0-1.6,0.3-2.2,0.7c-0.5,0.4-0.8,1-0.8,1.7c0,1,0.7,1.7,2,2.1l2.3,0.7c1.2,0.3,2,0.8,2.6,1.3c0.7,0.5,0.9,1.3,0.9,2.3
			c0,1.3-0.5,2.3-1.4,3c-0.9,0.7-2.2,1-3.7,1c-0.8,0-1.6-0.1-2.2-0.4s-1.2-0.5-1.6-0.9c-0.4-0.4-0.7-0.8-0.8-1.3
			C552.8,349.8,552.6,349.4,552.6,348.8z"/>
		<path class="st13" d="M569.5,352.6c-1.4,0-2.5-0.4-3.3-1.2c-0.8-0.8-1.2-2-1.2-3.4v-1.7c0-1.4,0.4-2.5,1.2-3.3
			c0.8-0.8,1.8-1.3,3.1-1.3c1.3,0,2.3,0.4,3.1,1.3c0.8,0.8,1.2,2,1.2,3.3v1.3h-6.9v0.5c0,0.9,0.3,1.6,0.8,2.2
			c0.5,0.5,1.2,0.9,2.1,0.9c0.7,0,1.2-0.1,1.6-0.4c0.4-0.3,0.7-0.5,0.8-0.9h1.7c0,0.3-0.1,0.7-0.4,0.9c-0.1,0.3-0.4,0.5-0.8,0.9
			c-0.4,0.4-0.8,0.5-1.2,0.7C570.6,352.6,570.1,352.6,569.5,352.6z M566.7,346.5h5.3v-0.1c0-0.7-0.1-1.2-0.4-1.6
			c-0.3-0.5-0.5-0.8-0.9-1c-0.4-0.3-0.9-0.4-1.4-0.4c-0.8,0-1.4,0.3-2,0.8C566.8,344.7,566.6,345.5,566.7,346.5L566.7,346.5
			L566.7,346.5z"/>
		<path class="st13" d="M582.8,352.5l-2.6-4l0,0l-2.6,4h-1.8l3.5-5.2l-3.5-5.3h2l2.5,4l0,0l2.6-4h1.8l-3.5,5.1l3.7,5.3L582.8,352.5
			L582.8,352.5z"/>
		<path class="st13" d="M595.6,341.8c0.8,0,1.4,0.1,2,0.5c0.5,0.4,0.9,0.8,1,1.2h0.1v-5.3h1.6v14.4h-1.4v-1.7h-0.1
			c-0.1,0.5-0.5,0.9-1,1.3c-0.5,0.4-1.3,0.5-2.1,0.5c-1.2,0-2.2-0.4-2.9-1.2c-0.8-0.8-1.2-1.8-1.2-3.1v-2.2c0-1.3,0.4-2.3,1.2-3.1
			C593.3,342.2,594.2,341.8,595.6,341.8z M595.7,343.2c-0.9,0-1.6,0.3-2,0.9c-0.4,0.7-0.8,1.4-0.8,2.5v1.4c0,1,0.3,1.8,0.8,2.5
			c0.5,0.5,1.2,0.9,2.1,0.9c0.9,0,1.6-0.3,2.1-0.8c0.5-0.5,0.8-1.3,0.8-2.3v-2c0-0.8-0.3-1.6-0.8-2.1
			C597.2,343.5,596.6,343.2,595.7,343.2z"/>
		<path class="st13" d="M603.8,338.7c0-0.4,0.1-0.7,0.4-0.8c0.3-0.1,0.5-0.4,0.8-0.4c0.4,0,0.7,0.1,0.8,0.4c0.3,0.3,0.4,0.5,0.4,0.8
			c0,0.3,0,0.4-0.1,0.7c-0.1,0.3-0.3,0.3-0.4,0.4s-0.4,0.1-0.7,0.1c-0.4,0-0.7-0.1-0.8-0.4C603.9,339.3,603.8,339.1,603.8,338.7z
			 M604.2,352.5v-10.6h1.6v10.6H604.2z"/>
		<path class="st13" d="M610.7,352.5v-9.1h-1.8v-1.3h1.8v-1c0-1,0.3-1.7,0.8-2.2c0.5-0.5,1.3-0.7,2.5-0.7c0.4,0,0.8,0,1.2,0.1v1.3
			c-0.3,0-0.5,0-0.9,0c-0.7,0-1.2,0.1-1.4,0.4c-0.3,0.3-0.4,0.7-0.4,1.3v0.9h2.5v1.3h-2.5v9.1L610.7,352.5L610.7,352.5z"/>
		<path class="st13" d="M618.5,352.5v-9.1h-1.8v-1.3h1.8v-1c0-1,0.3-1.7,0.8-2.2c0.5-0.5,1.3-0.7,2.5-0.7c0.4,0,0.8,0,1.2,0.1v1.3
			c-0.3,0-0.5,0-0.9,0c-0.7,0-1.2,0.1-1.4,0.4c-0.3,0.3-0.4,0.7-0.4,1.3v0.9h2.5v1.3h-2.5v9.1L618.5,352.5L618.5,352.5z"/>
		<path class="st13" d="M629.5,352.6c-1.4,0-2.5-0.4-3.3-1.2s-1.2-2-1.2-3.4v-1.7c0-1.4,0.4-2.5,1.2-3.3c0.8-0.8,1.8-1.3,3.1-1.3
			c1.3,0,2.3,0.4,3.1,1.3c0.8,0.8,1.2,2,1.2,3.3v1.3h-6.9v0.5c0,0.9,0.3,1.6,0.8,2.2c0.5,0.5,1.2,0.9,2.1,0.9c0.7,0,1.2-0.1,1.6-0.4
			c0.4-0.3,0.7-0.5,0.8-0.9h1.7c0,0.3-0.1,0.7-0.4,0.9c-0.1,0.3-0.4,0.5-0.8,0.9s-0.8,0.5-1.2,0.7
			C630.7,352.6,630,352.6,629.5,352.6z M626.6,346.5h5.3v-0.1c0-0.7-0.1-1.2-0.4-1.6c-0.3-0.5-0.5-0.8-0.9-1
			c-0.4-0.3-0.9-0.4-1.4-0.4c-0.8,0-1.4,0.3-2,0.8C626.7,344.7,626.5,345.5,626.6,346.5L626.6,346.5L626.6,346.5z"/>
		<path class="st13" d="M636.9,352.5v-10.6h1.6v1.7h0.1c0.1-0.5,0.5-0.9,0.9-1.3c0.5-0.4,1.2-0.5,2-0.5c0.1,0,0.4,0,0.7,0v1.4
			c-0.1,0-0.4,0-0.8,0c-0.7,0-1.2,0.1-1.6,0.4c-0.4,0.3-0.8,0.5-0.9,0.9c-0.1,0.4-0.3,0.8-0.3,1.3v6.7H636.9L636.9,352.5z"/>
		<path class="st13" d="M648.4,352.6c-1.4,0-2.5-0.4-3.3-1.2s-1.2-2-1.2-3.4v-1.7c0-1.4,0.4-2.5,1.2-3.3c0.8-0.8,1.8-1.3,3.1-1.3
			c1.3,0,2.3,0.4,3.1,1.3c0.8,0.8,1.2,2,1.2,3.3v1.3h-6.9v0.5c0,0.9,0.3,1.6,0.8,2.2c0.5,0.5,1.2,0.9,2.1,0.9c0.7,0,1.2-0.1,1.6-0.4
			c0.4-0.3,0.7-0.5,0.8-0.9h1.7c0,0.3-0.1,0.7-0.4,0.9c-0.1,0.3-0.4,0.5-0.8,0.9s-0.8,0.5-1.2,0.7
			C649.6,352.6,649,352.6,648.4,352.6z M645.7,346.5h5.3v-0.1c0-0.7-0.1-1.2-0.4-1.6c-0.3-0.5-0.5-0.8-0.9-1
			c-0.4-0.3-0.9-0.4-1.4-0.4c-0.8,0-1.4,0.3-2,0.8C645.8,344.7,645.5,345.5,645.7,346.5L645.7,346.5L645.7,346.5z"/>
		<path class="st13" d="M655.7,352.5v-10.6h1.6v2h0.1c0.4-1.4,1.6-2.1,3.3-2.1c1,0,2,0.3,2.6,0.9c0.7,0.7,0.9,1.4,0.9,2.6v7.2h-1.6
			v-6.8c0-0.8-0.3-1.4-0.7-2c-0.4-0.4-1-0.7-1.7-0.7c-0.9,0-1.7,0.3-2.2,0.9c-0.5,0.7-0.8,1.4-0.8,2.5v5.9h-1.6V352.5z"/>
		<path class="st13" d="M667.2,348.2v-1.8c0-1.4,0.4-2.5,1.2-3.3c0.8-0.8,1.8-1.2,3.1-1.2c1.2,0,2.2,0.3,2.9,0.9
			c0.7,0.7,1,1.3,1,2.1h-1.6c0-0.1-0.1-0.4-0.1-0.5c-0.1-0.1-0.3-0.4-0.4-0.5c-0.1-0.1-0.4-0.4-0.8-0.5s-0.7-0.1-1-0.1
			c-0.9,0-1.6,0.3-2.1,0.8c-0.5,0.5-0.7,1.3-0.7,2.3v1.8c0,0.7,0.1,1.2,0.4,1.6c0.3,0.5,0.5,0.8,0.9,1c0.4,0.3,0.9,0.4,1.4,0.4
			c1.4,0,2.2-0.5,2.5-1.4h1.6c0,0.8-0.4,1.4-1,2.1c-0.7,0.7-1.7,0.9-2.9,0.9c-1.3,0-2.3-0.4-3.1-1.2
			C667.6,350.7,667.2,349.5,667.2,348.2z"/>
		<path class="st13" d="M682.3,352.6c-1.4,0-2.5-0.4-3.3-1.2s-1.2-2-1.2-3.4v-1.7c0-1.4,0.4-2.5,1.2-3.3c0.8-0.8,1.8-1.3,3.1-1.3
			s2.3,0.4,3.1,1.3c0.8,0.8,1.2,2,1.2,3.3v1.3h-7v0.5c0,0.9,0.3,1.6,0.8,2.2c0.5,0.5,1.2,0.9,2.1,0.9c0.7,0,1.2-0.1,1.6-0.4
			c0.4-0.3,0.7-0.5,0.8-0.9h1.7c0,0.3-0.1,0.7-0.4,0.9c-0.1,0.3-0.4,0.5-0.8,0.9s-0.8,0.5-1.2,0.7
			C683.5,352.6,683,352.6,682.3,352.6z M679.6,346.5h5.3v-0.1c0-0.7-0.1-1.2-0.4-1.6c-0.3-0.5-0.5-0.8-0.9-1
			c-0.4-0.3-0.9-0.4-1.4-0.4c-0.8,0-1.4,0.3-2,0.8C679.7,344.7,679.4,345.5,679.6,346.5L679.6,346.5L679.6,346.5z"/>
		<path class="st13" d="M689.1,344.9c0-1,0.4-1.8,1-2.3c0.8-0.5,1.7-0.8,2.7-0.8c0.5,0,1,0.1,1.6,0.3s0.8,0.4,1.2,0.7
			c0.3,0.3,0.5,0.5,0.8,0.9c0.1,0.4,0.3,0.8,0.3,1.2h-1.4c0-0.3-0.1-0.5-0.3-0.8c-0.1-0.3-0.4-0.4-0.8-0.7c-0.4-0.1-0.8-0.3-1.2-0.3
			c-0.4,0-0.8,0.1-1.2,0.1c-0.4,0.1-0.7,0.3-0.8,0.5c-0.1,0.3-0.3,0.5-0.3,0.9c0,0.3,0,0.5,0.1,0.7c0.1,0.1,0.3,0.3,0.4,0.4
			c0.1,0.1,0.3,0.1,0.5,0.3c0.3,0.1,0.5,0.1,0.7,0.1s0.4,0.1,0.7,0.1c0,0,0,0,0.1,0c0,0,0,0,0.1,0s0,0,0.1,0c0.4,0,0.7,0.1,0.9,0.1
			c0.3,0.1,0.5,0.1,0.9,0.3c0.3,0.1,0.5,0.3,0.8,0.4c0.3,0.1,0.4,0.3,0.5,0.5c0.1,0.3,0.3,0.4,0.4,0.7c0.1,0.3,0.1,0.5,0.1,0.9
			c0,1-0.4,1.8-1.2,2.3c-0.8,0.5-1.7,0.9-3,0.9c-1.2,0-2.1-0.3-2.7-0.8c-0.7-0.5-1-1.2-1-2.1h1.6c0.1,1,0.9,1.6,2.3,1.6
			c0.5,0,1-0.1,1.4-0.3c0.4-0.1,0.7-0.4,0.8-0.7s0.3-0.5,0.3-0.9c0-0.3,0-0.4-0.1-0.7c-0.1-0.1-0.3-0.3-0.4-0.4
			c-0.1-0.1-0.4-0.3-0.7-0.3c-0.3-0.1-0.5-0.1-0.7-0.3c-0.1,0-0.5-0.1-0.8-0.1c-0.5-0.1-0.9-0.1-1.2-0.3s-0.7-0.1-0.9-0.4
			c-0.4-0.1-0.7-0.3-0.8-0.5c-0.1-0.1-0.4-0.4-0.5-0.8C689.1,345.7,689.1,345.5,689.1,344.9z"/>
	</g>
</g>
<g>
	<path class="st9" d="M240.4,78.3H47.6c-8.9,0-16.2-7.2-16.2-16.2l0,0c0-8.9,7.2-16.2,16.2-16.2h192.8c8.9,0,16.2,7.2,16.2,16.2l0,0
		C256.6,71.1,249.3,78.3,240.4,78.3z"/>
	<g class="st19">
		<path class="st13" d="M55,64.1h1.6c0.1,0.8,0.4,1.3,1,1.8c0.7,0.5,1.4,0.7,2.5,0.7c0.9,0,1.7-0.3,2.3-0.7c0.7-0.4,0.9-1,0.9-1.8
			c0-0.5-0.1-1-0.5-1.4s-0.9-0.7-1.7-0.8l-2.6-0.7c-0.9-0.3-1.7-0.7-2.2-1.2c-0.7-0.5-0.9-1.3-0.9-2.3c0-0.8,0.3-1.6,0.7-2.1
			s1-1,1.7-1.3c0.7-0.3,1.4-0.4,2.2-0.4c0.7,0,1.2,0.1,1.7,0.3c0.5,0.1,1,0.4,1.4,0.7c0.5,0.3,0.8,0.7,1,1.2c0.3,0.5,0.4,1,0.4,1.7
			H63c-0.1-0.8-0.4-1.3-0.9-1.7c-0.5-0.4-1.3-0.7-2.2-0.7s-1.6,0.3-2.2,0.7c-0.5,0.4-0.8,1-0.8,1.7c0,1,0.7,1.7,2,2.1l2.3,0.7
			c1.2,0.3,2,0.8,2.6,1.3s0.9,1.3,0.9,2.3c0,1.3-0.5,2.3-1.4,3s-2.2,1-3.7,1c-0.8,0-1.6-0.1-2.2-0.4s-1.2-0.5-1.6-0.9
			c-0.4-0.4-0.7-0.8-0.8-1.3C55.1,65,55,64.6,55,64.1z"/>
		<path class="st13" d="M68.4,57.1v-2.6H70v2.6h2.3v1.3H70v6.3c0,0.4,0,0.8,0.1,1c0.1,0.3,0.3,0.4,0.5,0.5s0.7,0.1,1,0.1
			c0.3,0,0.5,0,0.8,0v1.3c-0.3,0-0.7,0.1-1.2,0.1c-0.7,0-1,0-1.4-0.1c-0.4-0.1-0.7-0.3-0.9-0.5s-0.4-0.5-0.4-0.9s-0.1-0.8-0.1-1.3
			v-6.3h-1.6v-1.3L68.4,57.1L68.4,57.1z"/>
		<path class="st13" d="M78.2,67.8c-0.5,0-0.9-0.1-1.4-0.3c-0.4-0.1-0.8-0.4-1-0.7s-0.5-0.7-0.7-1c-0.1-0.4-0.3-0.8-0.3-1.3
			c0-0.7,0.1-1.2,0.4-1.6c0.3-0.5,0.7-0.8,1.3-1c0.5-0.3,1.2-0.4,2-0.4h2.9v-1c0-0.7-0.3-1.2-0.7-1.6s-1-0.5-1.7-0.5
			c-1.2,0-2,0.4-2.2,1.3h-1.6c0.1-0.9,0.5-1.6,1.2-2c0.7-0.5,1.6-0.7,2.7-0.7c1.2,0,2.1,0.3,2.7,0.8c0.8,0.5,1,1.4,1,2.6v7.2h-1.6
			v-1.4l0,0C80.7,67.3,79.7,67.8,78.2,67.8z M78.6,66.5c0.8,0,1.4-0.3,2-0.7c0.5-0.5,0.8-1,0.8-1.7V63h-2.7c-0.8,0-1.3,0.1-1.6,0.5
			c-0.3,0.4-0.5,0.8-0.5,1.3c0,0.7,0.3,1,0.7,1.4C77.6,66.4,78.1,66.5,78.6,66.5z"/>
		<path class="st13" d="M87.1,57.1v-2.6h1.6v2.6H91v1.3h-2.3v6.3c0,0.4,0,0.8,0.1,1c0.1,0.3,0.3,0.4,0.5,0.5s0.7,0.1,1,0.1
			c0.3,0,0.5,0,0.8,0v1.3c-0.3,0-0.7,0.1-1.2,0.1c-0.7,0-1,0-1.4-0.1c-0.4-0.1-0.7-0.3-0.9-0.5c-0.3-0.3-0.4-0.5-0.4-0.9
			s-0.1-0.8-0.1-1.3v-6.3h-1.6v-1.3L87.1,57.1L87.1,57.1z"/>
		<path class="st13" d="M94,53.9c0-0.4,0.1-0.7,0.4-0.8c0.3-0.3,0.5-0.4,0.8-0.4c0.4,0,0.7,0.1,0.8,0.4c0.3,0.1,0.4,0.5,0.4,0.8
			c0,0.3,0,0.4-0.1,0.7c-0.1,0.1-0.3,0.3-0.4,0.4s-0.4,0.1-0.7,0.1c-0.4,0-0.7-0.1-0.8-0.4C94,54.5,94,54.3,94,53.9z M94.4,67.7
			V57.1H96v10.6H94.4z"/>
		<path class="st13" d="M99.4,60.1c0-1,0.4-1.8,1-2.3c0.8-0.5,1.7-0.8,2.7-0.8c0.5,0,1,0.1,1.6,0.3c0.5,0.1,0.8,0.4,1.2,0.7
			c0.3,0.3,0.5,0.5,0.8,0.9c0.1,0.4,0.3,0.8,0.3,1.2h-1.4c0-0.3-0.1-0.5-0.3-0.8s-0.4-0.4-0.8-0.7c-0.4-0.1-0.8-0.3-1.2-0.3
			c-0.4,0-0.8,0.1-1.2,0.1c-0.4,0.1-0.7,0.3-0.8,0.5c-0.1,0.3-0.3,0.5-0.3,0.9c0,0.3,0,0.5,0.1,0.7c0.1,0.1,0.3,0.3,0.4,0.4
			s0.3,0.1,0.5,0.3c0.3,0.1,0.5,0.1,0.7,0.1c0.1,0,0.4,0.1,0.7,0.1c0,0,0,0,0.1,0c0,0,0,0,0.1,0c0,0,0,0,0.1,0
			c0.4,0,0.7,0.1,0.9,0.1c0.3,0.1,0.5,0.1,0.9,0.3c0.3,0.1,0.5,0.3,0.8,0.4c0.3,0.1,0.4,0.3,0.5,0.5c0.1,0.3,0.3,0.4,0.4,0.7
			c0.1,0.3,0.1,0.5,0.1,0.9c0,1-0.4,1.8-1.2,2.3c-0.8,0.5-1.7,0.9-3,0.9c-1.2,0-2.1-0.3-2.7-0.8c-0.7-0.5-1-1.2-1-2.1h1.6
			c0.1,1,0.9,1.6,2.3,1.6c0.5,0,1-0.1,1.4-0.3c0.4-0.1,0.7-0.4,0.8-0.7c0.1-0.3,0.3-0.5,0.3-0.9c0-0.3,0-0.4-0.1-0.7
			c-0.1-0.1-0.3-0.3-0.4-0.4c-0.1-0.1-0.4-0.3-0.7-0.3c-0.5,0.3-0.8,0.1-0.9,0.1s-0.5-0.1-0.8-0.1c-0.5-0.1-0.9-0.1-1.2-0.3
			c-0.3-0.1-0.7-0.1-0.9-0.4c-0.4-0.1-0.7-0.3-0.8-0.5c-0.1-0.1-0.4-0.4-0.5-0.8C99.4,60.9,99.4,60.5,99.4,60.1z"/>
		<path class="st13" d="M110.7,57.1v-2.6h1.6v2.6h2.3v1.3h-2.3v6.3c0,0.4,0,0.8,0.1,1c0.1,0.3,0.3,0.4,0.5,0.5
			c0.3,0.1,0.7,0.1,1,0.1c0.3,0,0.5,0,0.8,0v1.3c-0.3,0-0.7,0.1-1.2,0.1c-0.7,0-1,0-1.4-0.1c-0.4-0.1-0.7-0.3-0.9-0.5
			c-0.3-0.3-0.4-0.5-0.4-0.9c-0.1-0.4-0.1-0.8-0.1-1.3v-6.3h-1.6v-1.3L110.7,57.1L110.7,57.1z"/>
		<path class="st13" d="M117.6,53.9c0-0.4,0.1-0.7,0.4-0.8c0.3-0.3,0.5-0.4,0.8-0.4c0.4,0,0.7,0.1,0.8,0.4c0.3,0.3,0.4,0.5,0.4,0.8
			c0,0.3,0,0.4-0.1,0.7c-0.1,0.1-0.3,0.3-0.4,0.4c-0.1,0.1-0.4,0.1-0.7,0.1c-0.4,0-0.7-0.1-0.8-0.4
			C117.8,54.5,117.6,54.3,117.6,53.9z M118,67.7V57.1h1.6v10.6H118z"/>
		<path class="st13" d="M123,63.4v-1.8c0-1.4,0.4-2.5,1.2-3.3c0.8-0.8,1.8-1.2,3.1-1.2c1.2,0,2.2,0.3,2.9,0.9c0.7,0.7,1,1.3,1,2.1
			h-1.6c0-0.1-0.1-0.4-0.1-0.5c-0.1-0.1-0.3-0.4-0.4-0.5c-0.1-0.1-0.4-0.4-0.8-0.5c-0.3-0.1-0.7-0.1-1-0.1c-0.9,0-1.6,0.3-2.1,0.8
			s-0.7,1.3-0.7,2.3v1.8c0,0.7,0.1,1.2,0.4,1.6c0.3,0.5,0.5,0.8,0.9,1c0.4,0.3,0.9,0.4,1.4,0.4c1.4,0,2.2-0.5,2.5-1.4h1.6
			c0,0.8-0.4,1.4-1,2.1c-0.7,0.7-1.7,0.9-2.9,0.9c-1.3,0-2.3-0.4-3.1-1.2C123.4,65.9,123,64.7,123,63.4z"/>
		<path class="st13" d="M137.1,67.8c-0.5,0-0.9-0.1-1.4-0.3c-0.4-0.1-0.8-0.4-1-0.7c-0.3-0.3-0.5-0.7-0.7-1
			c-0.1-0.4-0.3-0.8-0.3-1.3c0-0.7,0.1-1.2,0.4-1.6c0.3-0.5,0.7-0.8,1.3-1c0.5-0.3,1.2-0.4,2-0.4h2.9v-1c0-0.7-0.3-1.2-0.7-1.6
			s-1-0.5-1.7-0.5c-1.2,0-2,0.4-2.2,1.3h-1.6c0.1-0.9,0.5-1.6,1.2-2c0.7-0.5,1.6-0.7,2.7-0.7c1.2,0,2.1,0.3,2.7,0.8
			c0.8,0.5,1,1.4,1,2.6v7.2h-1.6v-1.4l0,0C139.6,67.3,138.5,67.8,137.1,67.8z M137.5,66.5c0.8,0,1.4-0.3,2-0.7
			c0.5-0.5,0.8-1,0.8-1.7V63h-2.7c-0.8,0-1.3,0.1-1.6,0.5c-0.4,0.3-0.5,0.8-0.5,1.3c0,0.7,0.3,1,0.7,1.4
			C136.4,66.4,136.9,66.5,137.5,66.5z"/>
		<path class="st13" d="M145.4,67.7V53.4h1.6v14.4H145.4z"/>
		<path class="st13" d="M159.1,70.2c0.9,0,1.7-0.3,2.2-0.8c0.5-0.5,0.8-1.2,0.8-2.1v-1.4H162c-0.1,0.3-0.4,0.5-0.7,0.8
			c-0.3,0.3-0.7,0.4-1,0.7c-0.4,0.1-0.8,0.3-1.3,0.3c-0.8,0-1.4-0.1-2.1-0.5c-0.7-0.4-1.2-0.8-1.6-1.6c-0.4-0.7-0.5-1.4-0.5-2.3
			v-1.8c0-0.7,0.1-1.3,0.4-1.8c0.3-0.5,0.5-1,0.9-1.4c0.4-0.4,0.8-0.7,1.3-0.9c0.5-0.3,1-0.3,1.7-0.3c0.8,0,1.4,0.1,2,0.5
			c0.5,0.4,0.9,0.8,1.2,1.2h0.1V57h1.4v10.3c0,1.4-0.4,2.5-1.2,3.1c-0.8,0.7-2,1-3.4,1c-1.3,0-2.2-0.3-2.9-0.8c-0.7-0.5-1-1.2-1.2-2
			h1.7c0.1,0.4,0.4,0.8,0.8,1C157.8,70.1,158.3,70.2,159.1,70.2z M159.3,58.4c-0.4,0-0.9,0.1-1.2,0.3c-0.4,0.1-0.7,0.4-0.9,0.7
			c-0.3,0.3-0.4,0.7-0.5,1c-0.1,0.4-0.1,0.9-0.1,1.4v1c0,1,0.3,1.8,0.8,2.3c0.5,0.7,1.3,0.9,2.1,0.9c0.8,0,1.6-0.3,2-0.9
			c0.5-0.5,0.8-1.3,0.8-2.1v-1.7c0-0.8-0.3-1.6-0.8-2.1C160.7,58.7,160,58.4,159.3,58.4z"/>
		<path class="st13" d="M170.9,67.8c-1.4,0-2.5-0.4-3.3-1.2c-0.8-0.8-1.2-2-1.2-3.4v-1.7c0-1.4,0.4-2.5,1.2-3.3
			c0.8-0.8,1.8-1.3,3.1-1.3s2.3,0.4,3.1,1.3c0.8,0.9,1.2,2,1.2,3.3v1.3h-6.9v0.5c0,0.9,0.3,1.6,0.8,2.2c0.5,0.5,1.2,0.9,2.1,0.9
			c0.7,0,1.2-0.1,1.6-0.4c0.4-0.3,0.7-0.5,0.8-0.9h1.7c0,0.3-0.1,0.7-0.4,0.9c-0.1,0.3-0.4,0.5-0.8,0.9c-0.3,0.3-0.8,0.5-1.2,0.7
			C172,67.8,171.5,67.8,170.9,67.8z M168.1,61.7h5.3v-0.1c0-0.7-0.1-1.2-0.4-1.6c-0.3-0.5-0.5-0.8-0.9-1c-0.4-0.3-0.9-0.4-1.4-0.4
			c-0.8,0-1.4,0.3-2,0.8s-0.8,1.3-0.8,2.2L168.1,61.7L168.1,61.7z"/>
		<path class="st13" d="M178.2,67.7V57.1h1.6v2h0.1c0.4-1.4,1.6-2.1,3.3-2.1c1,0,2,0.3,2.6,0.9s0.9,1.4,0.9,2.6v7.2h-1.6v-6.8
			c0-0.8-0.3-1.4-0.7-2c-0.4-0.4-1-0.7-1.7-0.7c-0.9,0-1.7,0.3-2.2,0.9c-0.5,0.7-0.8,1.4-0.8,2.5v5.9L178.2,67.7L178.2,67.7z"/>
		<path class="st13" d="M194.1,67.8c-1.4,0-2.5-0.4-3.3-1.2c-0.8-0.8-1.2-2-1.2-3.4v-1.7c0-1.4,0.4-2.5,1.2-3.3
			c0.8-0.8,1.8-1.3,3.1-1.3s2.3,0.4,3.1,1.3c0.8,0.8,1.2,2,1.2,3.3v1.3h-6.9v0.5c0,0.9,0.3,1.6,0.8,2.2c0.5,0.5,1.2,0.9,2.1,0.9
			c0.7,0,1.2-0.1,1.6-0.4c0.4-0.3,0.7-0.5,0.8-0.9h1.7c0,0.3-0.1,0.7-0.4,0.9c-0.1,0.3-0.4,0.5-0.8,0.9c-0.4,0.4-0.8,0.5-1.2,0.7
			C195.3,67.8,194.7,67.8,194.1,67.8z M191.2,61.7h5.3v-0.1c0-0.7-0.1-1.2-0.4-1.6c-0.3-0.5-0.5-0.8-0.9-1s-0.9-0.4-1.4-0.4
			c-0.8,0-1.4,0.3-2,0.8c-0.5,0.5-0.8,1.3-0.8,2.2L191.2,61.7L191.2,61.7z"/>
		<path class="st13" d="M201.9,57.1v-2.6h1.6v2.6h2.3v1.3h-2.3v6.3c0,0.4,0,0.8,0.1,1c0.1,0.3,0.3,0.4,0.5,0.5
			c0.3,0.1,0.7,0.1,1,0.1c0.3,0,0.5,0,0.8,0v1.3c-0.3,0-0.7,0.1-1.2,0.1c-0.7,0-1,0-1.4-0.1s-0.7-0.3-0.9-0.5
			c-0.3-0.3-0.4-0.5-0.4-0.9c-0.1-0.4-0.1-0.8-0.1-1.3v-6.3h-1.6v-1.3L201.9,57.1L201.9,57.1z"/>
		<path class="st13" d="M208.7,53.9c0-0.4,0.1-0.7,0.4-0.8c0.3-0.3,0.5-0.4,0.8-0.4c0.4,0,0.7,0.1,0.8,0.4c0.3,0.3,0.4,0.5,0.4,0.8
			c0,0.3,0,0.4-0.1,0.7c-0.1,0.1-0.3,0.3-0.4,0.4s-0.4,0.1-0.7,0.1c-0.4,0-0.7-0.1-0.8-0.4C208.8,54.5,208.7,54.3,208.7,53.9z
			 M209.1,67.7V57.1h1.6v10.6H209.1z"/>
		<path class="st13" d="M214.2,63.4v-1.8c0-1.4,0.4-2.5,1.2-3.3c0.8-0.8,1.8-1.2,3.1-1.2c1.2,0,2.2,0.3,2.9,0.9c0.7,0.7,1,1.3,1,2.1
			h-1.6c0-0.1-0.1-0.4-0.1-0.5c-0.1-0.1-0.3-0.4-0.4-0.5c-0.1-0.1-0.4-0.4-0.8-0.5c-0.3-0.1-0.7-0.1-1-0.1c-0.9,0-1.6,0.3-2.1,0.8
			c-0.5,0.5-0.7,1.3-0.7,2.3v1.8c0,0.7,0.1,1.2,0.4,1.6c0.3,0.5,0.5,0.8,0.9,1s0.9,0.4,1.4,0.4c1.4,0,2.2-0.5,2.5-1.4h1.6
			c0,0.8-0.4,1.4-1,2.1c-0.7,0.7-1.7,0.9-2.9,0.9c-1.3,0-2.3-0.4-3.1-1.2C214.6,65.9,214.2,64.7,214.2,63.4z"/>
		<path class="st13" d="M224.9,60.1c0-1,0.4-1.8,1-2.3c0.8-0.5,1.7-0.8,2.7-0.8c0.5,0,1,0.1,1.6,0.3c0.5,0.1,0.8,0.4,1.2,0.7
			c0.3,0.3,0.5,0.5,0.8,0.9s0.3,0.8,0.3,1.2H231c0-0.3-0.1-0.5-0.3-0.8c-0.1-0.3-0.4-0.4-0.8-0.7c-0.4-0.1-0.8-0.3-1.2-0.3
			c-0.4,0-0.8,0.1-1.2,0.1c-0.4,0.1-0.7,0.3-0.8,0.5c-0.1,0.3-0.3,0.5-0.3,0.9c0,0.3,0,0.5,0.1,0.7c0.1,0.1,0.3,0.3,0.4,0.4
			c0.1,0.1,0.3,0.1,0.5,0.3c0.3,0.1,0.5,0.1,0.7,0.1c0.1,0,0.4,0.1,0.7,0.1c0,0,0,0,0.1,0c0,0,0,0,0.1,0c0,0,0,0,0.1,0
			c0.4,0,0.7,0.1,0.9,0.1c0.3,0.1,0.5,0.1,0.9,0.3c0.3,0.1,0.5,0.3,0.8,0.4c0.3,0.1,0.4,0.3,0.5,0.5c0.1,0.3,0.3,0.4,0.4,0.7
			c0.1,0.3,0.1,0.5,0.1,0.9c0,1-0.4,1.8-1.2,2.3c-0.8,0.5-1.7,0.9-3,0.9c-1.2,0-2.1-0.3-2.7-0.8c-0.7-0.5-1-1.2-1-2.1h1.6
			c0.1,1,0.9,1.6,2.3,1.6c0.5,0,1-0.1,1.4-0.3s0.7-0.4,0.8-0.7s0.3-0.5,0.3-0.9c0-0.3,0-0.4-0.1-0.7c-0.1-0.1-0.3-0.3-0.4-0.4
			c-0.1-0.1-0.4-0.3-0.7-0.3c-0.3-0.1-0.5-0.1-0.7-0.3c-0.1,0-0.5-0.1-0.8-0.1c-0.5-0.1-0.9-0.1-1.2-0.3c-0.3-0.1-0.7-0.1-0.9-0.4
			c-0.3-0.3-0.7-0.3-0.8-0.5c-0.1-0.1-0.4-0.4-0.5-0.8C225,60.9,224.9,60.5,224.9,60.1z"/>
	</g>
</g>
<g>
	<path class="st9" d="M700.2,63.1H486c-8.4,0-15.1-6.8-15.1-15.1v-2c0-8.4,6.8-15.1,15.1-15.1h214.4c8.4,0,15.1,6.8,15.1,15.1v2
		C715.5,56.4,708.7,63.1,700.2,63.1z"/>
	<g class="st19">
		<path class="st13" d="M502,38.9h5c1.3,0,2.3,0.4,3.1,1.2c0.8,0.8,1.2,1.8,1.2,3c0,1.3-0.4,2.3-1.2,3c-0.8,0.7-1.8,1.2-3.1,1.2
			h-3.3v5.2h-1.6L502,38.9L502,38.9z M503.7,40.4v5.5h2.1c0.4,0,0.8,0,1.2,0c0.3,0,0.7-0.1,0.9-0.1c0.3,0,0.5-0.1,0.8-0.3
			c0.3-0.1,0.4-0.3,0.5-0.5c0.1-0.3,0.3-0.5,0.4-0.8c0.1-0.3,0.1-0.7,0.1-1c0-0.9-0.3-1.6-0.7-2.1c-0.5-0.5-1.2-0.8-2-0.8
			C507,40.4,503.7,40.4,503.7,40.4z"/>
		<path class="st13" d="M518,41.9c1.3,0,2.3,0.4,3.3,1.2c0.8,0.8,1.3,2,1.3,3.4v1.7c0,1.4-0.4,2.6-1.3,3.4c-0.8,0.8-2,1.2-3.3,1.2
			c-1.3,0-2.3-0.4-3.3-1.2c-0.8-0.8-1.2-2-1.2-3.4v-1.7c0-1.4,0.4-2.5,1.3-3.4C515.6,42.3,516.7,41.9,518,41.9z M515,46.8v1.3
			c0,0.7,0.1,1.3,0.4,1.8c0.3,0.5,0.5,0.9,1,1.2c0.4,0.3,0.9,0.4,1.6,0.4c0.9,0,1.6-0.3,2.1-0.9c0.5-0.7,0.8-1.4,0.8-2.5v-1.3
			c0-1-0.3-1.8-0.8-2.5c-0.5-0.7-1.2-0.9-2.1-0.9s-1.6,0.3-2.1,0.9C515.2,44.9,515,45.7,515,46.8z"/>
		<path class="st13" d="M530.2,52.8c-1.6,0-2.5-0.5-3-1.7h-0.1v5.2h-1.6V42.1h1.4v1.7h0.1c0.1-0.5,0.5-0.9,1-1.3
			c0.5-0.4,1.2-0.5,2.1-0.5c1.2,0,2.2,0.4,2.9,1.2c0.8,0.8,1,1.8,1,3.3v2c0,1.4-0.4,2.5-1.2,3.3C532.4,52.4,531.5,52.8,530.2,52.8z
			 M530,51.5c0.8,0,1.6-0.3,2-0.9c0.5-0.5,0.8-1.4,0.8-2.6v-1.2c0-1.2-0.3-2-0.8-2.6c-0.5-0.5-1.2-0.9-2.1-0.9s-1.6,0.3-2.1,0.8
			c-0.5,0.5-0.8,1.3-0.8,2.3v2c0,0.9,0.3,1.6,0.8,2.1C528.4,51.1,529.2,51.5,530,51.5z"/>
		<path class="st13" d="M545.9,42.1v10.6h-1.6v-1.7h-0.1c-0.1,0.5-0.5,0.9-1,1.3c-0.5,0.4-1.2,0.5-2.1,0.5c-1.2,0-2-0.3-2.6-0.8
			c-0.7-0.5-0.9-1.4-0.9-2.5v-7.3h1.6v6.9c0,1.6,0.8,2.3,2.3,2.3c0.8,0,1.4-0.3,2.1-0.8c0.5-0.5,0.8-1.2,0.8-1.8v-6.8
			C544.3,42.1,545.9,42.1,545.9,42.1z"/>
		<path class="st13" d="M549.5,52.6V38.3h1.6v14.4H549.5z"/>
		<path class="st13" d="M557.8,52.8c-0.5,0-0.9-0.1-1.4-0.3c-0.4-0.1-0.8-0.4-1-0.7c-0.3-0.3-0.5-0.7-0.7-1
			c-0.1-0.4-0.3-0.8-0.3-1.3c0-0.7,0.1-1.2,0.4-1.6c0.3-0.5,0.7-0.8,1.3-1c0.5-0.3,1.2-0.4,2-0.4h2.9v-1c0-0.7-0.3-1.2-0.7-1.6
			c-0.4-0.4-1-0.5-1.7-0.5c-1.2,0-2,0.4-2.2,1.3h-1.6c0.1-0.9,0.5-1.6,1.2-2c0.7-0.5,1.6-0.7,2.7-0.7c1.2,0,2.1,0.3,2.7,0.8
			c0.8,0.5,1,1.4,1,2.6v7.2h-1.6v-1.4l0,0C560.1,52.3,559.1,52.8,557.8,52.8z M558.2,51.5c0.8,0,1.4-0.3,2-0.7
			c0.5-0.5,0.8-1,0.8-1.7v-1.2h-2.7c-0.8,0-1.3,0.1-1.6,0.5s-0.5,0.8-0.5,1.3c0,0.7,0.3,1,0.7,1.4C557,51.3,557.5,51.5,558.2,51.5z"
			/>
		<path class="st13" d="M566.5,42.1v-2.6h1.6v2.6h2.3v1.3h-2.3v6.3c0,0.4,0,0.8,0.1,1c0.1,0.3,0.3,0.4,0.5,0.5
			c0.3,0.1,0.7,0.1,1,0.1c0.3,0,0.5,0,0.8,0v1.3c-0.3,0-0.7,0.1-1.2,0.1c-0.7,0-1,0-1.4-0.1s-0.7-0.3-0.9-0.5
			c-0.3-0.3-0.4-0.5-0.4-0.9c-0.1-0.4-0.1-0.8-0.1-1.3v-6.3h-1.6v-1.3L566.5,42.1L566.5,42.1z"/>
		<path class="st13" d="M573.4,38.8c0-0.4,0.1-0.7,0.4-0.8c0.3-0.3,0.5-0.4,0.8-0.4c0.4,0,0.7,0.1,0.8,0.4c0.3,0.3,0.4,0.5,0.4,0.8
			c0,0.3,0,0.4-0.1,0.7c-0.1,0.1-0.3,0.3-0.4,0.4s-0.4,0.1-0.7,0.1c-0.4,0-0.7-0.1-0.8-0.4C573.5,39.5,573.4,39.2,573.4,38.8z
			 M573.8,52.6V42.1h1.6v10.6H573.8z"/>
		<path class="st13" d="M583.2,41.9c1.3,0,2.3,0.4,3.3,1.2c0.8,0.8,1.3,2,1.3,3.4v1.7c0,1.4-0.4,2.6-1.3,3.4c-0.8,0.8-2,1.2-3.3,1.2
			c-1.3,0-2.3-0.4-3.3-1.2c-0.8-0.8-1.2-2-1.2-3.4v-1.7c0-1.4,0.4-2.5,1.3-3.4C580.9,42.3,582,41.9,583.2,41.9z M580.3,46.8v1.3
			c0,0.7,0.1,1.3,0.4,1.8c0.3,0.5,0.5,0.9,1,1.2c0.4,0.3,0.9,0.4,1.6,0.4c0.9,0,1.6-0.3,2.1-0.9c0.5-0.7,0.8-1.4,0.8-2.5v-1.3
			c0-1-0.3-1.8-0.8-2.5c-0.5-0.7-1.2-0.9-2.1-0.9c-0.9,0-1.6,0.3-2.1,0.9C580.6,44.9,580.3,45.7,580.3,46.8z"/>
		<path class="st13" d="M590.9,52.6V42.1h1.6v2h0.1c0.4-1.4,1.6-2.1,3.3-2.1c1,0,2,0.3,2.6,0.9c0.7,0.7,0.9,1.4,0.9,2.6v7.2h-1.6
			v-6.8c0-0.8-0.3-1.4-0.7-2c-0.4-0.4-1-0.7-1.7-0.7c-0.9,0-1.7,0.3-2.2,0.9c-0.5,0.7-0.8,1.4-0.8,2.5v5.9L590.9,52.6L590.9,52.6z"
			/>
		<path class="st13" d="M611.3,55.1c0.9,0,1.7-0.3,2.2-0.8c0.5-0.5,0.8-1.2,0.8-2.1v-1.4h-0.1c-0.1,0.3-0.4,0.5-0.7,0.8
			c-0.3,0.3-0.7,0.4-1,0.7c-0.4,0.1-0.8,0.3-1.3,0.3c-0.8,0-1.4-0.1-2.1-0.5c-0.7-0.4-1.2-0.8-1.6-1.6c-0.4-0.7-0.5-1.4-0.5-2.3
			v-1.8c0-0.7,0.1-1.3,0.4-1.8c0.3-0.5,0.5-1,0.9-1.4s0.8-0.7,1.3-0.9c0.5-0.3,1-0.3,1.7-0.3c0.8,0,1.4,0.1,2,0.5
			c0.5,0.4,0.9,0.8,1.2,1.2h0.1v-1.6h1.4v10.3c0,1.4-0.4,2.5-1.2,3.1c-0.8,0.7-2,1-3.4,1c-1.3,0-2.2-0.3-2.9-0.8
			c-0.7-0.5-1-1.2-1.2-2h1.7c0.1,0.4,0.4,0.8,0.8,1S610.6,55.1,611.3,55.1z M611.4,43.4c-0.4,0-0.9,0.1-1.2,0.3
			c-0.4,0.1-0.7,0.4-0.9,0.7c-0.3,0.3-0.4,0.7-0.5,1c-0.1,0.4-0.1,0.9-0.1,1.4v1c0,1,0.3,1.8,0.8,2.3c0.5,0.7,1.3,0.9,2.1,0.9
			s1.6-0.3,2-0.9c0.5-0.5,0.8-1.3,0.8-2.1v-1.7c0-0.8-0.3-1.6-0.8-2.1C613,43.6,612.3,43.4,611.4,43.4z"/>
		<path class="st13" d="M623.1,52.8c-1.4,0-2.5-0.4-3.3-1.2s-1.2-2-1.2-3.4v-1.7c0-1.4,0.4-2.5,1.2-3.3c0.8-0.8,1.8-1.3,3.1-1.3
			c1.3,0,2.3,0.4,3.1,1.3s1.2,2,1.2,3.3v1.3h-6.9v0.5c0,0.9,0.3,1.6,0.8,2.2c0.5,0.5,1.2,0.9,2.1,0.9c0.7,0,1.2-0.1,1.6-0.4
			s0.7-0.5,0.8-0.9h1.7c0,0.3-0.1,0.7-0.4,0.9c-0.1,0.3-0.4,0.5-0.8,0.9c-0.4,0.4-0.8,0.5-1.2,0.7C624.3,52.8,623.7,52.8,623.1,52.8
			z M620.3,46.6h5.3v-0.1c0-0.7-0.1-1.2-0.4-1.6c-0.3-0.5-0.5-0.8-0.9-1c-0.4-0.3-0.9-0.4-1.4-0.4c-0.8,0-1.4,0.3-2,0.8
			c-0.5,0.5-0.8,1.3-0.8,2.2L620.3,46.6L620.3,46.6z"/>
		<path class="st13" d="M630.3,52.6V42.1h1.6v2h0.1c0.4-1.4,1.6-2.1,3.3-2.1c1,0,2,0.3,2.6,0.9c0.7,0.7,0.9,1.4,0.9,2.6v7.2h-1.6
			v-6.8c0-0.8-0.3-1.4-0.7-2c-0.4-0.4-1-0.7-1.7-0.7c-0.9,0-1.7,0.3-2.2,0.9c-0.5,0.7-0.8,1.4-0.8,2.5v5.9L630.3,52.6L630.3,52.6z"
			/>
		<path class="st13" d="M646.4,52.8c-1.4,0-2.5-0.4-3.3-1.2s-1.2-2-1.2-3.4v-1.7c0-1.4,0.4-2.5,1.2-3.3c0.8-0.8,1.8-1.3,3.1-1.3
			s2.3,0.4,3.1,1.3s1.2,2,1.2,3.3v1.3h-6.9v0.5c0,0.9,0.3,1.6,0.8,2.2c0.5,0.5,1.2,0.9,2.1,0.9c0.7,0,1.2-0.1,1.6-0.4
			s0.7-0.5,0.8-0.9h1.7c0,0.3-0.1,0.7-0.4,0.9c-0.1,0.3-0.4,0.5-0.8,0.9c-0.4,0.4-0.8,0.5-1.2,0.7C647.4,52.8,646.9,52.8,646.4,52.8
			z M643.5,46.6h5.3v-0.1c0-0.7-0.1-1.2-0.4-1.6c-0.3-0.5-0.5-0.8-0.9-1c-0.4-0.3-0.9-0.4-1.4-0.4c-0.8,0-1.4,0.3-2,0.8
			c-0.5,0.5-0.8,1.3-0.8,2.2L643.5,46.6L643.5,46.6z"/>
		<path class="st13" d="M654.1,42.1v-2.6h1.6v2.6h2.3v1.3h-2.3v6.3c0,0.4,0,0.8,0.1,1s0.3,0.4,0.5,0.5c0.3,0.1,0.7,0.1,1,0.1
			c0.3,0,0.5,0,0.8,0v1.3c-0.3,0-0.7,0.1-1.2,0.1c-0.7,0-1,0-1.4-0.1s-0.7-0.3-0.9-0.5s-0.4-0.5-0.4-0.9c-0.1-0.4-0.1-0.8-0.1-1.3
			v-6.3h-1.6v-1.3L654.1,42.1L654.1,42.1z"/>
		<path class="st13" d="M661,38.8c0-0.4,0.1-0.7,0.4-0.8c0.3-0.3,0.5-0.4,0.8-0.4c0.4,0,0.7,0.1,0.8,0.4c0.3,0.3,0.4,0.5,0.4,0.8
			c0,0.3,0,0.4-0.1,0.7c-0.1,0.1-0.3,0.3-0.4,0.4c-0.1,0.1-0.4,0.1-0.7,0.1c-0.4,0-0.7-0.1-0.8-0.4C661.1,39.5,661,39.2,661,38.8z
			 M661.4,52.6V42.1h1.6v10.6H661.4z"/>
		<path class="st13" d="M666.3,48.3v-1.8c0-1.4,0.4-2.5,1.2-3.3c0.8-0.8,1.8-1.2,3.1-1.2c1.2,0,2.2,0.3,2.9,0.9c0.7,0.7,1,1.3,1,2.1
			H673c0-0.1-0.1-0.4-0.1-0.5c-0.1-0.1-0.3-0.4-0.4-0.5c-0.1-0.1-0.4-0.4-0.8-0.5c-0.3-0.1-0.7-0.1-1-0.1c-0.9,0-1.6,0.3-2.1,0.8
			c-0.5,0.5-0.7,1.3-0.7,2.3v1.8c0,0.7,0.1,1.2,0.4,1.6c0.3,0.5,0.5,0.8,0.9,1c0.4,0.3,0.9,0.4,1.4,0.4c1.4,0,2.2-0.5,2.5-1.4h1.6
			c0,0.8-0.4,1.4-1,2.1c-0.7,0.7-1.7,0.9-2.9,0.9c-1.3,0-2.3-0.4-3.1-1.2C666.7,50.8,666.3,49.6,666.3,48.3z"/>
		<path class="st13" d="M677.1,45.1c0-1,0.4-1.8,1-2.3c0.8-0.5,1.7-0.8,2.7-0.8c0.5,0,1,0.1,1.6,0.3c0.5,0.1,0.8,0.4,1.2,0.7
			c0.4,0.3,0.5,0.5,0.8,0.9c0.3,0.4,0.3,0.8,0.3,1.2h-1.4c0-0.3-0.1-0.5-0.3-0.8c-0.1-0.3-0.4-0.4-0.8-0.7c-0.4-0.1-0.8-0.3-1.2-0.3
			c-0.4,0-0.8,0.1-1.2,0.1s-0.7,0.3-0.8,0.5s-0.3,0.5-0.3,0.9c0,0.3,0,0.5,0.1,0.7s0.3,0.3,0.4,0.4c0.1,0.1,0.3,0.1,0.5,0.3
			c0.3,0.1,0.5,0.1,0.7,0.1s0.4,0.1,0.7,0.1c0,0,0,0,0.1,0c0,0,0,0,0.1,0c0,0,0,0,0.1,0c0.4,0,0.7,0.1,0.9,0.1
			c0.3,0.1,0.5,0.1,0.9,0.3c0.3,0.1,0.5,0.3,0.8,0.4c0.3,0.1,0.4,0.3,0.5,0.5c0.1,0.3,0.3,0.4,0.4,0.7c0.1,0.3,0.1,0.5,0.1,0.9
			c0,1-0.4,1.8-1.2,2.3c-0.8,0.5-1.7,0.9-3,0.9c-1.2,0-2.1-0.3-2.7-0.8c-0.7-0.5-1-1.2-1-2.1h1.6c0.1,1,0.9,1.6,2.3,1.6
			c0.5,0,1-0.1,1.4-0.3s0.7-0.4,0.8-0.7c0.1-0.3,0.3-0.5,0.3-0.9c0-0.3,0-0.4-0.1-0.7c-0.1-0.1-0.3-0.3-0.4-0.4s-0.4-0.3-0.7-0.3
			c-0.3-0.1-0.5-0.1-0.7-0.3c-0.1,0-0.5-0.1-0.9-0.1c-0.5-0.1-0.9-0.1-1.2-0.3c-0.3-0.1-0.7-0.1-0.9-0.4c-0.3-0.3-0.7-0.3-0.8-0.5
			c-0.1-0.1-0.4-0.4-0.5-0.8C677.1,45.9,677.1,45.5,677.1,45.1z"/>
	</g>
</g>
<g>
	<path class="st5" d="M456.2,241.3H290.8c-8.9,0-16.2-7.2-16.2-16.2l0,0c0-8.9,7.2-16.2,16.2-16.2h165.3c8.9,0,16.2,7.2,16.2,16.2
		l0,0C472.3,234,465.2,241.3,456.2,241.3z"/>
	<g class="st19">
		<path class="st13" d="M306.2,232.4v-13.7h5.1c1.2,0,2,0.3,2.7,0.9c0.7,0.7,1,1.4,1,2.5c0,0.8-0.1,1.4-0.5,2
			c-0.4,0.5-0.9,0.9-1.6,1l0,0c0.5,0.1,0.9,0.3,1.3,0.4c0.4,0.1,0.7,0.4,0.9,0.8c0.3,0.3,0.4,0.7,0.5,1c0.1,0.4,0.1,0.8,0.1,1.3
			c0,1.2-0.4,2.2-1.3,2.9c-0.9,0.7-2,1-3.5,1L306.2,232.4L306.2,232.4z M307.8,220.3v4.4h2.1c1.2,0,2.1-0.1,2.6-0.5
			c0.5-0.4,0.8-0.9,0.8-1.7s-0.3-1.3-0.7-1.7s-1-0.5-1.7-0.5H307.8L307.8,220.3z M307.8,226.2v4.8h2.5c0.5,0,0.9,0,1.3,0
			c0.4,0,0.8-0.1,1-0.3c0.4-0.1,0.7-0.3,0.8-0.4c0.3-0.1,0.4-0.4,0.5-0.7c0.1-0.3,0.3-0.7,0.3-1c0-0.8-0.3-1.4-0.8-1.8
			c-0.5-0.4-1.3-0.7-2.1-0.7H307.8L307.8,226.2z"/>
		<path class="st13" d="M318.6,218.7c0-0.4,0.1-0.7,0.4-0.8c0.3-0.3,0.5-0.4,0.8-0.4c0.4,0,0.7,0.1,0.8,0.4c0.1,0.3,0.4,0.5,0.4,0.8
			c0,0.3,0,0.4-0.1,0.7c-0.1,0.1-0.3,0.3-0.4,0.4c-0.1,0.1-0.4,0.1-0.7,0.1c-0.4,0-0.7-0.1-0.8-0.4
			C318.8,219.4,318.6,219,318.6,218.7z M319,232.4v-10.6h1.6v10.6H319z"/>
		<path class="st13" d="M328.6,221.9c1.3,0,2.3,0.4,3.3,1.2c0.9,0.8,1.3,2,1.3,3.4v1.7c0,1.4-0.4,2.6-1.3,3.4
			c-0.8,0.8-2,1.2-3.3,1.2c-1.3,0-2.3-0.4-3.3-1.2c-0.8-0.8-1.2-2-1.2-3.4v-1.7c0-1.4,0.4-2.5,1.3-3.4
			C326.2,222.2,327.2,221.9,328.6,221.9z M325.7,226.6v1.3c0,0.7,0.1,1.3,0.4,1.8c0.3,0.5,0.5,0.9,1,1.2c0.4,0.3,0.9,0.4,1.6,0.4
			c0.9,0,1.6-0.3,2.1-0.9c0.5-0.7,0.8-1.4,0.8-2.5v-1.3c0-1-0.3-1.8-0.8-2.5c-0.5-0.7-1.2-0.9-2.1-0.9s-1.6,0.3-2.1,0.9
			C325.9,224.7,325.7,225.5,325.7,226.6z"/>
		<path class="st13" d="M336,218.7c0-0.4,0.1-0.7,0.4-0.8c0.3-0.1,0.5-0.4,0.8-0.4c0.4,0,0.7,0.1,0.8,0.4c0.3,0.3,0.4,0.5,0.4,0.8
			c0,0.3,0,0.4-0.1,0.7c-0.1,0.1-0.3,0.3-0.4,0.4c-0.1,0.1-0.4,0.1-0.7,0.1c-0.4,0-0.7-0.1-0.8-0.4C336.1,219.4,336,219,336,218.7z
			 M336.4,232.4v-10.6h1.6v10.6H336.4z"/>
		<path class="st13" d="M342,232.4v-10.6h1.6v2h0.1c0.4-1.4,1.6-2.1,3.3-2.1c1,0,2,0.3,2.6,0.9s0.9,1.4,0.9,2.6v7.2h-1.6v-6.8
			c0-0.8-0.3-1.4-0.7-2c-0.4-0.4-1-0.7-1.7-0.7c-0.9,0-1.7,0.3-2.2,0.9c-0.5,0.7-0.8,1.4-0.8,2.5v5.9H342V232.4z"/>
		<path class="st13" d="M354.9,232.4v-9.1h-1.8V222h1.8v-1c0-1,0.3-1.7,0.8-2.2c0.5-0.5,1.3-0.7,2.5-0.7c0.4,0,0.8,0,1.2,0.1v1.3
			c-0.3,0-0.5,0-0.9,0c-0.7,0-1.2,0.1-1.4,0.4c-0.3,0.3-0.4,0.7-0.4,1.3v0.9h2.5v1.3h-2.5v9.1L354.9,232.4L354.9,232.4z"/>
		<path class="st13" d="M365.9,221.9c1.3,0,2.3,0.4,3.3,1.2c0.8,0.8,1.3,2,1.3,3.4v1.7c0,1.4-0.4,2.6-1.3,3.4
			c-0.8,0.8-2,1.2-3.3,1.2c-1.3,0-2.3-0.4-3.3-1.2c-0.8-0.8-1.2-2-1.2-3.4v-1.7c0-1.4,0.4-2.5,1.3-3.4
			C363.5,222.2,364.6,221.9,365.9,221.9z M363,226.6v1.3c0,0.7,0.1,1.3,0.4,1.8c0.3,0.5,0.5,0.9,1,1.2c0.4,0.3,0.9,0.4,1.6,0.4
			c0.9,0,1.6-0.3,2.1-0.9c0.5-0.7,0.8-1.4,0.8-2.5v-1.3c0-1-0.3-1.8-0.8-2.5c-0.5-0.7-1.2-0.9-2.1-0.9c-0.9,0-1.6,0.3-2.1,0.9
			C363.3,224.7,363,225.5,363,226.6z"/>
		<path class="st13" d="M373.7,232.4v-10.6h1.6v1.7h0.1c0.1-0.5,0.5-0.9,0.9-1.3c0.5-0.4,1.2-0.5,2-0.5c0.1,0,0.4,0,0.7,0v1.4
			c-0.1,0-0.4,0-0.8,0c-0.7,0-1.2,0.1-1.6,0.4c-0.4,0.3-0.8,0.5-0.9,0.9c-0.3,0.4-0.3,0.8-0.3,1.3v6.7L373.7,232.4L373.7,232.4z"/>
		<path class="st13" d="M381.4,232.4v-10.6h1.6v1.7h0.1c0.4-1.2,1.3-1.8,2.9-1.8c0.4,0,0.8,0,1,0.1c0.4,0.1,0.7,0.3,0.9,0.4
			c0.3,0.1,0.4,0.4,0.7,0.7c0.1,0.3,0.3,0.5,0.4,0.8h0.1c0.3-0.5,0.7-1,1.2-1.4s1.2-0.5,2-0.5c1,0,2,0.3,2.6,0.8s0.9,1.4,0.9,2.5
			v7.4h-1.8v-7c0-0.7-0.1-1.2-0.5-1.7c-0.4-0.4-0.9-0.7-1.7-0.7c-0.7,0-1.3,0.3-1.7,0.8c-0.5,0.5-0.7,1-0.7,1.8v6.8h-1.6v-6.9
			c0-0.7-0.3-1.3-0.7-1.7s-1-0.7-1.7-0.7c-0.7,0-1.3,0.3-1.7,0.7c-0.5,0.5-0.7,1-0.7,1.8v6.8H381.4z"/>
		<path class="st13" d="M402,232.7c-0.5,0-0.9-0.1-1.4-0.3c-0.4-0.1-0.8-0.4-1-0.7c-0.3-0.3-0.5-0.7-0.7-1c-0.1-0.4-0.3-0.8-0.3-1.3
			c0-0.7,0.1-1.2,0.4-1.6c0.3-0.5,0.7-0.8,1.3-1c0.5-0.3,1.2-0.4,2-0.4h2.9v-1c0-0.7-0.3-1.2-0.7-1.6s-1-0.5-1.7-0.5
			c-1.2,0-2,0.4-2.2,1.3H399c0.1-0.9,0.5-1.6,1.2-2c0.7-0.5,1.6-0.7,2.7-0.7s2.1,0.3,2.7,0.8c0.8,0.5,1,1.4,1,2.6v7.2h-1.6v-1.4l0,0
			C404.4,232.2,403.4,232.7,402,232.7z M402.4,231.2c0.8,0,1.4-0.3,2-0.7c0.5-0.4,0.8-1,0.8-1.7v-1.2h-2.7c-0.8,0-1.3,0.1-1.6,0.5
			c-0.4,0.3-0.5,0.8-0.5,1.3c0,0.7,0.3,1,0.7,1.4C401.2,231.1,401.7,231.2,402.4,231.2z"/>
		<path class="st13" d="M410.8,222v-2.6h1.6v2.6h2.3v1.3h-2.3v6.3c0,0.4,0,0.8,0.1,1s0.3,0.4,0.5,0.5c0.3,0.1,0.7,0.1,1,0.1
			c0.3,0,0.5,0,0.8,0v1.3c-0.3,0-0.7,0.1-1.2,0.1c-0.7,0-1,0-1.4-0.1c-0.4-0.1-0.7-0.3-0.9-0.5c-0.3-0.3-0.4-0.5-0.4-0.9
			c-0.1-0.4-0.1-0.8-0.1-1.3v-6.3h-1.6v-1.3L410.8,222L410.8,222z"/>
		<path class="st13" d="M417.7,218.7c0-0.4,0.1-0.7,0.4-0.8c0.3-0.3,0.5-0.4,0.8-0.4c0.4,0,0.7,0.1,0.8,0.4c0.3,0.3,0.4,0.5,0.4,0.8
			c0,0.3,0,0.4-0.1,0.7c-0.1,0.1-0.3,0.3-0.4,0.4c-0.1,0.1-0.4,0.1-0.7,0.1c-0.4,0-0.7-0.1-0.8-0.4
			C417.8,219.4,417.7,219,417.7,218.7z M418.1,232.4v-10.6h1.6v10.6H418.1z"/>
		<path class="st13" d="M423.1,228.1v-1.8c0-1.4,0.4-2.5,1.2-3.3s1.8-1.2,3.1-1.2c1.2,0,2.2,0.3,2.9,0.9c0.7,0.7,1,1.3,1,2.1h-1.6
			c0-0.1-0.1-0.4-0.1-0.5c-0.1-0.1-0.3-0.4-0.4-0.5c-0.1-0.1-0.4-0.4-0.8-0.5c-0.3-0.1-0.7-0.1-1-0.1c-0.9,0-1.6,0.3-2.1,0.8
			c-0.5,0.5-0.7,1.3-0.7,2.3v1.8c0,0.7,0.1,1.2,0.4,1.6c0.3,0.5,0.5,0.8,0.9,1c0.4,0.3,0.9,0.4,1.4,0.4c1.4,0,2.2-0.5,2.5-1.4h1.6
			c0,0.8-0.4,1.4-1,2.1c-0.7,0.7-1.7,0.9-2.9,0.9c-1.3,0-2.3-0.4-3.1-1.2C423.5,230.6,423.1,229.6,423.1,228.1z"/>
		<path class="st13" d="M433.8,225c0-1,0.4-1.8,1-2.3c0.8-0.5,1.7-0.8,2.7-0.8c0.5,0,1,0.1,1.6,0.3c0.5,0.1,0.8,0.4,1.2,0.7
			c0.3,0.3,0.5,0.5,0.8,0.9c0.3,0.4,0.3,0.8,0.3,1.2H440c0-0.3-0.1-0.5-0.3-0.8c-0.1-0.3-0.4-0.4-0.8-0.7c-0.4-0.1-0.8-0.3-1.2-0.3
			s-0.8,0.1-1.2,0.1c-0.4,0.1-0.7,0.3-0.8,0.5c-0.1,0.3-0.3,0.5-0.3,0.9c0,0.3,0,0.5,0.1,0.7c0.1,0.1,0.3,0.3,0.4,0.4
			c0.1,0.1,0.3,0.1,0.5,0.3c0.3,0.1,0.5,0.1,0.7,0.1c0.1,0,0.4,0.1,0.7,0.1c0,0,0,0,0.1,0c0,0,0,0,0.1,0s0,0,0.1,0
			c0.4,0,0.7,0.1,0.9,0.1c0.3,0.1,0.5,0.1,0.9,0.3c0.3,0.1,0.5,0.3,0.8,0.4c0.3,0.1,0.4,0.3,0.5,0.5c0.1,0.3,0.3,0.4,0.4,0.7
			c0.1,0.3,0.1,0.5,0.1,0.9c0,1-0.4,1.8-1.2,2.3c-0.8,0.5-1.7,0.9-3,0.9c-1.2,0-2.1-0.3-2.7-0.8c-0.7-0.5-1-1.2-1-2.1h1.6
			c0.1,1,0.9,1.6,2.3,1.6c0.5,0,1-0.1,1.4-0.3c0.4-0.1,0.7-0.4,0.8-0.7c0.1-0.3,0.3-0.5,0.3-0.9c0-0.3,0-0.4-0.1-0.7
			c-0.1-0.1-0.3-0.3-0.4-0.4c-0.1-0.1-0.4-0.3-0.7-0.3c-0.3-0.1-0.5-0.1-0.7-0.3c-0.1,0-0.5-0.1-0.8-0.1c-0.5-0.1-0.9-0.1-1.2-0.3
			c-0.3-0.1-0.7-0.1-0.9-0.4c-0.4-0.1-0.7-0.3-0.8-0.5c-0.1-0.1-0.4-0.4-0.5-0.8C434.2,225.2,433.8,225.4,433.8,225z"/>
	</g>
</g>
<path class="st20" d="M635.6,534.6c0,3-5,4.6-6.9,7.3c-2.6-1-5.2-2.5-7.1-4.4c0.1-0.4,0.4-0.7,0.5-1
	C627.4,528.2,635.6,528.6,635.6,534.6z"/>
<g>
	<path class="st5" d="M736.3,654.6H10.7c-3.4,0-5.6-1.9-4.1-3.5l37.2-41.9c0.8-0.8,2.4-1.4,4.1-1.4h651.2c1.8,0,3.4,0.5,4.1,1.4
		l37.2,41.9C741.9,652.7,739.7,654.6,736.3,654.6z"/>
	<path class="st21" d="M589.8,602.5c-5.6-3-16.9-1.8-14.4,6.1l0,0c0.5,1,5,5.9,5.8,8.5c0.9,3.3-2.2,11.1-2.2,11.1s-2.7,1.7-1.4,3
		c0.1,0.1,0.3,0.1,0.4,0.1h5.1c0.3,0,0.5-0.1,0.8-0.3c1.3-1.3,5.4-6.7,6.9-11.1c0.8-2.4,2-8.5,2-8.5
		C593.5,609.3,591.9,603.7,589.8,602.5z"/>
	<path class="st21" d="M533.5,604.1c4.2,3.7,3.5,9.3,1,12.8c-4.7,8.1-10.2,13.2-11.5,14.4c-0.1,0.1-0.4,0.3-0.7,0.3h-5
		c-0.3,0-0.5-0.3-0.5-0.5c0-0.8,0.1-2.2,2.4-2.7c1.4-2.9,2.5-6,3-9.3l2.6-16C527.6,601.6,531,602,533.5,604.1z"/>
	<g>
		<path class="st22" d="M631,534.6c0,3-5,4.6-6.9,7.3c-0.1,0.3-0.3,0.5-0.4,0.7c-0.4,0.8-0.7,1.6-0.8,2.4c-0.8,4.4,0.8,9.9,0,15.6
			c-1.6,11.6-10.7,18.8-14.9,20.9c-0.3,0.1-0.3,0.4-0.3,0.5c0.4,1.3,0.5,3,0.5,4.8c0,5-0.9,11.1-1.4,13.5c-1.3,5.9,1.3,11.6,1.6,15
			c0.1,2.1-5.2,13.7-7.2,15.7c-0.3,0.1-0.4,0.3-0.8,0.3h-5.1c-0.1,0-0.3,0-0.4-0.1c-1.4-1.4,1.2-3,1.2-3l2.2-11.4
			c0-0.1,0-0.3-0.1-0.4c-0.7-0.9-3.1-2.7-5.8-5.1c-1.4-1.3-2.9-2.6-4.2-3.9c-0.1-0.1-0.4-0.3-0.8-0.3c-1.7,0.4-6.4,1-12.2,1.4
			c-9.5,0.8-21.8,1.4-28,0.8c-0.1,0-0.1,0-0.3,0c-0.4,0.1-0.7,0.5-0.5,0.9c1.4,5.5,2.5,12.6,1.8,16.3c-0.5,2.7-2.6,4.7-2.7,4.7h-5.1
			c-0.3,0-0.5-0.1-0.5-0.5c-0.1-1.3,1.3-2.1,1.3-2.1c-1.4-5.6-3.9-8.6-6.8-12c-2.5-2.7-5.2-5.8-8-10.5c-0.7-1-1.2-2.2-1.8-3.4
			c-1.2-2.6-2.2-5.2-3.1-8c-1.2-3.7-4.3-6.3-8.1-6.8c-6.3-0.9-9.3-4.6-9.4-7.7c0-2.9,3.3-3.5,3.4-5.4c0-1.4,0.5-2.7,1.2-3.9
			c2.1-3.9,6.1-6.5,6.1-6.5l1-4.3c0-1.3,1.4-2.4,2.6-1.6c9.2,5.9,9.3,10.9,13.3,13.1c0.3,0.1,0.7,0.3,0.9,0.5
			c2.7,1.3,6.4,2,10.6,2.1c17.4,1,44.6-4.4,58.9-1c5.8,1.2,13.7-7.6,14-17.5c0.1-5-0.7-9.7-0.3-13.7c0.1-1.6,0.5-3.1,1.2-4.6
			c0.1-0.4,0.4-0.7,0.5-1C622.8,528.2,631,528.6,631,534.6z"/>
	</g>
	<path class="st20" d="M532.7,573.9c-3.7-0.3-7.1-1.7-9.8-4.1c-3.9-3.4-4.6-1.2-8.4,0.8c-1.8,0.9-3.9,1.2-5.8,0.5
		c2.1-3.9,6.1-6.5,6.1-6.5l1-4.3c0-1.3,1.4-2.4,2.6-1.6c9.2,5.9,9.3,10.9,13.3,13.1c0.3,0.1,0.7,0.3,0.9,0.5
		C532.7,572.7,532.7,573.3,532.7,573.9z"/>
	<path class="st20" d="M622.9,560.5c-1.6,11.6-10.7,18.8-14.9,20.9c-0.3,0.1-0.3,0.4-0.3,0.5c0.4,1.3,0.5,3,0.5,4.8
		c-8.6-0.7-17.3-2.1-25,1.4c-5.2,2.5-9.9,7.2-15.8,6.8c-4.2-0.3-7.7-3.1-10.7-6c-3.9-3.8-7.7-7.8-11.1-12c-0.5-0.7-1.4-1.6-2.4-2.6
		c17.4,1,44.6-4.4,58.9-1c5.8,1.2,13.7-7.6,14-17.5c0.1-5-0.7-9.7-0.3-13.7c2.4,1.2,4.6,2.5,7.1,3
		C622.1,549.4,623.7,554.9,622.9,560.5z"/>
	<path class="st9" d="M531,570.2c-2.5,8.8-11.1,16.5-14.4,19.1c-0.4,0.4-0.5,1-0.3,1.4c0.7,1,2.1,2.4,3.1,2.4c0.1,0,0.4-0.1,0.5-0.1
		c6.8-4.4,12.3-11.5,15.2-20.7C535.4,571.5,531.2,569.6,531,570.2L531,570.2z"/>
	<circle class="st9" cx="503.5" cy="578.7" r="1.4"/>
	<circle class="st23" cx="510.8" cy="574.9" r="1.2"/>
	<g>
		<path class="st24" d="M421.5,516.7h-8.6v101.6l8.6-17.3c4.7,0,8.6-3.9,8.6-8.6v-67.1C430.3,520.5,426.3,516.7,421.5,516.7z"/>
		<path class="st20" d="M421.5,525.3c0-4.7-3.9-8.6-8.6-8.6h-91.6c-4.7,0-8.6,3.9-8.6,8.6v67c0,4.7,3.9,8.6,8.6,8.6l50.1,17.3
			l41.5-17.3c4.7,0,8.6-3.9,8.6-8.6l-21.6-33.5L421.5,525.3z"/>
		<path class="st25" d="M425.2,618.3v21.6h9.4c4.8,0,8.6-3.9,8.6-8.6L425.2,618.3z"/>
		<path class="st21" d="M322.3,622.7l-22.6,8.6c0,4.8,3.9,8.6,8.6,8.6h47.9l15.2-13.9l15.2,13.9h38.6c4.8,0,8.6-3.9,8.6-8.6v-8.6
			H322.3z"/>
		<path class="st25" d="M356.2,622.7h30.3v17.3h-30.3V622.7z"/>
		<path class="st21" d="M432.5,606.2c-1.3-3.1-4.4-5.2-8-5.2h-9.4l18.7,30.3h9.4L432.5,606.2z"/>
		<path class="st26" d="M423.1,606.2l1.4,3.4l-6.8,4.3l10.5,4.3l5.6,12.9H299.7l10.7-25.1c1.3-3.1,4.4-5.2,8-5.2h96.7
			C418.5,600.9,421.6,603,423.1,606.2L423.1,606.2z"/>
		<path class="st13" d="M412.9,525.3l-24.6,33.5l24.6,33.5h8.6v-67H412.9L412.9,525.3z"/>
		<path class="st13" d="M321.3,525.3h91.6v67h-91.6V525.3z"/>
		<path class="st24" d="M428.2,618.3l-3.8-8.6H318.4l-3.7,8.6H428.2z"/>
	</g>
	<g>
		<g>
			<path class="st27" d="M282.3,589.6l-3.3,2.5h-15l-1.7-2.5l3.4-5c0.4-0.5,1-0.9,1.6-0.9h9.9c0.7,0,1.3,0.3,1.6,0.9L282.3,589.6z"
				/>
			<path class="st28" d="M278.9,584.6c-0.4-0.5-1-0.9-1.6-0.9H275c0.7,0,1.3,0.3,1.6,0.9l3.4,5h2.4L278.9,584.6z"/>
		</g>
		<g>
			<path class="st20" d="M293.2,593.8v20.4c0,0.9-0.8,1.7-1.7,1.7h-38.2c-0.9,0-1.7-0.8-1.7-1.7v-20.4c0-0.9,0.8-1.7,1.7-1.7h38.2
				C292.4,592.1,293.2,592.8,293.2,593.8z"/>
			<path class="st24" d="M291.5,592.1h-2c0.9,0,1.7,0.8,1.7,1.7v20.4c0,0.9-0.8,1.7-1.7,1.7h2c0.9,0,1.7-0.8,1.7-1.7v-20.4
				C293.2,592.8,292.4,592.1,291.5,592.1z"/>
		</g>
		<path class="st26" d="M293.2,591.3v3.8h-41.6v-3.8c0-0.9,0.8-1.7,1.7-1.7h38.2C292.4,589.6,293.2,590.4,293.2,591.3L293.2,591.3z"
			/>
		<path class="st21" d="M291.5,589.6h-2c0.9,0,1.7,0.8,1.7,1.7v3.8h2v-3.8C293.2,590.4,292.4,589.6,291.5,589.6z"/>
		<g>
			<path class="st24" d="M288.9,593h-2c-0.4,0-0.7-0.3-0.7-0.7c0-0.4,0.3-0.7,0.7-0.7h2c0.4,0,0.7,0.3,0.7,0.7
				C289.5,592.7,289.3,593,288.9,593z"/>
		</g>
		<path class="st27" d="M260.1,589.6h-5.2v-1.3c0-0.5,0.4-0.9,0.9-0.9h3.3c0.5,0,0.9,0.4,0.9,0.9L260.1,589.6L260.1,589.6z"/>
		<circle class="st27" cx="272.4" cy="602.9" r="10.7"/>
		<path class="st24" d="M272.4,592.1c-0.3,0-0.7,0-0.9,0c5.5,0.5,9.8,5.1,9.8,10.7c0,5.6-4.3,10.2-9.8,10.7c0.3,0,0.7,0,0.9,0
			c5.9,0,10.7-4.8,10.7-10.7C283.1,596.9,278.3,592.1,272.4,592.1L272.4,592.1z"/>
		<circle class="st29" cx="272.4" cy="602.9" r="8"/>
		<path class="st30" d="M272.4,594.9c-0.4,0-0.7,0-1,0c3.9,0.5,6.9,3.8,6.9,7.8c0,4.1-3,7.3-6.9,7.8c0.4,0,0.7,0,1,0
			c4.4,0,8-3.5,8-8C280.4,598.5,276.7,594.9,272.4,594.9L272.4,594.9z"/>
		<g>
			<g>
				<path class="st24" d="M288.1,613.2c-0.4,0-0.7-0.3-0.7-0.7v-0.3c0-0.4,0.3-0.7,0.7-0.7c0.4,0,0.7,0.3,0.7,0.7v0.3
					C288.7,613,288.5,613.2,288.1,613.2z"/>
			</g>
			<g>
				<path class="st24" d="M256.7,613.2c-0.4,0-0.7-0.3-0.7-0.7v-0.3c0-0.4,0.3-0.7,0.7-0.7c0.4,0,0.7,0.3,0.7,0.7v0.3
					C257.2,613,256.9,613.2,256.7,613.2z"/>
			</g>
		</g>
	</g>
</g>
<g>
	<path class="st5" d="M737.9,455.6v8.6c0,6.6-5.4,12-12,12h-339l-13.4,13.4l-13.4-13.4h-339c-6.6,0-12-5.4-12-12v-8.6h-3v8.6
		c0,8.3,6.7,15,15,15h337.8l14.6,14.6l14.6-14.6h337.8c8.3,0,15-6.7,15-15v-8.6H737.9z"/>
</g>
</svg>
