<?xml version="1.0" encoding="utf-8"?>
<!-- Generator: Adobe Illustrator 24.2.1, SVG Export Plug-In . SVG Version: 6.00 Build 0)  -->
<svg version="1.1" id="Capa_1" xmlns="http://www.w3.org/2000/svg" xmlns:xlink="http://www.w3.org/1999/xlink" x="0px" y="0px"
	 viewBox="0 0 747 527.4" style="enable-background:new 0 0 747 527.4;" xml:space="preserve">
<style type="text/css">
	.st0{fill:#C6C6C6;stroke:#C6C6C6;stroke-width:1.992;stroke-miterlimit:10;}
	
		.st1{fill:none;stroke:#C6C6C6;stroke-width:1.992;stroke-miterlimit:10;stroke-dasharray:1.1459,1.1459,1.1459,1.1459,1.1459,1.1459;}
	.st2{fill:#02ACBB;stroke:#02ACBB;stroke-width:1.992;stroke-miterlimit:10;}
	.st3{fill:none;stroke:#898989;stroke-width:1.494;stroke-miterlimit:10;}
	.st4{fill:#898989;}
	.st5{fill:none;stroke:#B1E5E5;stroke-width:1.494;stroke-miterlimit:10;}
	.st6{fill:none;stroke:#02ACBB;stroke-width:1.494;stroke-miterlimit:10;}
	.st7{fill:none;stroke:#FB809F;stroke-width:1.494;stroke-miterlimit:10;}
	.st8{fill:#02ACBB;}
	.st9{font-family:'Galvji-Bold';}
	.st10{font-size:14.7542px;}
	.st11{font-size:8.6017px;}
	.st12{fill:#FB809F;}
	.st13{fill:#B1E5E5;}
	.st14{fill:none;stroke:#02ACBB;stroke-width:1.3418;stroke-miterlimit:10;}
	.st15{fill:none;stroke:#02ACBB;stroke-width:1.4903;stroke-miterlimit:10;}
	.st16{fill:#FFFFFF;}
	.st17{enable-background:new    ;}
	.st18{fill:#C6C6C6;}
	.st19{fill:#E8E8E8;}
	.st20{fill:#7F7F7F;}
	.st21{fill:#6D6D6D;}
	.st22{fill:#686868;}
	.st23{fill:#A3A3A3;}
	.st24{fill:#DDDDDD;}
	.st25{fill:#9B9B9B;}
	.st26{fill:#818181;}
	.st27{fill:#BADDDD;}
	.st28{fill:#7DC7C9;}
</style>
<g id="Capa_2_1_">
</g>
<g>
	<circle class="st0" cx="294.2" cy="130.8" r="1.9"/>
	<circle class="st0" cx="324.4" cy="115.8" r="1.9"/>
	<circle class="st0" cx="358.3" cy="104.9" r="1.9"/>
	<circle class="st0" cx="406.4" cy="131.3" r="1.9"/>
	<circle class="st0" cx="397.2" cy="166.1" r="1.9"/>
	<circle class="st0" cx="389.1" cy="101" r="1.9"/>
	<circle class="st0" cx="377" cy="121.7" r="1.9"/>
	<circle class="st0" cx="330.2" cy="85.7" r="1.9"/>
	<circle class="st0" cx="313.1" cy="99.1" r="1.9"/>
	<circle class="st0" cx="283.2" cy="99.1" r="1.9"/>
	<circle class="st0" cx="263.3" cy="134.6" r="1.9"/>
	<circle class="st0" cx="271.5" cy="157.1" r="1.9"/>
	<circle class="st0" cx="281.3" cy="190.2" r="1.9"/>
	<circle class="st0" cx="385.2" cy="199.1" r="1.9"/>
	<circle class="st0" cx="418.9" cy="134.6" r="1.9"/>
	<circle class="st0" cx="422.7" cy="219.4" r="1.9"/>
	<circle class="st0" cx="336" cy="242.6" r="1.9"/>
	<circle class="st0" cx="271.5" cy="228" r="1.9"/>
	<circle class="st0" cx="300.1" cy="226" r="1.9"/>
	<circle class="st0" cx="261.3" cy="201" r="1.9"/>
	<circle class="st0" cx="391" cy="241.7" r="1.9"/>
	<circle class="st0" cx="430.6" cy="173.1" r="1.9"/>
	<circle class="st0" cx="410.4" cy="202.4" r="1.9"/>
	<circle class="st0" cx="363.1" cy="270.8" r="1.9"/>
	<circle class="st0" cx="360.2" cy="243.2" r="1.9"/>
	<circle class="st0" cx="408.6" cy="154" r="1.9"/>
	<circle class="st0" cx="404.4" cy="189.4" r="1.9"/>
	<circle class="st0" cx="396.3" cy="124.3" r="1.9"/>
	<circle class="st0" cx="392.5" cy="222.3" r="1.9"/>
	<circle class="st0" cx="426.1" cy="157.8" r="1.9"/>
	<circle class="st0" cx="429.9" cy="242.6" r="1.9"/>
	<circle class="st0" cx="398.2" cy="264.9" r="1.9"/>
	<circle class="st0" cx="437.8" cy="196.3" r="1.9"/>
	<circle class="st0" cx="405.1" cy="218.5" r="1.9"/>
	<circle class="st0" cx="298.2" cy="208.6" r="1.9"/>
	<circle class="st0" cx="286.5" cy="175" r="1.9"/>
	<circle class="st0" cx="322.2" cy="230" r="1.9"/>
	<circle class="st0" cx="282.9" cy="140.1" r="1.9"/>
	<circle class="st0" cx="280.7" cy="212.8" r="1.9"/>
	<circle class="st0" cx="240.4" cy="138.2" r="1.9"/>
	<circle class="st0" cx="259.2" cy="104.3" r="1.9"/>
	<circle class="st0" cx="266.9" cy="180.2" r="1.9"/>
	<circle class="st0" cx="257.8" cy="158.6" r="1.9"/>
	<circle class="st0" cx="386.3" cy="234.1" r="1.9"/>
	<circle class="st0" cx="350.9" cy="230" r="1.9"/>
	<circle class="st0" cx="416" cy="236" r="1.9"/>
	<circle class="st0" cx="318" cy="218" r="1.9"/>
	<circle class="st0" cx="382.5" cy="251.6" r="1.9"/>
	<circle class="st0" cx="297.7" cy="255.5" r="1.9"/>
	<circle class="st0" cx="284.5" cy="228" r="1.9"/>
	<circle class="st0" cx="344" cy="263.4" r="1.9"/>
	<circle class="st0" cx="321.8" cy="241.3" r="1.9"/>
	<circle class="st0" cx="399.8" cy="98.8" r="1.9"/>
	<circle class="st0" cx="395.6" cy="134.2" r="1.9"/>
	<circle class="st0" cx="387.5" cy="69.1" r="1.9"/>
	<circle class="st0" cx="383.7" cy="167.1" r="1.9"/>
	<circle class="st0" cx="417.3" cy="102.6" r="1.9"/>
	<circle class="st0" cx="421.1" cy="187.4" r="1.9"/>
	<circle class="st0" cx="389.4" cy="209.7" r="1.9"/>
	<circle class="st0" cx="429" cy="141.1" r="1.9"/>
	<circle class="st0" cx="412.4" cy="165.2" r="1.9"/>
	<circle class="st0" cx="385.7" cy="153.9" r="1.9"/>
	<circle class="st0" cx="363.7" cy="126" r="1.9"/>
	<circle class="st0" cx="416" cy="176.3" r="1.9"/>
	<circle class="st0" cx="348.8" cy="94.2" r="1.9"/>
	<circle class="st0" cx="370.7" cy="163.6" r="1.9"/>
	<circle class="st0" cx="308" cy="106.3" r="1.9"/>
	<circle class="st0" cx="314.7" cy="68.2" r="1.9"/>
	<circle class="st0" cx="291.3" cy="111.2" r="1.9"/>
	<circle class="st0" cx="335" cy="113.4" r="1.9"/>
	<circle class="st0" cx="253" cy="147.1" r="1.9"/>
	<circle class="st0" cx="263.3" cy="98.7" r="1.9"/>
	<circle class="st0" cx="245.8" cy="125" r="1.9"/>
	<circle class="st0" cx="234.8" cy="117" r="1.9"/>
	<circle class="st0" cx="256.5" cy="85.5" r="1.9"/>
	<circle class="st0" cx="266.3" cy="170.3" r="1.9"/>
	<circle class="st0" cx="268.2" cy="124" r="1.9"/>
	<circle class="st0" cx="251.1" cy="136.1" r="1.9"/>
	<circle class="st0" cx="246.4" cy="163.7" r="1.9"/>
	<circle class="st0" cx="251.5" cy="115.1" r="1.9"/>
	<circle class="st0" cx="237.3" cy="91" r="1.9"/>
	<circle class="st0" cx="245.8" cy="93.9" r="1.9"/>
	<circle class="st0" cx="260.3" cy="245.1" r="1.9"/>
	<circle class="st0" cx="257.8" cy="188.1" r="1.9"/>
	<circle class="st0" cx="241.3" cy="210.2" r="1.9"/>
	<circle class="st0" cx="231.6" cy="204.3" r="1.9"/>
	<circle class="st0" cx="253.3" cy="172.8" r="1.9"/>
	<circle class="st0" cx="257.1" cy="257.6" r="1.9"/>
	<circle class="st0" cx="265" cy="211.3" r="1.9"/>
	<circle class="st0" cx="243" cy="233.4" r="1.9"/>
	<circle class="st0" cx="243.2" cy="251" r="1.9"/>
	<circle class="st0" cx="248.3" cy="202.4" r="1.9"/>
	<circle class="st0" cx="234.2" cy="178.3" r="1.9"/>
	<circle class="st0" cx="242.6" cy="181.2" r="1.9"/>
	<circle class="st0" cx="289.4" cy="240.7" r="1.9"/>
	<circle class="st0" cx="286.4" cy="261.8" r="1.9"/>
	<circle class="st0" cx="272.3" cy="237.7" r="1.9"/>
	<circle class="st0" cx="272.6" cy="255.2" r="1.9"/>
	<circle class="st0" cx="320.6" cy="276.3" r="1.9"/>
	<circle class="st0" cx="307.1" cy="259.1" r="1.9"/>
	<circle class="st0" cx="334.1" cy="266.5" r="1.9"/>
	<circle class="st0" cx="324.7" cy="104.1" r="1.9"/>
	<circle class="st0" cx="295.8" cy="101.5" r="1.9"/>
	<circle class="st0" cx="308.4" cy="76.6" r="1.9"/>
	<circle class="st0" cx="293.8" cy="86.3" r="1.9"/>
	<circle class="st0" cx="383.7" cy="94.2" r="1.9"/>
	<circle class="st0" cx="372.9" cy="92.3" r="1.9"/>
	<circle class="st0" cx="372.3" cy="102.2" r="1.9"/>
	<circle class="st0" cx="321.7" cy="254.1" r="1.9"/>
	<circle class="st0" cx="393.7" cy="191.3" r="1.9"/>
	<circle class="st0" cx="393.8" cy="178.3" r="1.9"/>
	<circle class="st0" cx="382.5" cy="182.5" r="1.9"/>
	<circle class="st0" cx="342.1" cy="181.2" r="1.9"/>
	<circle class="st0" cx="344.6" cy="216.6" r="1.9"/>
	<circle class="st0" cx="406.7" cy="250.7" r="1.9"/>
	<circle class="st0" cx="432.5" cy="214.7" r="1.9"/>
	<circle class="st0" cx="378.8" cy="279.9" r="1.9"/>
	<circle class="st0" cx="423" cy="202.9" r="1.9"/>
	<circle class="st0" cx="218.1" cy="177.4" r="1.9"/>
	<circle class="st0" cx="401.7" cy="142.7" r="1.9"/>
	<circle class="st0" cx="441.6" cy="160.5" r="1.9"/>
	<circle class="st0" cx="438.7" cy="105.4" r="1.9"/>
	<circle class="st0" cx="419.9" cy="149.6" r="1.9"/>
	<circle class="st0" cx="441.6" cy="118.1" r="1.9"/>
	<circle class="st0" cx="359.4" cy="145.1" r="1.9"/>
	<circle class="st0" cx="451.1" cy="190.3" r="1.9"/>
	<circle class="st0" cx="404.4" cy="233.4" r="1.9"/>
	<circle class="st0" cx="447.3" cy="218.3" r="1.9"/>
	<circle class="st0" cx="209.3" cy="153.9" r="1.9"/>
	<circle class="st0" cx="218.1" cy="191.4" r="1.9"/>
	<circle class="st0" cx="209.3" cy="136.3" r="1.9"/>
	<circle class="st0" cx="205.2" cy="171.6" r="1.9"/>
	<circle class="st0" cx="226.3" cy="139.2" r="1.9"/>
	<circle class="st0" cx="230.6" cy="224.9" r="1.9"/>
	<circle class="st0" cx="223.7" cy="161.7" r="1.9"/>
	<circle class="st0" cx="237.3" cy="263" r="1.9"/>
	<circle class="st0" cx="232.5" cy="240.4" r="1.9"/>
	<circle class="st0" cx="346.6" cy="279.7" r="1.9"/>
	<circle class="st0" cx="395.6" cy="281.8" r="1.9"/>
	<circle class="st0" cx="371" cy="300.7" r="1.9"/>
	<circle class="st0" cx="335.5" cy="299.2" r="1.9"/>
	<circle class="st0" cx="363.3" cy="289.3" r="1.9"/>
	<circle class="st0" cx="327.7" cy="292.3" r="1.9"/>
	<circle class="st0" cx="338.3" cy="286.4" r="1.9"/>
	<circle class="st0" cx="216.2" cy="235.4" r="1.9"/>
	<circle class="st0" cx="312.4" cy="295.4" r="1.9"/>
	<circle class="st0" cx="369.1" cy="66.2" r="1.9"/>
	<circle class="st0" cx="324.7" cy="57.7" r="1.9"/>
	<circle class="st0" cx="363.5" cy="98" r="1.9"/>
	<circle class="st0" cx="346.7" cy="66.6" r="1.9"/>
	<circle class="st0" cx="346.9" cy="104.9" r="1.9"/>
	<circle class="st0" cx="282.6" cy="51.1" r="1.9"/>
	<circle class="st0" cx="305.8" cy="43.7" r="1.9"/>
	<circle class="st0" cx="338.5" cy="48.7" r="1.9"/>
	<circle class="st0" cx="353" cy="53" r="1.9"/>
	<circle class="st0" cx="430.1" cy="123.6" r="1.9"/>
	<circle class="st0" cx="459.8" cy="154.9" r="1.9"/>
	<circle class="st0" cx="364.4" cy="81.9" r="1.9"/>
	<circle class="st0" cx="448.7" cy="136.1" r="1.9"/>
	<circle class="st0" cx="424.6" cy="89.5" r="1.9"/>
	<circle class="st0" cx="216.2" cy="122.4" r="1.9"/>
	<circle class="st0" cx="461.7" cy="180.2" r="1.9"/>
	<circle class="st0" cx="446.3" cy="241.2" r="1.9"/>
	<circle class="st0" cx="436.8" cy="229.5" r="1.9"/>
	<circle class="st0" cx="270.5" cy="269.6" r="1.9"/>
	<circle class="st0" cx="214.3" cy="212.8" r="1.9"/>
	<circle class="st0" cx="278.8" cy="285.4" r="1.9"/>
	<circle class="st0" cx="250" cy="278.8" r="1.9"/>
	<circle class="st0" cx="308.8" cy="277.4" r="1.9"/>
	<circle class="st0" cx="378.8" cy="263" r="1.9"/>
	<circle class="st0" cx="297.2" cy="283.2" r="1.9"/>
	<circle class="st0" cx="416" cy="261.6" r="1.9"/>
	<circle class="st0" cx="431" cy="259.7" r="1.9"/>
	<circle class="st0" cx="299.7" cy="55.4" r="1.9"/>
	<circle class="st0" cx="402.3" cy="61.8" r="1.9"/>
	<circle class="st0" cx="251.1" cy="76.6" r="1.9"/>
	<circle class="st0" cx="279" cy="63.9" r="1.9"/>
	<circle class="st0" cx="239.4" cy="103.5" r="1.9"/>
	<circle class="st0" cx="283.5" cy="74.5" r="1.9"/>
	<circle class="st0" cx="379.6" cy="55.7" r="1.9"/>
	<circle class="st0" cx="254.5" cy="68.9" r="1.9"/>
	<circle class="st0" cx="269.5" cy="67.5" r="1.9"/>
	<circle class="st0" cx="405" cy="84" r="1.9"/>
	<circle class="st0" cx="332.1" cy="72.6" r="1.9"/>
	<circle class="st0" cx="365" cy="50.6" r="1.9"/>
	<circle class="st0" cx="413.6" cy="117" r="1.9"/>
	<circle class="st0" cx="357.5" cy="196.3" r="1.9"/>
	<circle class="st0" cx="333.6" cy="142" r="1.9"/>
	<circle class="st0" cx="305.8" cy="147.7" r="1.9"/>
	<path class="st1" d="M286.5,175c0,0,12.2-3,35.2,20.3"/>
	<polyline class="st1" points="330.2,85.7 324.7,104.1 335,113.4 324.4,115.8 363.7,126 	"/>
	<polyline class="st1" points="237.3,91 245.8,93.9 259.2,104.3 251.5,115.1 234.8,117 245.8,125 263.3,134.6 251.1,136.1 
		271.5,157.1 	"/>
	<path class="st1" d="M398.2,264.9l-15.7-13.2c0,0-18.1,12.5-22.3-8.4"/>
	<polyline class="st1" points="429,141.1 426.1,157.8 408.6,154 385.7,153.9 374.7,146.4 370.7,163.6 383.7,167.1 393.8,178.3 
		393.7,191.3 385.2,199.1 382.5,182.5 	"/>
	<path class="st1" d="M340.5,201L318,218l33,11.9l-28.8,0.1c0,0,9.7,12.3,11.9,36.5l12.5,13.2c2.6,18.3,24.5,21,24.5,21l-35.6-1.5"
		/>
	<polyline class="st1" points="429.9,242.6 416,236 422.7,219.4 410.4,202.4 	"/>
	<polyline class="st1" points="253,147.1 257.8,158.6 271.5,157.1 	"/>
	<polyline class="st1" points="370.7,163.6 342.1,181.2 363.3,181.2 	"/>
	<polyline class="st1" points="243,233.4 261.3,201 265,211.3 280.7,212.8 281.3,190.2 306.4,195.9 	"/>
	<path class="st1" d="M407,218.5l-17.6-8.8l21-7.3l-6-13c0,0-3.2-20.5,7.9-24.1c11.1-3.6,18.2,7.9,18.2,7.9l7.3,23.2"/>
	<polyline class="st1" points="406.4,131.3 418.9,134.6 408.6,154 	"/>
	<path class="st1" d="M263.3,98.7c0,0,16.8,5.2,34.8,62.3"/>
	<polyline class="st1" points="205.2,171.6 218.1,191.4 214.3,212.8 231.6,204.3 241.3,210.2 248.3,202.4 257.8,188.1 253.3,172.8 
		266.3,170.3 286.5,175 	"/>
	<path class="st1" d="M216.2,235.4l16.4,5l10.7,10.6l13.9,6.6l3.2-12.5l12-7.4l-0.8-9.7c0,0,7.1-5.9,13,0c0,0,8.3,6.4,15.6-1.9"/>
	<path class="st1" d="M216.2,122.4c0,0,15.2-0.2,24.1,15.8l6.1,25.5l-3.8,17.5l15.1,6.9c0,0,9.2,12.2,23.5,2.2l5.2-15.3l11.5-14
		l-26.5-3.8l11.4-17L268.2,124c0,0,21.7-11.5,15-24.9s-24.8-13.6-24.8-13.6"/>
	<path class="st1" d="M305.8,43.7l-23.2,7.4L279,63.9l4.5,10.5l10.3,11.9l14.6-9.7c0,0,2.1,19.8-12.6,25l-4.6,9.6l3,19.6l13.8-24.4
		l5.1-7.2"/>
	<polyline class="st1" points="324.4,154.9 305.8,147.7 294.2,130.8 	"/>
	<line class="st1" x1="320.9" y1="177.4" x2="305.8" y2="147.7"/>
	<polyline class="st1" points="324.4,115.8 333.6,142 348.4,163.3 	"/>
	<polyline class="st1" points="350.9,230 344.6,216.6 357.5,196.3 	"/>
	<path class="st1" d="M363.7,126c0,0,6.3,12.5-4.2,19.2"/>
	<polyline class="st1" points="209.3,136.3 209.3,153.9 226.3,139.2 240.4,138.2 	"/>
	<polyline class="st1" points="218.1,177.4 223.7,161.7 234.2,178.3 242.6,181.2 	"/>
	<line class="st1" x1="230.6" y1="224.9" x2="232.5" y2="240.4"/>
	<polyline class="st1" points="237.3,263 250,278.8 270.5,269.6 257.1,257.6 	"/>
	<line class="st1" x1="308.8" y1="277.4" x2="307.1" y2="259.1"/>
	<polyline class="st1" points="344,263.4 336,242.6 350.9,230 360.2,243.2 389.4,209.7 362.1,213.7 392.5,222.3 386.3,234.1 
		392.9,241.7 	"/>
	<polyline class="st1" points="338.5,48.7 346.7,66.6 348.8,94.2 346.9,104.9 335,113.4 	"/>
	<polyline class="st1" points="402.3,61.8 405,84 417.3,102.6 399.8,98.8 383.7,94.2 	"/>
	<polyline class="st1" points="324.7,57.7 332.1,72.6 314.7,68.2 313.1,99.1 315,134.6 	"/>
	<line class="st1" x1="299.7" y1="55.4" x2="293.8" y2="86.3"/>
	<path class="st1" d="M254.5,68.9l15-1.4c0,0,11.5,9.6,13.7,31.6"/>
	<line class="st1" x1="239.4" y1="103.5" x2="245.8" y2="93.9"/>
	<path class="st1" d="M327.7,292.3l10.7-5.9l-17.7-10.1l-13.5-17.1c0,0-6.8,11.1-20.7,2.7l10.8,21.4c0,0,11.6,1.1,15.1,12.2
		s-40.9,7-33.5-9.9c7.4-16.9-6.3-30.2-6.3-30.2l16.8-14.5l8.4,14.8l24-1.3c0,0,9.2-5.1,0.1-12.8c-9.1-7.7-23.6-32.7-23.6-32.7"/>
	<polyline class="st1" points="438.7,105.4 413.6,117 396.3,124.3 	"/>
	<path class="st1" d="M424.6,89.5l5.5,34.1l18.6,12.5l-7.1,24.3l18.2-5.6c0,0,7.6,12.9,1.9,25.3l-10.6,10.1c0,0-12.5-14.8-30-2.8
		l-5.1-11.1l-3.7-11.1"/>
	<polyline class="st1" points="447.3,218.3 446.3,241.2 436.8,229.5 432.5,214.7 423,202.9 410.4,202.4 	"/>
	<polyline class="st1" points="395.6,281.8 378.8,279.9 363.3,289.3 363.1,270.8 378.8,263 382.5,251.6 391.3,241.4 	"/>
	<polyline class="st1" points="431,259.7 416,261.6 406.7,250.7 404.4,233.4 405.1,218.5 	"/>
	<polyline class="st1" points="353,53 365,50.6 369.1,66.2 364.4,81.9 363.5,98 358.3,104.9 349.5,133.2 	"/>
	<polyline class="st1" points="379.6,55.7 387.5,69.1 383.7,94.2 372.9,92.3 372.3,102.2 377,121.7 363.7,126 349.5,133.2 
		395.6,134.2 396.3,124.3 389.1,101 	"/>
	<line class="st1" x1="441.6" y1="118.1" x2="430.1" y2="123.6"/>
	<g>
		<circle class="st2" cx="314.3" cy="133.9" r="3.8"/>
		<circle class="st2" cx="323.7" cy="154.2" r="3.8"/>
		<circle class="st2" cx="373.9" cy="145.7" r="3.8"/>
		<circle class="st2" cx="348.8" cy="132.5" r="3.8"/>
		<circle class="st2" cx="320.2" cy="176.7" r="3.8"/>
		<circle class="st2" cx="362.5" cy="180.5" r="3.8"/>
		<circle class="st2" cx="297.3" cy="160.3" r="3.8"/>
		<circle class="st2" cx="347.7" cy="162.6" r="3.8"/>
		<circle class="st2" cx="339.8" cy="200.3" r="3.8"/>
		<circle class="st2" cx="305.7" cy="195.2" r="3.8"/>
		<circle class="st2" cx="361.4" cy="213" r="3.8"/>
	</g>
	<circle class="st2" cx="321.7" cy="195.2" r="3.8"/>
</g>
<g>
	<g>
		<g>
			<polyline class="st3" points="173.4,240.2 3.4,240.2 3.4,154.9 			"/>
			<g>
				<polygon class="st4" points="170.5,237.7 173,240.2 170.5,242.8 172.6,242.8 175.1,240.2 172.6,237.7 				"/>
			</g>
			<g>
				<polygon class="st4" points="5.9,157.8 3.4,155.3 0.9,157.8 0.9,155.7 3.4,153.2 5.9,155.7 				"/>
			</g>
		</g>
	</g>
	<g>
		<g>
			<rect x="21.9" y="160.7" class="st5" width="46.6" height="20.8"/>
			<line class="st5" x1="110" y1="171.1" x2="68.5" y2="171.1"/>
			<line class="st5" x1="21.9" y1="170.8" x2="7.8" y2="170.8"/>
			<line class="st5" x1="50" y1="160.7" x2="50" y2="181.5"/>
		</g>
		<g>
			<rect x="76" y="186.1" class="st6" width="36.1" height="20.3"/>
			<line class="st6" x1="152.7" y1="196.2" x2="112.1" y2="196.2"/>
			<line class="st6" x1="76" y1="196" x2="52.8" y2="196"/>
			<line class="st6" x1="86.1" y1="186.1" x2="86.1" y2="206.4"/>
		</g>
		<g>
			<rect x="111.4" y="212.3" class="st7" width="39.1" height="20.3"/>
			<line class="st7" x1="170.7" y1="222.5" x2="150.5" y2="222.5"/>
			<line class="st7" x1="111.4" y1="222.3" x2="70.8" y2="222.3"/>
			<line class="st7" x1="127.1" y1="212.3" x2="127.1" y2="232.7"/>
		</g>
	</g>
	<g>
		<path class="st6" d="M175.1,42.3c-28.5,0-28.5,41-57.1,41s-28.5-41-57.1-41s-28.5,41-57.1,41"/>
		<path class="st6" d="M4.3,42.3c28.5,0,28.5,41,57.1,41s28.5-41,57.1-41c28.5,0,28.5,41,57.1,41"/>
		<path class="st6" d="M118.5,42.3c28.5,0,28.5,41,57.1,41"/>
		<path class="st6" d="M66.1,82.8"/>
		<path class="st7" d="M55.4,82.6c1.8,0.4,3.8,0.7,6,0.7c1.7,0,3.2-0.1,4.7-0.4"/>
	</g>
	<circle class="st3" cx="60.3" cy="81.1" r="11.5"/>
	<g>
		<line class="st6" x1="175.1" y1="119.5" x2="3.8" y2="119.5"/>
		<line class="st7" x1="99.1" y1="119.5" x2="78.1" y2="119.5"/>
	</g>
	<g>
		<line class="st6" x1="175.1" y1="112.7" x2="3.8" y2="112.7"/>
		<line class="st7" x1="99.1" y1="112.7" x2="78.1" y2="112.7"/>
	</g>
	<g>
		<g>
			<polyline class="st3" points="60.1,92.8 60.1,99.5 88.1,99.5 88.1,104.2 			"/>
			<g>
				<polygon class="st4" points="85.5,101.3 88.1,103.8 90.6,101.3 90.6,103.4 88.1,105.9 85.5,103.4 				"/>
			</g>
		</g>
	</g>
	<g>
		<g>
			<line class="st3" x1="88.6" y1="125.4" x2="88.6" y2="143.5"/>
			<g>
				<polygon class="st4" points="86,140.5 88.6,143.1 91.1,140.5 91.1,142.7 88.6,145.2 86,142.7 				"/>
			</g>
		</g>
	</g>
	<g>
		<g>
			<g>
				<path class="st6" d="M19.6,266.2c5.5,0,5.5,10.8,11,10.8c5.5,0,5.5-10.8,11-10.8c5.5,0,5.5,10.8,11,10.8c5.5,0,5.5-10.8,11-10.8
					"/>
			</g>
			<path class="st6" d="M19.8,277c5.5,0,5.5-10.8,11-10.8c5.5,0,5.5,10.8,11,10.8c5.5,0,5.5-10.8,11-10.8S58.5,277,64,277"/>
		</g>
		<g>
			<path class="st6" d="M40.5,291.8c5.5,0,5.5,10.8,11,10.8c5.5,0,5.5-10.8,11-10.8c5.5,0,5.5,10.8,11,10.8c5.5,0,5.5-10.8,11-10.8"
				/>
		</g>
		<path class="st6" d="M104.7,270.3c0.9,3.6-1.4,7.3-5,8.2c-2,0.5-4,0-5.5-1.1c-0.8,0.9-1.9,1.6-3.2,1.9c-3.3,0.8-6.5-1.2-7.3-4.5
			c-0.3-1.3-0.2-2.6,0.3-3.7c-0.9-0.8-1.7-1.9-2-3.2c-0.8-3.3,1.2-6.5,4.5-7.3c2-0.5,4.1,0.1,5.5,1.5c0.7-0.8,1.6-1.3,2.7-1.6
			c2.8-0.7,5.6,1.1,6.2,3.8c0.1,0.5,0.2,1,0.1,1.5C102.8,266.6,104.2,268.2,104.7,270.3z"/>
		<g>
			<circle class="st6" cx="104.9" cy="291.9" r="2.8"/>
			<circle class="st6" cx="118.9" cy="291.9" r="2.8"/>
			<circle class="st6" cx="132.8" cy="283.9" r="2.8"/>
			<line class="st6" x1="107.8" y1="291.9" x2="116.1" y2="291.9"/>
			<circle class="st6" cx="132.8" cy="299.8" r="2.8"/>
			<line class="st6" x1="121.4" y1="293.3" x2="130.4" y2="298.4"/>
			<line class="st6" x1="121.3" y1="290.5" x2="130.4" y2="285.4"/>
		</g>
		<g>
			<text transform="matrix(0.9598 0 0 1 131.8696 273.3389)" class="st8 st9 st10">CH</text>
			<text transform="matrix(0.9599 0 0 1 153.458 278.251)" class="st8 st9 st11">3</text>
		</g>
	</g>
</g>
<g>
	<g>
		<rect x="524.1" y="72.4" class="st8" width="88.5" height="13.4"/>
		<rect x="550.9" y="72.4" class="st12" width="61.6" height="13.4"/>
		<g>
			<g>
				<rect x="711" y="72.4" class="st8" width="32.2" height="13.4"/>
				<rect x="711" y="72.4" class="st13" width="2.4" height="13.4"/>
			</g>
			<rect x="721.4" y="72.4" class="st12" width="21.7" height="13.4"/>
		</g>
	</g>
	<rect x="524.1" y="72.4" class="st13" width="8.8" height="13.4"/>
	<rect x="491.9" y="49.6" class="st8" width="32.2" height="13.4"/>
	<rect x="491.9" y="49.6" class="st13" width="13.5" height="13.4"/>
	<rect x="521" y="49.6" class="st12" width="3" height="13.4"/>
	<g>
		<rect x="622.5" y="49.6" class="st8" width="88.5" height="13.4"/>
		<rect x="622.5" y="49.6" class="st13" width="36.8" height="13.4"/>
		<rect x="705" y="49.6" class="st12" width="6" height="13.4"/>
	</g>
	<g>
		<rect x="491.9" y="113.7" class="st8" width="120.6" height="13.4"/>
		<rect x="491.9" y="113.7" class="st8" width="32.2" height="13.4"/>
		<rect x="491.9" y="113.7" class="st13" width="13.5" height="13.4"/>
		<rect x="521.1" y="113.7" class="st12" width="3" height="13.4"/>
		<rect x="524.1" y="113.7" class="st8" width="88.5" height="13.4"/>
		<rect x="524.1" y="113.7" class="st13" width="8.8" height="13.4"/>
		<rect x="550.9" y="113.7" class="st12" width="61.6" height="13.4"/>
	</g>
	<g>
		<rect x="622.5" y="113.7" class="st8" width="120.6" height="13.4"/>
		<g>
			<rect x="622.5" y="113.7" class="st8" width="88.5" height="13.4"/>
			<rect x="622.5" y="113.7" class="st13" width="36.8" height="13.4"/>
			<rect x="705" y="113.7" class="st12" width="6" height="13.4"/>
		</g>
		<g>
			<g>
				<rect x="711" y="113.7" class="st8" width="32.2" height="13.4"/>
				<rect x="711" y="113.7" class="st13" width="2.4" height="13.4"/>
			</g>
			<rect x="721.4" y="113.7" class="st12" width="21.7" height="13.4"/>
		</g>
	</g>
	<path class="st14" d="M524.1,88.1v0.7c0,0.4,0.8,0.8,1.9,0.8h84.7c1,0,1.9-0.4,1.9-0.8v-0.7"/>
	<path class="st14" d="M622.5,65.3V66c0,0.4,0.8,0.8,1.9,0.8h84.7c1,0,1.9-0.4,1.9-0.8v-0.7"/>
	<path class="st14" d="M491.9,65.3V66c0,0.4,0.8,0.8,1.9,0.8h28.5c1,0,1.9-0.4,1.9-0.8v-0.7"/>
	<path class="st14" d="M711,88.1v0.7c0,0.4,0.8,0.8,1.9,0.8h28.5c1,0,1.9-0.4,1.9-0.8v-0.7"/>
	<g>
		<g>
			<line class="st14" x1="508" y1="66.8" x2="508" y2="108.7"/>
			<g>
				<polygon class="st8" points="505.7,106 508,108.3 510.3,106 510.3,108 508,110.2 505.7,108 				"/>
			</g>
		</g>
	</g>
	<g>
		<g>
			<line class="st14" x1="568.3" y1="90" x2="568.3" y2="108.7"/>
			<g>
				<polygon class="st8" points="566,106 568.3,108.3 570.6,106 570.6,108 568.3,110.2 566,108 				"/>
			</g>
		</g>
	</g>
	<g>
		<g>
			<line class="st14" x1="666.7" y1="66.8" x2="666.7" y2="108.7"/>
			<g>
				<polygon class="st8" points="664.5,106 666.7,108.3 669,106 669,108 666.7,110.2 664.5,108 				"/>
			</g>
		</g>
	</g>
	<g>
		<g>
			<line class="st14" x1="727.1" y1="90" x2="727.1" y2="108.7"/>
			<g>
				<polygon class="st8" points="724.8,106 727.1,108.3 729.3,106 729.3,108 727.1,110.2 724.8,108 				"/>
			</g>
		</g>
	</g>
</g>
<g>
	<line class="st15" x1="558.2" y1="158.3" x2="577.8" y2="158.3"/>
	<polyline class="st15" points="577.8,185.1 558.2,185.1 558.2,172.6 	"/>
	<polyline class="st15" points="568,158.3 568,172.6 558.2,172.6 527,172.6 527,185.1 507.4,185.1 	"/>
	<polyline class="st15" points="517.6,185.1 517.6,209.5 498,209.5 	"/>
	<polyline class="st15" points="568,185.1 568,197.3 544.1,197.3 544.1,209.5 563.6,209.5 	"/>
	<line class="st15" x1="669.7" y1="158.1" x2="689.3" y2="158.1"/>
	<polyline class="st15" points="660,185.1 679.5,185.1 679.5,158.3 	"/>
	<polyline class="st15" points="669.7,185.1 669.7,197.3 607.7,197.3 607.7,209.5 588.2,209.5 588.2,197.3 568,197.3 	"/>
	<polyline class="st15" points="679.5,171.7 707.1,171.7 707.1,185.1 726.7,185.1 	"/>
	<polyline class="st15" points="669.7,197.3 669.7,209.5 689.3,209.5 	"/>
	<polyline class="st15" points="717.5,185.1 717.5,209.5 737,209.5 	"/>
	<path class="st15" d="M679.8,209.5"/>
	<path class="st15" d="M727.2,209.5"/>
	<g>
		<rect x="552.8" y="152.9" class="st16" width="10.8" height="10.8"/>
		<path class="st8" d="M562.9,153.6v9.3h-9.3v-9.3H562.9 M564.4,152.1h-12.3v12.3h12.3V152.1L564.4,152.1z"/>
	</g>
	<g>
		<circle class="st16" cx="577.8" cy="158.3" r="5.4"/>
		<path class="st8" d="M577.8,153.6c2.6,0,4.6,2.1,4.6,4.6c0,2.6-2.1,4.6-4.6,4.6c-2.6,0-4.6-2.1-4.6-4.6
			C573.1,155.7,575.2,153.6,577.8,153.6 M577.8,152.1c-3.4,0-6.1,2.7-6.1,6.1s2.7,6.1,6.1,6.1c3.4,0,6.1-2.7,6.1-6.1
			S581.2,152.1,577.8,152.1L577.8,152.1z"/>
	</g>
	<g>
		<rect x="664.3" y="152.7" class="st16" width="10.8" height="10.8"/>
		<path class="st8" d="M674.4,153.5v9.3h-9.3v-9.3H674.4 M675.9,152h-12.3v12.3h12.3V152L675.9,152z"/>
	</g>
	<g>
		<path class="st16" d="M689.3,163.5c-3,0-5.4-2.4-5.4-5.4c0-3,2.4-5.4,5.4-5.4c3,0,5.4,2.4,5.4,5.4
			C694.7,161.1,692.2,163.5,689.3,163.5z"/>
		<path class="st8" d="M689.3,153.5c2.6,0,4.6,2.1,4.6,4.6c0,2.6-2.1,4.6-4.6,4.6s-4.6-2.1-4.6-4.6
			C684.6,155.6,686.7,153.5,689.3,153.5 M689.3,152c-3.4,0-6.1,2.7-6.1,6.1s2.7,6.1,6.1,6.1c3.4,0,6.1-2.7,6.1-6.1
			S692.7,152,689.3,152L689.3,152z"/>
	</g>
	<g>
		<g>
			<rect x="502" y="179.7" class="st16" width="10.8" height="10.8"/>
			<path class="st8" d="M512.1,180.4v9.3h-9.3v-9.3H512.1 M513.5,178.9h-12.3v12.3h12.3V178.9L513.5,178.9z"/>
		</g>
		<g>
			<circle class="st16" cx="527" cy="185.1" r="5.4"/>
			<path class="st8" d="M527,180.4c2.6,0,4.6,2.1,4.6,4.6c0,2.6-2.1,4.6-4.6,4.6s-4.6-2.1-4.6-4.6
				C522.3,182.5,524.4,180.4,527,180.4 M527,178.9c-3.4,0-6.1,2.7-6.1,6.1s2.7,6.1,6.1,6.1c3.4,0,6.1-2.7,6.1-6.1
				S530.3,178.9,527,178.9L527,178.9z"/>
		</g>
		<g>
			<rect x="552.8" y="179.7" class="st16" width="10.8" height="10.8"/>
			<path class="st8" d="M562.9,180.4v9.3h-9.3v-9.3H562.9 M564.4,178.9h-12.3v12.3h12.3V178.9L564.4,178.9z"/>
		</g>
		<g>
			<circle class="st16" cx="577.8" cy="185.1" r="5.4"/>
			<path class="st8" d="M577.8,180.4c2.6,0,4.6,2.1,4.6,4.6c0,2.6-2.1,4.6-4.6,4.6c-2.6,0-4.6-2.1-4.6-4.6
				C573.1,182.5,575.2,180.4,577.8,180.4 M577.8,178.9c-3.4,0-6.1,2.7-6.1,6.1s2.7,6.1,6.1,6.1c3.4,0,6.1-2.7,6.1-6.1
				S581.2,178.9,577.8,178.9L577.8,178.9z"/>
		</g>
	</g>
	<g>
		<rect x="538.7" y="204.1" class="st16" width="10.8" height="10.8"/>
		<path class="st8" d="M548.7,204.9v9.3h-9.3v-9.3H548.7 M550.2,203.4h-12.3v12.3h12.3V203.4L550.2,203.4z"/>
	</g>
	<g>
		<path class="st16" d="M563.6,214.9c-3,0-5.4-2.4-5.4-5.4c0-3,2.4-5.4,5.4-5.4c3,0,5.4,2.4,5.4,5.4
			C569,212.5,566.6,214.9,563.6,214.9z"/>
		<path class="st8" d="M563.6,204.9c2.6,0,4.6,2.1,4.6,4.6c0,2.6-2.1,4.6-4.6,4.6s-4.6-2.1-4.6-4.6C559,207,561.1,204.9,563.6,204.9
			 M563.6,203.4c-3.4,0-6.1,2.7-6.1,6.1c0,3.4,2.7,6.1,6.1,6.1c3.4,0,6.1-2.7,6.1-6.1C569.8,206.1,567,203.4,563.6,203.4
			L563.6,203.4z"/>
	</g>
	<g>
		<rect x="492.6" y="204.1" class="st16" width="10.8" height="10.8"/>
		<path class="st8" d="M502.7,204.9v9.3h-9.3v-9.3H502.7 M504.2,203.4h-12.3v12.3h12.3V203.4L504.2,203.4z"/>
	</g>
	<g>
		<path class="st16" d="M517.6,214.9c-3,0-5.4-2.4-5.4-5.4c0-3,2.4-5.4,5.4-5.4s5.4,2.4,5.4,5.4C523,212.5,520.6,214.9,517.6,214.9z
			"/>
		<path class="st8" d="M517.6,204.9c2.6,0,4.6,2.1,4.6,4.6c0,2.6-2.1,4.6-4.6,4.6c-2.6,0-4.6-2.1-4.6-4.6
			C512.9,207,515,204.9,517.6,204.9 M517.6,203.4c-3.4,0-6.1,2.7-6.1,6.1c0,3.4,2.7,6.1,6.1,6.1c3.4,0,6.1-2.7,6.1-6.1
			C523.7,206.1,521,203.4,517.6,203.4L517.6,203.4z"/>
	</g>
	<g>
		<rect x="712.1" y="204.1" class="st16" width="10.8" height="10.8"/>
		<path class="st8" d="M722.1,204.9v9.3h-9.3v-9.3H722.1 M723.6,203.4h-12.3v12.3h12.3V203.4L723.6,203.4z"/>
	</g>
	<g>
		<path class="st16" d="M737,214.9c-3,0-5.4-2.4-5.4-5.4c0-3,2.4-5.4,5.4-5.4s5.4,2.4,5.4,5.4C742.4,212.5,740,214.9,737,214.9z"/>
		<path class="st8" d="M737,204.9c2.6,0,4.6,2.1,4.6,4.6c0,2.6-2.1,4.6-4.6,4.6s-4.6-2.1-4.6-4.6C732.4,207,734.5,204.9,737,204.9
			 M737,203.4c-3.4,0-6.1,2.7-6.1,6.1c0,3.4,2.7,6.1,6.1,6.1c3.4,0,6.1-2.7,6.1-6.1C743.2,206.1,740.4,203.4,737,203.4L737,203.4z"
			/>
	</g>
	<g>
		<rect x="664.3" y="204.1" class="st16" width="10.8" height="10.8"/>
		<path class="st8" d="M674.4,204.9v9.3h-9.3v-9.3H674.4 M675.9,203.4h-12.3v12.3h12.3V203.4L675.9,203.4z"/>
	</g>
	<g>
		<path class="st16" d="M689.3,214.9c-3,0-5.4-2.4-5.4-5.4c0-3,2.4-5.4,5.4-5.4c3,0,5.4,2.4,5.4,5.4
			C694.7,212.5,692.2,214.9,689.3,214.9z"/>
		<path class="st8" d="M689.3,204.9c2.6,0,4.6,2.1,4.6,4.6c0,2.6-2.1,4.6-4.6,4.6s-4.6-2.1-4.6-4.6
			C684.6,207,686.7,204.9,689.3,204.9 M689.3,203.4c-3.4,0-6.1,2.7-6.1,6.1c0,3.4,2.7,6.1,6.1,6.1c3.4,0,6.1-2.7,6.1-6.1
			C695.4,206.1,692.7,203.4,689.3,203.4L689.3,203.4z"/>
	</g>
	<g>
		<rect x="582.8" y="204.1" class="st16" width="10.8" height="10.8"/>
		<path class="st8" d="M592.9,204.9v9.3h-9.3v-9.3H592.9 M594.3,203.4h-12.3v12.3h12.3V203.4L594.3,203.4z"/>
	</g>
	<g>
		<path class="st16" d="M607.7,214.9c-3,0-5.4-2.4-5.4-5.4c0-3,2.4-5.4,5.4-5.4s5.4,2.4,5.4,5.4
			C613.1,212.5,610.7,214.9,607.7,214.9z"/>
		<path class="st8" d="M607.7,204.9c2.6,0,4.6,2.1,4.6,4.6c0,2.6-2.1,4.6-4.6,4.6s-4.6-2.1-4.6-4.6
			C603.1,207,605.2,204.9,607.7,204.9 M607.7,203.4c-3.4,0-6.1,2.7-6.1,6.1c0,3.4,2.7,6.1,6.1,6.1c3.4,0,6.1-2.7,6.1-6.1
			C613.9,206.1,611.1,203.4,607.7,203.4L607.7,203.4z"/>
	</g>
	<g>
		<rect x="654.6" y="179.7" class="st16" width="10.8" height="10.8"/>
		<path class="st8" d="M664.6,180.4v9.3h-9.3v-9.3H664.6 M666.1,178.9h-12.3v12.3h12.3V178.9L666.1,178.9z"/>
	</g>
	<g>
		<circle class="st16" cx="679.5" cy="185.1" r="5.4"/>
		<path class="st8" d="M679.5,180.4c2.6,0,4.6,2.1,4.6,4.6c0,2.6-2.1,4.6-4.6,4.6s-4.6-2.1-4.6-4.6
			C674.9,182.5,676.9,180.4,679.5,180.4 M679.5,178.9c-3.4,0-6.1,2.7-6.1,6.1s2.7,6.1,6.1,6.1c3.4,0,6.1-2.7,6.1-6.1
			S682.9,178.9,679.5,178.9L679.5,178.9z"/>
	</g>
	<g>
		<rect x="701.7" y="179.7" class="st16" width="10.8" height="10.8"/>
		<path class="st8" d="M711.8,180.4v9.3h-9.3v-9.3H711.8 M713.3,178.9H701v12.3h12.3V178.9L713.3,178.9z"/>
	</g>
	<g>
		<circle class="st16" cx="726.7" cy="185.1" r="5.4"/>
		<path class="st8" d="M726.7,180.4c2.6,0,4.6,2.1,4.6,4.6c0,2.6-2.1,4.6-4.6,4.6s-4.6-2.1-4.6-4.6
			C722,182.5,724.1,180.4,726.7,180.4 M726.7,178.9c-3.4,0-6.1,2.7-6.1,6.1s2.7,6.1,6.1,6.1c3.4,0,6.1-2.7,6.1-6.1
			S730,178.9,726.7,178.9L726.7,178.9z"/>
	</g>
</g>
<g>
	<g>
		<g>
			<polyline class="st3" points="512.2,242.3 512.2,301.7 566.7,301.7 			"/>
			<g>
				<polygon class="st4" points="509.6,245.3 512.2,242.7 514.7,245.3 514.7,243.1 512.2,240.6 509.6,243.1 				"/>
			</g>
			<g>
				<polygon class="st4" points="563.8,304.2 566.3,301.7 563.8,299.2 565.9,299.2 568.4,301.7 565.9,304.2 				"/>
			</g>
		</g>
	</g>
	<g>
		<line class="st3" x1="531.1" y1="270.1" x2="531.1" y2="295"/>
		<rect x="526.1" y="275.9" class="st12" width="9.9" height="13.3"/>
		<line class="st3" x1="549.5" y1="247.2" x2="549.5" y2="277.7"/>
		<rect x="544.6" y="254.4" class="st8" width="9.9" height="16.2"/>
	</g>
	<g>
		<g>
			<polyline class="st3" points="594,242.3 594,301.7 648.5,301.7 			"/>
			<g>
				<polygon class="st4" points="591.4,245.3 594,242.7 596.5,245.3 596.5,243.1 594,240.6 591.4,243.1 				"/>
			</g>
			<g>
				<polygon class="st4" points="645.5,304.2 648.1,301.7 645.5,299.2 647.7,299.2 650.2,301.7 647.7,304.2 				"/>
			</g>
		</g>
	</g>
	<g>
		<line class="st3" x1="612.9" y1="247" x2="612.9" y2="272"/>
		<rect x="607.9" y="252.9" class="st12" width="9.9" height="13.3"/>
		<line class="st3" x1="631.3" y1="264.7" x2="631.3" y2="295.2"/>
		<rect x="626.3" y="271.9" class="st8" width="9.9" height="16.2"/>
	</g>
	<g>
		<g>
			<path class="st8" d="M504.8,265.6l1.9-1l-1.4-2.6c-1.2-2.3-3.6-3.8-6.3-3.8c-2.6,0-5,1.5-6.3,3.8l-1.4,2.6l1.9,1l1.4-2.6
				c0.1-0.2,0.3-0.5,0.4-0.7l-1.5,8.9h2v2.9h2.1v-2.9h2.7v2.9h2.1v-2.9h2l-1.5-8.9c0.2,0.2,0.3,0.4,0.4,0.7L504.8,265.6z
				 M500.6,260.6l1.4,8.5h-6l1.4-8.5c0.5-0.2,1-0.2,1.5-0.2C499.6,260.3,500.1,260.4,500.6,260.6L500.6,260.6z"/>
			<path class="st8" d="M499.1,257.1c2.3,0,4.1-1.9,4.1-4.1s-1.9-4.1-4.1-4.1c-2.3,0-4.1,1.9-4.1,4.1
				C494.9,255.3,496.8,257.1,499.1,257.1z M499.1,251c1.1,0,2,0.9,2,2c0,1.1-0.9,2-2,2s-2-0.9-2-2S497.9,251,499.1,251z"/>
		</g>
		<g>
			<path class="st12" d="M499.1,284.6c-1.5,0-2.8,0.8-3.5,2.1l-0.8,1.5l1,0.5l0.6-1.1v5.8h1.2v-2.5h2.9v2.5h1.2v-5.8l0.6,1.1l1-0.5
				l-0.8-1.5C501.9,285.4,500.5,284.6,499.1,284.6L499.1,284.6z M497.6,286.1c0.4-0.3,0.9-0.4,1.4-0.4c0.5,0,1,0.1,1.4,0.4v3.6h-2.9
				L497.6,286.1L497.6,286.1z"/>
			<path class="st12" d="M499.1,284c1.3,0,2.3-1,2.3-2.3s-1-2.3-2.3-2.3c-1.3,0-2.3,1-2.3,2.3S497.8,284,499.1,284z M499.1,280.5
				c0.6,0,1.1,0.5,1.1,1.1s-0.5,1.1-1.1,1.1c-0.6,0-1.1-0.5-1.1-1.1S498.4,280.5,499.1,280.5z"/>
		</g>
	</g>
	<g>
		<g>
			<path class="st8" d="M584.4,288.7l1-0.5l-0.8-1.5c-0.7-1.3-2-2.1-3.5-2.1c-1.5,0-2.8,0.8-3.5,2.1l-0.8,1.5l1,0.5l0.8-1.5
				c0.1-0.1,0.1-0.3,0.2-0.4l-0.8,4.9h1.1v1.6h1.2v-1.6h1.5v1.6h1.2v-1.6h1.1l-0.8-4.9c0.1,0.1,0.2,0.2,0.2,0.4L584.4,288.7z
				 M582.1,285.9l0.8,4.7h-3.3l0.8-4.7c0.3-0.1,0.6-0.1,0.9-0.1C581.5,285.7,581.8,285.8,582.1,285.9L582.1,285.9z"/>
			<path class="st8" d="M581.2,284c1.3,0,2.3-1,2.3-2.3s-1-2.3-2.3-2.3c-1.3,0-2.3,1-2.3,2.3S580,284,581.2,284z M581.2,280.5
				c0.6,0,1.1,0.5,1.1,1.1s-0.5,1.1-1.1,1.1c-0.6,0-1.1-0.5-1.1-1.1S580.6,280.5,581.2,280.5z"/>
		</g>
		<g>
			<path class="st12" d="M581.2,258.2c-2.6,0-5,1.5-6.3,3.8l-1.4,2.6l1.9,1l1.1-2v10.5h2.1v-4.4h5.2v4.4h2.1v-10.5l1.1,2l1.9-1
				l-1.4-2.6C586.3,259.7,583.9,258.2,581.2,258.2L581.2,258.2z M578.6,261.1c0.8-0.5,1.7-0.7,2.6-0.7c0.9,0,1.8,0.3,2.6,0.7v6.5
				h-5.2L578.6,261.1L578.6,261.1z"/>
			<path class="st12" d="M581.2,257.1c2.3,0,4.1-1.9,4.1-4.1s-1.9-4.1-4.1-4.1c-2.3,0-4.1,1.9-4.1,4.1S579,257.1,581.2,257.1z
				 M581.2,251c1.1,0,2,0.9,2,2s-0.9,2-2,2c-1.1,0-2-0.9-2-2S580.1,251,581.2,251z"/>
		</g>
	</g>
	<g>
		<g>
			<g>
				<path class="st12" d="M674.3,242.2c1.4,0,2.5,1,2.8,2.3l4.4,20.8c0.5,2.1,2.4,3.7,4.6,3.7c2.2,0,4.2-1.6,4.6-3.8l3.8-20.3
					c0.3-1.5,1.6-2.7,3.2-2.7c0.3,0,0.5,0,0.8,0.1c0.9,0.2,1.6,0.7,2,1.5c0.4,0.8,0.6,1.6,0.4,2.5l-4.9,19.4
					c-0.9,3.5-0.9,7.2-0.1,10.8l5,21.2c0.3,1.3-0.4,2.7-1.7,3.2c-0.3,0.1-0.6,0.2-1,0.2c-1.3,0-2.4-0.9-2.7-2.1l-4.6-20.3
					c-0.5-2.2-2.4-3.7-4.6-3.7c-2.2,0-4.1,1.5-4.6,3.7l-4.5,20.1c-0.3,1.3-1.5,2.2-2.8,2.2c-0.2,0-0.5,0-0.7-0.1
					c-1.5-0.4-2.5-1.9-2.1-3.5l4.9-20.6c0.8-3.4,0.8-7,0-10.3l-5-20.9c-0.2-0.8-0.1-1.5,0.4-2.2s1.1-1.1,1.9-1.3
					C673.9,242.2,674.1,242.2,674.3,242.2 M674.3,240.7c-0.3,0-0.6,0-0.9,0.1c-2.4,0.5-4,2.9-3.4,5.3l5,20.9c0.8,3.2,0.8,6.5,0,9.6
					l-4.9,20.6c-0.6,2.3,0.9,4.7,3.2,5.3c0.4,0.1,0.7,0.1,1.1,0.1c2,0,3.8-1.4,4.3-3.4l4.5-20.1c0.3-1.5,1.7-2.5,3.2-2.5
					c1.5,0,2.8,1,3.2,2.5l4.6,20.3c0.5,2,2.2,3.3,4.1,3.3c0.5,0,1-0.1,1.5-0.3c2-0.8,3.1-2.9,2.6-5l-5-21.2
					c-0.8-3.3-0.8-6.7,0.1-10.1l4.9-19.5c0.7-2.6-0.9-5.2-3.5-5.8c-0.4-0.1-0.8-0.1-1.1-0.1c-2.2,0-4.2,1.6-4.7,3.9l-3.8,20.3
					c-0.3,1.5-1.6,2.6-3.1,2.6c-1.5,0-2.8-1.1-3.1-2.5l-4.4-20.8C678.1,242.1,676.3,240.7,674.3,240.7L674.3,240.7z"/>
			</g>
		</g>
		<g>
			<g>
				<path class="st12" d="M715,242.2c1.4,0,2.5,1,2.8,2.3l4.4,20.8c0.5,2.1,2.4,3.7,4.6,3.7c2.2,0,4.2-1.6,4.6-3.8l3.8-20.3
					c0.3-1.5,1.6-2.7,3.2-2.7c0.3,0,0.5,0,0.8,0.1c0.9,0.2,1.6,0.7,2,1.5c0.4,0.8,0.6,1.6,0.4,2.5l-4.9,19.4
					c-0.9,3.5-0.9,7.2-0.1,10.8l5,21.2c0.3,1.3-0.4,2.7-1.7,3.2c-0.3,0.1-0.6,0.2-1,0.2c-1.3,0-2.4-0.9-2.7-2.1l-4.6-20.3
					c-0.5-2.2-2.4-3.7-4.6-3.7c-2.2,0-4.1,1.5-4.6,3.7l-4.5,20.1c-0.3,1.3-1.5,2.2-2.8,2.2c-0.2,0-0.5,0-0.7-0.1
					c-1.5-0.4-2.5-1.9-2.1-3.5l4.9-20.6c0.8-3.4,0.8-7,0-10.3l-5-20.9c-0.2-0.8-0.1-1.5,0.4-2.2s1.1-1.1,1.9-1.3
					C714.6,242.2,714.8,242.2,715,242.2 M715,240.7c-0.3,0-0.6,0-0.9,0.1c-2.4,0.5-4,2.9-3.4,5.3l5,20.9c0.8,3.2,0.8,6.5,0,9.6
					l-4.9,20.6c-0.6,2.3,0.9,4.7,3.2,5.3c0.4,0.1,0.7,0.1,1.1,0.1c2,0,3.8-1.4,4.3-3.4l4.5-20.1c0.3-1.5,1.7-2.5,3.2-2.5
					c1.5,0,2.8,1,3.2,2.5l4.6,20.3c0.5,2,2.2,3.3,4.1,3.3c0.5,0,1-0.1,1.5-0.3c2-0.8,3.1-2.9,2.6-5l-5-21.2
					c-0.8-3.3-0.8-6.7,0.1-10.1l4.9-19.5c0.7-2.6-0.9-5.2-3.5-5.8c-0.4-0.1-0.8-0.1-1.1-0.1c-2.2,0-4.2,1.6-4.7,3.9l-3.8,20.3
					c-0.3,1.5-1.6,2.6-3.1,2.6c-1.5,0-2.8-1.1-3.1-2.5l-4.4-20.8C718.8,242.1,717,240.7,715,240.7L715,240.7z"/>
			</g>
		</g>
	</g>
</g>
<g>
	<path class="st8" d="M213,342.6H108.2c-6.8,0-12.4-5.5-12.4-12.4l0,0c0-6.8,5.5-12.4,12.4-12.4H213c6.8,0,12.4,5.5,12.4,12.4l0,0
		C225.4,337.1,219.8,342.6,213,342.6z"/>
	<g class="st17">
		<path class="st16" d="M120.4,334.5h-1.1V324h1.2l3.5,8.4h0l3.5-8.4h1.2v10.5h-1.1v-7.8h-0.1l-3,7h-1.1l-3-7h-0.1L120.4,334.5
			L120.4,334.5z"/>
		<path class="st16" d="M138.1,326.4v8.1h-1.2v-1.3h-0.1c-0.1,0.4-0.4,0.7-0.8,1c-0.4,0.3-0.9,0.4-1.6,0.4c-0.9,0-1.5-0.2-2-0.6
			c-0.5-0.4-0.7-1.1-0.7-1.9v-5.6h1.2v5.3c0,1.2,0.6,1.8,1.8,1.8c0.6,0,1.1-0.2,1.6-0.6c0.4-0.4,0.6-0.9,0.6-1.4v-5.2H138.1z"/>
		<path class="st16" d="M141,334.5v-11h1.2v11H141z"/>
		<path class="st16" d="M145.5,326.4v-2h1.2v2h1.8v1h-1.8v4.8c0,0.3,0,0.6,0.1,0.8c0.1,0.2,0.2,0.3,0.4,0.4c0.2,0.1,0.5,0.1,0.8,0.1
			c0.2,0,0.4,0,0.6,0v1c-0.2,0-0.5,0.1-0.9,0.1c-0.5,0-0.8,0-1.1-0.1s-0.5-0.2-0.7-0.4c-0.2-0.2-0.3-0.4-0.3-0.7
			c-0.1-0.3-0.1-0.6-0.1-1v-4.8h-1.2v-1L145.5,326.4L145.5,326.4z"/>
		<path class="st16" d="M150.7,323.9c0-0.3,0.1-0.5,0.3-0.6s0.4-0.3,0.6-0.3c0.3,0,0.5,0.1,0.6,0.3c0.2,0.2,0.3,0.4,0.3,0.6
			c0,0.2,0,0.3-0.1,0.5s-0.2,0.2-0.3,0.3c-0.1,0.1-0.3,0.1-0.5,0.1c-0.3,0-0.5-0.1-0.6-0.3C150.8,324.4,150.7,324.2,150.7,323.9z
			 M151,334.5v-8.1h1.2v8.1H151z"/>
		<path class="st16" d="M159.5,330.7h-4.8v-1.1h4.8V330.7z"/>
		<path class="st16" d="M164.7,326.3c1,0,1.8,0.3,2.5,0.9s1,1.5,1,2.6v1.3c0,1.1-0.3,2-1,2.6c-0.6,0.6-1.5,0.9-2.5,0.9
			c-1,0-1.8-0.3-2.5-0.9c-0.6-0.6-0.9-1.5-0.9-2.6v-1.3c0-1.1,0.3-1.9,1-2.6C162.9,326.6,163.7,326.3,164.7,326.3z M162.5,330v1
			c0,0.5,0.1,1,0.3,1.4c0.2,0.4,0.4,0.7,0.8,0.9c0.3,0.2,0.7,0.3,1.2,0.3c0.7,0,1.2-0.2,1.6-0.7c0.4-0.5,0.6-1.1,0.6-1.9v-1
			c0-0.8-0.2-1.4-0.6-1.9c-0.4-0.5-0.9-0.7-1.6-0.7c-0.7,0-1.2,0.2-1.6,0.7C162.7,328.6,162.5,329.2,162.5,330z"/>
		<path class="st16" d="M170.6,334.5v-8.1h1.2v1.3h0.1c0.3-0.9,1-1.4,2.2-1.4c0.3,0,0.6,0,0.8,0.1c0.3,0.1,0.5,0.2,0.7,0.3
			c0.2,0.1,0.3,0.3,0.5,0.5c0.1,0.2,0.2,0.4,0.3,0.6h0.1c0.2-0.4,0.5-0.8,0.9-1.1c0.4-0.3,0.9-0.4,1.5-0.4c0.8,0,1.5,0.2,2,0.6
			c0.5,0.4,0.7,1.1,0.7,1.9v5.7h-1.2v-5.4c0-0.5-0.1-0.9-0.4-1.3c-0.3-0.3-0.7-0.5-1.3-0.5c-0.5,0-1,0.2-1.3,0.6
			c-0.4,0.4-0.5,0.8-0.5,1.4v5.2h-1.2v-5.3c0-0.5-0.2-1-0.5-1.3c-0.3-0.3-0.8-0.5-1.3-0.5c-0.5,0-1,0.2-1.3,0.5
			c-0.4,0.4-0.5,0.8-0.5,1.4v5.2L170.6,334.5L170.6,334.5z"/>
		<path class="st16" d="M184.1,323.9c0-0.3,0.1-0.5,0.3-0.6s0.4-0.3,0.6-0.3c0.3,0,0.5,0.1,0.6,0.3c0.2,0.2,0.3,0.4,0.3,0.6
			c0,0.2,0,0.3-0.1,0.5c-0.1,0.1-0.2,0.2-0.3,0.3c-0.1,0.1-0.3,0.1-0.5,0.1c-0.3,0-0.5-0.1-0.6-0.3
			C184.2,324.4,184.1,324.2,184.1,323.9z M184.4,334.5v-8.1h1.2v8.1H184.4z"/>
		<path class="st16" d="M188.3,331.2v-1.4c0-1.1,0.3-1.9,0.9-2.5c0.6-0.6,1.4-0.9,2.4-0.9c0.9,0,1.7,0.2,2.2,0.7
			c0.5,0.5,0.8,1,0.8,1.6h-1.2c0-0.1-0.1-0.3-0.1-0.4c-0.1-0.1-0.2-0.3-0.3-0.4c-0.1-0.1-0.3-0.3-0.6-0.4s-0.5-0.1-0.8-0.1
			c-0.7,0-1.2,0.2-1.6,0.6c-0.4,0.4-0.5,1-0.5,1.8v1.4c0,0.5,0.1,0.9,0.3,1.2c0.2,0.4,0.4,0.6,0.7,0.8c0.3,0.2,0.7,0.3,1.1,0.3
			c1.1,0,1.7-0.4,1.9-1.1h1.2c0,0.6-0.3,1.1-0.8,1.6s-1.3,0.7-2.2,0.7c-1,0-1.8-0.3-2.4-0.9C188.6,333.1,188.3,332.2,188.3,331.2z"
			/>
		<path class="st16" d="M196.5,328.7c0-0.8,0.3-1.4,0.8-1.8c0.6-0.4,1.3-0.6,2.1-0.6c0.4,0,0.8,0.1,1.2,0.2s0.6,0.3,0.9,0.5
			c0.2,0.2,0.4,0.4,0.6,0.7c0.1,0.3,0.2,0.6,0.2,0.9h-1.1c0-0.2-0.1-0.4-0.2-0.6c-0.1-0.2-0.3-0.3-0.6-0.5c-0.3-0.1-0.6-0.2-0.9-0.2
			c-0.3,0-0.6,0.1-0.9,0.1c-0.3,0.1-0.5,0.2-0.6,0.4c-0.1,0.2-0.2,0.4-0.2,0.7c0,0.2,0,0.4,0.1,0.5c0.1,0.1,0.2,0.2,0.3,0.3
			c0.1,0.1,0.2,0.1,0.4,0.2c0.2,0.1,0.4,0.1,0.5,0.1c0.1,0,0.3,0.1,0.5,0.1c0,0,0,0,0.1,0c0,0,0,0,0.1,0s0,0,0.1,0
			c0.3,0,0.5,0.1,0.7,0.1c0.2,0.1,0.4,0.1,0.7,0.2c0.2,0.1,0.4,0.2,0.6,0.3c0.2,0.1,0.3,0.2,0.4,0.4c0.1,0.2,0.2,0.3,0.3,0.5
			c0.1,0.2,0.1,0.4,0.1,0.7c0,0.8-0.3,1.4-0.9,1.8c-0.6,0.4-1.3,0.7-2.3,0.7c-0.9,0-1.6-0.2-2.1-0.6c-0.5-0.4-0.8-0.9-0.8-1.6h1.2
			c0.1,0.8,0.7,1.2,1.8,1.2c0.4,0,0.8-0.1,1.1-0.2s0.5-0.3,0.6-0.5c0.1-0.2,0.2-0.4,0.2-0.7c0-0.2,0-0.3-0.1-0.5
			c-0.1-0.1-0.2-0.2-0.3-0.3s-0.3-0.2-0.5-0.2c-0.2-0.1-0.4-0.1-0.5-0.2c-0.1,0-0.4-0.1-0.6-0.1c-0.4-0.1-0.7-0.1-0.9-0.2
			c-0.2-0.1-0.5-0.1-0.7-0.3c-0.3-0.1-0.5-0.2-0.6-0.4c-0.1-0.1-0.3-0.3-0.4-0.6C196.6,329.3,196.5,329.1,196.5,328.7z"/>
	</g>
	<path class="st8" d="M682.3,342.6H552.3c-6.8,0-12.4-5.5-12.4-12.4l0,0c0-6.8,5.5-12.4,12.4-12.4h129.9c6.8,0,12.4,5.5,12.4,12.4
		l0,0C694.6,337.1,689.1,342.6,682.3,342.6z"/>
	<g class="st17">
		<path class="st16" d="M561.9,331.7h1.2c0.1,0.6,0.3,1,0.8,1.4c0.5,0.4,1.1,0.5,1.9,0.5c0.7,0,1.3-0.2,1.8-0.5s0.7-0.8,0.7-1.4
			c0-0.4-0.1-0.8-0.4-1.1c-0.3-0.3-0.7-0.5-1.3-0.6l-1.9-0.5c-0.7-0.2-1.3-0.5-1.7-0.9c-0.5-0.4-0.7-1-0.7-1.8
			c0-0.6,0.2-1.2,0.5-1.6c0.4-0.5,0.8-0.8,1.3-1s1.1-0.3,1.7-0.3c0.5,0,0.9,0.1,1.3,0.2c0.4,0.1,0.8,0.3,1.1,0.5
			c0.4,0.2,0.6,0.5,0.8,0.9c0.2,0.4,0.3,0.8,0.3,1.3h-1.2c-0.1-0.6-0.3-1-0.7-1.3c-0.4-0.3-1-0.5-1.7-0.5c-0.7,0-1.2,0.2-1.7,0.5
			c-0.4,0.3-0.6,0.8-0.6,1.3c0,0.8,0.5,1.3,1.5,1.6l1.8,0.5c0.9,0.2,1.5,0.6,2,1c0.5,0.4,0.7,1,0.7,1.8c0,1-0.4,1.8-1.1,2.3
			c-0.7,0.5-1.7,0.8-2.8,0.8c-0.6,0-1.2-0.1-1.7-0.3c-0.5-0.2-0.9-0.4-1.2-0.7c-0.3-0.3-0.5-0.6-0.6-1
			C562,332.4,561.9,332.1,561.9,331.7z"/>
		<path class="st16" d="M574.8,334.6c-1.1,0-1.9-0.3-2.5-0.9c-0.6-0.6-0.9-1.5-0.9-2.6v-1.3c0-1.1,0.3-1.9,0.9-2.5
			c0.6-0.6,1.4-1,2.4-1c1,0,1.8,0.3,2.4,1c0.6,0.6,0.9,1.5,0.9,2.5v1h-5.3v0.4c0,0.7,0.2,1.2,0.6,1.7c0.4,0.4,0.9,0.7,1.6,0.7
			c0.5,0,0.9-0.1,1.2-0.3c0.3-0.2,0.5-0.4,0.6-0.7h1.3c0,0.2-0.1,0.5-0.3,0.7c-0.1,0.2-0.3,0.4-0.6,0.7s-0.6,0.4-0.9,0.5
			C575.7,334.6,575.3,334.6,574.8,334.6z M572.7,329.9h4.1v-0.1c0-0.5-0.1-0.9-0.3-1.2c-0.2-0.4-0.4-0.6-0.7-0.8
			c-0.3-0.2-0.7-0.3-1.1-0.3c-0.6,0-1.1,0.2-1.5,0.6c-0.4,0.4-0.6,1-0.6,1.7L572.7,329.9L572.7,329.9z"/>
		<path class="st16" d="M585,334.5l-2-3.1h0l-2,3.1h-1.4l2.7-4l-2.7-4.1h1.5l1.9,3.1h0l2-3.1h1.4l-2.7,3.9l2.8,4.1L585,334.5
			L585,334.5z"/>
		<path class="st16" d="M594.8,326.3c0.6,0,1.1,0.1,1.5,0.4c0.4,0.3,0.7,0.6,0.8,0.9h0.1v-4.1h1.2v11h-1.1v-1.3h-0.1
			c-0.1,0.4-0.4,0.7-0.8,1c-0.4,0.3-1,0.4-1.6,0.4c-0.9,0-1.7-0.3-2.2-0.9c-0.6-0.6-0.9-1.4-0.9-2.4v-1.7c0-1,0.3-1.8,0.9-2.4
			C593.1,326.6,593.8,326.3,594.8,326.3z M594.9,327.4c-0.7,0-1.2,0.2-1.5,0.7s-0.6,1.1-0.6,1.9v1.1c0,0.8,0.2,1.4,0.6,1.9
			c0.4,0.4,0.9,0.7,1.6,0.7s1.2-0.2,1.6-0.6c0.4-0.4,0.6-1,0.6-1.8v-1.5c0-0.6-0.2-1.2-0.6-1.6C596.1,327.6,595.6,327.4,594.9,327.4
			z"/>
		<path class="st16" d="M601.1,323.9c0-0.3,0.1-0.5,0.3-0.6s0.4-0.3,0.6-0.3c0.3,0,0.5,0.1,0.6,0.3c0.2,0.2,0.3,0.4,0.3,0.6
			c0,0.2,0,0.3-0.1,0.5s-0.2,0.2-0.3,0.3c-0.1,0.1-0.3,0.1-0.5,0.1c-0.3,0-0.5-0.1-0.6-0.3C601.2,324.4,601.1,324.2,601.1,323.9z
			 M601.4,334.5v-8.1h1.2v8.1H601.4z"/>
		<path class="st16" d="M606.4,334.5v-7H605v-1h1.4v-0.8c0-0.8,0.2-1.3,0.6-1.7c0.4-0.4,1-0.5,1.9-0.5c0.3,0,0.6,0,0.9,0.1v1
			c-0.2,0-0.4,0-0.7,0c-0.5,0-0.9,0.1-1.1,0.3c-0.2,0.2-0.3,0.5-0.3,1v0.7h1.9v1h-1.9v7L606.4,334.5L606.4,334.5z"/>
		<path class="st16" d="M612.4,334.5v-7H611v-1h1.4v-0.8c0-0.8,0.2-1.3,0.6-1.7c0.4-0.4,1-0.5,1.9-0.5c0.3,0,0.6,0,0.9,0.1v1
			c-0.2,0-0.4,0-0.7,0c-0.5,0-0.9,0.1-1.1,0.3c-0.2,0.2-0.3,0.5-0.3,1v0.7h1.9v1h-1.9v7L612.4,334.5L612.4,334.5z"/>
		<path class="st16" d="M620.8,334.6c-1.1,0-1.9-0.3-2.5-0.9c-0.6-0.6-0.9-1.5-0.9-2.6v-1.3c0-1.1,0.3-1.9,0.9-2.5
			c0.6-0.6,1.4-1,2.4-1s1.8,0.3,2.4,1c0.6,0.6,0.9,1.5,0.9,2.5v1h-5.3v0.4c0,0.7,0.2,1.2,0.6,1.7c0.4,0.4,0.9,0.7,1.6,0.7
			c0.5,0,0.9-0.1,1.2-0.3c0.3-0.2,0.5-0.4,0.6-0.7h1.3c0,0.2-0.1,0.5-0.3,0.7c-0.1,0.2-0.3,0.4-0.6,0.7s-0.6,0.4-0.9,0.5
			C621.7,334.6,621.2,334.6,620.8,334.6z M618.6,329.9h4.1v-0.1c0-0.5-0.1-0.9-0.3-1.2c-0.2-0.4-0.4-0.6-0.7-0.8
			c-0.3-0.2-0.7-0.3-1.1-0.3c-0.6,0-1.1,0.2-1.5,0.6c-0.4,0.4-0.6,1-0.6,1.7L618.6,329.9L618.6,329.9z"/>
		<path class="st16" d="M626.5,334.5v-8.1h1.2v1.3h0.1c0.1-0.4,0.4-0.7,0.7-1c0.4-0.3,0.9-0.4,1.5-0.4c0.1,0,0.3,0,0.5,0v1.1
			c-0.1,0-0.3,0-0.6,0c-0.5,0-0.9,0.1-1.2,0.3c-0.3,0.2-0.6,0.4-0.7,0.7s-0.2,0.6-0.2,1v5.1L626.5,334.5L626.5,334.5z"/>
		<path class="st16" d="M635.3,334.6c-1.1,0-1.9-0.3-2.5-0.9c-0.6-0.6-0.9-1.5-0.9-2.6v-1.3c0-1.1,0.3-1.9,0.9-2.5
			c0.6-0.6,1.4-1,2.4-1s1.8,0.3,2.4,1c0.6,0.6,0.9,1.5,0.9,2.5v1h-5.3v0.4c0,0.7,0.2,1.2,0.6,1.7c0.4,0.4,0.9,0.7,1.6,0.7
			c0.5,0,0.9-0.1,1.2-0.3c0.3-0.2,0.5-0.4,0.6-0.7h1.3c0,0.2-0.1,0.5-0.3,0.7c-0.1,0.2-0.3,0.4-0.6,0.7s-0.6,0.4-0.9,0.5
			C636.2,334.6,635.8,334.6,635.3,334.6z M633.2,329.9h4.1v-0.1c0-0.5-0.1-0.9-0.3-1.2c-0.2-0.4-0.4-0.6-0.7-0.8
			c-0.3-0.2-0.7-0.3-1.1-0.3c-0.6,0-1.1,0.2-1.5,0.6c-0.4,0.4-0.6,1-0.6,1.7L633.2,329.9L633.2,329.9z"/>
		<path class="st16" d="M640.9,334.5v-8.1h1.2v1.5h0.1c0.3-1.1,1.2-1.6,2.5-1.6c0.8,0,1.5,0.2,2,0.7c0.5,0.5,0.7,1.1,0.7,2v5.5h-1.2
			v-5.2c0-0.6-0.2-1.1-0.5-1.5c-0.3-0.3-0.8-0.5-1.3-0.5c-0.7,0-1.3,0.2-1.7,0.7c-0.4,0.5-0.6,1.1-0.6,1.9v4.5H640.9z"/>
		<path class="st16" d="M649.7,331.2v-1.4c0-1.1,0.3-1.9,0.9-2.5c0.6-0.6,1.4-0.9,2.4-0.9c0.9,0,1.7,0.2,2.2,0.7
			c0.5,0.5,0.8,1,0.8,1.6h-1.2c0-0.1-0.1-0.3-0.1-0.4c-0.1-0.1-0.2-0.3-0.3-0.4c-0.1-0.1-0.3-0.3-0.6-0.4s-0.5-0.1-0.8-0.1
			c-0.7,0-1.2,0.2-1.6,0.6c-0.4,0.4-0.5,1-0.5,1.8v1.4c0,0.5,0.1,0.9,0.3,1.2c0.2,0.4,0.4,0.6,0.7,0.8c0.3,0.2,0.7,0.3,1.1,0.3
			c1.1,0,1.7-0.4,1.9-1.1h1.2c0,0.6-0.3,1.1-0.8,1.6c-0.5,0.5-1.3,0.7-2.2,0.7c-1,0-1.8-0.3-2.4-0.9
			C650,333.1,649.7,332.2,649.7,331.2z"/>
		<path class="st16" d="M661.3,334.6c-1.1,0-1.9-0.3-2.5-0.9c-0.6-0.6-0.9-1.5-0.9-2.6v-1.3c0-1.1,0.3-1.9,0.9-2.5
			c0.6-0.6,1.4-1,2.4-1c1,0,1.8,0.3,2.4,1c0.6,0.6,0.9,1.5,0.9,2.5v1h-5.4v0.4c0,0.7,0.2,1.2,0.6,1.7c0.4,0.4,0.9,0.7,1.6,0.7
			c0.5,0,0.9-0.1,1.2-0.3c0.3-0.2,0.5-0.4,0.6-0.7h1.3c0,0.2-0.1,0.5-0.3,0.7c-0.1,0.2-0.3,0.4-0.6,0.7s-0.6,0.4-0.9,0.5
			C662.2,334.6,661.8,334.6,661.3,334.6z M659.2,329.9h4.1v-0.1c0-0.5-0.1-0.9-0.3-1.2c-0.2-0.4-0.4-0.6-0.7-0.8
			c-0.3-0.2-0.7-0.3-1.1-0.3c-0.6,0-1.1,0.2-1.5,0.6c-0.4,0.4-0.6,1-0.6,1.7L659.2,329.9L659.2,329.9z"/>
		<path class="st16" d="M666.5,328.7c0-0.8,0.3-1.4,0.8-1.8c0.6-0.4,1.3-0.6,2.1-0.6c0.4,0,0.8,0.1,1.2,0.2c0.4,0.1,0.6,0.3,0.9,0.5
			c0.2,0.2,0.4,0.4,0.6,0.7c0.1,0.3,0.2,0.6,0.2,0.9h-1.1c0-0.2-0.1-0.4-0.2-0.6c-0.1-0.2-0.3-0.3-0.6-0.5c-0.3-0.1-0.6-0.2-0.9-0.2
			c-0.3,0-0.6,0.1-0.9,0.1c-0.3,0.1-0.5,0.2-0.6,0.4c-0.1,0.2-0.2,0.4-0.2,0.7c0,0.2,0,0.4,0.1,0.5c0.1,0.1,0.2,0.2,0.3,0.3
			c0.1,0.1,0.2,0.1,0.4,0.2c0.2,0.1,0.4,0.1,0.5,0.1c0.1,0,0.3,0.1,0.5,0.1c0,0,0,0,0.1,0c0,0,0,0,0.1,0s0,0,0.1,0
			c0.3,0,0.5,0.1,0.7,0.1c0.2,0.1,0.4,0.1,0.7,0.2c0.2,0.1,0.4,0.2,0.6,0.3c0.2,0.1,0.3,0.2,0.4,0.4c0.1,0.2,0.2,0.3,0.3,0.5
			c0.1,0.2,0.1,0.4,0.1,0.7c0,0.8-0.3,1.4-0.9,1.8c-0.6,0.4-1.3,0.7-2.3,0.7c-0.9,0-1.6-0.2-2.1-0.6c-0.5-0.4-0.8-0.9-0.8-1.6h1.2
			c0.1,0.8,0.7,1.2,1.8,1.2c0.4,0,0.8-0.1,1.1-0.2c0.3-0.1,0.5-0.3,0.6-0.5c0.1-0.2,0.2-0.4,0.2-0.7c0-0.2,0-0.3-0.1-0.5
			c-0.1-0.1-0.2-0.2-0.3-0.3c-0.1-0.1-0.3-0.2-0.5-0.2c-0.2-0.1-0.4-0.1-0.5-0.2c-0.1,0-0.4-0.1-0.6-0.1c-0.4-0.1-0.7-0.1-0.9-0.2
			s-0.5-0.1-0.7-0.3c-0.3-0.1-0.5-0.2-0.6-0.4c-0.1-0.1-0.3-0.3-0.4-0.6C666.5,329.3,666.5,329.1,666.5,328.7z"/>
	</g>
</g>
<g>
	<path class="st12" d="M163.4,26.5H15.6C8.8,26.5,3.2,21,3.2,14.1l0,0c0-6.8,5.5-12.4,12.4-12.4h147.8c6.8,0,12.4,5.5,12.4,12.4l0,0
		C175.8,21,170.2,26.5,163.4,26.5z"/>
	<g class="st17">
		<path class="st16" d="M21.3,15.6h1.2c0.1,0.6,0.3,1,0.8,1.4s1.1,0.5,1.9,0.5c0.7,0,1.3-0.2,1.8-0.5c0.5-0.3,0.7-0.8,0.7-1.4
			c0-0.4-0.1-0.8-0.4-1.1c-0.3-0.3-0.7-0.5-1.3-0.6L24,13.4c-0.7-0.2-1.3-0.5-1.7-0.9c-0.5-0.4-0.7-1-0.7-1.8c0-0.6,0.2-1.2,0.5-1.6
			s0.8-0.8,1.3-1c0.5-0.2,1.1-0.3,1.7-0.3c0.5,0,0.9,0.1,1.3,0.2c0.4,0.1,0.8,0.3,1.1,0.5c0.4,0.2,0.6,0.5,0.8,0.9
			c0.2,0.4,0.3,0.8,0.3,1.3h-1.2c-0.1-0.6-0.3-1-0.7-1.3c-0.4-0.3-1-0.5-1.7-0.5c-0.7,0-1.2,0.2-1.7,0.5c-0.4,0.3-0.6,0.8-0.6,1.3
			c0,0.8,0.5,1.3,1.5,1.6l1.8,0.5c0.9,0.2,1.5,0.6,2,1c0.5,0.4,0.7,1,0.7,1.8c0,1-0.4,1.8-1.1,2.3c-0.7,0.5-1.7,0.8-2.8,0.8
			c-0.6,0-1.2-0.1-1.7-0.3c-0.5-0.2-0.9-0.4-1.2-0.7c-0.3-0.3-0.5-0.6-0.6-1C21.4,16.3,21.3,16,21.3,15.6z"/>
		<path class="st16" d="M31.6,10.3v-2h1.2v2h1.8v1h-1.8v4.8c0,0.3,0,0.6,0.1,0.8c0.1,0.2,0.2,0.3,0.4,0.4c0.2,0.1,0.5,0.1,0.8,0.1
			c0.2,0,0.4,0,0.6,0v1c-0.2,0-0.5,0.1-0.9,0.1c-0.5,0-0.8,0-1.1-0.1c-0.3-0.1-0.5-0.2-0.7-0.4c-0.2-0.2-0.3-0.4-0.3-0.7
			s-0.1-0.6-0.1-1v-4.8h-1.2v-1L31.6,10.3L31.6,10.3z"/>
		<path class="st16" d="M39.1,18.5c-0.4,0-0.7-0.1-1.1-0.2c-0.3-0.1-0.6-0.3-0.8-0.5s-0.4-0.5-0.5-0.8c-0.1-0.3-0.2-0.6-0.2-1
			c0-0.5,0.1-0.9,0.3-1.2c0.2-0.4,0.5-0.6,1-0.8c0.4-0.2,0.9-0.3,1.5-0.3h2.2v-0.8c0-0.5-0.2-0.9-0.5-1.2c-0.3-0.3-0.8-0.4-1.3-0.4
			c-0.9,0-1.5,0.3-1.7,1h-1.2c0.1-0.7,0.4-1.2,0.9-1.5c0.5-0.4,1.2-0.5,2.1-0.5c0.9,0,1.6,0.2,2.1,0.6c0.6,0.4,0.8,1.1,0.8,2v5.5
			h-1.2v-1.1h0C41,18.1,40.2,18.5,39.1,18.5z M39.4,17.5c0.6,0,1.1-0.2,1.5-0.5c0.4-0.4,0.6-0.8,0.6-1.3v-0.9h-2.1
			c-0.6,0-1,0.1-1.2,0.4s-0.4,0.6-0.4,1c0,0.5,0.2,0.8,0.5,1.1C38.6,17.4,39,17.5,39.4,17.5z"/>
		<path class="st16" d="M45.9,10.3v-2h1.2v2h1.8v1h-1.8v4.8c0,0.3,0,0.6,0.1,0.8c0.1,0.2,0.2,0.3,0.4,0.4c0.2,0.1,0.5,0.1,0.8,0.1
			c0.2,0,0.4,0,0.6,0v1c-0.2,0-0.5,0.1-0.9,0.1c-0.5,0-0.8,0-1.1-0.1c-0.3-0.1-0.5-0.2-0.7-0.4c-0.2-0.2-0.3-0.4-0.3-0.7
			s-0.1-0.6-0.1-1v-4.8h-1.2v-1L45.9,10.3L45.9,10.3z"/>
		<path class="st16" d="M51.2,7.8c0-0.3,0.1-0.5,0.3-0.6c0.2-0.2,0.4-0.3,0.6-0.3c0.3,0,0.5,0.1,0.6,0.3C52.9,7.3,53,7.6,53,7.8
			c0,0.2,0,0.3-0.1,0.5c-0.1,0.1-0.2,0.2-0.3,0.3c-0.1,0.1-0.3,0.1-0.5,0.1c-0.3,0-0.5-0.1-0.6-0.3C51.2,8.3,51.2,8.1,51.2,7.8z
			 M51.5,18.4v-8.1h1.2v8.1H51.5z"/>
		<path class="st16" d="M55.3,12.6c0-0.8,0.3-1.4,0.8-1.8c0.6-0.4,1.3-0.6,2.1-0.6c0.4,0,0.8,0.1,1.2,0.2s0.6,0.3,0.9,0.5
			c0.2,0.2,0.4,0.4,0.6,0.7c0.1,0.3,0.2,0.6,0.2,0.9h-1.1c0-0.2-0.1-0.4-0.2-0.6c-0.1-0.2-0.3-0.3-0.6-0.5c-0.3-0.1-0.6-0.2-0.9-0.2
			c-0.3,0-0.6,0.1-0.9,0.1c-0.3,0.1-0.5,0.2-0.6,0.4c-0.1,0.2-0.2,0.4-0.2,0.7c0,0.2,0,0.4,0.1,0.5c0.1,0.1,0.2,0.2,0.3,0.3
			c0.1,0.1,0.2,0.1,0.4,0.2s0.4,0.1,0.5,0.1c0.1,0,0.3,0.1,0.5,0.1c0,0,0,0,0.1,0c0,0,0,0,0.1,0c0,0,0,0,0.1,0
			c0.3,0,0.5,0.1,0.7,0.1c0.2,0.1,0.4,0.1,0.7,0.2c0.2,0.1,0.4,0.2,0.6,0.3c0.2,0.1,0.3,0.2,0.4,0.4s0.2,0.3,0.3,0.5
			c0.1,0.2,0.1,0.4,0.1,0.7c0,0.8-0.3,1.4-0.9,1.8c-0.6,0.4-1.3,0.7-2.3,0.7c-0.9,0-1.6-0.2-2.1-0.6c-0.5-0.4-0.8-0.9-0.8-1.6h1.2
			c0.1,0.8,0.7,1.2,1.8,1.2c0.4,0,0.8-0.1,1.1-0.2c0.3-0.1,0.5-0.3,0.6-0.5s0.2-0.4,0.2-0.7c0-0.2,0-0.3-0.1-0.5
			c-0.1-0.1-0.2-0.2-0.3-0.3c-0.1-0.1-0.3-0.2-0.5-0.2C59,15.1,58.8,15,58.7,15c-0.1,0-0.4-0.1-0.6-0.1c-0.4-0.1-0.7-0.1-0.9-0.2
			c-0.2-0.1-0.5-0.1-0.7-0.3c-0.3-0.1-0.5-0.2-0.6-0.4c-0.1-0.1-0.3-0.3-0.4-0.6C55.3,13.2,55.3,12.9,55.3,12.6z"/>
		<path class="st16" d="M64,10.3v-2h1.2v2h1.8v1h-1.8v4.8c0,0.3,0,0.6,0.1,0.8c0.1,0.2,0.2,0.3,0.4,0.4c0.2,0.1,0.5,0.1,0.8,0.1
			c0.2,0,0.4,0,0.6,0v1c-0.2,0-0.5,0.1-0.9,0.1c-0.5,0-0.8,0-1.1-0.1c-0.3-0.1-0.5-0.2-0.7-0.4c-0.2-0.2-0.3-0.4-0.3-0.7
			c-0.1-0.3-0.1-0.6-0.1-1v-4.8h-1.2v-1L64,10.3L64,10.3z"/>
		<path class="st16" d="M69.3,7.8c0-0.3,0.1-0.5,0.3-0.6c0.2-0.2,0.4-0.3,0.6-0.3c0.3,0,0.5,0.1,0.6,0.3c0.2,0.2,0.3,0.4,0.3,0.6
			c0,0.2,0,0.3-0.1,0.5c-0.1,0.1-0.2,0.2-0.3,0.3c-0.1,0.1-0.3,0.1-0.5,0.1c-0.3,0-0.5-0.1-0.6-0.3C69.4,8.3,69.3,8.1,69.3,7.8z
			 M69.6,18.4v-8.1h1.2v8.1H69.6z"/>
		<path class="st16" d="M73.4,15.1v-1.4c0-1.1,0.3-1.9,0.9-2.5c0.6-0.6,1.4-0.9,2.4-0.9c0.9,0,1.7,0.2,2.2,0.7s0.8,1,0.8,1.6h-1.2
			c0-0.1-0.1-0.3-0.1-0.4c-0.1-0.1-0.2-0.3-0.3-0.4c-0.1-0.1-0.3-0.3-0.6-0.4c-0.2-0.1-0.5-0.1-0.8-0.1c-0.7,0-1.2,0.2-1.6,0.6
			c-0.4,0.4-0.5,1-0.5,1.8v1.4c0,0.5,0.1,0.9,0.3,1.2c0.2,0.4,0.4,0.6,0.7,0.8c0.3,0.2,0.7,0.3,1.1,0.3c1.1,0,1.7-0.4,1.9-1.1h1.2
			c0,0.6-0.3,1.1-0.8,1.6c-0.5,0.5-1.3,0.7-2.2,0.7c-1,0-1.8-0.3-2.4-0.9C73.7,17,73.4,16.1,73.4,15.1z"/>
		<path class="st16" d="M84.2,18.5c-0.4,0-0.7-0.1-1.1-0.2c-0.3-0.1-0.6-0.3-0.8-0.5c-0.2-0.2-0.4-0.5-0.5-0.8
			c-0.1-0.3-0.2-0.6-0.2-1c0-0.5,0.1-0.9,0.3-1.2c0.2-0.4,0.5-0.6,1-0.8c0.4-0.2,0.9-0.3,1.5-0.3h2.2v-0.8c0-0.5-0.2-0.9-0.5-1.2
			c-0.3-0.3-0.8-0.4-1.3-0.4c-0.9,0-1.5,0.3-1.7,1h-1.2c0.1-0.7,0.4-1.2,0.9-1.5c0.5-0.4,1.2-0.5,2.1-0.5c0.9,0,1.6,0.2,2.1,0.6
			c0.6,0.4,0.8,1.1,0.8,2v5.5h-1.2v-1.1h0C86.1,18.1,85.3,18.5,84.2,18.5z M84.5,17.5c0.6,0,1.1-0.2,1.5-0.5
			c0.4-0.4,0.6-0.8,0.6-1.3v-0.9h-2.1c-0.6,0-1,0.1-1.2,0.4c-0.3,0.2-0.4,0.6-0.4,1c0,0.5,0.2,0.8,0.5,1.1
			C83.7,17.4,84.1,17.5,84.5,17.5z"/>
		<path class="st16" d="M90.6,18.4v-11h1.2v11H90.6z"/>
		<path class="st16" d="M101.1,20.3c0.7,0,1.3-0.2,1.7-0.6c0.4-0.4,0.6-0.9,0.6-1.6V17h-0.1c-0.1,0.2-0.3,0.4-0.5,0.6
			c-0.2,0.2-0.5,0.3-0.8,0.5c-0.3,0.1-0.6,0.2-1,0.2c-0.6,0-1.1-0.1-1.6-0.4c-0.5-0.3-0.9-0.6-1.2-1.2c-0.3-0.5-0.4-1.1-0.4-1.8
			v-1.4c0-0.5,0.1-1,0.3-1.4c0.2-0.4,0.4-0.8,0.7-1.1c0.3-0.3,0.6-0.5,1-0.7c0.4-0.2,0.8-0.2,1.3-0.2c0.6,0,1.1,0.1,1.5,0.4
			s0.7,0.6,0.9,0.9h0.1v-1.2h1.1v7.9c0,1.1-0.3,1.9-0.9,2.4c-0.6,0.5-1.5,0.8-2.6,0.8c-1,0-1.7-0.2-2.2-0.6
			c-0.5-0.4-0.8-0.9-0.9-1.5h1.3c0.1,0.3,0.3,0.6,0.6,0.8C100.1,20.2,100.5,20.3,101.1,20.3z M101.2,11.3c-0.3,0-0.7,0.1-0.9,0.2
			c-0.3,0.1-0.5,0.3-0.7,0.5c-0.2,0.2-0.3,0.5-0.4,0.8c-0.1,0.3-0.1,0.7-0.1,1.1v0.8c0,0.8,0.2,1.4,0.6,1.8c0.4,0.5,1,0.7,1.6,0.7
			c0.6,0,1.2-0.2,1.5-0.7c0.4-0.4,0.6-1,0.6-1.6v-1.3c0-0.6-0.2-1.2-0.6-1.6C102.3,11.5,101.8,11.3,101.2,11.3z"/>
		<path class="st16" d="M110.1,18.5c-1.1,0-1.9-0.3-2.5-0.9c-0.6-0.6-0.9-1.5-0.9-2.6v-1.3c0-1.1,0.3-1.9,0.9-2.5
			c0.6-0.6,1.4-1,2.4-1s1.8,0.3,2.4,1s0.9,1.5,0.9,2.5v1H108v0.4c0,0.7,0.2,1.2,0.6,1.7c0.4,0.4,0.9,0.7,1.6,0.7
			c0.5,0,0.9-0.1,1.2-0.3s0.5-0.4,0.6-0.7h1.3c0,0.2-0.1,0.5-0.3,0.7c-0.1,0.2-0.3,0.4-0.6,0.7c-0.2,0.2-0.6,0.4-0.9,0.5
			C111,18.5,110.6,18.5,110.1,18.5z M108,13.8h4.1v-0.1c0-0.5-0.1-0.9-0.3-1.2c-0.2-0.4-0.4-0.6-0.7-0.8c-0.3-0.2-0.7-0.3-1.1-0.3
			c-0.6,0-1.1,0.2-1.5,0.6s-0.6,1-0.6,1.7L108,13.8L108,13.8z"/>
		<path class="st16" d="M115.7,18.4v-8.1h1.2v1.5h0.1c0.3-1.1,1.2-1.6,2.5-1.6c0.8,0,1.5,0.2,2,0.7s0.7,1.1,0.7,2v5.5h-1.2v-5.2
			c0-0.6-0.2-1.1-0.5-1.5c-0.3-0.3-0.8-0.5-1.3-0.5c-0.7,0-1.3,0.2-1.7,0.7c-0.4,0.5-0.6,1.1-0.6,1.9v4.5L115.7,18.4L115.7,18.4z"/>
		<path class="st16" d="M127.9,18.5c-1.1,0-1.9-0.3-2.5-0.9c-0.6-0.6-0.9-1.5-0.9-2.6v-1.3c0-1.1,0.3-1.9,0.9-2.5
			c0.6-0.6,1.4-1,2.4-1s1.8,0.3,2.4,1c0.6,0.6,0.9,1.5,0.9,2.5v1h-5.3v0.4c0,0.7,0.2,1.2,0.6,1.7c0.4,0.4,0.9,0.7,1.6,0.7
			c0.5,0,0.9-0.1,1.2-0.3c0.3-0.2,0.5-0.4,0.6-0.7h1.3c0,0.2-0.1,0.5-0.3,0.7c-0.1,0.2-0.3,0.4-0.6,0.7s-0.6,0.4-0.9,0.5
			C128.8,18.5,128.4,18.5,127.9,18.5z M125.7,13.8h4.1v-0.1c0-0.5-0.1-0.9-0.3-1.2c-0.2-0.4-0.4-0.6-0.7-0.8s-0.7-0.3-1.1-0.3
			c-0.6,0-1.1,0.2-1.5,0.6s-0.6,1-0.6,1.7L125.7,13.8L125.7,13.8z"/>
		<path class="st16" d="M133.9,10.3v-2h1.2v2h1.8v1h-1.8v4.8c0,0.3,0,0.6,0.1,0.8c0.1,0.2,0.2,0.3,0.4,0.4c0.2,0.1,0.5,0.1,0.8,0.1
			c0.2,0,0.4,0,0.6,0v1c-0.2,0-0.5,0.1-0.9,0.1c-0.5,0-0.8,0-1.1-0.1c-0.3-0.1-0.5-0.2-0.7-0.4c-0.2-0.2-0.3-0.4-0.3-0.7
			c-0.1-0.3-0.1-0.6-0.1-1v-4.8h-1.2v-1L133.9,10.3L133.9,10.3z"/>
		<path class="st16" d="M139.1,7.8c0-0.3,0.1-0.5,0.3-0.6c0.2-0.2,0.4-0.3,0.6-0.3c0.3,0,0.5,0.1,0.6,0.3c0.2,0.2,0.3,0.4,0.3,0.6
			c0,0.2,0,0.3-0.1,0.5c-0.1,0.1-0.2,0.2-0.3,0.3c-0.1,0.1-0.3,0.1-0.5,0.1c-0.3,0-0.5-0.1-0.6-0.3C139.2,8.3,139.1,8.1,139.1,7.8z
			 M139.4,18.4v-8.1h1.2v8.1H139.4z"/>
		<path class="st16" d="M143.3,15.1v-1.4c0-1.1,0.3-1.9,0.9-2.5c0.6-0.6,1.4-0.9,2.4-0.9c0.9,0,1.7,0.2,2.2,0.7s0.8,1,0.8,1.6h-1.2
			c0-0.1-0.1-0.3-0.1-0.4c-0.1-0.1-0.2-0.3-0.3-0.4c-0.1-0.1-0.3-0.3-0.6-0.4c-0.2-0.1-0.5-0.1-0.8-0.1c-0.7,0-1.2,0.2-1.6,0.6
			c-0.4,0.4-0.5,1-0.5,1.8v1.4c0,0.5,0.1,0.9,0.3,1.2c0.2,0.4,0.4,0.6,0.7,0.8c0.3,0.2,0.7,0.3,1.1,0.3c1.1,0,1.7-0.4,1.9-1.1h1.2
			c0,0.6-0.3,1.1-0.8,1.6c-0.5,0.5-1.3,0.7-2.2,0.7c-1,0-1.8-0.3-2.4-0.9C143.6,17,143.3,16.1,143.3,15.1z"/>
		<path class="st16" d="M151.5,12.6c0-0.8,0.3-1.4,0.8-1.8c0.6-0.4,1.3-0.6,2.1-0.6c0.4,0,0.8,0.1,1.2,0.2s0.6,0.3,0.9,0.5
			c0.2,0.2,0.4,0.4,0.6,0.7s0.2,0.6,0.2,0.9h-1.1c0-0.2-0.1-0.4-0.2-0.6s-0.3-0.3-0.6-0.5c-0.3-0.1-0.6-0.2-0.9-0.2
			c-0.3,0-0.6,0.1-0.9,0.1c-0.3,0.1-0.5,0.2-0.6,0.4c-0.1,0.2-0.2,0.4-0.2,0.7c0,0.2,0,0.4,0.1,0.5c0.1,0.1,0.2,0.2,0.3,0.3
			c0.1,0.1,0.2,0.1,0.4,0.2c0.2,0.1,0.4,0.1,0.5,0.1c0.1,0,0.3,0.1,0.5,0.1c0,0,0,0,0.1,0c0,0,0,0,0.1,0c0,0,0,0,0.1,0
			c0.3,0,0.5,0.1,0.7,0.1c0.2,0.1,0.4,0.1,0.7,0.2c0.2,0.1,0.4,0.2,0.6,0.3c0.2,0.1,0.3,0.2,0.4,0.4c0.1,0.2,0.2,0.3,0.3,0.5
			c0.1,0.2,0.1,0.4,0.1,0.7c0,0.8-0.3,1.4-0.9,1.8c-0.6,0.4-1.3,0.7-2.3,0.7c-0.9,0-1.6-0.2-2.1-0.6c-0.5-0.4-0.8-0.9-0.8-1.6h1.2
			c0.1,0.8,0.7,1.2,1.8,1.2c0.4,0,0.8-0.1,1.1-0.2c0.3-0.1,0.5-0.3,0.6-0.5s0.2-0.4,0.2-0.7c0-0.2,0-0.3-0.1-0.5
			c-0.1-0.1-0.2-0.2-0.3-0.3c-0.1-0.1-0.3-0.2-0.5-0.2c-0.2-0.1-0.4-0.1-0.5-0.2c-0.1,0-0.4-0.1-0.6-0.1c-0.4-0.1-0.7-0.1-0.9-0.2
			c-0.2-0.1-0.5-0.1-0.7-0.3s-0.5-0.2-0.6-0.4c-0.1-0.1-0.3-0.3-0.4-0.6C151.6,13.2,151.5,12.9,151.5,12.6z"/>
	</g>
	<path class="st12" d="M699.4,26.5H535.2c-6.4,0-11.6-5.2-11.6-11.6v-1.5c0-6.4,5.2-11.6,11.6-11.6h164.3c6.4,0,11.6,5.2,11.6,11.6
		v1.5C711.1,21.3,705.9,26.5,699.4,26.5z"/>
	<g class="st17">
		<path class="st16" d="M547.5,7.9h3.8c1,0,1.8,0.3,2.4,0.9c0.6,0.6,0.9,1.4,0.9,2.3c0,1-0.3,1.8-0.9,2.3s-1.4,0.9-2.4,0.9h-2.5v4
			h-1.2V7.9z M548.8,9v4.2h1.6c0.3,0,0.6,0,0.9,0c0.2,0,0.5-0.1,0.7-0.1s0.4-0.1,0.6-0.2c0.2-0.1,0.3-0.2,0.4-0.4
			c0.1-0.2,0.2-0.4,0.3-0.6c0.1-0.2,0.1-0.5,0.1-0.8c0-0.7-0.2-1.2-0.5-1.6c-0.4-0.4-0.9-0.6-1.5-0.6C551.3,9,548.8,9,548.8,9z"/>
		<path class="st16" d="M559.7,10.2c1,0,1.8,0.3,2.5,0.9c0.6,0.6,1,1.5,1,2.6V15c0,1.1-0.3,2-1,2.6c-0.6,0.6-1.5,0.9-2.5,0.9
			c-1,0-1.8-0.3-2.5-0.9c-0.6-0.6-0.9-1.5-0.9-2.6v-1.3c0-1.1,0.3-1.9,1-2.6C557.9,10.5,558.7,10.2,559.7,10.2z M557.4,13.9v1
			c0,0.5,0.1,1,0.3,1.4c0.2,0.4,0.4,0.7,0.8,0.9c0.3,0.2,0.7,0.3,1.2,0.3c0.7,0,1.2-0.2,1.6-0.7c0.4-0.5,0.6-1.1,0.6-1.9v-1
			c0-0.8-0.2-1.4-0.6-1.9c-0.4-0.5-0.9-0.7-1.6-0.7c-0.7,0-1.2,0.2-1.6,0.7C557.6,12.5,557.4,13.1,557.4,13.9z"/>
		<path class="st16" d="M569.1,18.5c-1.2,0-1.9-0.4-2.3-1.3h-0.1v4h-1.2V10.3h1.1v1.3h0.1c0.1-0.4,0.4-0.7,0.8-1
			c0.4-0.3,0.9-0.4,1.6-0.4c0.9,0,1.7,0.3,2.2,0.9c0.6,0.6,0.8,1.4,0.8,2.5v1.5c0,1.1-0.3,1.9-0.9,2.5
			C570.8,18.2,570.1,18.5,569.1,18.5z M568.9,17.5c0.6,0,1.2-0.2,1.5-0.7c0.4-0.4,0.6-1.1,0.6-2v-0.9c0-0.9-0.2-1.5-0.6-2
			c-0.4-0.4-0.9-0.7-1.6-0.7s-1.2,0.2-1.6,0.6c-0.4,0.4-0.6,1-0.6,1.8v1.5c0,0.7,0.2,1.2,0.6,1.6C567.7,17.2,568.3,17.5,568.9,17.5z
			"/>
		<path class="st16" d="M581.1,10.3v8.1h-1.2v-1.3h-0.1c-0.1,0.4-0.4,0.7-0.8,1c-0.4,0.3-0.9,0.4-1.6,0.4c-0.9,0-1.5-0.2-2-0.6
			c-0.5-0.4-0.7-1.1-0.7-1.9v-5.6h1.2v5.3c0,1.2,0.6,1.8,1.8,1.8c0.6,0,1.1-0.2,1.6-0.6c0.4-0.4,0.6-0.9,0.6-1.4v-5.2
			C579.9,10.3,581.1,10.3,581.1,10.3z"/>
		<path class="st16" d="M583.9,18.4v-11h1.2v11H583.9z"/>
		<path class="st16" d="M590.2,18.5c-0.4,0-0.7-0.1-1.1-0.2c-0.3-0.1-0.6-0.3-0.8-0.5s-0.4-0.5-0.5-0.8c-0.1-0.3-0.2-0.6-0.2-1
			c0-0.5,0.1-0.9,0.3-1.2c0.2-0.4,0.5-0.6,1-0.8c0.4-0.2,0.9-0.3,1.5-0.3h2.2v-0.8c0-0.5-0.2-0.9-0.5-1.2c-0.3-0.3-0.8-0.4-1.3-0.4
			c-0.9,0-1.5,0.3-1.7,1h-1.2c0.1-0.7,0.4-1.2,0.9-1.5c0.5-0.4,1.2-0.5,2.1-0.5c0.9,0,1.6,0.2,2.1,0.6c0.6,0.4,0.8,1.1,0.8,2v5.5
			h-1.2v-1.1h0C592,18.1,591.2,18.5,590.2,18.5z M590.5,17.5c0.6,0,1.1-0.2,1.5-0.5c0.4-0.4,0.6-0.8,0.6-1.3v-0.9h-2.1
			c-0.6,0-1,0.1-1.2,0.4s-0.4,0.6-0.4,1c0,0.5,0.2,0.8,0.5,1.1C589.6,17.4,590,17.5,590.5,17.5z"/>
		<path class="st16" d="M596.9,10.3v-2h1.2v2h1.8v1h-1.8v4.8c0,0.3,0,0.6,0.1,0.8c0.1,0.2,0.2,0.3,0.4,0.4c0.2,0.1,0.5,0.1,0.8,0.1
			c0.2,0,0.4,0,0.6,0v1c-0.2,0-0.5,0.1-0.9,0.1c-0.5,0-0.8,0-1.1-0.1c-0.3-0.1-0.5-0.2-0.7-0.4c-0.2-0.2-0.3-0.4-0.3-0.7
			c-0.1-0.3-0.1-0.6-0.1-1v-4.8h-1.2v-1L596.9,10.3L596.9,10.3z"/>
		<path class="st16" d="M602.2,7.8c0-0.3,0.1-0.5,0.3-0.6c0.2-0.2,0.4-0.3,0.6-0.3c0.3,0,0.5,0.1,0.6,0.3c0.2,0.2,0.3,0.4,0.3,0.6
			c0,0.2,0,0.3-0.1,0.5c-0.1,0.1-0.2,0.2-0.3,0.3c-0.1,0.1-0.3,0.1-0.5,0.1c-0.3,0-0.5-0.1-0.6-0.3C602.3,8.3,602.2,8.1,602.2,7.8z
			 M602.5,18.4v-8.1h1.2v8.1H602.5z"/>
		<path class="st16" d="M609.7,10.2c1,0,1.8,0.3,2.5,0.9c0.6,0.6,1,1.5,1,2.6V15c0,1.1-0.3,2-1,2.6c-0.6,0.6-1.5,0.9-2.5,0.9
			c-1,0-1.8-0.3-2.5-0.9c-0.6-0.6-0.9-1.5-0.9-2.6v-1.3c0-1.1,0.3-1.9,1-2.6C607.9,10.5,608.8,10.2,609.7,10.2z M607.5,13.9v1
			c0,0.5,0.1,1,0.3,1.4c0.2,0.4,0.4,0.7,0.8,0.9c0.3,0.2,0.7,0.3,1.2,0.3c0.7,0,1.2-0.2,1.6-0.7c0.4-0.5,0.6-1.1,0.6-1.9v-1
			c0-0.8-0.2-1.4-0.6-1.9c-0.4-0.5-0.9-0.7-1.6-0.7c-0.7,0-1.2,0.2-1.6,0.7C607.7,12.5,607.5,13.1,607.5,13.9z"/>
		<path class="st16" d="M615.6,18.4v-8.1h1.2v1.5h0.1c0.3-1.1,1.2-1.6,2.5-1.6c0.8,0,1.5,0.2,2,0.7c0.5,0.5,0.7,1.1,0.7,2v5.5h-1.2
			v-5.2c0-0.6-0.2-1.1-0.5-1.5c-0.3-0.3-0.8-0.5-1.3-0.5c-0.7,0-1.3,0.2-1.7,0.7c-0.4,0.5-0.6,1.1-0.6,1.9v4.5L615.6,18.4
			L615.6,18.4z"/>
		<path class="st16" d="M631.2,20.3c0.7,0,1.3-0.2,1.7-0.6c0.4-0.4,0.6-0.9,0.6-1.6V17h-0.1c-0.1,0.2-0.3,0.4-0.5,0.6
			s-0.5,0.3-0.8,0.5c-0.3,0.1-0.6,0.2-1,0.2c-0.6,0-1.1-0.1-1.6-0.4c-0.5-0.3-0.9-0.6-1.2-1.2c-0.3-0.5-0.4-1.1-0.4-1.8v-1.4
			c0-0.5,0.1-1,0.3-1.4c0.2-0.4,0.4-0.8,0.7-1.1c0.3-0.3,0.6-0.5,1-0.7c0.4-0.2,0.8-0.2,1.3-0.2c0.6,0,1.1,0.1,1.5,0.4
			s0.7,0.6,0.9,0.9h0.1v-1.2h1.1v7.9c0,1.1-0.3,1.9-0.9,2.4c-0.6,0.5-1.5,0.8-2.6,0.8c-1,0-1.7-0.2-2.2-0.6
			c-0.5-0.4-0.8-0.9-0.9-1.5h1.3c0.1,0.3,0.3,0.6,0.6,0.8S630.7,20.3,631.2,20.3z M631.3,11.3c-0.3,0-0.7,0.1-0.9,0.2
			c-0.3,0.1-0.5,0.3-0.7,0.5c-0.2,0.2-0.3,0.5-0.4,0.8c-0.1,0.3-0.1,0.7-0.1,1.1v0.8c0,0.8,0.2,1.4,0.6,1.8c0.4,0.5,1,0.7,1.6,0.7
			c0.6,0,1.2-0.2,1.5-0.7c0.4-0.4,0.6-1,0.6-1.6v-1.3c0-0.6-0.2-1.2-0.6-1.6C632.5,11.5,632,11.3,631.3,11.3z"/>
		<path class="st16" d="M640.3,18.5c-1.1,0-1.9-0.3-2.5-0.9c-0.6-0.6-0.9-1.5-0.9-2.6v-1.3c0-1.1,0.3-1.9,0.9-2.5
			c0.6-0.6,1.4-1,2.4-1s1.8,0.3,2.4,1s0.9,1.5,0.9,2.5v1h-5.3v0.4c0,0.7,0.2,1.2,0.6,1.7c0.4,0.4,0.9,0.7,1.6,0.7
			c0.5,0,0.9-0.1,1.2-0.3c0.3-0.2,0.5-0.4,0.6-0.7h1.3c0,0.2-0.1,0.5-0.3,0.7c-0.1,0.2-0.3,0.4-0.6,0.7s-0.6,0.4-0.9,0.5
			C641.2,18.5,640.7,18.5,640.3,18.5z M638.1,13.8h4.1v-0.1c0-0.5-0.1-0.9-0.3-1.2c-0.2-0.4-0.4-0.6-0.7-0.8
			c-0.3-0.2-0.7-0.3-1.1-0.3c-0.6,0-1.1,0.2-1.5,0.6c-0.4,0.4-0.6,1-0.6,1.7L638.1,13.8L638.1,13.8z"/>
		<path class="st16" d="M645.8,18.4v-8.1h1.2v1.5h0.1c0.3-1.1,1.2-1.6,2.5-1.6c0.8,0,1.5,0.2,2,0.7c0.5,0.5,0.7,1.1,0.7,2v5.5h-1.2
			v-5.2c0-0.6-0.2-1.1-0.5-1.5c-0.3-0.3-0.8-0.5-1.3-0.5c-0.7,0-1.3,0.2-1.7,0.7c-0.4,0.5-0.6,1.1-0.6,1.9v4.5L645.8,18.4
			L645.8,18.4z"/>
		<path class="st16" d="M658.1,18.5c-1.1,0-1.9-0.3-2.5-0.9c-0.6-0.6-0.9-1.5-0.9-2.6v-1.3c0-1.1,0.3-1.9,0.9-2.5
			c0.6-0.6,1.4-1,2.4-1c1,0,1.8,0.3,2.4,1s0.9,1.5,0.9,2.5v1h-5.3v0.4c0,0.7,0.2,1.2,0.6,1.7c0.4,0.4,0.9,0.7,1.6,0.7
			c0.5,0,0.9-0.1,1.2-0.3s0.5-0.4,0.6-0.7h1.3c0,0.2-0.1,0.5-0.3,0.7c-0.1,0.2-0.3,0.4-0.6,0.7s-0.6,0.4-0.9,0.5
			C658.9,18.5,658.5,18.5,658.1,18.5z M655.9,13.8h4.1v-0.1c0-0.5-0.1-0.9-0.3-1.2c-0.2-0.4-0.4-0.6-0.7-0.8
			c-0.3-0.2-0.7-0.3-1.1-0.3c-0.6,0-1.1,0.2-1.5,0.6c-0.4,0.4-0.6,1-0.6,1.7L655.9,13.8L655.9,13.8z"/>
		<path class="st16" d="M664,10.3v-2h1.2v2h1.8v1h-1.8v4.8c0,0.3,0,0.6,0.1,0.8c0.1,0.2,0.2,0.3,0.4,0.4s0.5,0.1,0.8,0.1
			c0.2,0,0.4,0,0.6,0v1c-0.2,0-0.5,0.1-0.9,0.1c-0.5,0-0.8,0-1.1-0.1c-0.3-0.1-0.5-0.2-0.7-0.4c-0.2-0.2-0.3-0.4-0.3-0.7
			c-0.1-0.3-0.1-0.6-0.1-1v-4.8h-1.2v-1L664,10.3L664,10.3z"/>
		<path class="st16" d="M669.3,7.8c0-0.3,0.1-0.5,0.3-0.6c0.2-0.2,0.4-0.3,0.6-0.3c0.3,0,0.5,0.1,0.6,0.3c0.2,0.2,0.3,0.4,0.3,0.6
			c0,0.2,0,0.3-0.1,0.5c-0.1,0.1-0.2,0.2-0.3,0.3c-0.1,0.1-0.3,0.1-0.5,0.1c-0.3,0-0.5-0.1-0.6-0.3C669.4,8.3,669.3,8.1,669.3,7.8z
			 M669.6,18.4v-8.1h1.2v8.1H669.6z"/>
		<path class="st16" d="M673.4,15.1v-1.4c0-1.1,0.3-1.9,0.9-2.5c0.6-0.6,1.4-0.9,2.4-0.9c0.9,0,1.7,0.2,2.2,0.7s0.8,1,0.8,1.6h-1.2
			c0-0.1-0.1-0.3-0.1-0.4c-0.1-0.1-0.2-0.3-0.3-0.4c-0.1-0.1-0.3-0.3-0.6-0.4c-0.2-0.1-0.5-0.1-0.8-0.1c-0.7,0-1.2,0.2-1.6,0.6
			c-0.4,0.4-0.5,1-0.5,1.8v1.4c0,0.5,0.1,0.9,0.3,1.2c0.2,0.4,0.4,0.6,0.7,0.8c0.3,0.2,0.7,0.3,1.1,0.3c1.1,0,1.7-0.4,1.9-1.1h1.2
			c0,0.6-0.3,1.1-0.8,1.6c-0.5,0.5-1.3,0.7-2.2,0.7c-1,0-1.8-0.3-2.4-0.9C673.7,17,673.4,16.1,673.4,15.1z"/>
		<path class="st16" d="M681.7,12.6c0-0.8,0.3-1.4,0.8-1.8c0.6-0.4,1.3-0.6,2.1-0.6c0.4,0,0.8,0.1,1.2,0.2c0.4,0.1,0.6,0.3,0.9,0.5
			s0.4,0.4,0.6,0.7s0.2,0.6,0.2,0.9h-1.1c0-0.2-0.1-0.4-0.2-0.6c-0.1-0.2-0.3-0.3-0.6-0.5c-0.3-0.1-0.6-0.2-0.9-0.2
			c-0.3,0-0.6,0.1-0.9,0.1s-0.5,0.2-0.6,0.4c-0.1,0.2-0.2,0.4-0.2,0.7c0,0.2,0,0.4,0.1,0.5c0.1,0.1,0.2,0.2,0.3,0.3
			c0.1,0.1,0.2,0.1,0.4,0.2s0.4,0.1,0.5,0.1c0.1,0,0.3,0.1,0.5,0.1c0,0,0,0,0.1,0c0,0,0,0,0.1,0c0,0,0,0,0.1,0
			c0.3,0,0.5,0.1,0.7,0.1c0.2,0.1,0.4,0.1,0.7,0.2c0.2,0.1,0.4,0.2,0.6,0.3c0.2,0.1,0.3,0.2,0.4,0.4c0.1,0.2,0.2,0.3,0.3,0.5
			c0.1,0.2,0.1,0.4,0.1,0.7c0,0.8-0.3,1.4-0.9,1.8c-0.6,0.4-1.3,0.7-2.3,0.7c-0.9,0-1.6-0.2-2.1-0.6c-0.5-0.4-0.8-0.9-0.8-1.6h1.2
			c0.1,0.8,0.7,1.2,1.8,1.2c0.4,0,0.8-0.1,1.1-0.2c0.3-0.1,0.5-0.3,0.6-0.5c0.1-0.2,0.2-0.4,0.2-0.7c0-0.2,0-0.3-0.1-0.5
			c-0.1-0.1-0.2-0.2-0.3-0.3c-0.1-0.1-0.3-0.2-0.5-0.2c-0.2-0.1-0.4-0.1-0.5-0.2c-0.1,0-0.4-0.1-0.7-0.1c-0.4-0.1-0.7-0.1-0.9-0.2
			c-0.2-0.1-0.5-0.1-0.7-0.3s-0.5-0.2-0.6-0.4c-0.1-0.1-0.3-0.3-0.4-0.6C681.7,13.2,681.7,12.9,681.7,12.6z"/>
	</g>
</g>
<path class="st12" d="M462.7,255.1H336c-6.8,0-12.4-5.5-12.4-12.4l0,0c0-6.8,5.5-12.4,12.4-12.4h126.7c6.8,0,12.4,5.5,12.4,12.4l0,0
	C475.1,249.5,469.6,255.1,462.7,255.1z"/>
<g class="st17">
	<path class="st16" d="M347.8,246.9v-10.5h3.9c0.9,0,1.5,0.2,2.1,0.7c0.5,0.5,0.8,1.1,0.8,1.9c0,0.6-0.1,1.1-0.4,1.5
		c-0.3,0.4-0.7,0.7-1.2,0.8v0c0.4,0.1,0.7,0.2,1,0.3c0.3,0.1,0.5,0.3,0.7,0.6c0.2,0.2,0.3,0.5,0.4,0.8c0.1,0.3,0.1,0.6,0.1,1
		c0,0.9-0.3,1.7-1,2.2c-0.7,0.5-1.5,0.8-2.7,0.8L347.8,246.9L347.8,246.9z M349,237.6v3.4h1.6c0.9,0,1.6-0.1,2-0.4
		c0.4-0.3,0.6-0.7,0.6-1.3c0-0.6-0.2-1-0.5-1.3c-0.3-0.3-0.8-0.4-1.3-0.4L349,237.6L349,237.6z M349,242.1v3.7h1.9c0.4,0,0.7,0,1,0
		c0.3,0,0.6-0.1,0.8-0.2c0.3-0.1,0.5-0.2,0.6-0.3c0.2-0.1,0.3-0.3,0.4-0.5c0.1-0.2,0.2-0.5,0.2-0.8c0-0.6-0.2-1.1-0.6-1.4
		c-0.4-0.3-1-0.5-1.6-0.5L349,242.1L349,242.1z"/>
	<path class="st16" d="M357.3,236.4c0-0.3,0.1-0.5,0.3-0.6c0.2-0.2,0.4-0.3,0.6-0.3c0.3,0,0.5,0.1,0.6,0.3s0.3,0.4,0.3,0.6
		c0,0.2,0,0.3-0.1,0.5c-0.1,0.1-0.2,0.2-0.3,0.3c-0.1,0.1-0.3,0.1-0.5,0.1c-0.3,0-0.5-0.1-0.6-0.3
		C357.4,236.9,357.3,236.6,357.3,236.4z M357.6,246.9v-8.1h1.2v8.1H357.6z"/>
	<path class="st16" d="M364.9,238.8c1,0,1.8,0.3,2.5,0.9s1,1.5,1,2.6v1.3c0,1.1-0.3,2-1,2.6c-0.6,0.6-1.5,0.9-2.5,0.9
		c-1,0-1.8-0.3-2.5-0.9c-0.6-0.6-0.9-1.5-0.9-2.6v-1.3c0-1.1,0.3-1.9,1-2.6C363.1,239.1,363.9,238.8,364.9,238.8z M362.7,242.4v1
		c0,0.5,0.1,1,0.3,1.4c0.2,0.4,0.4,0.7,0.8,0.9c0.3,0.2,0.7,0.3,1.2,0.3c0.7,0,1.2-0.2,1.6-0.7c0.4-0.5,0.6-1.1,0.6-1.9v-1
		c0-0.8-0.2-1.4-0.6-1.9c-0.4-0.5-0.9-0.7-1.6-0.7s-1.2,0.2-1.6,0.7C362.9,241,362.7,241.6,362.7,242.4z"/>
	<path class="st16" d="M370.6,236.4c0-0.3,0.1-0.5,0.3-0.6s0.4-0.3,0.6-0.3c0.3,0,0.5,0.1,0.6,0.3c0.2,0.2,0.3,0.4,0.3,0.6
		c0,0.2,0,0.3-0.1,0.5c-0.1,0.1-0.2,0.2-0.3,0.3c-0.1,0.1-0.3,0.1-0.5,0.1c-0.3,0-0.5-0.1-0.6-0.3
		C370.7,236.9,370.6,236.6,370.6,236.4z M370.9,246.9v-8.1h1.2v8.1H370.9z"/>
	<path class="st16" d="M375.2,246.9v-8.1h1.2v1.5h0.1c0.3-1.1,1.2-1.6,2.5-1.6c0.8,0,1.5,0.2,2,0.7s0.7,1.1,0.7,2v5.5h-1.2v-5.2
		c0-0.6-0.2-1.1-0.5-1.5c-0.3-0.3-0.8-0.5-1.3-0.5c-0.7,0-1.3,0.2-1.7,0.7c-0.4,0.5-0.6,1.1-0.6,1.9v4.5H375.2z"/>
	<path class="st16" d="M385.1,246.9v-7h-1.4v-1h1.4v-0.8c0-0.8,0.2-1.3,0.6-1.7s1-0.5,1.9-0.5c0.3,0,0.6,0,0.9,0.1v1
		c-0.2,0-0.4,0-0.7,0c-0.5,0-0.9,0.1-1.1,0.3s-0.3,0.5-0.3,1v0.7h1.9v1h-1.9v7L385.1,246.9L385.1,246.9z"/>
	<path class="st16" d="M393.5,238.8c1,0,1.8,0.3,2.5,0.9c0.6,0.6,1,1.5,1,2.6v1.3c0,1.1-0.3,2-1,2.6c-0.6,0.6-1.5,0.9-2.5,0.9
		c-1,0-1.8-0.3-2.5-0.9c-0.6-0.6-0.9-1.5-0.9-2.6v-1.3c0-1.1,0.3-1.9,1-2.6C391.7,239.1,392.5,238.8,393.5,238.8z M391.3,242.4v1
		c0,0.5,0.1,1,0.3,1.4c0.2,0.4,0.4,0.7,0.8,0.9c0.3,0.2,0.7,0.3,1.2,0.3c0.7,0,1.2-0.2,1.6-0.7c0.4-0.5,0.6-1.1,0.6-1.9v-1
		c0-0.8-0.2-1.4-0.6-1.9c-0.4-0.5-0.9-0.7-1.6-0.7c-0.7,0-1.2,0.2-1.6,0.7C391.5,241,391.3,241.6,391.3,242.4z"/>
	<path class="st16" d="M399.5,246.9v-8.1h1.2v1.3h0.1c0.1-0.4,0.4-0.7,0.7-1c0.4-0.3,0.9-0.4,1.5-0.4c0.1,0,0.3,0,0.5,0v1.1
		c-0.1,0-0.3,0-0.6,0c-0.5,0-0.9,0.1-1.2,0.3s-0.6,0.4-0.7,0.7c-0.2,0.3-0.2,0.6-0.2,1v5.1L399.5,246.9L399.5,246.9z"/>
	<path class="st16" d="M405.4,246.9v-8.1h1.2v1.3h0.1c0.3-0.9,1-1.4,2.2-1.4c0.3,0,0.6,0,0.8,0.1c0.3,0.1,0.5,0.2,0.7,0.3
		c0.2,0.1,0.3,0.3,0.5,0.5c0.1,0.2,0.2,0.4,0.3,0.6h0.1c0.2-0.4,0.5-0.8,0.9-1.1c0.4-0.3,0.9-0.4,1.5-0.4c0.8,0,1.5,0.2,2,0.6
		c0.5,0.4,0.7,1.1,0.7,1.9v5.7H415v-5.4c0-0.5-0.1-0.9-0.4-1.3c-0.3-0.3-0.7-0.5-1.3-0.5c-0.5,0-1,0.2-1.3,0.6
		c-0.4,0.4-0.5,0.8-0.5,1.4v5.2h-1.2v-5.3c0-0.5-0.2-1-0.5-1.3c-0.3-0.3-0.8-0.5-1.3-0.5c-0.5,0-1,0.2-1.3,0.5
		c-0.4,0.4-0.5,0.8-0.5,1.4v5.2H405.4z"/>
	<path class="st16" d="M421.2,247.1c-0.4,0-0.7-0.1-1.1-0.2c-0.3-0.1-0.6-0.3-0.8-0.5c-0.2-0.2-0.4-0.5-0.5-0.8s-0.2-0.6-0.2-1
		c0-0.5,0.1-0.9,0.3-1.2c0.2-0.4,0.5-0.6,1-0.8c0.4-0.2,0.9-0.3,1.5-0.3h2.2v-0.8c0-0.5-0.2-0.9-0.5-1.2c-0.3-0.3-0.8-0.4-1.3-0.4
		c-0.9,0-1.5,0.3-1.7,1h-1.2c0.1-0.7,0.4-1.2,0.9-1.5c0.5-0.4,1.2-0.5,2.1-0.5c0.9,0,1.6,0.2,2.1,0.6c0.6,0.4,0.8,1.1,0.8,2v5.5
		h-1.2v-1.1h0C423,246.7,422.3,247.1,421.2,247.1z M421.5,246c0.6,0,1.1-0.2,1.5-0.5s0.6-0.8,0.6-1.3v-0.9h-2.1
		c-0.6,0-1,0.1-1.2,0.4c-0.3,0.2-0.4,0.6-0.4,1c0,0.5,0.2,0.8,0.5,1.1C420.6,245.9,421,246,421.5,246z"/>
	<path class="st16" d="M427.9,238.9v-2h1.2v2h1.8v1h-1.8v4.8c0,0.3,0,0.6,0.1,0.8c0.1,0.2,0.2,0.3,0.4,0.4c0.2,0.1,0.5,0.1,0.8,0.1
		c0.2,0,0.4,0,0.6,0v1c-0.2,0-0.5,0.1-0.9,0.1c-0.5,0-0.8,0-1.1-0.1c-0.3-0.1-0.5-0.2-0.7-0.4c-0.2-0.2-0.3-0.4-0.3-0.7
		c-0.1-0.3-0.1-0.6-0.1-1v-4.8h-1.2v-1L427.9,238.9L427.9,238.9z"/>
	<path class="st16" d="M433.2,236.4c0-0.3,0.1-0.5,0.3-0.6c0.2-0.2,0.4-0.3,0.6-0.3c0.3,0,0.5,0.1,0.6,0.3c0.2,0.2,0.3,0.4,0.3,0.6
		c0,0.2,0,0.3-0.1,0.5c-0.1,0.1-0.2,0.2-0.3,0.3c-0.1,0.1-0.3,0.1-0.5,0.1c-0.3,0-0.5-0.1-0.6-0.3
		C433.3,236.9,433.2,236.6,433.2,236.4z M433.5,246.9v-8.1h1.2v8.1H433.5z"/>
	<path class="st16" d="M437.4,243.6v-1.4c0-1.1,0.3-1.9,0.9-2.5c0.6-0.6,1.4-0.9,2.4-0.9c0.9,0,1.7,0.2,2.2,0.7
		c0.5,0.5,0.8,1,0.8,1.6h-1.2c0-0.1-0.1-0.3-0.1-0.4c-0.1-0.1-0.2-0.3-0.3-0.4c-0.1-0.1-0.3-0.3-0.6-0.4c-0.2-0.1-0.5-0.1-0.8-0.1
		c-0.7,0-1.2,0.2-1.6,0.6c-0.4,0.4-0.5,1-0.5,1.8v1.4c0,0.5,0.1,0.9,0.3,1.2c0.2,0.4,0.4,0.6,0.7,0.8c0.3,0.2,0.7,0.3,1.1,0.3
		c1.1,0,1.7-0.4,1.9-1.1h1.2c0,0.6-0.3,1.1-0.8,1.6c-0.5,0.5-1.3,0.7-2.2,0.7c-1,0-1.8-0.3-2.4-0.9
		C437.7,245.5,437.4,244.7,437.4,243.6z"/>
	<path class="st16" d="M445.6,241.2c0-0.8,0.3-1.4,0.8-1.8c0.6-0.4,1.3-0.6,2.1-0.6c0.4,0,0.8,0.1,1.2,0.2s0.6,0.3,0.9,0.5
		c0.2,0.2,0.4,0.4,0.6,0.7s0.2,0.6,0.2,0.9h-1.1c0-0.2-0.1-0.4-0.2-0.6c-0.1-0.2-0.3-0.3-0.6-0.5c-0.3-0.1-0.6-0.2-0.9-0.2
		c-0.3,0-0.6,0.1-0.9,0.1c-0.3,0.1-0.5,0.2-0.6,0.4c-0.1,0.2-0.2,0.4-0.2,0.7c0,0.2,0,0.4,0.1,0.5c0.1,0.1,0.2,0.2,0.3,0.3
		s0.2,0.1,0.4,0.2c0.2,0.1,0.4,0.1,0.5,0.1c0.1,0,0.3,0.1,0.5,0.1c0,0,0,0,0.1,0c0,0,0,0,0.1,0s0,0,0.1,0c0.3,0,0.5,0.1,0.7,0.1
		c0.2,0.1,0.4,0.1,0.7,0.2c0.2,0.1,0.4,0.2,0.6,0.3c0.2,0.1,0.3,0.2,0.4,0.4s0.2,0.3,0.3,0.5c0.1,0.2,0.1,0.4,0.1,0.7
		c0,0.8-0.3,1.4-0.9,1.8c-0.6,0.4-1.3,0.7-2.3,0.7c-0.9,0-1.6-0.2-2.1-0.6c-0.5-0.4-0.8-0.9-0.8-1.6h1.2c0.1,0.8,0.7,1.2,1.8,1.2
		c0.4,0,0.8-0.1,1.1-0.2c0.3-0.1,0.5-0.3,0.6-0.5c0.1-0.2,0.2-0.4,0.2-0.7c0-0.2,0-0.3-0.1-0.5c-0.1-0.1-0.2-0.2-0.3-0.3
		c-0.1-0.1-0.3-0.2-0.5-0.2c-0.2-0.1-0.4-0.1-0.5-0.2c-0.1,0-0.4-0.1-0.6-0.1c-0.4-0.1-0.7-0.1-0.9-0.2c-0.2-0.1-0.5-0.1-0.7-0.3
		c-0.3-0.1-0.5-0.2-0.6-0.4c-0.1-0.1-0.3-0.3-0.4-0.6S445.6,241.5,445.6,241.2z"/>
</g>
<path class="st8" d="M307.8,84.7h-98.5c-6.8,0-12.4-5.5-12.4-12.4l0,0c0-6.8,5.5-12.4,12.4-12.4h98.5c6.8,0,12.4,5.5,12.4,12.4l0,0
	C320.2,79.2,314.7,84.7,307.8,84.7z"/>
<g class="st17">
	<path class="st16" d="M212.4,76.6h-1.1V66.2h1.2l3.5,8.4h0l3.5-8.4h1.2v10.5h-1.1v-7.8h-0.1l-3,7h-1.1l-3-7h-0.1V76.6z"/>
	<path class="st16" d="M226.6,76.8c-1.1,0-1.9-0.3-2.5-0.9c-0.6-0.6-0.9-1.5-0.9-2.6v-1.3c0-1.1,0.3-1.9,0.9-2.5
		c0.6-0.6,1.4-1,2.4-1s1.8,0.3,2.4,1c0.6,0.6,0.9,1.5,0.9,2.5v1h-5.3v0.4c0,0.7,0.2,1.2,0.6,1.7c0.4,0.4,0.9,0.7,1.6,0.7
		c0.5,0,0.9-0.1,1.2-0.3c0.3-0.2,0.5-0.4,0.6-0.7h1.3c0,0.2-0.1,0.5-0.3,0.7c-0.1,0.2-0.3,0.4-0.6,0.7c-0.2,0.2-0.6,0.4-0.9,0.5
		C227.5,76.7,227.1,76.8,226.6,76.8z M224.5,72h4.1v-0.1c0-0.5-0.1-0.9-0.3-1.2s-0.4-0.6-0.7-0.8c-0.3-0.2-0.7-0.3-1.1-0.3
		c-0.6,0-1.1,0.2-1.5,0.6c-0.4,0.4-0.6,1-0.6,1.7L224.5,72L224.5,72z"/>
	<path class="st16" d="M232.2,76.6v-8.1h1.2v1.5h0.1c0.3-1.1,1.2-1.6,2.5-1.6c0.8,0,1.5,0.2,2,0.7c0.5,0.5,0.7,1.1,0.7,2v5.5h-1.2
		v-5.2c0-0.6-0.2-1.1-0.5-1.5c-0.3-0.3-0.8-0.5-1.3-0.5c-0.7,0-1.3,0.2-1.7,0.7c-0.4,0.5-0.6,1.1-0.6,1.9v4.5
		C233.4,76.6,232.2,76.6,232.2,76.6z"/>
	<path class="st16" d="M241.8,68.6v-2h1.2v2h1.8v1H243v4.8c0,0.3,0,0.6,0.1,0.8s0.2,0.3,0.4,0.4c0.2,0.1,0.5,0.1,0.8,0.1
		c0.2,0,0.4,0,0.6,0v1c-0.2,0-0.5,0.1-0.9,0.1c-0.5,0-0.8,0-1.1-0.1s-0.5-0.2-0.7-0.4c-0.2-0.2-0.3-0.4-0.3-0.7s-0.1-0.6-0.1-1v-4.8
		h-1.2v-1L241.8,68.6L241.8,68.6z"/>
	<path class="st16" d="M249.4,76.8c-0.4,0-0.7-0.1-1.1-0.2c-0.3-0.1-0.6-0.3-0.8-0.5s-0.4-0.5-0.5-0.8c-0.1-0.3-0.2-0.6-0.2-1
		c0-0.5,0.1-0.9,0.3-1.2c0.2-0.4,0.5-0.6,1-0.8c0.4-0.2,0.9-0.3,1.5-0.3h2.2v-0.8c0-0.5-0.2-0.9-0.5-1.2c-0.3-0.3-0.8-0.4-1.3-0.4
		c-0.9,0-1.5,0.3-1.7,1H247c0.1-0.7,0.4-1.2,0.9-1.5c0.5-0.4,1.2-0.5,2.1-0.5c0.9,0,1.6,0.2,2.1,0.6c0.6,0.4,0.8,1.1,0.8,2v5.5h-1.2
		v-1.1h0C251.2,76.4,250.4,76.8,249.4,76.8z M249.7,75.7c0.6,0,1.1-0.2,1.5-0.5c0.4-0.4,0.6-0.8,0.6-1.3v-0.9h-2.1
		c-0.6,0-1,0.1-1.2,0.4c-0.3,0.2-0.4,0.6-0.4,1c0,0.5,0.2,0.8,0.5,1.1C248.8,75.6,249.2,75.7,249.7,75.7z"/>
	<path class="st16" d="M255.7,76.6v-11h1.2v11H255.7z"/>
	<path class="st16" d="M263.4,76.6v-11h1.2v4.5h0.1c0-0.1,0.1-0.3,0.2-0.4c0.1-0.1,0.2-0.3,0.3-0.4c0.1-0.1,0.3-0.3,0.5-0.4
		c0.2-0.1,0.4-0.2,0.7-0.3c0.3-0.1,0.6-0.1,0.9-0.1c0.8,0,1.5,0.2,2,0.7c0.5,0.5,0.7,1.1,0.7,2v5.5h-1.2v-5.1c0-0.6-0.2-1.1-0.5-1.5
		c-0.3-0.4-0.8-0.5-1.4-0.5c-0.7,0-1.3,0.2-1.6,0.7c-0.4,0.5-0.6,1.1-0.6,1.9v4.5L263.4,76.6L263.4,76.6z"/>
	<path class="st16" d="M275.7,76.8c-1.1,0-1.9-0.3-2.5-0.9c-0.6-0.6-0.9-1.5-0.9-2.6v-1.3c0-1.1,0.3-1.9,0.9-2.5
		c0.6-0.6,1.4-1,2.4-1c1,0,1.8,0.3,2.4,1c0.6,0.6,0.9,1.5,0.9,2.5v1h-5.3v0.4c0,0.7,0.2,1.2,0.6,1.7c0.4,0.4,0.9,0.7,1.6,0.7
		c0.5,0,0.9-0.1,1.2-0.3c0.3-0.2,0.5-0.4,0.6-0.7h1.3c0,0.2-0.1,0.5-0.3,0.7c-0.1,0.2-0.3,0.4-0.6,0.7c-0.2,0.2-0.6,0.4-0.9,0.5
		C276.6,76.7,276.1,76.8,275.7,76.8z M273.5,72h4.1v-0.1c0-0.5-0.1-0.9-0.3-1.2c-0.2-0.4-0.4-0.6-0.7-0.8c-0.3-0.2-0.7-0.3-1.1-0.3
		c-0.6,0-1.1,0.2-1.5,0.6c-0.4,0.4-0.6,1-0.6,1.7L273.5,72L273.5,72z"/>
	<path class="st16" d="M283.4,76.8c-0.4,0-0.7-0.1-1.1-0.2c-0.3-0.1-0.6-0.3-0.8-0.5c-0.2-0.2-0.4-0.5-0.5-0.8
		c-0.1-0.3-0.2-0.6-0.2-1c0-0.5,0.1-0.9,0.3-1.2c0.2-0.4,0.5-0.6,1-0.8c0.4-0.2,0.9-0.3,1.5-0.3h2.2v-0.8c0-0.5-0.2-0.9-0.5-1.2
		c-0.3-0.3-0.8-0.4-1.3-0.4c-0.9,0-1.5,0.3-1.7,1h-1.2c0.1-0.7,0.4-1.2,0.9-1.5c0.5-0.4,1.2-0.5,2.1-0.5c0.9,0,1.6,0.2,2.1,0.6
		c0.6,0.4,0.8,1.1,0.8,2v5.5h-1.2v-1.1h0C285.2,76.4,284.4,76.8,283.4,76.8z M283.7,75.7c0.6,0,1.1-0.2,1.5-0.5
		c0.4-0.4,0.6-0.8,0.6-1.3v-0.9h-2.1c-0.6,0-1,0.1-1.2,0.4c-0.3,0.2-0.4,0.6-0.4,1c0,0.5,0.2,0.8,0.5,1.1
		C282.8,75.6,283.2,75.7,283.7,75.7z"/>
	<path class="st16" d="M289.7,76.6v-11h1.2v11H289.7z"/>
	<path class="st16" d="M294.2,68.6v-2h1.2v2h1.8v1h-1.8v4.8c0,0.3,0,0.6,0.1,0.8c0.1,0.2,0.2,0.3,0.4,0.4c0.2,0.1,0.5,0.1,0.8,0.1
		c0.2,0,0.4,0,0.6,0v1c-0.2,0-0.5,0.1-0.9,0.1c-0.5,0-0.8,0-1.1-0.1c-0.3-0.1-0.5-0.2-0.7-0.4c-0.2-0.2-0.3-0.4-0.3-0.7
		c-0.1-0.3-0.1-0.6-0.1-1v-4.8H293v-1L294.2,68.6L294.2,68.6z"/>
	<path class="st16" d="M299.6,76.6v-11h1.2v4.5h0.1c0-0.1,0.1-0.3,0.2-0.4c0.1-0.1,0.2-0.3,0.3-0.4c0.1-0.1,0.3-0.3,0.5-0.4
		c0.2-0.1,0.4-0.2,0.7-0.3c0.3-0.1,0.6-0.1,0.9-0.1c0.8,0,1.5,0.2,2,0.7c0.5,0.5,0.7,1.1,0.7,2v5.5h-1.2v-5.1c0-0.6-0.2-1.1-0.5-1.5
		c-0.3-0.4-0.8-0.5-1.4-0.5c-0.7,0-1.3,0.2-1.6,0.7c-0.4,0.5-0.6,1.1-0.6,1.9v4.5L299.6,76.6L299.6,76.6z"/>
</g>
<g>
	<path class="st13" d="M744.7,363.4c-0.3,6.3-5.5,11.3-11.9,11.3H393.7l-20.2,20.2l-20.2-20.2H14.2c-6.4,0-11.6-5-11.9-11.3H0.9
		c0.3,7.1,6.2,12.8,13.4,12.8h338.5l20.8,20.8l20.8-20.8h338.5c7.2,0,13.1-5.7,13.4-12.8H744.7z"/>
</g>
<path class="st13" d="M740.8,525.8H6.2c-3.4,0-5.7-1.8-4.2-3.4l37.7-40.7c0.8-0.8,2.4-1.4,4.2-1.4h659.2c1.8,0,3.4,0.5,4.2,1.4
	l37.7,40.7C746.4,524,744.2,525.8,740.8,525.8z"/>
<path class="st18" d="M540.5,478c-4.3-2.3-12.9-1.4-11,4.7l0,0c0.4,0.8,3.8,4.5,4.4,6.5c0.7,2.5-1.7,8.5-1.7,8.5s-2.1,1.3-1.1,2.3
	c0.1,0.1,0.2,0.1,0.3,0.1h3.9c0.2,0,0.4-0.1,0.6-0.2c1-1,4.1-5.1,5.3-8.5c0.6-1.8,1.5-6.5,1.5-6.5
	C543.3,483.2,542.1,478.9,540.5,478z"/>
<path class="st18" d="M497.4,479.2c3.2,2.8,2.7,7.1,0.8,9.8c-3.6,6.2-7.8,10.1-8.8,11c-0.1,0.1-0.3,0.2-0.5,0.2h-3.8
	c-0.2,0-0.4-0.2-0.4-0.4c0-0.6,0.1-1.7,1.8-2.1c1.1-2.2,1.9-4.6,2.3-7.1l2-12.2C492.9,477.3,495.5,477.6,497.4,479.2z"/>
<g>
	<path class="st19" d="M572,426.1c0,2.3-3.8,3.5-5.3,5.6c-0.1,0.2-0.2,0.4-0.3,0.5c-0.3,0.6-0.5,1.2-0.6,1.8
		c-0.6,3.4,0.6,7.6,0,11.9c-1.2,8.9-8.2,14.4-11.4,16c-0.2,0.1-0.2,0.3-0.2,0.4c0.3,1,0.4,2.3,0.4,3.7c0,3.8-0.7,8.5-1.1,10.3
		c-1,4.5,1,8.9,1.2,11.5c0.1,1.6-4,10.5-5.5,12c-0.2,0.1-0.3,0.2-0.6,0.2h-3.9c-0.1,0-0.2,0-0.3-0.1c-1.1-1.1,0.9-2.3,0.9-2.3
		l1.7-8.7c0-0.1,0-0.2-0.1-0.3c-0.5-0.7-2.4-2.1-4.4-3.9c-1.1-1-2.2-2-3.2-3c-0.1-0.1-0.3-0.2-0.6-0.2c-1.3,0.3-4.9,0.8-9.3,1.1
		c-7.3,0.6-16.7,1.1-21.4,0.6c-0.1,0-0.1,0-0.2,0c-0.3,0.1-0.5,0.4-0.4,0.7c1.1,4.2,1.9,9.6,1.4,12.5c-0.4,2.1-2,3.6-2.1,3.6h-3.9
		c-0.2,0-0.4-0.1-0.4-0.4c-0.1-1,1-1.6,1-1.6c-1.1-4.3-3-6.6-5.2-9.2c-1.9-2.1-4-4.4-6.1-8c-0.5-0.8-0.9-1.7-1.4-2.6
		c-0.9-2-1.7-4-2.4-6.1c-0.9-2.8-3.3-4.8-6.2-5.2c-4.8-0.7-7.1-3.5-7.2-5.9c0-2.2,2.5-2.7,2.6-4.1c0-1.1,0.4-2.1,0.9-3
		c1.6-3,4.7-5,4.7-5l0.8-3.3c0-1,1.1-1.8,2-1.2c7,4.5,7.1,8.3,10.2,10c0.2,0.1,0.5,0.2,0.7,0.4c2.1,1,4.9,1.5,8.1,1.6
		c13.3,0.8,34.1-3.4,45-0.8c4.4,0.9,10.5-5.8,10.7-13.4c0.1-3.8-0.5-7.4-0.2-10.5c0.1-1.2,0.4-2.4,0.9-3.5c0.1-0.3,0.3-0.5,0.4-0.8
		C565.7,421.2,572,421.5,572,426.1z"/>
</g>
<path class="st20" d="M496.8,456.1c-2.8-0.2-5.4-1.3-7.5-3.1c-3-2.6-3.5-0.9-6.4,0.6c-1.4,0.7-3,0.9-4.4,0.4c1.6-3,4.7-5,4.7-5
	l0.8-3.3c0-1,1.1-1.8,2-1.2c7,4.5,7.1,8.3,10.2,10c0.2,0.1,0.5,0.2,0.7,0.4C496.8,455.2,496.8,455.7,496.8,456.1z"/>
<path class="st20" d="M565.8,445.9c-1.2,8.9-8.2,14.4-11.4,16c-0.2,0.1-0.2,0.3-0.2,0.4c0.3,1,0.4,2.3,0.4,3.7
	c-6.6-0.5-13.2-1.6-19.1,1.1c-4,1.9-7.6,5.5-12.1,5.2c-3.2-0.2-5.9-2.4-8.2-4.6c-3-2.9-5.9-6-8.5-9.2c-0.4-0.5-1.1-1.2-1.8-2
	c13.3,0.8,34.1-3.4,45-0.8c4.4,0.9,10.5-5.8,10.7-13.4c0.1-3.8-0.5-7.4-0.2-10.5c1.8,0.9,3.5,1.9,5.4,2.3
	C565.2,437.4,566.4,441.6,565.8,445.9z"/>
<path class="st20" d="M572,426.1c0,2.3-3.8,3.5-5.3,5.6c-2-0.8-4-1.9-5.4-3.4c0.1-0.3,0.3-0.5,0.4-0.8
	C565.7,421.2,572,421.5,572,426.1z"/>
<path class="st12" d="M495.5,453.3c-1.9,6.7-8.5,12.6-11,14.6c-0.3,0.3-0.4,0.8-0.2,1.1c0.5,0.8,1.6,1.8,2.4,1.8
	c0.1,0,0.3-0.1,0.4-0.1c5.2-3.4,9.4-8.8,11.6-15.8C498.9,454.3,495.7,452.8,495.5,453.3L495.5,453.3z"/>
<circle class="st12" cx="474.5" cy="459.8" r="1.1"/>
<circle class="st21" cx="480.1" cy="456.9" r="0.9"/>
<g>
	<path class="st22" d="M411.8,412.4h-6.6v77.7l6.6-13.2c3.6,0,6.6-3,6.6-6.6V419C418.5,415.3,415.5,412.4,411.8,412.4z"/>
	<path class="st20" d="M411.8,419c0-3.6-3-6.6-6.6-6.6h-70c-3.6,0-6.6,3-6.6,6.6v51.2c0,3.6,3,6.6,6.6,6.6l38.3,13.2l31.7-13.2
		c3.6,0,6.6-3,6.6-6.6l-16.5-25.6L411.8,419z"/>
	<path class="st23" d="M414.6,490.1v16.5h7.2c3.7,0,6.6-3,6.6-6.6L414.6,490.1z"/>
	<path class="st18" d="M336,493.4l-17.3,6.6c0,3.7,3,6.6,6.6,6.6h36.6l11.6-10.6l11.6,10.6h29.5c3.7,0,6.6-3,6.6-6.6v-6.6H336z"/>
	<path class="st23" d="M361.9,493.4h23.2v13.2h-23.2V493.4z"/>
	<path class="st18" d="M420.2,480.8c-1-2.4-3.4-4-6.1-4h-7.2l14.3,23.2h7.2L420.2,480.8z"/>
	<path class="st24" d="M413,480.8l1.1,2.6l-5.2,3.3l8,3.3l4.3,9.9H318.7l8.2-19.2c1-2.4,3.4-4,6.1-4h73.9
		C409.5,476.8,411.9,478.4,413,480.8L413,480.8z"/>
	<path class="st16" d="M405.2,419l-18.8,25.6l18.8,25.6h6.6V419L405.2,419L405.2,419z"/>
	<path class="st16" d="M335.2,419h70v51.2h-70V419z"/>
	<path class="st22" d="M416.9,490.1l-2.9-6.6H333l-2.8,6.6H416.9z"/>
</g>
<g>
	<g>
		<path class="st25" d="M305.4,468.1l-2.5,1.9h-11.5l-1.3-1.9l2.6-3.8c0.3-0.4,0.8-0.7,1.2-0.7h7.6c0.5,0,1,0.2,1.2,0.7L305.4,468.1
			z"/>
		<path class="st26" d="M302.8,464.3c-0.3-0.4-0.8-0.7-1.2-0.7h-1.8c0.5,0,1,0.2,1.2,0.7l2.6,3.8h1.8L302.8,464.3z"/>
	</g>
	<g>
		<path class="st20" d="M313.7,471.3v15.6c0,0.7-0.6,1.3-1.3,1.3h-29.2c-0.7,0-1.3-0.6-1.3-1.3v-15.6c0-0.7,0.6-1.3,1.3-1.3h29.2
			C313.1,470,313.7,470.6,313.7,471.3z"/>
		<path class="st22" d="M312.4,470h-1.5c0.7,0,1.3,0.6,1.3,1.3v15.6c0,0.7-0.6,1.3-1.3,1.3h1.5c0.7,0,1.3-0.6,1.3-1.3v-15.6
			C313.7,470.6,313.1,470,312.4,470z"/>
	</g>
	<path class="st24" d="M313.7,469.4v2.9h-31.8v-2.9c0-0.7,0.6-1.3,1.3-1.3h29.2C313.1,468.1,313.7,468.7,313.7,469.4L313.7,469.4z"
		/>
	<path class="st18" d="M312.4,468.1h-1.5c0.7,0,1.3,0.6,1.3,1.3v2.9h1.5v-2.9C313.7,468.7,313.1,468.1,312.4,468.1z"/>
	<g>
		<path class="st22" d="M310.4,470.7h-1.5c-0.3,0-0.5-0.2-0.5-0.5c0-0.3,0.2-0.5,0.5-0.5h1.5c0.3,0,0.5,0.2,0.5,0.5
			S310.7,470.7,310.4,470.7z"/>
	</g>
	<path class="st25" d="M288.4,468.1h-4v-1c0-0.4,0.3-0.7,0.7-0.7h2.5c0.4,0,0.7,0.3,0.7,0.7L288.4,468.1L288.4,468.1z"/>
	<circle class="st25" cx="297.8" cy="478.3" r="8.2"/>
	<path class="st22" d="M297.8,470c-0.2,0-0.5,0-0.7,0c4.2,0.4,7.5,3.9,7.5,8.2s-3.3,7.8-7.5,8.2c0.2,0,0.5,0,0.7,0
		c4.5,0,8.2-3.7,8.2-8.2S302.3,470,297.8,470L297.8,470z"/>
	<circle class="st27" cx="297.8" cy="478.3" r="6.1"/>
	<path class="st28" d="M297.8,472.2c-0.3,0-0.5,0-0.8,0c3,0.4,5.3,2.9,5.3,6s-2.3,5.6-5.3,6c0.3,0,0.5,0,0.8,0
		c3.4,0,6.1-2.7,6.1-6.1C303.9,474.9,301.1,472.2,297.8,472.2L297.8,472.2z"/>
	<g>
		<g>
			<path class="st22" d="M309.8,486.2c-0.3,0-0.5-0.2-0.5-0.5v-0.2c0-0.3,0.2-0.5,0.5-0.5c0.3,0,0.5,0.2,0.5,0.5v0.2
				C310.3,486,310.1,486.2,309.8,486.2z"/>
		</g>
		<g>
			<path class="st22" d="M285.8,486.2c-0.3,0-0.5-0.2-0.5-0.5v-0.2c0-0.3,0.2-0.5,0.5-0.5c0.3,0,0.5,0.2,0.5,0.5v0.2
				C286.2,486,286,486.2,285.8,486.2z"/>
		</g>
	</g>
</g>
</svg>
