<?xml version="1.0" encoding="utf-8"?>
<!-- Generator: Adobe Illustrator 24.2.1, SVG Export Plug-In . SVG Version: 6.00 Build 0)  -->
<svg version="1.1" id="Capa_1" xmlns="http://www.w3.org/2000/svg" xmlns:xlink="http://www.w3.org/1999/xlink" x="0px" y="0px"
	 viewBox="0 0 747 804.6" style="enable-background:new 0 0 747 804.6;" xml:space="preserve">
<style type="text/css">
	.st0{fill:none;stroke:#02ACBB;stroke-width:2.9083;stroke-miterlimit:10;}
	.st1{fill:#02ACBB;}
	.st2{font-family:'Galvji-Bold';}
	.st3{font-size:27.9084px;}
	.st4{font-size:16.2707px;}
	.st5{fill:#FB809F;}
	.st6{fill:#B1E5E5;}
	.st7{fill:none;stroke:#02ACBB;stroke-width:1.9346;stroke-miterlimit:10;}
	.st8{fill:none;stroke:#02ACBB;stroke-width:2.5319;stroke-miterlimit:10;}
	.st9{fill:#FFFFFF;}
	.st10{fill:#C6C6C6;stroke:#C6C6C6;stroke-width:3.0815;stroke-miterlimit:10;}
	.st11{fill:#C6C6C6;stroke:#C6C6C6;stroke-width:3.0815;stroke-miterlimit:10.0002;}
	
		.st12{fill:none;stroke:#C6C6C6;stroke-width:3.0815;stroke-miterlimit:10;stroke-dasharray:1.3138,1.3138,1.3138,1.3138,1.3138,1.3138;}
	.st13{fill:#02ACBB;stroke:#02ACBB;stroke-width:3.0815;stroke-miterlimit:10;}
	.st14{fill:none;stroke:#02ACBB;stroke-width:2.3794;stroke-miterlimit:10;}
	.st15{fill:none;stroke:#FB809F;stroke-width:2.3794;stroke-miterlimit:10;}
	.st16{fill:none;stroke:#898989;stroke-width:2.3794;stroke-miterlimit:10;}
	.st17{fill:#898989;}
	.st18{fill:none;stroke:#B1E5E5;stroke-width:2.3794;stroke-miterlimit:10;}
	.st19{fill:none;stroke:#898989;stroke-width:2.3947;stroke-miterlimit:10;}
	.st20{enable-background:new    ;}
	.st21{fill:#7F7F7F;}
	.st22{fill:#C6C6C6;}
	.st23{fill:#E8E8E8;}
	.st24{fill:#6D6D6D;}
	.st25{fill:#686868;}
	.st26{fill:#A3A3A3;}
	.st27{fill:#DDDDDD;}
	.st28{fill:#9B9B9B;}
	.st29{fill:#818181;}
	.st30{fill:#BADDDD;}
	.st31{fill:#7DC7C9;}
</style>
<g id="Capa_2_1_">
</g>
<g>
	<g>
		<g>
			<path class="st0" d="M6.1,427.3c10.3,0,10.3,20.4,20.8,20.4s10.3-20.4,20.8-20.4c10.3,0,10.3,20.4,20.8,20.4
				c10.3,0,10.3-20.4,20.8-20.4"/>
		</g>
		<path class="st0" d="M6.4,447.7c10.3,0,10.3-20.4,20.8-20.4s10.4,20.4,20.8,20.4c10.3,0,10.3-20.4,20.8-20.4
			c10.3,0,10.8,20.4,21.2,20.4"/>
	</g>
	<g>
		<path class="st0" d="M45.7,475.8c10.3,0,10.3,20.4,20.8,20.4c10.3,0,10.3-20.4,20.8-20.4s10.3,20.4,20.8,20.4s10.3-20.4,20.8-20.4
			"/>
	</g>
	<path class="st0" d="M167,435.1c1.7,6.8-2.7,13.8-9.5,15.5c-3.8,1-7.5,0-10.3-2.1c-1.5,1.7-3.6,3.1-6,3.6
		c-6.3,1.5-12.3-2.2-13.8-8.5c-0.6-2.5-0.4-4.9,0.6-7c-1.7-1.5-3.2-3.6-3.8-6c-1.5-6.3,2.2-12.3,8.5-13.8c3.8-1,7.7,0.1,10.3,2.8
		c1.3-1.5,3.1-2.5,5.2-3.1c5.3-1.3,10.6,2.1,11.7,7.1c0.1,1,0.4,2,0.1,2.8C163.5,428.1,166.2,431.1,167,435.1z"/>
	<g>
		<circle class="st0" cx="167.4" cy="475.9" r="5.3"/>
		<circle class="st0" cx="193.8" cy="475.9" r="5.3"/>
		<circle class="st0" cx="220.3" cy="460.8" r="5.3"/>
		<line class="st0" x1="172.9" y1="475.9" x2="188.7" y2="475.9"/>
		<circle class="st0" cx="220.3" cy="490.9" r="5.3"/>
		<line class="st0" x1="198.6" y1="478.6" x2="215.6" y2="488.2"/>
		<line class="st0" x1="198.4" y1="473.3" x2="215.6" y2="463.6"/>
	</g>
	<g>
		<text transform="matrix(0.9598 0 0 1 218.4321 440.835)" class="st1 st2 st3">CH</text>
		<text transform="matrix(0.9599 0 0 1 259.2705 450.1299)" class="st1 st2 st4">3</text>
	</g>
</g>
<g>
	<g>
		<g>
			<rect x="596" y="91.7" class="st1" width="144.9" height="17"/>
			<rect x="639.9" y="91.7" class="st5" width="100.9" height="17"/>
		</g>
		<rect x="596" y="91.7" class="st6" width="14.4" height="17"/>
		<rect x="543.2" y="62.8" class="st1" width="52.8" height="17"/>
		<rect x="543.2" y="62.8" class="st6" width="22.1" height="17"/>
		<rect x="590.9" y="62.8" class="st5" width="4.9" height="17"/>
		<g>
			<rect x="543.2" y="144.2" class="st1" width="197.6" height="17"/>
			<rect x="543.2" y="144.2" class="st1" width="52.8" height="17"/>
			<rect x="543.2" y="144.2" class="st6" width="22.1" height="17"/>
			<rect x="591.1" y="144.2" class="st5" width="4.9" height="17"/>
			<rect x="596" y="144.2" class="st1" width="144.9" height="17"/>
			<rect x="596" y="144.2" class="st6" width="14.4" height="17"/>
			<rect x="639.9" y="144.2" class="st5" width="100.9" height="17"/>
		</g>
		<path class="st7" d="M596,111.6v0.9c0,0.5,1.3,1,3.1,1h138.8c1.6,0,3.1-0.5,3.1-1v-0.9"/>
		<path class="st7" d="M543.2,82.7v0.9c0,0.5,1.3,1,3.1,1h46.6c1.6,0,3.1-0.5,3.1-1v-0.9"/>
		<g>
			<g>
				<line class="st7" x1="569.6" y1="84.6" x2="569.6" y2="137.8"/>
				<g>
					<polygon class="st1" points="565.9,134.4 569.6,137.3 573.4,134.4 573.4,136.9 569.6,139.7 565.9,136.9 					"/>
				</g>
			</g>
		</g>
		<g>
			<g>
				<line class="st7" x1="668.4" y1="114" x2="668.4" y2="137.8"/>
				<g>
					<polygon class="st1" points="664.6,134.4 668.4,137.3 672.2,134.4 672.2,136.9 668.4,139.7 664.6,136.9 					"/>
				</g>
			</g>
		</g>
	</g>
	<g>
		<line class="st8" x1="651.7" y1="200.3" x2="683.2" y2="200.3"/>
		<polyline class="st8" points="683.2,245.2 651.7,245.2 651.7,224.3 		"/>
		<polyline class="st8" points="667.4,200.3 667.4,224.3 651.7,224.3 601.7,224.3 601.7,245.2 570.3,245.2 		"/>
		<polyline class="st8" points="586.6,245.2 586.6,286.1 555.2,286.1 		"/>
		<polyline class="st8" points="667.4,245.2 667.4,265.7 629.1,265.7 629.1,286.1 660.3,286.1 		"/>
		<polyline class="st8" points="731.1,286.1 699.9,286.1 699.9,265.7 667.4,265.7 		"/>
		<g>
			<rect x="643.1" y="191.3" class="st9" width="17.4" height="18.1"/>
			<path class="st1" d="M659.3,192.6v15.6h-14.9v-15.6H659.3 M661.6,190h-19.7v20.6h19.7V190L661.6,190z"/>
		</g>
		<g>
			<ellipse class="st9" cx="683.2" cy="200.3" rx="8.6" ry="9"/>
			<path class="st1" d="M683.2,192.6c4.2,0,7.3,3.5,7.3,7.7c0,4.4-3.4,7.7-7.3,7.7c-4.2,0-7.3-3.5-7.3-7.7
				C675.6,196.1,679,192.6,683.2,192.6 M683.2,190c-5.5,0-9.8,4.5-9.8,10.2s4.3,10.2,9.8,10.2s9.8-4.5,9.8-10.2S688.5,190,683.2,190
				L683.2,190z"/>
		</g>
		<g>
			<g>
				<rect x="561.6" y="236.2" class="st9" width="17.4" height="18.1"/>
				<path class="st1" d="M577.8,237.3v15.6h-14.9v-15.6H577.8 M580,234.9h-19.7v20.6H580V234.9L580,234.9z"/>
			</g>
			<g>
				<ellipse class="st9" cx="601.7" cy="245.2" rx="8.6" ry="9"/>
				<path class="st1" d="M601.7,237.3c4.2,0,7.3,3.5,7.3,7.7c0,4.4-3.4,7.7-7.3,7.7s-7.3-3.5-7.3-7.7
					C594.1,240.9,597.5,237.3,601.7,237.3 M601.7,234.9c-5.5,0-9.8,4.5-9.8,10.2s4.3,10.2,9.8,10.2s9.8-4.5,9.8-10.2
					S606.9,234.9,601.7,234.9L601.7,234.9z"/>
			</g>
			<g>
				<rect x="643.1" y="236.2" class="st9" width="17.4" height="18.1"/>
				<path class="st1" d="M659.3,237.3v15.6h-14.9v-15.6H659.3 M661.6,234.9h-19.7v20.6h19.7V234.9L661.6,234.9z"/>
			</g>
			<g>
				<ellipse class="st9" cx="683.2" cy="245.2" rx="8.6" ry="9"/>
				<path class="st1" d="M683.2,237.3c4.2,0,7.3,3.5,7.3,7.7c0,4.4-3.4,7.7-7.3,7.7c-4.2,0-7.3-3.5-7.3-7.7
					C675.6,240.9,679,237.3,683.2,237.3 M683.2,234.9c-5.5,0-9.8,4.5-9.8,10.2s4.3,10.2,9.8,10.2s9.8-4.5,9.8-10.2
					S688.5,234.9,683.2,234.9L683.2,234.9z"/>
			</g>
		</g>
		<g>
			<rect x="620.5" y="277" class="st9" width="17.4" height="18.1"/>
			<path class="st1" d="M636.4,278.3v15.6h-14.9v-15.6H636.4 M638.9,275.9h-19.7v20.6h19.7V275.9L638.9,275.9z"/>
		</g>
		<g>
			<path class="st9" d="M660.3,295.1c-4.8,0-8.6-4-8.6-9s3.8-9,8.6-9s8.6,4,8.6,9C669.1,291.1,665.2,295.1,660.3,295.1z"/>
			<path class="st1" d="M660.3,278.3c4.2,0,7.3,3.5,7.3,7.7c0,4.4-3.4,7.7-7.3,7.7c-4,0-7.3-3.5-7.3-7.7
				C653,281.9,656.4,278.3,660.3,278.3 M660.3,275.9c-5.5,0-9.8,4.5-9.8,10.2s4.3,10.2,9.8,10.2s9.8-4.5,9.8-10.2
				C670.4,280.4,665.8,275.9,660.3,275.9L660.3,275.9z"/>
		</g>
		<g>
			<rect x="546.5" y="277" class="st9" width="17.4" height="18.1"/>
			<path class="st1" d="M562.7,278.3v15.6h-14.9v-15.6H562.7 M565.2,275.9h-19.7v20.6h19.7V275.9L565.2,275.9z"/>
		</g>
		<g>
			<path class="st9" d="M586.6,295.1c-4.8,0-8.6-4-8.6-9s3.8-9,8.6-9s8.6,4,8.6,9S591.4,295.1,586.6,295.1z"/>
			<path class="st1" d="M586.6,278.3c4.2,0,7.3,3.5,7.3,7.7c0,4.4-3.4,7.7-7.3,7.7c-4.2,0-7.3-3.5-7.3-7.7
				C579.1,281.9,582.4,278.3,586.6,278.3 M586.6,275.9c-5.5,0-9.8,4.5-9.8,10.2s4.3,10.2,9.8,10.2s9.8-4.5,9.8-10.2
				S592.1,275.9,586.6,275.9L586.6,275.9z"/>
		</g>
		<g>
			<rect x="691.1" y="277" class="st9" width="17.4" height="18.1"/>
			<path class="st1" d="M707.3,278.3v15.6h-14.9v-15.6H707.3 M709.5,275.9h-19.7v20.6h19.7V275.9L709.5,275.9z"/>
		</g>
		<g>
			<path class="st9" d="M731.1,295.1c-4.8,0-8.6-4-8.6-9s3.8-9,8.6-9s8.6,4,8.6,9S735.9,295.1,731.1,295.1z"/>
			<path class="st1" d="M731.1,278.3c4.2,0,7.3,3.5,7.3,7.7c0,4.4-3.4,7.7-7.3,7.7c-4,0-7.3-3.5-7.3-7.7
				C723.6,281.9,727,278.3,731.1,278.3 M731.1,275.9c-5.5,0-9.8,4.5-9.8,10.2s4.3,10.2,9.8,10.2s9.8-4.5,9.8-10.2
				C741,280.4,736.6,275.9,731.1,275.9L731.1,275.9z"/>
		</g>
	</g>
</g>
<g>
	<circle class="st10" cx="328.4" cy="180.9" r="2.2"/>
	<circle class="st10" cx="363" cy="163.7" r="2.2"/>
	<circle class="st10" cx="401.9" cy="151.2" r="2.2"/>
	<circle class="st10" cx="457" cy="181.4" r="2.2"/>
	<circle class="st10" cx="446.5" cy="221.4" r="2.2"/>
	<circle class="st10" cx="437.2" cy="146.7" r="2.2"/>
	<circle class="st10" cx="423.3" cy="170.5" r="2.2"/>
	<circle class="st10" cx="369.7" cy="129.2" r="2.2"/>
	<circle class="st10" cx="350.1" cy="144.6" r="2.2"/>
	<circle class="st10" cx="315.8" cy="144.6" r="2.2"/>
	<circle class="st10" cx="293" cy="185.3" r="2.2"/>
	<circle class="st10" cx="302.4" cy="211" r="2.2"/>
	<circle class="st10" cx="313.7" cy="249" r="2.2"/>
	<circle class="st10" cx="432.8" cy="259.2" r="2.2"/>
	<circle class="st10" cx="471.4" cy="185.3" r="2.2"/>
	<circle class="st10" cx="475.7" cy="282.5" r="2.2"/>
	<circle class="st10" cx="376.3" cy="309" r="2.2"/>
	<circle class="st10" cx="302.4" cy="292.3" r="2.2"/>
	<circle class="st10" cx="335.2" cy="290" r="2.2"/>
	<circle class="st10" cx="290.7" cy="261.4" r="2.2"/>
	<circle class="st10" cx="439.4" cy="308.1" r="2.2"/>
	<circle class="st10" cx="484.8" cy="229.4" r="2.2"/>
	<circle class="st10" cx="461.6" cy="263" r="2.2"/>
	<circle class="st10" cx="407.4" cy="341.4" r="2.2"/>
	<circle class="st10" cx="404.1" cy="309.8" r="2.2"/>
	<circle class="st10" cx="459.5" cy="207.4" r="2.2"/>
	<circle class="st10" cx="454.8" cy="248.1" r="2.2"/>
	<circle class="st10" cx="445.5" cy="173.4" r="2.2"/>
	<circle class="st10" cx="441.1" cy="285.8" r="2.2"/>
	<circle class="st10" cx="479.7" cy="211.9" r="2.2"/>
	<circle class="st10" cx="484" cy="309" r="2.2"/>
	<circle class="st10" cx="447.7" cy="334.6" r="2.2"/>
	<circle class="st10" cx="493" cy="256" r="2.2"/>
	<circle class="st10" cx="455.6" cy="281.4" r="2.2"/>
	<circle class="st10" cx="333" cy="270.1" r="2.2"/>
	<circle class="st10" cx="319.6" cy="231.6" r="2.2"/>
	<circle class="st10" cx="360.5" cy="294.6" r="2.2"/>
	<circle class="st10" cx="315.5" cy="191.6" r="2.2"/>
	<circle class="st10" cx="313" cy="274.9" r="2.2"/>
	<circle class="st10" cx="266.8" cy="189.4" r="2.2"/>
	<circle class="st10" cx="288.3" cy="150.5" r="2.2"/>
	<circle class="st10" cx="297.1" cy="237.6" r="2.2"/>
	<circle class="st10" cx="286.7" cy="212.8" r="2.2"/>
	<circle class="st10" cx="434" cy="299.4" r="2.2"/>
	<circle class="st10" cx="393.4" cy="294.6" r="2.2"/>
	<circle class="st10" cx="468" cy="301.5" r="2.2"/>
	<circle class="st10" cx="355.8" cy="280.9" r="2.2"/>
	<circle class="st10" cx="429.6" cy="319.4" r="2.2"/>
	<circle class="st10" cx="332.5" cy="323.8" r="2.2"/>
	<circle class="st10" cx="317.4" cy="292.3" r="2.2"/>
	<circle class="st10" cx="385.6" cy="332.9" r="2.2"/>
	<circle class="st10" cx="360.1" cy="307.6" r="2.2"/>
	<circle class="st10" cx="449.5" cy="144.2" r="2.2"/>
	<circle class="st10" cx="444.6" cy="184.8" r="2.2"/>
	<circle class="st10" cx="435.4" cy="110.2" r="2.2"/>
	<circle class="st10" cx="431" cy="222.6" r="2.2"/>
	<circle class="st10" cx="469.5" cy="148.6" r="2.2"/>
	<circle class="st10" cx="473.9" cy="245.7" r="2.2"/>
	<circle class="st10" cx="437.6" cy="271.3" r="2.2"/>
	<circle class="st10" cx="482.9" cy="192.8" r="2.2"/>
	<circle class="st10" cx="464" cy="220.4" r="2.2"/>
	<circle class="st10" cx="433.3" cy="207.3" r="2.2"/>
	<circle class="st10" cx="408.1" cy="175.4" r="2.2"/>
	<circle class="st10" cx="468" cy="233" r="2.2"/>
	<circle class="st10" cx="391" cy="138.9" r="2.2"/>
	<circle class="st10" cx="416.1" cy="218.5" r="2.2"/>
	<circle class="st10" cx="344.2" cy="152.8" r="2.2"/>
	<circle class="st10" cx="351.9" cy="109.1" r="2.2"/>
	<circle class="st10" cx="325.1" cy="158.4" r="2.2"/>
	<circle class="st10" cx="375.2" cy="161" r="2.2"/>
	<circle class="st10" cx="281.2" cy="199.6" r="2.2"/>
	<circle class="st10" cx="293" cy="144.1" r="2.2"/>
	<circle class="st10" cx="273" cy="174.3" r="2.2"/>
	<circle class="st10" cx="260.3" cy="165.1" r="2.2"/>
	<circle class="st10" cx="285.3" cy="129" r="2.2"/>
	<circle class="st10" cx="296.5" cy="226.2" r="2.2"/>
	<circle class="st10" cx="298.6" cy="173.1" r="2.2"/>
	<circle class="st10" cx="279.1" cy="187" r="2.2"/>
	<circle class="st10" cx="273.6" cy="218.6" r="2.2"/>
	<circle class="st10" cx="279.5" cy="162.8" r="2.2"/>
	<circle class="st10" cx="263.2" cy="135.3" r="2.2"/>
	<circle class="st10" cx="273" cy="138.6" r="2.2"/>
	<circle class="st10" cx="289.6" cy="312" r="2.2"/>
	<circle class="st10" cx="286.7" cy="246.6" r="2.2"/>
	<circle class="st10" cx="267.8" cy="271.9" r="2.2"/>
	<ellipse class="st11" cx="256.8" cy="265.2" rx="2.2" ry="2.2"/>
	<circle class="st10" cx="281.6" cy="229.1" r="2.2"/>
	<circle class="st10" cx="285.9" cy="326.2" r="2.2"/>
	<circle class="st10" cx="294.9" cy="273.2" r="2.2"/>
	<circle class="st10" cx="269.7" cy="298.5" r="2.2"/>
	<circle class="st10" cx="269.9" cy="318.7" r="2.2"/>
	<circle class="st10" cx="275.8" cy="263" r="2.2"/>
	<circle class="st10" cx="259.6" cy="235.4" r="2.2"/>
	<circle class="st10" cx="269.3" cy="238.7" r="2.2"/>
	<circle class="st10" cx="322.9" cy="306.9" r="2.2"/>
	<circle class="st10" cx="319.5" cy="331.1" r="2.2"/>
	<circle class="st10" cx="303.3" cy="303.5" r="2.2"/>
	<circle class="st10" cx="303.6" cy="323.5" r="2.2"/>
	<circle class="st10" cx="358.7" cy="347.7" r="2.2"/>
	<circle class="st10" cx="343.2" cy="328" r="2.2"/>
	<circle class="st10" cx="374.1" cy="336.5" r="2.2"/>
	<circle class="st10" cx="363.4" cy="150.3" r="2.2"/>
	<circle class="st10" cx="330.3" cy="147.3" r="2.2"/>
	<circle class="st10" cx="344.7" cy="118.8" r="2.2"/>
	<circle class="st10" cx="328" cy="129.9" r="2.2"/>
	<circle class="st10" cx="431" cy="138.9" r="2.2"/>
	<circle class="st10" cx="418.6" cy="136.7" r="2.2"/>
	<circle class="st10" cx="418" cy="148.2" r="2.2"/>
	<circle class="st10" cx="360" cy="322.2" r="2.2"/>
	<circle class="st10" cx="442.5" cy="250.3" r="2.2"/>
	<circle class="st10" cx="442.7" cy="235.4" r="2.2"/>
	<circle class="st10" cx="429.6" cy="240.2" r="2.2"/>
	<circle class="st10" cx="383.4" cy="238.7" r="2.2"/>
	<circle class="st10" cx="386.2" cy="279.2" r="2.2"/>
	<circle class="st10" cx="457.4" cy="318.4" r="2.2"/>
	<circle class="st10" cx="487" cy="277.1" r="2.2"/>
	<circle class="st10" cx="425.4" cy="351.8" r="2.2"/>
	<circle class="st10" cx="476.1" cy="263.6" r="2.2"/>
	<circle class="st10" cx="241.2" cy="234.3" r="2.2"/>
	<circle class="st10" cx="451.7" cy="194.5" r="2.2"/>
	<circle class="st10" cx="497.4" cy="214.9" r="2.2"/>
	<circle class="st10" cx="494.1" cy="151.7" r="2.2"/>
	<circle class="st10" cx="472.6" cy="202.4" r="2.2"/>
	<circle class="st10" cx="497.4" cy="166.3" r="2.2"/>
	<circle class="st10" cx="403.2" cy="197.3" r="2.2"/>
	<circle class="st10" cx="508.3" cy="249.1" r="2.2"/>
	<circle class="st10" cx="454.8" cy="298.5" r="2.2"/>
	<circle class="st10" cx="503.9" cy="281.2" r="2.2"/>
	<circle class="st10" cx="231.1" cy="207.3" r="2.2"/>
	<circle class="st10" cx="241.2" cy="250.4" r="2.2"/>
	<circle class="st10" cx="231.1" cy="187.2" r="2.2"/>
	<circle class="st10" cx="226.4" cy="227.7" r="2.2"/>
	<circle class="st10" cx="250.6" cy="190.6" r="2.2"/>
	<ellipse class="st11" cx="255.6" cy="288.7" rx="2.2" ry="2.2"/>
	<circle class="st10" cx="247.6" cy="216.4" r="2.2"/>
	<circle class="st10" cx="263.2" cy="332.4" r="2.2"/>
	<circle class="st10" cx="257.7" cy="306.5" r="2.2"/>
	<circle class="st10" cx="388.5" cy="351.6" r="2.2"/>
	<circle class="st10" cx="444.6" cy="354" r="2.2"/>
	<circle class="st10" cx="416.5" cy="375.7" r="2.2"/>
	<circle class="st10" cx="375.8" cy="374" r="2.2"/>
	<circle class="st10" cx="407.6" cy="362.6" r="2.2"/>
	<circle class="st10" cx="366.8" cy="366" r="2.2"/>
	<circle class="st10" cx="379" cy="359.3" r="2.2"/>
	<circle class="st10" cx="239" cy="300.8" r="2.2"/>
	<circle class="st10" cx="349.3" cy="369.6" r="2.2"/>
	<circle class="st10" cx="414.3" cy="106.8" r="2.2"/>
	<circle class="st10" cx="363.4" cy="97.1" r="2.2"/>
	<circle class="st10" cx="407.9" cy="143.3" r="2.2"/>
	<circle class="st10" cx="388.6" cy="107.3" r="2.2"/>
	<circle class="st10" cx="388.8" cy="151.2" r="2.2"/>
	<circle class="st10" cx="315.2" cy="89.5" r="2.2"/>
	<circle class="st10" cx="341.7" cy="81" r="2.2"/>
	<circle class="st10" cx="379.2" cy="86.8" r="2.2"/>
	<circle class="st10" cx="395.9" cy="91.7" r="2.2"/>
	<circle class="st10" cx="484.2" cy="172.6" r="2.2"/>
	<circle class="st10" cx="518.3" cy="208.5" r="2.2"/>
	<circle class="st10" cx="408.9" cy="124.9" r="2.2"/>
	<circle class="st10" cx="505.6" cy="187" r="2.2"/>
	<circle class="st10" cx="477.9" cy="133.6" r="2.2"/>
	<circle class="st10" cx="239" cy="171.2" r="2.2"/>
	<circle class="st10" cx="520.5" cy="237.6" r="2.2"/>
	<circle class="st10" cx="502.8" cy="307.4" r="2.2"/>
	<circle class="st10" cx="491.9" cy="294" r="2.2"/>
	<circle class="st10" cx="301.3" cy="340" r="2.2"/>
	<circle class="st10" cx="236.9" cy="274.9" r="2.2"/>
	<circle class="st10" cx="310.7" cy="358.1" r="2.2"/>
	<circle class="st10" cx="277.8" cy="350.6" r="2.2"/>
	<circle class="st10" cx="345.2" cy="349" r="2.2"/>
	<circle class="st10" cx="425.4" cy="332.4" r="2.2"/>
	<circle class="st10" cx="331.8" cy="355.6" r="2.2"/>
	<circle class="st10" cx="468" cy="330.8" r="2.2"/>
	<circle class="st10" cx="485.3" cy="328.6" r="2.2"/>
	<circle class="st10" cx="334.8" cy="94.4" r="2.2"/>
	<circle class="st10" cx="452.4" cy="101.8" r="2.2"/>
	<circle class="st10" cx="279.1" cy="118.8" r="2.2"/>
	<circle class="st10" cx="311" cy="104.2" r="2.2"/>
	<circle class="st10" cx="265.6" cy="149.6" r="2.2"/>
	<circle class="st10" cx="316.2" cy="116.4" r="2.2"/>
	<circle class="st10" cx="426.4" cy="94.7" r="2.2"/>
	<circle class="st10" cx="282.9" cy="110" r="2.2"/>
	<circle class="st10" cx="300.2" cy="108.3" r="2.2"/>
	<circle class="st10" cx="455.5" cy="127.3" r="2.2"/>
	<circle class="st10" cx="371.9" cy="114.2" r="2.2"/>
	<circle class="st10" cx="409.6" cy="89" r="2.2"/>
	<circle class="st10" cx="465.3" cy="165.1" r="2.2"/>
	<circle class="st10" cx="401" cy="256" r="2.2"/>
	<circle class="st10" cx="373.6" cy="193.7" r="2.2"/>
	<circle class="st10" cx="341.7" cy="200.3" r="2.2"/>
	<path class="st12" d="M319.6,231.6c0,0,14-3.5,40.4,23.3"/>
	<polyline class="st12" points="369.7,129.2 363.4,150.3 375.2,161 363,163.7 408.1,175.4 	"/>
	<polyline class="st12" points="263.2,135.3 273,138.6 288.3,150.5 279.5,162.8 260.3,165.1 273,174.3 293,185.3 279.1,187 
		302.4,211 	"/>
	<path class="st12" d="M447.7,334.6l-18-15.1c0,0-20.8,14.4-25.6-9.7"/>
	<polyline class="st12" points="482.9,192.8 479.7,211.9 459.5,207.4 433.3,207.3 420.7,198.7 416.1,218.5 431,222.6 442.7,235.4 
		442.5,250.3 432.8,259.2 429.6,240.2 	"/>
	<path class="st12" d="M381.5,261.4l-25.8,19.5l37.9,13.6l-33.1,0.1c0,0,11.1,14.1,13.6,41.9l14.4,15.1c2.9,21,28.1,24,28.1,24
		l-40.8-1.7"/>
	<polyline class="st12" points="484,309 468,301.5 475.7,282.5 461.6,263 	"/>
	<polyline class="st12" points="281.2,199.6 286.7,212.8 302.4,211 	"/>
	<polyline class="st12" points="416.1,218.5 383.4,238.7 407.6,238.7 	"/>
	<polyline class="st12" points="269.7,298.5 290.7,261.4 294.9,273.2 313,274.9 313.7,249 342.4,255.5 	"/>
	<path class="st12" d="M457.8,281.4l-20.1-10.1l24-8.4l-6.9-14.9c0,0-3.7-23.5,9-27.6s20.9,9,20.9,9L493,256"/>
	<polyline class="st12" points="457,181.4 471.4,185.3 459.5,207.4 	"/>
	<path class="st12" d="M293,144.1c0,0,19.3,6,39.9,71.5"/>
	<polyline class="st12" points="226.4,227.7 241.2,250.4 236.9,274.9 256.7,265.2 267.8,271.9 275.8,263 286.7,246.6 281.6,229.1 
		296.5,226.2 319.6,231.6 	"/>
	<path class="st12" d="M239,300.8l18.8,5.8l12.3,12.2l15.9,7.6l3.7-14.4l13.7-8.5l-0.9-11.1c0,0,8.2-6.7,14.9,0
		c0,0,9.5,7.3,17.8-2.2"/>
	<path class="st12" d="M239,171.2c0,0,17.4-0.2,27.6,18.2l7,29.3l-4.4,20l17.3,7.9c0,0,10.6,14,27,2.5l6-17.5l13.2-16.1l-30.4-4.4
		l13.1-19.5L298.6,173c0,0,24.9-13.2,17.2-28.5s-28.4-15.6-28.4-15.6"/>
	<path class="st12" d="M341.7,81l-26.5,8.5l-4.1,14.7l5.1,12.1l11.9,13.6l16.8-11.1c0,0,2.4,22.7-14.5,28.6l-5.2,11l3.5,22.5
		l15.8-28l5.9-8.3"/>
	<polyline class="st12" points="363,208.5 341.7,200.3 328.4,180.9 	"/>
	<line class="st12" x1="359" y1="234.3" x2="341.7" y2="200.3"/>
	<polyline class="st12" points="363,163.7 373.6,193.7 390.6,218.1 	"/>
	<polyline class="st12" points="393.4,294.6 386.2,279.2 401,256 	"/>
	<path class="st12" d="M408.1,175.4c0,0,7.2,14.4-4.8,22"/>
	<polyline class="st12" points="231.1,187.2 231.1,207.3 250.6,190.6 266.8,189.4 	"/>
	<polyline class="st12" points="241.2,234.3 247.6,216.4 259.6,235.4 269.3,238.7 	"/>
	<line class="st12" x1="255.6" y1="288.8" x2="257.7" y2="306.5"/>
	<polyline class="st12" points="263.2,332.4 277.8,350.6 301.3,340 285.9,326.2 	"/>
	<line class="st12" x1="345.2" y1="349" x2="343.2" y2="328"/>
	<polyline class="st12" points="385.6,332.9 376.3,309 393.4,294.6 404.1,309.8 437.6,271.3 406.2,276 441.1,285.8 434,299.4 
		441.6,308.1 	"/>
	<polyline class="st12" points="379.2,86.8 388.6,107.3 391,138.9 388.8,151.2 375.2,161 	"/>
	<polyline class="st12" points="452.4,101.8 455.5,127.3 469.5,148.6 449.5,144.2 431,138.9 	"/>
	<polyline class="st12" points="363.4,97.1 371.9,114.2 351.9,109.1 350.1,144.6 352.3,185.3 	"/>
	<line class="st12" x1="334.8" y1="94.4" x2="328" y2="129.9"/>
	<path class="st12" d="M282.9,110l17.2-1.6c0,0,13.2,11,15.7,36.2"/>
	<line class="st12" x1="265.6" y1="149.6" x2="273" y2="138.6"/>
	<path class="st12" d="M366.8,366l12.3-6.7l-20.3-11.5l-15.4-19.6c0,0-7.8,12.7-23.7,3l12.3,24.6c0,0,13.3,1.3,17.3,14
		s-46.9,8-38.4-11.3s-7.2-34.6-7.2-34.6l19.3-16.6l9.7,17l27.5-1.5c0,0,10.6-5.9,0.1-14.7c-10.5-8.8-27.1-37.5-27.1-37.5"/>
	<polyline class="st12" points="494.1,151.7 465.3,165.1 445.5,173.4 	"/>
	<path class="st12" d="M477.9,133.6l6.3,39.1l21.3,14.4l-8.2,27.8l20.9-6.4c0,0,8.7,14.8,2.2,29L508.2,249c0,0-14.4-17-34.4-3.3
		l-5.9-12.7l-4.2-12.7"/>
	<polyline class="st12" points="503.9,281.2 502.8,307.4 491.9,294 487,277.1 476.1,263.6 461.6,263 	"/>
	<polyline class="st12" points="444.6,354 425.4,351.8 407.6,362.6 407.4,341.4 425.4,332.4 429.6,319.4 439.7,307.7 	"/>
	<polyline class="st12" points="485.3,328.6 468,330.8 457.4,318.4 454.8,298.5 455.6,281.4 	"/>
	<polyline class="st12" points="395.9,91.7 409.6,89 414.3,106.8 408.9,124.9 407.9,143.3 401.9,151.2 391.9,183.6 	"/>
	<polyline class="st12" points="426.4,94.7 435.4,110.2 431,138.9 418.6,136.7 418,148.2 423.3,170.5 408.1,175.4 391.9,183.6 
		444.6,184.8 445.5,173.4 437.2,146.7 	"/>
	<line class="st12" x1="497.4" y1="166.3" x2="484.2" y2="172.6"/>
	<g>
		<circle class="st13" cx="351.5" cy="184.5" r="4.4"/>
		<circle class="st13" cx="362.3" cy="207.8" r="4.4"/>
		<circle class="st13" cx="419.8" cy="198" r="4.4"/>
		<circle class="st13" cx="391" cy="182.9" r="4.4"/>
		<circle class="st13" cx="358.3" cy="233.5" r="4.4"/>
		<circle class="st13" cx="406.8" cy="237.9" r="4.4"/>
		<circle class="st13" cx="331.9" cy="214.7" r="4.4"/>
		<circle class="st13" cx="389.8" cy="217.3" r="4.4"/>
		<circle class="st13" cx="380.7" cy="260.5" r="4.4"/>
		<circle class="st13" cx="341.6" cy="254.8" r="4.4"/>
		<circle class="st13" cx="405.5" cy="275.1" r="4.4"/>
	</g>
	<circle class="st13" cx="360" cy="254.8" r="4.4"/>
</g>
<g>
	<g>
		<g>
			<path class="st14" d="M205.2,62.8c-33.1,0-33.1,47.5-66.4,47.5s-33.1-47.5-66.4-47.5S39.3,110.3,6,110.3"/>
			<path class="st14" d="M6.6,62.8c33.1,0,33.1,47.5,66.4,47.5s33.1-47.5,66.4-47.5c33.1,0,33.1,47.5,66.4,47.5"/>
			<path class="st14" d="M139.4,62.8c33.1,0,33.1,47.5,66.4,47.5"/>
			<path class="st14" d="M78.5,109.7"/>
			<path class="st15" d="M66.1,109.5c2.1,0.4,4.4,0.9,7,0.9c1.9,0,3.7-0.1,5.5-0.4"/>
		</g>
		<ellipse class="st16" cx="71.7" cy="107.8" rx="13.4" ry="13.4"/>
		<g>
			<line class="st14" x1="205.2" y1="152.2" x2="6.1" y2="152.2"/>
			<line class="st15" x1="116.9" y1="152.2" x2="92.5" y2="152.2"/>
		</g>
		<g>
			<line class="st14" x1="205.2" y1="144.3" x2="6.1" y2="144.3"/>
			<line class="st15" x1="116.9" y1="144.3" x2="92.5" y2="144.3"/>
		</g>
		<g>
			<g>
				<polyline class="st16" points="71.5,121.3 71.5,129 104,129 104,134.5 				"/>
				<g>
					<polygon class="st17" points="101,131.2 104,134.1 107,131.2 107,133.5 104,136.5 101,133.5 					"/>
				</g>
			</g>
		</g>
	</g>
	<g>
		<g>
			<g>
				<polyline class="st16" points="206.6,292.7 8.9,292.7 8.9,169.9 				"/>
				<g>
					<polygon class="st17" points="203.2,289.1 206.1,292.7 203.2,296.5 205.7,296.5 208.6,292.7 205.7,289.1 					"/>
				</g>
				<g>
					<polygon class="st17" points="11.8,174.1 8.9,170.5 6.1,174.1 6.1,171 8.9,167.5 11.8,171 					"/>
				</g>
			</g>
		</g>
		<g>
			<g>
				<rect x="30.4" y="178.2" class="st18" width="54.2" height="30"/>
				<line class="st18" x1="132.9" y1="193.2" x2="84.7" y2="193.2"/>
				<line class="st18" x1="30.4" y1="192.8" x2="14.1" y2="192.8"/>
				<line class="st18" x1="63.2" y1="178.2" x2="63.2" y2="208.2"/>
			</g>
			<g>
				<rect x="93.3" y="214.8" class="st14" width="41.9" height="29.2"/>
				<line class="st14" x1="182.5" y1="229.4" x2="135.3" y2="229.4"/>
				<line class="st14" x1="93.3" y1="229.1" x2="66.4" y2="229.1"/>
				<line class="st14" x1="105.1" y1="214.8" x2="105.1" y2="244.1"/>
			</g>
			<g>
				<rect x="134.5" y="252.6" class="st15" width="45.4" height="29.2"/>
				<line class="st15" x1="203.5" y1="267.3" x2="179.9" y2="267.3"/>
				<line class="st15" x1="134.5" y1="267" x2="87.3" y2="267"/>
				<line class="st15" x1="152.8" y1="252.6" x2="152.8" y2="281.9"/>
			</g>
		</g>
	</g>
</g>
<g>
	<g>
		<g>
			<g>
				<polyline class="st19" points="388.5,408 388.5,504.3 474.8,504.3 				"/>
				<g>
					<polygon class="st17" points="384.4,412.8 388.5,408.7 392.4,412.8 392.4,409.3 388.5,405.2 384.4,409.3 					"/>
				</g>
				<g>
					<polygon class="st17" points="470.3,508.4 474.3,504.3 470.3,500.1 473.7,500.1 477.7,504.3 473.7,508.4 					"/>
				</g>
			</g>
		</g>
		<g>
			<line class="st19" x1="418.5" y1="453.1" x2="418.5" y2="493.4"/>
			<rect x="410.4" y="462.5" class="st5" width="15.7" height="21.5"/>
			<line class="st19" x1="447.6" y1="416" x2="447.6" y2="465.3"/>
			<rect x="439.8" y="427.6" class="st1" width="15.7" height="26.3"/>
		</g>
		<g>
			<g>
				<polyline class="st19" points="518.1,408 518.1,504.3 604.6,504.3 				"/>
				<g>
					<polygon class="st17" points="514.1,412.8 518.1,408.7 522.1,412.8 522.1,409.3 518.1,405.2 514.1,409.3 					"/>
				</g>
				<g>
					<polygon class="st17" points="599.8,508.4 603.9,504.3 599.8,500.1 603.3,500.1 607.2,504.3 603.3,508.4 					"/>
				</g>
			</g>
		</g>
		<g>
			<line class="st19" x1="548.2" y1="415.6" x2="548.2" y2="456.1"/>
			<rect x="540.1" y="425.2" class="st5" width="15.7" height="21.5"/>
			<line class="st19" x1="577.2" y1="444.3" x2="577.2" y2="493.8"/>
			<rect x="569.3" y="456" class="st1" width="15.7" height="26.3"/>
		</g>
		<g>
			<g>
				<path class="st1" d="M376.7,445.7l3-1.7l-2.2-4.2c-1.9-3.7-5.7-6.1-10-6.1c-4.1,0-7.9,2.4-10,6.1l-2.2,4.1l3,1.7l2.2-4.2
					c0.1-0.4,0.5-0.8,0.6-1.2l-2.3,14.5h3.1v4.8h3.4v-4.8h4.3v4.8h3.4v-4.8h3.1l-2.3-14.5c0.4,0.4,0.5,0.7,0.6,1.2L376.7,445.7z
					 M370.1,437.7l2.2,13.8h-9.5l2.2-13.8c0.8-0.4,1.7-0.4,2.3-0.4C368.4,437.1,369.4,437.3,370.1,437.7L370.1,437.7z"/>
				<path class="st1" d="M367.8,432c3.6,0,6.5-3.1,6.5-6.6c0-3.6-3-6.6-6.5-6.6c-3.6,0-6.5,3.1-6.5,6.6
					C361.1,429.1,364.1,432,367.8,432z M367.8,422.2c1.8,0,3.1,1.4,3.1,3.2c0,1.8-1.4,3.2-3.1,3.2c-1.8,0-3.1-1.4-3.1-3.2
					C364.6,423.5,365.8,422.2,367.8,422.2z"/>
			</g>
			<g>
				<path class="st5" d="M367.8,476.5c-2.3,0-4.4,1.3-5.6,3.5l-1.3,2.4l1.7,0.8l1-1.8v9.4h1.9v-4.1h4.7v4.1h1.9v-9.4l1,1.8l1.7-0.8
					l-1.3-2.4C372.2,477.9,370,476.5,367.8,476.5L367.8,476.5z M365.3,479c0.6-0.5,1.4-0.7,2.2-0.7c0.8,0,1.7,0.1,2.2,0.7v5.8H365
					L365.3,479L365.3,479z"/>
				<path class="st5" d="M367.8,475.6c2,0,3.6-1.7,3.6-3.7s-1.7-3.7-3.6-3.7s-3.6,1.7-3.6,3.7C364.1,473.9,365.6,475.6,367.8,475.6z
					 M367.8,469.9c1,0,1.8,0.8,1.8,1.8c0,1.1-0.8,1.8-1.8,1.8s-1.8-0.8-1.8-1.8C366,470.7,366.6,469.9,367.8,469.9z"/>
			</g>
		</g>
		<g>
			<g>
				<path class="st1" d="M502.9,483.3l1.7-0.8l-1.3-2.4c-1.2-2-3.1-3.5-5.6-3.5c-2.4,0-4.4,1.3-5.6,3.5l-1.3,2.4l1.7,0.8l1.3-2.4
					c0.1-0.1,0.1-0.5,0.4-0.7l-1.3,8h1.8v2.5h1.9v-2.5h2.3v2.5h1.9v-2.5h1.8l-1.3-8c0.1,0.1,0.4,0.4,0.4,0.7L502.9,483.3z
					 M499.3,478.7l1.3,7.6h-5.3l1.3-7.6c0.5-0.1,1-0.1,1.4-0.1C498.3,478.4,498.8,478.5,499.3,478.7L499.3,478.7z"/>
				<path class="st1" d="M497.9,475.6c2,0,3.6-1.7,3.6-3.7s-1.7-3.7-3.6-3.7c-2,0-3.6,1.7-3.6,3.7
					C494.1,473.9,495.9,475.6,497.9,475.6z M497.9,469.9c1,0,1.8,0.8,1.8,1.8c0,1.1-0.8,1.8-1.8,1.8s-1.8-0.8-1.8-1.8
					C496.2,470.7,497,469.9,497.9,469.9z"/>
			</g>
			<g>
				<path class="st5" d="M497.9,433.8c-4.1,0-7.9,2.4-10,6.1l-2.2,4.2l3,1.7l1.8-3.2v17h3.4v-7.2h8.3v7.2h3.4v-17l1.8,3.2l3-1.7
					l-2.2-4.2C505.9,436.2,502.2,433.8,497.9,433.8L497.9,433.8z M493.8,438.4c1.3-0.8,2.7-1.2,4.1-1.2s2.9,0.5,4.1,1.2v10.4h-8.3
					L493.8,438.4L493.8,438.4z"/>
				<path class="st5" d="M497.9,432c3.6,0,6.5-3.1,6.5-6.6c0-3.6-3-6.6-6.5-6.6c-3.6,0-6.5,3.1-6.5,6.6S494.4,432,497.9,432z
					 M497.9,422.2c1.8,0,3.1,1.4,3.1,3.2c0,1.8-1.4,3.2-3.1,3.2c-1.8,0-3.1-1.4-3.1-3.2C494.7,423.5,496.2,422.2,497.9,422.2z"/>
			</g>
		</g>
	</g>
	<g>
		<g>
			<g>
				<path class="st5" d="M627.2,406.5c2.3,0,4.2,1.7,4.6,3.8l7.3,34.3c0.8,3.5,3.9,6,7.6,6c3.6,0,6.9-2.7,7.6-6.2l6.2-33.4
					c0.5-2.4,2.7-4.5,5.3-4.5c0.5,0,0.8,0,1.4,0.1c1.5,0.3,2.7,1.2,3.2,2.4c0.7,1.4,1,2.7,0.7,4.2l-8.1,32
					c-1.5,5.7-1.5,11.9-0.1,17.8l8.2,35c0.5,2.1-0.7,4.5-2.8,5.3c-0.5,0.1-1,0.3-1.7,0.3c-2.1,0-3.9-1.5-4.5-3.5l-7.6-33.4
					c-0.8-3.6-3.9-6-7.6-6c-3.6,0-6.7,2.4-7.6,6l-7.4,33.1c-0.5,2.1-2.4,3.6-4.6,3.6c-0.3,0-0.8,0-1.2-0.1c-2.4-0.7-4.2-3.1-3.5-5.7
					l8.1-34c1.4-5.7,1.4-11.6,0-17l-8.2-34.5c-0.3-1.4-0.1-2.4,0.7-3.6s1.8-1.8,3.1-2.1C626.5,406.5,626.9,406.5,627.2,406.5
					 M627.2,404.1c-0.5,0-1,0-1.5,0.1c-3.9,0.8-6.6,4.9-5.7,8.8l8.3,34.5c1.4,5.3,1.4,10.8,0,15.8l-8.1,34c-1,3.8,1.5,7.7,5.3,8.8
					c0.7,0.1,1.2,0.1,1.8,0.1c3.2,0,6.2-2.3,7.1-5.7l7.4-33.1c0.5-2.4,2.8-4.2,5.3-4.2c2.4,0,4.6,1.7,5.3,4.2l7.6,33.4
					c0.8,3.2,3.6,5.4,6.7,5.4c0.8,0,1.7-0.1,2.4-0.5c3.2-1.4,5.2-4.9,4.3-8.2l-8.2-35c-1.4-5.4-1.4-11,0.1-16.6l8.1-32.1
					c1.2-4.3-1.5-8.6-5.7-9.5c-0.7-0.1-1.4-0.1-1.8-0.1c-3.6,0-6.9,2.7-7.7,6.4L652,444c-0.5,2.4-2.7,4.3-5.2,4.3s-4.6-1.8-5.2-4.2
					l-7.3-34.3C633.5,406.3,630.6,404.1,627.2,404.1L627.2,404.1z"/>
			</g>
		</g>
		<g>
			<g>
				<path class="st5" d="M694.3,406.5c2.3,0,4.2,1.7,4.6,3.8l7.3,34.3c0.8,3.5,3.9,6,7.6,6c3.6,0,6.9-2.7,7.6-6.2l6.2-33.4
					c0.5-2.4,2.7-4.5,5.3-4.5c0.5,0,0.8,0,1.4,0.1c1.5,0.3,2.7,1.2,3.2,2.4c0.7,1.4,1,2.7,0.7,4.2l-8.1,32
					c-1.5,5.7-1.5,11.9-0.1,17.8l8.2,35c0.5,2.1-0.7,4.5-2.8,5.3c-0.5,0.1-1,0.3-1.7,0.3c-2.1,0-3.9-1.5-4.5-3.5l-7.6-33.4
					c-0.8-3.6-3.9-6-7.6-6c-3.6,0-6.7,2.4-7.6,6l-7.4,33.1c-0.5,2.1-2.4,3.6-4.6,3.6c-0.3,0-0.8,0-1.2-0.1c-2.4-0.7-4.2-3.1-3.5-5.7
					l8.1-34c1.4-5.7,1.4-11.6,0-17l-8.2-34.5c-0.3-1.4-0.1-2.4,0.7-3.6s1.8-1.8,3.1-2.1C693.6,406.5,693.9,406.5,694.3,406.5
					 M694.3,404.1c-0.5,0-1,0-1.5,0.1c-3.9,0.8-6.6,4.9-5.7,8.8l8.2,34.5c1.4,5.3,1.4,10.8,0,15.8l-8.1,34c-1,3.8,1.5,7.7,5.3,8.8
					c0.7,0.1,1.2,0.1,1.8,0.1c3.2,0,6.2-2.3,7.1-5.7l7.4-33.1c0.5-2.4,2.8-4.2,5.3-4.2c2.4,0,4.6,1.7,5.3,4.2l7.6,33.4
					c0.8,3.2,3.6,5.4,6.7,5.4c0.8,0,1.7-0.1,2.4-0.5c3.2-1.4,5.2-4.9,4.3-8.2l-8.2-35c-1.4-5.4-1.4-11,0.1-16.6l8.2-32.1
					c1.2-4.3-1.5-8.6-5.7-9.5c-0.7-0.1-1.4-0.1-1.8-0.1c-3.6,0-6.9,2.7-7.7,6.4l-6.2,33.4c-0.5,2.4-2.7,4.3-5.2,4.3
					c-2.4,0-4.6-1.8-5.2-4.2l-7.3-34.3C700.6,406.3,697.6,404.1,694.3,404.1L694.3,404.1z"/>
			</g>
		</g>
	</g>
</g>
<path class="st1" d="M165.7,569.4H23c-9.3,0-16.9-8.2-16.9-18.5l0,0c0-10.2,7.5-18.5,16.9-18.5h142.6c9.3,0,16.9,8.2,16.9,18.5l0,0
	C182.6,561.2,175,569.4,165.7,569.4z"/>
<g class="st20">
	<path class="st9" d="M33.9,559.4h-1.6v-15.6h1.8l5.3,12.6l0,0l5.3-12.6h1.8v15.6h-1.6v-11.6h-0.1l-4.5,10.4h-1.6l-4.5-10.4h-0.1
		L33.9,559.4L33.9,559.4z"/>
	<path class="st9" d="M60.3,547.3v12.1h-1.8v-1.9h-0.1c-0.1,0.6-0.6,1-1.1,1.5c-0.6,0.5-1.4,0.6-2.4,0.6c-1.4,0-2.3-0.3-3-0.9
		c-0.8-0.6-1-1.6-1-2.9v-8.3h1.8v7.9c0,1.8,0.9,2.6,2.6,2.6c0.9,0,1.6-0.3,2.4-0.9c0.6-0.6,0.9-1.4,0.9-2.1v-7.8L60.3,547.3
		L60.3,547.3z"/>
	<path class="st9" d="M64.5,559.4V543h1.8v16.4H64.5z"/>
	<path class="st9" d="M71.2,547.3v-3H73v3h2.6v1.5H73v7.2c0,0.5,0,0.9,0.1,1.1c0.1,0.3,0.3,0.5,0.6,0.6c0.3,0.1,0.8,0.1,1.1,0.1
		c0.3,0,0.6,0,0.9,0v1.5c-0.3,0-0.8,0.1-1.4,0.1c-0.8,0-1.1,0-1.6-0.1s-0.8-0.3-1-0.6c-0.3-0.3-0.5-0.6-0.5-1
		c-0.1-0.5-0.1-0.9-0.1-1.5V549h-1.8v-1.5L71.2,547.3L71.2,547.3z"/>
	<path class="st9" d="M79,543.5c0-0.5,0.1-0.8,0.5-0.9c0.3-0.1,0.6-0.5,0.9-0.5c0.5,0,0.8,0.1,0.9,0.5c0.3,0.3,0.5,0.6,0.5,0.9
		s0,0.5-0.1,0.8c-0.1,0.3-0.3,0.3-0.5,0.5c-0.1,0.1-0.5,0.1-0.8,0.1c-0.5,0-0.8-0.1-0.9-0.5C79.1,544.3,79,544,79,543.5z
		 M79.4,559.4v-12.1h1.8v12.1H79.4z"/>
	<path class="st9" d="M92.1,553.7h-7.2v-1.6h7.2V553.7z"/>
	<path class="st9" d="M99.9,547.2c1.5,0,2.6,0.5,3.8,1.4c1,0.9,1.5,2.3,1.5,3.9v1.9c0,1.6-0.5,3-1.5,3.9c-0.9,0.9-2.3,1.4-3.8,1.4
		s-2.6-0.5-3.8-1.4c-0.9-0.9-1.4-2.3-1.4-3.9v-1.9c0-1.6,0.5-2.9,1.5-3.9C97.1,547.6,98.4,547.2,99.9,547.2z M96.6,552.7v1.5
		c0,0.8,0.1,1.5,0.5,2.1c0.3,0.6,0.6,1,1.1,1.4c0.5,0.3,1,0.5,1.8,0.5c1,0,1.8-0.3,2.4-1c0.6-0.8,0.9-1.6,0.9-2.9v-1.5
		c0-1.1-0.3-2.1-0.9-2.9c-0.6-0.8-1.4-1-2.4-1s-1.8,0.3-2.4,1C96.8,550.6,96.6,551.5,96.6,552.7z"/>
	<path class="st9" d="M108.7,559.4v-12.1h1.8v1.9h0.1c0.5-1.4,1.5-2.1,3.3-2.1c0.5,0,0.9,0,1.1,0.1c0.5,0.1,0.8,0.3,1,0.5
		c0.3,0.1,0.5,0.5,0.8,0.8c0.1,0.3,0.3,0.6,0.5,0.9h0.1c0.3-0.6,0.8-1.1,1.4-1.6c0.6-0.5,1.4-0.6,2.3-0.6c1.1,0,2.3,0.3,3,0.9
		c0.8,0.6,1,1.6,1,2.9v8.5h-1.8v-8c0-0.8-0.1-1.4-0.6-1.9s-1-0.8-1.9-0.8c-0.8,0-1.5,0.3-1.9,0.9c-0.6,0.6-0.8,1.1-0.8,2.1v7.8h-1.8
		v-7.9c0-0.8-0.3-1.5-0.8-1.9c-0.5-0.5-1.1-0.8-1.9-0.8s-1.5,0.3-1.9,0.8c-0.6,0.6-0.8,1.1-0.8,2.1v7.8L108.7,559.4L108.7,559.4z"/>
	<path class="st9" d="M128.8,543.5c0-0.5,0.1-0.8,0.5-0.9c0.3-0.1,0.6-0.5,0.9-0.5c0.5,0,0.8,0.1,0.9,0.5c0.3,0.3,0.5,0.6,0.5,0.9
		s0,0.5-0.1,0.8c-0.1,0.1-0.3,0.3-0.5,0.5c-0.1,0.1-0.5,0.1-0.8,0.1c-0.5,0-0.8-0.1-0.9-0.5C128.9,544.3,128.8,544,128.8,543.5z
		 M129.2,559.4v-12.1h1.8v12.1H129.2z"/>
	<path class="st9" d="M135.1,554.5v-2.1c0-1.6,0.5-2.9,1.4-3.8s2.1-1.4,3.5-1.4s2.5,0.3,3.3,1c0.8,0.8,1.1,1.5,1.1,2.4h-1.8
		c0-0.1-0.1-0.5-0.1-0.6c-0.1-0.1-0.3-0.5-0.5-0.6s-0.5-0.5-0.9-0.6c-0.5-0.1-0.8-0.1-1.1-0.1c-1,0-1.8,0.3-2.4,0.9
		c-0.6,0.6-0.8,1.5-0.8,2.6v2.1c0,0.8,0.1,1.4,0.5,1.8c0.3,0.6,0.6,0.9,1,1.1c0.5,0.3,1,0.5,1.6,0.5c1.6,0,2.5-0.6,2.9-1.6h1.8
		c0,0.9-0.5,1.6-1.1,2.4c-0.8,0.8-1.9,1-3.3,1c-1.5,0-2.6-0.5-3.5-1.4C135.4,557.2,135.1,556,135.1,554.5z"/>
	<path class="st9" d="M147.3,550.7c0-1.1,0.5-2.1,1.1-2.6c0.9-0.6,1.9-0.9,3.1-0.9c0.6,0,1.1,0.1,1.8,0.3c0.6,0.1,0.9,0.5,1.4,0.8
		c0.3,0.3,0.6,0.6,0.9,1c0.1,0.5,0.3,0.9,0.3,1.4h-1.6c0-0.3-0.1-0.6-0.3-0.9c-0.1-0.3-0.5-0.5-0.9-0.8c-0.5-0.1-0.9-0.3-1.4-0.3
		s-0.9,0.1-1.4,0.1c-0.5,0.1-0.8,0.3-0.9,0.6c-0.1,0.3-0.3,0.6-0.3,1c0,0.3,0,0.6,0.1,0.8c0.1,0.1,0.3,0.3,0.5,0.5
		c0.2,0.2,0.3,0.1,0.6,0.3c0.2,0.2,0.6,0.1,0.8,0.1s0.5,0.1,0.8,0.1c0,0,0,0,0.1,0c0,0,0,0,0.1,0s0,0,0.1,0c0.5,0,0.8,0.1,1,0.1
		c0.3,0.1,0.6,0.1,1,0.3c0.3,0.1,0.6,0.3,0.9,0.5c0.3,0.2,0.5,0.3,0.6,0.6c0.1,0.3,0.3,0.5,0.5,0.8c0.1,0.3,0.1,0.6,0.1,1
		c0,1.1-0.5,2.1-1.4,2.6c-0.9,0.6-1.9,1-3.4,1c-1.4,0-2.4-0.3-3.1-0.9c-0.8-0.6-1.1-1.4-1.1-2.4h1.8c0.1,1.1,1,1.8,2.6,1.8
		c0.6,0,1.1-0.1,1.6-0.3c0.5-0.1,0.8-0.5,0.9-0.8c0.1-0.3,0.3-0.6,0.3-1c0-0.3,0-0.5-0.1-0.8c-0.1-0.1-0.3-0.3-0.5-0.5
		c-0.2-0.2-0.5-0.3-0.8-0.3c-0.3-0.1-0.6-0.1-0.8-0.3c-0.1,0-0.6-0.1-0.9-0.1c-0.6-0.1-1-0.1-1.4-0.3c-0.3-0.1-0.8-0.1-1-0.5
		c-0.5-0.1-0.8-0.3-0.9-0.6c-0.1-0.1-0.5-0.5-0.6-0.9C147.4,551.6,147.3,551.3,147.3,550.7z"/>
</g>
<path class="st5" d="M723.3,569.4H538.2c-9.7,0-17.7-8.2-17.7-18.5l0,0c0-10.2,7.8-18.5,17.7-18.5h185c9.7,0,17.7,8.2,17.7,18.5l0,0
	C740.9,561.2,733.1,569.4,723.3,569.4z"/>
<g class="st20">
	<path class="st9" d="M548.3,555.2h1.8c0.1,0.9,0.5,1.5,1.1,2.1c0.8,0.6,1.6,0.8,2.9,0.8c1,0,1.9-0.3,2.6-0.8c0.8-0.5,1-1.1,1-2.1
		c0-0.6-0.1-1.1-0.6-1.6s-1-0.8-1.9-0.9l-2.9-0.8c-1-0.3-1.9-0.8-2.5-1.4c-0.8-0.6-1-1.5-1-2.6c0-0.9,0.3-1.8,0.8-2.4
		c0.6-0.8,1.1-1.1,1.9-1.5c0.8-0.3,1.6-0.5,2.5-0.5c0.8,0,1.4,0.1,1.9,0.3c0.6,0.1,1.1,0.5,1.6,0.8c0.6,0.3,0.9,0.8,1.1,1.4
		c0.3,0.6,0.5,1.1,0.5,1.9h-1.8c-0.1-0.9-0.5-1.5-1-1.9c-0.6-0.5-1.5-0.8-2.5-0.8s-1.8,0.3-2.5,0.8c-0.6,0.5-0.9,1.1-0.9,1.9
		c0,1.1,0.8,1.9,2.3,2.4l2.6,0.8c1.4,0.3,2.3,0.9,3,1.5c0.8,0.6,1,1.5,1,2.6c0,1.5-0.6,2.6-1.6,3.4c-1,0.8-2.5,1.1-4.2,1.1
		c-0.9,0-1.8-0.1-2.5-0.5s-1.4-0.6-1.8-1c-0.5-0.5-0.8-0.9-0.9-1.5C548.5,556.3,548.3,555.8,548.3,555.2z"/>
	<path class="st9" d="M567.6,559.5c-1.6,0-2.9-0.5-3.8-1.4c-0.9-0.9-1.4-2.3-1.4-3.9v-1.9c0-1.6,0.5-2.9,1.4-3.8
		c0.9-0.9,2.1-1.5,3.5-1.5c1.5,0,2.6,0.5,3.5,1.5c0.9,0.9,1.4,2.3,1.4,3.8v1.5h-7.9v0.6c0,1,0.3,1.8,0.9,2.5c0.6,0.6,1.4,1,2.4,1
		c0.8,0,1.4-0.1,1.8-0.5c0.5-0.3,0.8-0.6,0.9-1h1.9c0,0.3-0.1,0.8-0.5,1c-0.1,0.3-0.5,0.6-0.9,1c-0.5,0.5-0.9,0.6-1.4,0.8
		C568.9,559.5,568.3,559.5,567.6,559.5z M564.4,552.5h6.1v-0.1c0-0.8-0.1-1.4-0.5-1.8c-0.3-0.6-0.6-0.9-1-1.1
		c-0.5-0.3-1-0.5-1.6-0.5c-0.9,0-1.6,0.3-2.3,0.9C564.5,550.5,564.3,551.4,564.4,552.5L564.4,552.5L564.4,552.5z"/>
	<path class="st9" d="M582.8,559.4l-3-4.6l0,0l-3,4.6h-2.1l4-5.9l-4-6.1h2.3l2.9,4.6l0,0l3-4.6h2.1l-4,5.8l4.2,6.1L582.8,559.4
		L582.8,559.4z"/>
	<path class="st9" d="M597.4,547.2c0.9,0,1.6,0.1,2.3,0.6c0.6,0.5,1,0.9,1.1,1.4h0.1v-6.1h1.8v16.4h-1.5v-1.9h-0.1
		c-0.1,0.6-0.6,1-1.1,1.5c-0.6,0.5-1.5,0.6-2.4,0.6c-1.4,0-2.5-0.5-3.3-1.4c-0.9-0.9-1.4-2.1-1.4-3.5v-2.5c0-1.5,0.5-2.6,1.4-3.5
		C594.8,547.6,595.8,547.2,597.4,547.2z M597.5,548.8c-1,0-1.8,0.3-2.3,1c-0.5,0.8-0.9,1.6-0.9,2.9v1.6c0,1.1,0.3,2.1,0.9,2.9
		c0.6,0.6,1.4,1,2.4,1s1.8-0.3,2.4-0.9c0.6-0.6,0.9-1.5,0.9-2.6v-2.3c0-0.9-0.3-1.8-0.9-2.4C599.2,549.1,598.6,548.8,597.5,548.8z"
		/>
	<path class="st9" d="M606.8,543.6c0-0.5,0.1-0.8,0.5-0.9c0.3-0.1,0.6-0.5,0.9-0.5c0.5,0,0.8,0.1,0.9,0.5c0.3,0.3,0.5,0.6,0.5,0.9
		s0,0.5-0.1,0.8s-0.3,0.3-0.5,0.5c-0.1,0.1-0.5,0.1-0.8,0.1c-0.5,0-0.8-0.1-0.9-0.5C606.9,544.3,606.8,544.1,606.8,543.6z
		 M607.2,559.4v-12.1h1.8v12.1H607.2z"/>
	<path class="st9" d="M614.7,559.4V549h-2.1v-1.5h2.1v-1.1c0-1.1,0.3-1.9,0.9-2.5c0.6-0.6,1.5-0.8,2.9-0.8c0.5,0,0.9,0,1.4,0.1v1.5
		c-0.3,0-0.6,0-1,0c-0.8,0-1.4,0.1-1.6,0.5c-0.3,0.3-0.5,0.8-0.5,1.5v1h2.9v1.5h-2.9v10.4L614.7,559.4L614.7,559.4z"/>
	<path class="st9" d="M623.6,559.4V549h-2.1v-1.5h2.1v-1.1c0-1.1,0.3-1.9,0.9-2.5c0.6-0.6,1.5-0.8,2.9-0.8c0.5,0,0.9,0,1.4,0.1v1.5
		c-0.3,0-0.6,0-1,0c-0.8,0-1.4,0.1-1.6,0.5c-0.3,0.3-0.5,0.8-0.5,1.5v1h2.9v1.5h-2.9v10.4L623.6,559.4L623.6,559.4z"/>
	<path class="st9" d="M636.1,559.5c-1.6,0-2.9-0.5-3.8-1.4c-0.9-0.9-1.4-2.3-1.4-3.9v-1.9c0-1.6,0.5-2.9,1.4-3.8
		c0.9-0.9,2.1-1.5,3.5-1.5s2.6,0.5,3.5,1.5c0.9,0.9,1.4,2.3,1.4,3.8v1.5h-7.9v0.6c0,1,0.3,1.8,0.9,2.5c0.6,0.6,1.4,1,2.4,1
		c0.8,0,1.4-0.1,1.8-0.5c0.5-0.3,0.8-0.6,0.9-1h1.9c0,0.3-0.1,0.8-0.5,1c-0.1,0.3-0.5,0.6-0.9,1c-0.5,0.5-0.9,0.6-1.4,0.8
		C637.5,559.5,636.7,559.5,636.1,559.5z M632.8,552.5h6.1v-0.1c0-0.8-0.1-1.4-0.5-1.8c-0.3-0.6-0.6-0.9-1-1.1
		c-0.5-0.3-1-0.5-1.6-0.5c-0.9,0-1.6,0.3-2.3,0.9C632.9,550.5,632.7,551.4,632.8,552.5L632.8,552.5L632.8,552.5z"/>
	<path class="st9" d="M644.6,559.4v-12.1h1.8v1.9h0.1c0.1-0.6,0.6-1,1-1.5c0.6-0.5,1.4-0.6,2.3-0.6c0.1,0,0.5,0,0.8,0v1.6
		c-0.1,0-0.5,0-0.9,0c-0.8,0-1.4,0.1-1.8,0.5c-0.5,0.3-0.9,0.6-1,1c-0.1,0.5-0.3,0.9-0.3,1.5v7.7L644.6,559.4L644.6,559.4z"/>
	<path class="st9" d="M657.7,559.5c-1.6,0-2.9-0.5-3.8-1.4c-0.9-0.9-1.4-2.3-1.4-3.9v-1.9c0-1.6,0.5-2.9,1.4-3.8
		c0.9-0.9,2.1-1.5,3.5-1.5s2.6,0.5,3.5,1.5c0.9,0.9,1.4,2.3,1.4,3.8v1.5h-7.9v0.6c0,1,0.3,1.8,0.9,2.5c0.6,0.6,1.4,1,2.4,1
		c0.8,0,1.4-0.1,1.8-0.5c0.5-0.3,0.8-0.6,0.9-1h1.9c0,0.3-0.1,0.8-0.5,1c-0.1,0.3-0.5,0.6-0.9,1c-0.5,0.5-0.9,0.6-1.4,0.8
		C659.1,559.5,658.4,559.5,657.7,559.5z M654.6,552.5h6.1v-0.1c0-0.8-0.1-1.4-0.5-1.8c-0.3-0.6-0.6-0.9-1-1.1
		c-0.5-0.3-1-0.5-1.6-0.5c-0.9,0-1.6,0.3-2.3,0.9C654.7,550.5,654.4,551.4,654.6,552.5L654.6,552.5L654.6,552.5z"/>
	<path class="st9" d="M666,559.4v-12.1h1.8v2.3h0.1c0.5-1.6,1.8-2.4,3.8-2.4c1.1,0,2.3,0.3,3,1c0.8,0.8,1,1.6,1,3v8.2h-1.8v-7.8
		c0-0.9-0.3-1.6-0.8-2.3c-0.5-0.5-1.1-0.8-1.9-0.8c-1,0-1.9,0.3-2.5,1c-0.6,0.8-0.9,1.6-0.9,2.9v6.7H666L666,559.4L666,559.4
		L666,559.4z"/>
	<path class="st9" d="M679.2,554.5v-2.1c0-1.6,0.5-2.9,1.4-3.8c0.9-0.9,2.1-1.4,3.5-1.4s2.5,0.3,3.3,1c0.8,0.8,1.1,1.5,1.1,2.4h-1.8
		c0-0.1-0.1-0.5-0.1-0.6c-0.1-0.1-0.3-0.5-0.5-0.6c-0.1-0.1-0.5-0.5-0.9-0.6c-0.5-0.1-0.8-0.1-1.1-0.1c-1,0-1.8,0.3-2.4,0.9
		c-0.6,0.6-0.8,1.5-0.8,2.6v2.1c0,0.8,0.1,1.4,0.5,1.8c0.3,0.6,0.6,0.9,1,1.1c0.5,0.3,1,0.5,1.6,0.5c1.6,0,2.5-0.6,2.9-1.6h1.8
		c0,0.9-0.5,1.6-1.1,2.4c-0.8,0.8-1.9,1-3.3,1c-1.5,0-2.6-0.5-3.5-1.4C679.6,557.3,679.2,556,679.2,554.5z"/>
	<path class="st9" d="M696.4,559.5c-1.6,0-2.9-0.5-3.8-1.4c-0.9-0.9-1.4-2.3-1.4-3.9v-1.9c0-1.6,0.5-2.9,1.4-3.8
		c0.9-0.9,2.1-1.5,3.5-1.5c1.5,0,2.6,0.5,3.5,1.5c0.9,0.9,1.4,2.3,1.4,3.8v1.5h-8v0.6c0,1,0.3,1.8,0.9,2.5c0.6,0.6,1.4,1,2.4,1
		c0.8,0,1.4-0.1,1.8-0.5c0.5-0.3,0.8-0.6,0.9-1h1.9c0,0.3-0.1,0.8-0.5,1c-0.1,0.3-0.5,0.6-0.9,1c-0.5,0.5-0.9,0.6-1.4,0.8
		C697.8,559.5,697.2,559.5,696.4,559.5z M693.3,552.5h6.1v-0.1c0-0.8-0.1-1.4-0.5-1.8c-0.3-0.6-0.6-0.9-1-1.1
		c-0.5-0.3-1-0.5-1.6-0.5c-0.9,0-1.6,0.3-2.3,0.9C693.5,550.5,693.1,551.4,693.3,552.5L693.3,552.5L693.3,552.5z"/>
	<path class="st9" d="M704.2,550.7c0-1.1,0.5-2.1,1.1-2.6c0.9-0.6,1.9-0.9,3.1-0.9c0.6,0,1.1,0.1,1.8,0.3s0.9,0.5,1.4,0.8
		c0.3,0.3,0.6,0.6,0.9,1c0.1,0.5,0.3,0.9,0.3,1.4h-1.6c0-0.3-0.1-0.6-0.3-0.9c-0.1-0.3-0.5-0.5-0.9-0.8c-0.5-0.1-0.9-0.3-1.4-0.3
		s-0.9,0.1-1.4,0.1c-0.5,0.1-0.8,0.3-0.9,0.6c-0.1,0.3-0.3,0.6-0.3,1c0,0.3,0,0.6,0.1,0.8c0.1,0.1,0.3,0.3,0.5,0.5
		c0.1,0.1,0.3,0.1,0.6,0.3c0.3,0.1,0.6,0.1,0.8,0.1s0.5,0.1,0.8,0.1c0,0,0,0,0.1,0c0,0,0,0,0.1,0s0,0,0.1,0c0.5,0,0.8,0.1,1,0.1
		c0.3,0.1,0.6,0.1,1,0.3c0.3,0.1,0.6,0.3,0.9,0.5s0.5,0.3,0.6,0.6s0.3,0.5,0.5,0.8c0.1,0.3,0.1,0.6,0.1,1c0,1.1-0.5,2.1-1.4,2.6
		c-0.9,0.6-1.9,1-3.4,1c-1.4,0-2.4-0.3-3.1-0.9c-0.8-0.6-1.1-1.4-1.1-2.4h1.8c0.1,1.1,1,1.8,2.6,1.8c0.6,0,1.1-0.1,1.6-0.3
		c0.5-0.1,0.8-0.5,0.9-0.8c0.1-0.3,0.3-0.6,0.3-1c0-0.3,0-0.5-0.1-0.8c-0.1-0.1-0.3-0.3-0.5-0.5c-0.1-0.1-0.5-0.3-0.8-0.3
		c-0.3-0.1-0.6-0.1-0.8-0.3c-0.1,0-0.6-0.1-0.9-0.1c-0.6-0.1-1-0.1-1.4-0.3c-0.3-0.2-0.8-0.1-1-0.5c-0.5-0.1-0.8-0.3-0.9-0.6
		c-0.1-0.1-0.5-0.5-0.6-0.9C704.2,551.6,704.2,551.4,704.2,550.7z"/>
</g>
<g>
	<path class="st5" d="M244.8,38.6H24.6c-10.2,0-18.5-8.2-18.5-18.5l0,0c0-10.2,8.2-18.5,18.5-18.5h220.2c10.2,0,18.5,8.2,18.5,18.5
		l0,0C263.3,30.4,254.9,38.6,244.8,38.6z"/>
	<g class="st20">
		<path class="st9" d="M33.1,22.4h1.8c0.1,0.9,0.5,1.5,1.1,2.1c0.8,0.6,1.6,0.8,2.9,0.8c1,0,1.9-0.3,2.6-0.8c0.8-0.5,1-1.1,1-2.1
			c0-0.6-0.1-1.1-0.6-1.6s-1-0.8-1.9-0.9l-3-0.8c-1-0.3-1.9-0.8-2.5-1.4c-0.8-0.6-1-1.5-1-2.6c0-0.9,0.3-1.8,0.8-2.4
			s1.1-1.1,1.9-1.5c0.8-0.3,1.6-0.5,2.5-0.5c0.8,0,1.4,0.1,1.9,0.3c0.6,0.1,1.1,0.5,1.6,0.8c0.6,0.3,0.9,0.8,1.1,1.4
			c0.3,0.6,0.5,1.1,0.5,1.9h-1.7c-0.1-0.9-0.5-1.5-1-1.9s-1.5-0.8-2.5-0.8s-1.8,0.3-2.5,0.8c-0.6,0.5-0.9,1.1-0.9,1.9
			c0,1.1,0.8,1.9,2.3,2.4l2.6,0.8c1.4,0.3,2.3,0.9,3,1.5s1,1.5,1,2.6c0,1.5-0.6,2.6-1.6,3.4s-2.5,1.1-4.2,1.1
			c-0.9,0-1.8-0.1-2.5-0.5c-0.7-0.3-1.4-0.6-1.8-1c-0.5-0.5-0.8-0.9-0.9-1.5C33.2,23.4,33.1,23,33.1,22.4z"/>
		<path class="st9" d="M48.4,14.4v-3h1.8v3h2.6v1.5h-2.6v7.2c0,0.5,0,0.9,0.1,1.1c0.1,0.3,0.3,0.5,0.6,0.6s0.8,0.1,1.1,0.1
			s0.6,0,0.9,0v1.5c-0.3,0-0.8,0.1-1.4,0.1c-0.8,0-1.1,0-1.6-0.1s-0.8-0.3-1-0.6c-0.2-0.2-0.5-0.6-0.5-1s-0.1-0.9-0.1-1.5v-7.2h-1.8
			v-1.5L48.4,14.4L48.4,14.4z"/>
		<path class="st9" d="M59.5,26.6c-0.6,0-1-0.1-1.6-0.3c-0.5-0.1-0.9-0.5-1.1-0.8c-0.2-0.3-0.6-0.8-0.8-1.1
			c-0.1-0.5-0.3-0.9-0.3-1.5c0-0.8,0.1-1.4,0.5-1.8c0.3-0.6,0.8-0.9,1.5-1.1c0.6-0.3,1.4-0.5,2.3-0.5h3.3v-1.1
			c0-0.8-0.3-1.4-0.8-1.8C62,16.1,61.4,16,60.6,16c-1.4,0-2.3,0.5-2.5,1.5h-1.8c0.1-1,0.6-1.8,1.4-2.3c0.8-0.6,1.8-0.8,3.1-0.8
			c1.4,0,2.4,0.3,3.1,0.9c0.9,0.6,1.1,1.6,1.1,3v8.2h-2v-1.6l0,0C62.4,26.1,61.3,26.6,59.5,26.6z M60,25.1c0.9,0,1.6-0.3,2.3-0.8
			c0.6-0.6,0.9-1.1,0.9-1.9v-1.3h-3.1c-0.9,0-1.5,0.1-1.8,0.6s-0.6,0.9-0.6,1.5c0,0.8,0.3,1.1,0.8,1.6C58.9,25,59.4,25.1,60,25.1z"
			/>
		<path class="st9" d="M69.7,14.4v-3h1.8v3h2.6v1.5h-2.6v7.2c0,0.5,0,0.9,0.1,1.1c0.1,0.3,0.3,0.5,0.6,0.6s0.8,0.1,1.1,0.1
			c0.3,0,0.6,0,0.9,0v1.5c-0.3,0-0.8,0.1-1.4,0.1c-0.8,0-1.1,0-1.6-0.1s-0.8-0.3-1-0.6c-0.3-0.3-0.5-0.6-0.5-1s-0.1-0.9-0.1-1.5
			v-7.2h-1.8v-1.5L69.7,14.4L69.7,14.4z"/>
		<path class="st9" d="M77.6,10.7c0-0.5,0.1-0.8,0.5-0.9c0.3-0.3,0.6-0.5,0.9-0.5c0.5,0,0.8,0.1,0.9,0.5c0.3,0.1,0.5,0.6,0.5,0.9
			s0,0.5-0.1,0.8c-0.1,0.1-0.3,0.3-0.5,0.5c-0.1,0.1-0.5,0.1-0.8,0.1c-0.5,0-0.8-0.1-0.9-0.5C77.6,11.4,77.6,11.2,77.6,10.7z
			 M78,26.5V14.4h1.8v12.1H78z"/>
		<path class="st9" d="M83.8,17.8c0-1.1,0.5-2.1,1.1-2.6c0.9-0.6,1.9-0.9,3.1-0.9c0.6,0,1.1,0.1,1.8,0.3c0.6,0.1,0.9,0.5,1.4,0.8
			c0.3,0.3,0.6,0.6,0.9,1c0.1,0.5,0.3,0.9,0.3,1.4h-1.6c0-0.3-0.1-0.6-0.3-0.9s-0.5-0.5-0.9-0.8c-0.5-0.1-0.9-0.3-1.4-0.3
			s-0.9,0.1-1.4,0.1c-0.5,0.1-0.8,0.3-0.9,0.6s-0.3,0.6-0.3,1c0,0.3,0,0.6,0.1,0.8c0.1,0.1,0.3,0.3,0.5,0.5c0.1,0.1,0.3,0.1,0.6,0.3
			c0.3,0.1,0.6,0.1,0.8,0.1c0.1,0,0.5,0.1,0.8,0.1c0,0,0,0,0.1,0c0,0,0,0,0.1,0c0,0,0,0,0.1,0c0.5,0,0.8,0.1,1,0.1
			c0.3,0.1,0.6,0.1,1,0.3c0.3,0.1,0.6,0.3,0.9,0.5c0.3,0.1,0.5,0.3,0.6,0.6c0.1,0.3,0.3,0.5,0.5,0.8c0.1,0.3,0.1,0.6,0.1,1
			c0,1.1-0.5,2.1-1.4,2.6c-0.9,0.6-1.9,1-3.4,1c-1.4,0-2.4-0.3-3.1-0.9c-0.8-0.6-1.1-1.4-1.1-2.4h1.8c0.1,1.1,1,1.8,2.6,1.8
			c0.6,0,1.1-0.1,1.6-0.3c0.5-0.1,0.8-0.5,0.9-0.8s0.3-0.6,0.3-1c0-0.3,0-0.5-0.1-0.8c-0.1-0.1-0.3-0.3-0.5-0.5c0,0-0.4-0.3-0.7-0.3
			c-0.6,0.3-0.9,0.1-1,0.1S88.1,21,87.8,21c-0.6-0.1-1-0.1-1.4-0.3c-0.3-0.1-0.8-0.1-1-0.5c-0.5-0.1-0.8-0.3-0.9-0.6
			c-0.1-0.1-0.5-0.5-0.6-0.9C83.8,18.7,83.8,18.3,83.8,17.8z"/>
		<path class="st9" d="M96.7,14.4v-3h1.8v3h2.6v1.5h-2.6v7.2c0,0.5,0,0.9,0.1,1.1c0.1,0.3,0.3,0.5,0.6,0.6c0.3,0.1,0.8,0.1,1.1,0.1
			c0.3,0,0.6,0,0.9,0v1.5c-0.3,0-0.8,0.1-1.4,0.1c-0.8,0-1.1,0-1.6-0.1s-0.8-0.3-1-0.6c-0.3-0.3-0.5-0.6-0.5-1
			c-0.1-0.5-0.1-0.9-0.1-1.5v-7.2h-1.8v-1.5L96.7,14.4L96.7,14.4z"/>
		<path class="st9" d="M104.5,10.7c0-0.5,0.1-0.8,0.5-0.9c0.3-0.3,0.6-0.5,0.9-0.5c0.5,0,0.8,0.1,0.9,0.5c0.3,0.3,0.5,0.6,0.5,0.9
			s0,0.5-0.1,0.8c-0.1,0.1-0.3,0.3-0.5,0.5c-0.1,0.1-0.5,0.1-0.8,0.1c-0.5,0-0.8-0.1-0.9-0.5C104.8,11.4,104.5,11.2,104.5,10.7z
			 M105,26.5V14.4h1.8v12.1H105z"/>
		<path class="st9" d="M110.7,21.6v-2.1c0-1.6,0.5-2.9,1.4-3.8s2.1-1.4,3.5-1.4s2.5,0.3,3.3,1c0.8,0.8,1.1,1.5,1.1,2.4h-1.8
			c0-0.1-0.1-0.5-0.1-0.6c-0.1-0.1-0.3-0.5-0.5-0.6c-0.1-0.1-0.5-0.5-0.9-0.6c-0.3-0.1-0.8-0.1-1.1-0.1c-1,0-1.8,0.3-2.4,0.9
			s-0.8,1.5-0.8,2.6v2.1c0,0.8,0.1,1.4,0.5,1.8c0.3,0.6,0.6,0.9,1,1.1c0.5,0.3,1,0.5,1.6,0.5c1.6,0,2.5-0.6,2.9-1.6h1.8
			c0,0.9-0.5,1.6-1.1,2.4c-0.8,0.8-1.9,1-3.3,1c-1.5,0-2.6-0.5-3.5-1.4C111.2,24.5,110.7,23.1,110.7,21.6z"/>
		<path class="st9" d="M126.8,26.6c-0.6,0-1-0.1-1.6-0.3c-0.5-0.1-0.9-0.5-1.1-0.8c-0.3-0.3-0.6-0.8-0.8-1.1
			c-0.1-0.5-0.3-0.9-0.3-1.5c0-0.8,0.1-1.4,0.5-1.8c0.3-0.6,0.8-0.9,1.5-1.1c0.6-0.3,1.4-0.5,2.3-0.5h3.3v-1.1
			c0-0.8-0.3-1.4-0.8-1.8s-1.1-0.6-1.9-0.6c-1.4,0-2.3,0.5-2.5,1.5h-1.8c0.1-1,0.6-1.8,1.4-2.3c0.8-0.6,1.8-0.8,3.1-0.8
			c1.4,0,2.4,0.3,3.1,0.9c0.9,0.6,1.1,1.6,1.1,3v8.2h-1.8v-1.6l0,0C129.7,26.1,128.4,26.6,126.8,26.6z M127.3,25.1
			c0.9,0,1.6-0.3,2.3-0.8c0.6-0.6,0.9-1.1,0.9-1.9v-1.3h-3.1c-0.9,0-1.5,0.1-1.8,0.6c-0.5,0.3-0.6,0.9-0.6,1.5
			c0,0.8,0.3,1.1,0.8,1.6C126,25,126.6,25.1,127.3,25.1z"/>
		<path class="st9" d="M136.3,26.5V10.2h1.8v16.4L136.3,26.5L136.3,26.5z"/>
		<path class="st9" d="M151.9,29.4c1,0,1.9-0.3,2.5-0.9s0.9-1.4,0.9-2.4v-1.6h-0.1c-0.1,0.3-0.5,0.6-0.8,0.9s-0.8,0.5-1.1,0.8
			c-0.5,0.1-0.9,0.3-1.5,0.3c-0.9,0-1.6-0.1-2.4-0.6c-0.8-0.5-1.4-0.9-1.8-1.8c-0.5-0.8-0.6-1.6-0.6-2.6v-2.1c0-0.8,0.1-1.5,0.5-2.1
			s0.6-1.1,1-1.6s0.9-0.8,1.5-1c0.6-0.3,1.1-0.3,1.9-0.3c0.9,0,1.6,0.1,2.3,0.6c0.6,0.5,1,0.9,1.4,1.4h0.1v-2.1h1.6v11.8
			c0,1.6-0.5,2.9-1.4,3.5c-0.9,0.8-2.3,1.1-3.9,1.1c-1.5,0-2.5-0.3-3.3-0.9s-1.1-1.4-1.4-2.3h1.9c0.1,0.5,0.5,0.9,0.9,1.1
			C150.5,29.2,151,29.4,151.9,29.4z M152.2,15.9c-0.5,0-1,0.1-1.4,0.3c-0.5,0.1-0.8,0.5-1,0.8c-0.3,0.3-0.5,0.8-0.6,1.1
			c-0.1,0.5-0.1,1-0.1,1.6v1.1c0,1.1,0.3,2.1,0.9,2.6c0.6,0.8,1.5,1,2.4,1s1.8-0.3,2.3-1c0.6-0.6,0.9-1.5,0.9-2.4v-1.9
			c0-0.9-0.3-1.8-0.9-2.4C153.8,16.2,153,15.9,152.2,15.9z"/>
		<path class="st9" d="M165.4,26.6c-1.6,0-2.9-0.5-3.8-1.4c-0.9-0.9-1.4-2.3-1.4-3.9v-1.9c0-1.6,0.5-2.9,1.4-3.8s2.1-1.5,3.5-1.5
			c1.5,0,2.6,0.5,3.5,1.5s1.4,2.3,1.4,3.8v1.5h-7.9v0.6c0,1,0.3,1.8,0.9,2.5c0.6,0.6,1.4,1,2.4,1c0.8,0,1.4-0.1,1.8-0.5
			c0.5-0.3,0.8-0.6,0.9-1h1.9c0,0.3-0.1,0.8-0.5,1c-0.1,0.3-0.5,0.6-0.9,1c-0.3,0.3-0.9,0.6-1.4,0.8
			C166.7,26.6,166.1,26.6,165.4,26.6z M162.2,19.7h6.1v-0.1c0-0.8-0.1-1.4-0.5-1.8c-0.3-0.6-0.6-0.9-1-1.1c-0.5-0.3-1-0.5-1.6-0.5
			c-0.9,0-1.6,0.3-2.3,0.9s-0.9,1.5-0.9,2.5L162.2,19.7L162.2,19.7z"/>
		<path class="st9" d="M173.7,26.5V14.4h1.8v2.3h0.1c0.5-1.6,1.8-2.4,3.8-2.4c1.1,0,2.3,0.3,3,1s1,1.6,1,3v8.2h-1.8v-7.8
			c0-0.9-0.3-1.6-0.8-2.3c-0.5-0.5-1.1-0.8-1.9-0.8c-1,0-1.9,0.3-2.5,1c-0.6,0.8-0.9,1.6-0.9,2.9v6.7L173.7,26.5L173.7,26.5z"/>
		<path class="st9" d="M191.9,26.6c-1.6,0-2.9-0.5-3.8-1.4c-0.9-0.9-1.4-2.3-1.4-3.9v-1.9c0-1.6,0.5-2.9,1.4-3.8s2.1-1.5,3.5-1.5
			c1.5,0,2.6,0.5,3.5,1.5c0.9,0.9,1.4,2.3,1.4,3.8v1.5h-7.9v0.6c0,1,0.3,1.8,0.9,2.5c0.6,0.6,1.4,1,2.4,1c0.8,0,1.4-0.1,1.8-0.5
			c0.5-0.3,0.8-0.6,0.9-1h1.9c0,0.3-0.1,0.8-0.5,1c-0.1,0.3-0.5,0.6-0.9,1c-0.5,0.5-0.9,0.6-1.4,0.8
			C193.3,26.6,192.6,26.6,191.9,26.6z M188.6,19.7h6.1v-0.1c0-0.8-0.1-1.4-0.5-1.8c-0.3-0.6-0.6-0.9-1-1.1s-1-0.5-1.6-0.5
			c-0.9,0-1.6,0.3-2.3,0.9c-0.6,0.6-0.9,1.5-0.9,2.5L188.6,19.7L188.6,19.7z"/>
		<path class="st9" d="M200.8,14.4v-3h1.8v3h2.6v1.5h-2.6v7.2c0,0.5,0,0.9,0.1,1.1c0.1,0.3,0.3,0.5,0.6,0.6s0.8,0.1,1.1,0.1
			s0.6,0,0.9,0v1.5c-0.3,0-0.8,0.1-1.4,0.1c-0.8,0-1.1,0-1.6-0.1s-0.8-0.3-1-0.6c-0.3-0.3-0.5-0.6-0.5-1c-0.1-0.5-0.1-0.9-0.1-1.5
			v-7.2H199v-1.5L200.8,14.4L200.8,14.4z"/>
		<path class="st9" d="M208.6,10.7c0-0.5,0.1-0.8,0.5-0.9c0.3-0.3,0.6-0.5,0.9-0.5c0.5,0,0.8,0.1,0.9,0.5c0.3,0.3,0.5,0.6,0.5,0.9
			s0,0.5-0.1,0.8c-0.1,0.1-0.3,0.3-0.5,0.5s-0.5,0.1-0.8,0.1c-0.5,0-0.8-0.1-0.9-0.5C208.7,11.4,208.6,11.2,208.6,10.7z M209,26.5
			V14.4h1.8v12.1H209z"/>
		<path class="st9" d="M214.9,21.6v-2.1c0-1.6,0.5-2.9,1.4-3.8s2.1-1.4,3.5-1.4s2.5,0.3,3.3,1c0.8,0.8,1.1,1.5,1.1,2.4h-1.8
			c0-0.1-0.1-0.5-0.1-0.6c-0.1-0.1-0.3-0.5-0.5-0.6c-0.1-0.1-0.5-0.5-0.9-0.6c-0.3-0.1-0.8-0.1-1.1-0.1c-1,0-1.8,0.3-2.4,0.9
			c-0.6,0.6-0.8,1.5-0.8,2.6v2.1c0,0.8,0.1,1.4,0.5,1.8c0.3,0.6,0.6,0.9,1,1.1s1,0.5,1.6,0.5c1.6,0,2.5-0.6,2.9-1.6h1.8
			c0,0.9-0.5,1.6-1.1,2.4c-0.8,0.8-1.9,1-3.3,1c-1.5,0-2.6-0.5-3.5-1.4C215.3,24.5,214.9,23.1,214.9,21.6z"/>
		<path class="st9" d="M227.1,17.8c0-1.1,0.5-2.1,1.1-2.6c0.9-0.6,1.9-0.9,3.1-0.9c0.6,0,1.1,0.1,1.8,0.3c0.6,0.1,0.9,0.5,1.4,0.8
			c0.3,0.3,0.6,0.6,0.9,1c0.3,0.5,0.3,0.9,0.3,1.4H234c0-0.3-0.1-0.6-0.3-0.9c-0.1-0.3-0.5-0.5-0.9-0.8c-0.5-0.1-0.9-0.3-1.4-0.3
			s-0.9,0.1-1.4,0.1c-0.5,0.1-0.8,0.3-0.9,0.6c-0.1,0.3-0.3,0.6-0.3,1c0,0.3,0,0.6,0.1,0.8c0.1,0.1,0.3,0.3,0.5,0.5
			c0.1,0.1,0.3,0.1,0.6,0.3c0.3,0.1,0.6,0.1,0.8,0.1c0.1,0,0.5,0.1,0.8,0.1c0,0,0,0,0.1,0c0,0,0,0,0.1,0c0,0,0,0,0.1,0
			c0.5,0,0.8,0.1,1,0.1c0.3,0.1,0.6,0.1,1,0.3c0.3,0.1,0.6,0.3,0.9,0.5c0.3,0.1,0.5,0.3,0.6,0.6c0.1,0.3,0.3,0.5,0.5,0.8
			c0.1,0.3,0.1,0.6,0.1,1c0,1.1-0.5,2.1-1.4,2.6s-1.9,1-3.4,1c-1.4,0-2.4-0.3-3.1-0.9c-0.8-0.6-1.1-1.4-1.1-2.4h1.8
			c0.1,1.1,1,1.8,2.6,1.8c0.6,0,1.1-0.1,1.6-0.3s0.8-0.5,0.9-0.8c0.1-0.3,0.3-0.6,0.3-1c0-0.3,0-0.5-0.1-0.8
			c-0.1-0.1-0.3-0.3-0.5-0.5c-0.1-0.1-0.5-0.3-0.8-0.3c-0.3-0.1-0.6-0.1-0.8-0.3c-0.1,0-0.6-0.1-0.9-0.1c-0.6-0.1-1-0.1-1.4-0.3
			c-0.3-0.1-0.8-0.1-1-0.5c-0.3-0.3-0.8-0.3-0.9-0.6c-0.1-0.1-0.5-0.5-0.6-0.9C227.2,18.7,227.1,18.3,227.1,17.8z"/>
	</g>
</g>
<g>
	<path class="st1" d="M723.4,38.4H478.8c-9.6,0-17.2-7.8-17.2-17.2v-2.3c0-9.6,7.8-17.2,17.2-17.2h244.8c9.6,0,17.2,7.8,17.2,17.2
		v2.3C740.9,30.7,733.1,38.4,723.4,38.4z"/>
	<g class="st20">
		<path class="st9" d="M497.1,10.7h5.7c1.5,0,2.6,0.5,3.5,1.4s1.4,2.1,1.4,3.4c0,1.5-0.5,2.6-1.4,3.4s-2.1,1.4-3.5,1.4H499v5.9h-1.8
			L497.1,10.7L497.1,10.7z M499,12.5v6.3h2.4c0.5,0,0.9,0,1.4,0c0.3,0,0.8-0.1,1-0.1c0.3,0,0.6-0.1,0.9-0.3c0.3-0.1,0.5-0.3,0.6-0.6
			c0.1-0.3,0.3-0.6,0.5-0.9c0.1-0.3,0.1-0.8,0.1-1.1c0-1-0.3-1.8-0.8-2.4c-0.6-0.6-1.4-0.9-2.3-0.9C502.8,12.5,499,12.5,499,12.5z"
			/>
		<path class="st9" d="M515.4,14.2c1.5,0,2.6,0.5,3.8,1.4c0.9,0.9,1.5,2.3,1.5,3.9v1.9c0,1.6-0.5,3-1.5,3.9
			c-0.9,0.9-2.3,1.4-3.8,1.4s-2.6-0.5-3.8-1.4c-0.9-0.9-1.4-2.3-1.4-3.9v-1.9c0-1.6,0.5-2.9,1.5-3.9
			C512.6,14.6,513.9,14.2,515.4,14.2z M511.9,19.8v1.5c0,0.8,0.1,1.5,0.5,2.1c0.3,0.6,0.6,1,1.1,1.4c0.5,0.3,1,0.5,1.8,0.5
			c1,0,1.8-0.3,2.4-1c0.6-0.8,0.9-1.6,0.9-2.9v-1.5c0-1.1-0.3-2.1-0.9-2.9c-0.6-0.8-1.4-1-2.4-1s-1.8,0.3-2.4,1
			C512.2,17.6,511.9,18.5,511.9,19.8z"/>
		<path class="st9" d="M529.3,26.6c-1.8,0-2.9-0.6-3.4-1.9h-0.1v5.9H524V14.4h1.6v1.9h0.1c0.1-0.6,0.6-1,1.1-1.5
			c0.6-0.5,1.4-0.6,2.4-0.6c1.4,0,2.5,0.5,3.3,1.4c0.9,0.9,1.1,2.1,1.1,3.8v2.3c0,1.6-0.5,2.9-1.4,3.8
			C531.8,26.2,530.8,26.6,529.3,26.6z M529.1,25.1c0.9,0,1.8-0.3,2.3-1c0.6-0.6,0.9-1.6,0.9-3v-1.4c0-1.4-0.3-2.3-0.9-3
			c-0.6-0.6-1.4-1-2.4-1s-1.8,0.3-2.4,0.9c-0.6,0.6-0.9,1.5-0.9,2.6v2.3c0,1,0.3,1.8,0.9,2.4C527.2,24.7,528.1,25.1,529.1,25.1z"/>
		<path class="st9" d="M547.2,14.4v12.1h-1.8v-1.9h-0.1c-0.1,0.6-0.6,1-1.1,1.5c-0.6,0.5-1.4,0.6-2.4,0.6c-1.4,0-2.3-0.3-3-0.9
			c-0.8-0.6-1-1.6-1-2.9v-8.3h1.8v7.9c0,1.8,0.9,2.6,2.6,2.6c0.9,0,1.6-0.3,2.4-0.9c0.6-0.6,0.9-1.4,0.9-2.1v-7.8
			C545.4,14.4,547.2,14.4,547.2,14.4z"/>
		<path class="st9" d="M551.3,26.4V10.1h1.8v16.4h-1.8V26.4z"/>
		<path class="st9" d="M560.8,26.6c-0.6,0-1-0.1-1.6-0.3c-0.5-0.1-0.9-0.5-1.1-0.8c-0.3-0.3-0.6-0.8-0.8-1.1
			c-0.1-0.5-0.3-0.9-0.3-1.5c0-0.8,0.1-1.4,0.5-1.8c0.3-0.6,0.8-0.9,1.5-1.1c0.6-0.3,1.4-0.5,2.3-0.5h3.3v-1.1
			c0-0.8-0.3-1.4-0.8-1.8c-0.5-0.5-1.1-0.6-1.9-0.6c-1.4,0-2.3,0.5-2.5,1.5h-1.8c0.1-1,0.6-1.8,1.4-2.3c0.8-0.6,1.8-0.8,3.1-0.8
			c1.4,0,2.4,0.3,3.1,0.9c0.9,0.6,1.1,1.6,1.1,3v8.2h-1.8v-1.6l0,0C563.4,26.1,562.3,26.6,560.8,26.6z M561.3,25.1
			c0.9,0,1.6-0.3,2.3-0.8c0.6-0.6,0.9-1.1,0.9-1.9V21h-3.1c-0.9,0-1.5,0.1-1.8,0.6s-0.6,0.9-0.6,1.5c0,0.8,0.3,1.1,0.8,1.6
			C559.9,24.9,560.5,25.1,561.3,25.1z"/>
		<path class="st9" d="M570.7,14.4v-3h1.8v3h2.6v1.5h-2.6v7.2c0,0.5,0,0.9,0.1,1.1c0.1,0.3,0.3,0.5,0.6,0.6s0.8,0.1,1.1,0.1
			s0.6,0,0.9,0v1.5c-0.3,0-0.8,0.1-1.4,0.1c-0.8,0-1.1,0-1.6-0.1s-0.8-0.3-1-0.6c-0.3-0.3-0.5-0.6-0.5-1c-0.1-0.5-0.1-0.9-0.1-1.5
			v-7.2h-1.8v-1.5L570.7,14.4L570.7,14.4z"/>
		<path class="st9" d="M578.6,10.6c0-0.5,0.1-0.8,0.5-0.9c0.3-0.3,0.6-0.5,0.9-0.5c0.5,0,0.8,0.1,0.9,0.5c0.3,0.3,0.5,0.6,0.5,0.9
			s0,0.5-0.1,0.8c-0.1,0.1-0.3,0.3-0.5,0.5c-0.1,0.1-0.5,0.1-0.8,0.1c-0.5,0-0.8-0.1-0.9-0.5C578.7,11.4,578.6,11.1,578.6,10.6z
			 M579.1,26.4v-12h1.8v12.1h-1.8V26.4z"/>
		<path class="st9" d="M589.8,14.2c1.5,0,2.6,0.5,3.8,1.4c0.9,0.9,1.5,2.3,1.5,3.9v1.9c0,1.6-0.5,3-1.5,3.9
			c-0.9,0.9-2.3,1.4-3.8,1.4s-2.6-0.5-3.8-1.4c-0.9-0.9-1.4-2.3-1.4-3.9v-1.9c0-1.6,0.5-2.9,1.5-3.9
			C587.2,14.6,588.4,14.2,589.8,14.2z M586.5,19.8v1.5c0,0.8,0.1,1.5,0.5,2.1c0.3,0.6,0.6,1,1.1,1.4c0.5,0.3,1,0.5,1.8,0.5
			c1,0,1.8-0.3,2.4-1c0.6-0.8,0.9-1.6,0.9-2.9v-1.5c0-1.1-0.3-2.1-0.9-2.9c-0.6-0.8-1.4-1-2.4-1s-1.8,0.3-2.4,1
			C586.8,17.6,586.5,18.5,586.5,19.8z"/>
		<path class="st9" d="M598.6,26.4v-12h1.8v2.3h0.1c0.5-1.6,1.8-2.4,3.8-2.4c1.1,0,2.3,0.3,3,1c0.8,0.8,1,1.6,1,3v8.2h-1.8v-7.8
			c0-0.9-0.3-1.6-0.8-2.3c-0.5-0.5-1.1-0.8-1.9-0.8c-1,0-1.9,0.3-2.5,1c-0.6,0.8-0.9,1.6-0.9,2.9v6.7L598.6,26.4L598.6,26.4z"/>
		<path class="st9" d="M621.9,29.2c1,0,1.9-0.3,2.5-0.9s0.9-1.4,0.9-2.4v-1.6h-0.1c-0.1,0.3-0.5,0.6-0.8,0.9s-0.8,0.5-1.1,0.8
			c-0.5,0.1-0.9,0.3-1.5,0.3c-0.9,0-1.6-0.1-2.4-0.6c-0.8-0.5-1.4-0.9-1.8-1.8c-0.5-0.8-0.6-1.6-0.6-2.6v-2.1c0-0.8,0.1-1.5,0.5-2.1
			c0.3-0.6,0.6-1.1,1-1.6c0.5-0.5,0.9-0.8,1.5-1c0.6-0.3,1.1-0.3,1.9-0.3c0.9,0,1.6,0.1,2.3,0.6c0.6,0.5,1,0.9,1.4,1.4h0.1v-1.8h1.6
			v11.8c0,1.6-0.5,2.9-1.4,3.5c-0.9,0.8-2.3,1.1-3.9,1.1c-1.5,0-2.5-0.3-3.3-0.9s-1.1-1.4-1.4-2.3h1.9c0.1,0.5,0.5,0.9,0.9,1.1
			C620.6,29,621.1,29.2,621.9,29.2z M622,15.9c-0.5,0-1,0.1-1.4,0.3c-0.5,0.1-0.8,0.5-1,0.8c-0.3,0.3-0.5,0.8-0.6,1.1
			c-0.1,0.5-0.1,1-0.1,1.6v1.1c0,1.1,0.3,2.1,0.9,2.6c0.6,0.8,1.5,1,2.4,1s1.8-0.3,2.3-1c0.6-0.6,0.9-1.5,0.9-2.4v-1.9
			c0-0.9-0.3-1.8-0.9-2.4C623.8,16.1,623,15.9,622,15.9z"/>
		<path class="st9" d="M635.4,26.6c-1.6,0-2.9-0.5-3.8-1.4c-0.9-0.9-1.4-2.3-1.4-3.9v-1.9c0-1.6,0.5-2.9,1.4-3.8s2.1-1.5,3.5-1.5
			c1.5,0,2.6,0.5,3.5,1.5s1.4,2.3,1.4,3.8v1.5h-7.9v0.6c0,1,0.3,1.8,0.9,2.5c0.6,0.6,1.4,1,2.4,1c0.8,0,1.4-0.1,1.8-0.5
			c0.5-0.3,0.8-0.6,0.9-1h1.9c0,0.3-0.1,0.8-0.5,1c-0.1,0.3-0.5,0.6-0.9,1c-0.5,0.5-0.9,0.6-1.4,0.8
			C636.7,26.6,636.1,26.6,635.4,26.6z M632.2,19.5h6.1v-0.1c0-0.8-0.1-1.4-0.5-1.8c-0.3-0.6-0.6-0.9-1-1.1c-0.5-0.3-1-0.5-1.6-0.5
			c-0.9,0-1.6,0.3-2.3,0.9c-0.6,0.6-0.9,1.5-0.9,2.5L632.2,19.5L632.2,19.5z"/>
		<path class="st9" d="M643.6,26.4v-12h1.8v2.3h0.1c0.5-1.6,1.8-2.4,3.8-2.4c1.1,0,2.3,0.3,3,1c0.8,0.8,1,1.6,1,3v8.2h-1.8v-7.8
			c0-0.9-0.3-1.6-0.8-2.3c-0.5-0.5-1.1-0.8-1.9-0.8c-1,0-1.9,0.3-2.5,1c-0.6,0.8-0.9,1.6-0.9,2.9v6.7L643.6,26.4L643.6,26.4z"/>
		<path class="st9" d="M662,26.6c-1.6,0-2.9-0.5-3.8-1.4c-0.9-0.9-1.4-2.3-1.4-3.9v-1.9c0-1.6,0.5-2.9,1.4-3.8s2.1-1.5,3.5-1.5
			s2.6,0.5,3.5,1.5s1.4,2.3,1.4,3.8v1.5h-7.9v0.6c0,1,0.3,1.8,0.9,2.5c0.6,0.6,1.4,1,2.4,1c0.8,0,1.4-0.1,1.8-0.5
			c0.5-0.3,0.8-0.6,0.9-1h1.9c0,0.3-0.1,0.8-0.5,1c-0.1,0.3-0.5,0.6-0.9,1s-0.9,0.6-1.4,0.8C663.1,26.6,662.6,26.6,662,26.6z
			 M658.7,19.5h6.1v-0.1c0-0.8-0.1-1.4-0.5-1.8c-0.3-0.6-0.6-0.9-1-1.1c-0.5-0.3-1-0.5-1.6-0.5c-0.9,0-1.6,0.3-2.3,0.9
			c-0.6,0.6-0.9,1.5-0.9,2.5L658.7,19.5L658.7,19.5z"/>
		<path class="st9" d="M670.8,14.4v-3h1.8v3h2.6v1.5h-2.6v7.2c0,0.5,0,0.9,0.1,1.1s0.3,0.5,0.6,0.6s0.8,0.1,1.1,0.1s0.6,0,0.9,0v1.5
			c-0.3,0-0.8,0.1-1.4,0.1c-0.8,0-1.1,0-1.6-0.1s-0.8-0.3-1-0.6s-0.5-0.6-0.5-1c-0.1-0.5-0.1-0.9-0.1-1.5v-7.2H669v-1.5L670.8,14.4
			L670.8,14.4z"/>
		<path class="st9" d="M678.7,10.6c0-0.5,0.1-0.8,0.5-0.9c0.3-0.3,0.6-0.5,0.9-0.5c0.5,0,0.8,0.1,0.9,0.5c0.3,0.3,0.5,0.6,0.5,0.9
			s0,0.5-0.1,0.8c-0.1,0.1-0.3,0.3-0.5,0.5c-0.1,0.1-0.5,0.1-0.8,0.1c-0.5,0-0.8-0.1-0.9-0.5C678.8,11.4,678.7,11.1,678.7,10.6z
			 M679.1,26.4v-12h1.8v12.1h-1.8V26.4z"/>
		<path class="st9" d="M684.7,21.5v-2.1c0-1.6,0.5-2.9,1.4-3.8s2.1-1.4,3.5-1.4s2.5,0.3,3.3,1c0.8,0.8,1.1,1.5,1.1,2.4h-1.7
			c0-0.1-0.1-0.5-0.1-0.6c-0.1-0.1-0.3-0.5-0.5-0.6c-0.1-0.1-0.5-0.5-0.9-0.6c-0.3-0.1-0.8-0.1-1.1-0.1c-1,0-1.8,0.3-2.4,0.9
			c-0.6,0.6-0.8,1.5-0.8,2.6v2.1c0,0.8,0.1,1.4,0.5,1.8c0.3,0.6,0.6,0.9,1,1.1c0.5,0.3,1,0.5,1.6,0.5c1.6,0,2.5-0.6,2.9-1.6h1.8
			c0,0.9-0.5,1.6-1.1,2.4c-0.8,0.8-1.9,1-3.3,1c-1.5,0-2.6-0.5-3.5-1.4C685.2,24.3,684.7,23,684.7,21.5z"/>
		<path class="st9" d="M697,17.8c0-1.1,0.5-2.1,1.1-2.6c0.9-0.6,1.9-0.9,3.1-0.9c0.6,0,1.1,0.1,1.8,0.3c0.6,0.1,0.9,0.5,1.4,0.8
			s0.6,0.6,0.9,1s0.3,0.9,0.3,1.4H704c0-0.3-0.1-0.6-0.3-0.9c-0.1-0.3-0.5-0.5-0.9-0.8c-0.5-0.1-0.9-0.3-1.4-0.3s-0.9,0.1-1.4,0.1
			s-0.8,0.3-0.9,0.6c-0.1,0.2-0.3,0.6-0.3,1c0,0.3,0,0.6,0.1,0.8c0.1,0.2,0.3,0.3,0.5,0.5c0.1,0.1,0.3,0.1,0.6,0.3
			c0.3,0.1,0.6,0.1,0.8,0.1s0.5,0.1,0.8,0.1c0,0,0,0,0.1,0c0,0,0,0,0.1,0c0,0,0,0,0.1,0c0.5,0,0.8,0.1,1,0.1c0.3,0.1,0.6,0.1,1,0.3
			c0.3,0.1,0.6,0.3,0.9,0.5c0.3,0.1,0.5,0.3,0.6,0.6c0.1,0.3,0.3,0.5,0.5,0.8s0.1,0.6,0.1,1c0,1.1-0.5,2.1-1.4,2.6
			c-0.9,0.6-1.9,1-3.4,1c-1.4,0-2.4-0.3-3.1-0.9c-0.8-0.6-1.1-1.4-1.1-2.4h1.8c0.1,1.1,1,1.8,2.6,1.8c0.6,0,1.1-0.1,1.6-0.3
			s0.8-0.5,0.9-0.8c0.1-0.3,0.3-0.6,0.3-1c0-0.3,0-0.5-0.1-0.8c-0.1-0.1-0.3-0.3-0.5-0.5c-0.1-0.1-0.5-0.3-0.8-0.3
			c-0.3-0.1-0.6-0.1-0.8-0.3c-0.1,0-0.6-0.1-1-0.1c-0.6-0.1-1-0.1-1.4-0.3c-0.3-0.1-0.8-0.1-1-0.5c-0.3-0.3-0.8-0.3-0.9-0.6
			c-0.1-0.1-0.5-0.5-0.6-0.9C697,18.7,697,18.3,697,17.8z"/>
	</g>
</g>
<path class="st5" d="M201.1,376.9H23.5c-9.6,0-17.4-8.2-17.4-18.5l0,0c0-10.2,7.7-18.5,17.4-18.5H201c9.6,0,17.4,8.2,17.4,18.5l0,0
	C218.4,368.5,210.8,376.9,201.1,376.9z"/>
<g class="st20">
	<path class="st9" d="M34.9,366.7V351h5.8c1.4,0,2.3,0.3,3.1,1c0.8,0.8,1.1,1.6,1.1,2.9c0,0.9-0.1,1.6-0.6,2.3c-0.5,0.6-1,1-1.8,1.1
		l0,0c0.6,0.1,1,0.3,1.5,0.5c0.5,0.1,0.8,0.5,1,0.9c0.3,0.3,0.5,0.8,0.6,1.1c0.1,0.5,0.1,0.9,0.1,1.5c0,1.4-0.5,2.5-1.5,3.3
		s-2.3,1.1-4,1.1L34.9,366.7L34.9,366.7z M36.7,352.9v5h2.4c1.4,0,2.4-0.1,3-0.6s0.9-1,0.9-1.9s-0.3-1.5-0.8-1.9s-1.1-0.6-1.9-0.6
		H36.7L36.7,352.9z M36.7,359.6v5.5h2.9c0.6,0,1,0,1.5,0s0.9-0.1,1.1-0.3c0.5-0.1,0.8-0.3,0.9-0.5c0.3-0.1,0.5-0.5,0.6-0.8
		s0.3-0.8,0.3-1.1c0-0.9-0.3-1.6-0.9-2.1c-0.6-0.5-1.5-0.8-2.4-0.8L36.7,359.6C36.7,359.5,36.7,359.6,36.7,359.6z"/>
	<path class="st9" d="M49,351c0-0.5,0.1-0.8,0.5-0.9c0.3-0.3,0.6-0.5,0.9-0.5c0.5,0,0.8,0.1,0.9,0.5c0.1,0.3,0.5,0.6,0.5,0.9
		s0,0.5-0.1,0.8c-0.1,0.1-0.3,0.3-0.5,0.5c-0.1,0.1-0.5,0.1-0.8,0.1c-0.5,0-0.8-0.1-0.9-0.5C49.3,351.8,49,351.4,49,351z
		 M49.5,366.7v-12.1h1.8v12.1H49.5z"/>
	<path class="st9" d="M60.5,354.7c1.5,0,2.6,0.5,3.8,1.4c1,0.9,1.5,2.3,1.5,3.9v1.9c0,1.6-0.5,3-1.5,3.9c-0.9,0.9-2.3,1.4-3.8,1.4
		s-2.6-0.5-3.8-1.4c-0.9-0.9-1.4-2.3-1.4-3.9V360c0-1.6,0.5-2.9,1.5-3.9C57.7,355,58.9,354.7,60.5,354.7z M57.2,360.1v1.5
		c0,0.8,0.1,1.5,0.5,2.1c0.3,0.6,0.6,1,1.1,1.4c0.5,0.3,1,0.5,1.8,0.5c1,0,1.8-0.3,2.4-1c0.6-0.8,0.9-1.6,0.9-2.9v-1.5
		c0-1.1-0.3-2.1-0.9-2.9s-1.4-1-2.4-1s-1.8,0.3-2.4,1C57.4,357.9,57.2,358.8,57.2,360.1z"/>
	<path class="st9" d="M68.9,351c0-0.5,0.1-0.8,0.5-0.9c0.3-0.1,0.6-0.5,0.9-0.5c0.5,0,0.8,0.1,0.9,0.5c0.3,0.3,0.5,0.6,0.5,0.9
		s0,0.5-0.1,0.8c-0.1,0.1-0.3,0.3-0.5,0.5c-0.1,0.1-0.5,0.1-0.8,0.1c-0.5,0-0.8-0.1-0.9-0.5C69,351.8,68.9,351.4,68.9,351z
		 M69.4,366.7v-12.1h1.8v12.1H69.4z"/>
	<path class="st9" d="M75.8,366.7v-12.1h1.8v2.3h0.1c0.5-1.6,1.8-2.4,3.8-2.4c1.1,0,2.3,0.3,3,1s1,1.6,1,3v8.2h-1.8v-7.8
		c0-0.9-0.3-1.6-0.8-2.3c-0.5-0.5-1.1-0.8-1.9-0.8c-1,0-1.9,0.3-2.5,1c-0.6,0.8-0.9,1.6-0.9,2.9v6.7h-1.7L75.8,366.7L75.8,366.7z"/>
	<path class="st9" d="M90.5,366.7v-10.4h-2.1v-1.5h2.1v-1.1c0-1.1,0.3-1.9,0.9-2.5s1.5-0.8,2.9-0.8c0.5,0,0.9,0,1.4,0.1v1.5
		c-0.3,0-0.6,0-1,0c-0.8,0-1.4,0.1-1.6,0.5c-0.3,0.3-0.5,0.8-0.5,1.5v1h2.9v1.5h-2.9v10.4L90.5,366.7L90.5,366.7z"/>
	<path class="st9" d="M103.1,354.7c1.5,0,2.6,0.5,3.8,1.4c0.9,0.9,1.5,2.3,1.5,3.9v1.9c0,1.6-0.5,3-1.5,3.9
		c-0.9,0.9-2.3,1.4-3.8,1.4s-2.6-0.5-3.8-1.4c-0.9-0.9-1.4-2.3-1.4-3.9V360c0-1.6,0.5-2.9,1.5-3.9
		C100.3,355,101.6,354.7,103.1,354.7z M99.8,360.1v1.5c0,0.8,0.1,1.5,0.5,2.1c0.3,0.6,0.6,1,1.1,1.4c0.5,0.3,1,0.5,1.8,0.5
		c1,0,1.8-0.3,2.4-1c0.6-0.8,0.9-1.6,0.9-2.9v-1.5c0-1.1-0.3-2.1-0.9-2.9s-1.4-1-2.4-1s-1.8,0.3-2.4,1
		C100.1,357.9,99.8,358.8,99.8,360.1z"/>
	<path class="st9" d="M112,366.7v-12.1h1.8v1.9h0.1c0.1-0.6,0.6-1,1-1.5c0.6-0.5,1.4-0.6,2.3-0.6c0.1,0,0.5,0,0.8,0v1.6
		c-0.1,0-0.5,0-0.9,0c-0.8,0-1.4,0.1-1.8,0.5c-0.5,0.3-0.9,0.6-1,1c-0.3,0.5-0.3,0.9-0.3,1.5v7.7H112L112,366.7z"/>
	<path class="st9" d="M120.8,366.7v-12.1h1.8v1.9h0.1c0.5-1.4,1.5-2.1,3.3-2.1c0.5,0,0.9,0,1.1,0.1c0.5,0.1,0.8,0.3,1,0.5
		c0.3,0.1,0.5,0.5,0.8,0.8c0.1,0.3,0.3,0.6,0.5,0.9h0.1c0.3-0.6,0.8-1.1,1.4-1.6c0.6-0.5,1.4-0.6,2.3-0.6c1.1,0,2.3,0.3,3,0.9
		s1,1.6,1,2.9v8.5h-2.1v-8c0-0.8-0.1-1.4-0.6-1.9s-1-0.8-1.9-0.8c-0.8,0-1.5,0.3-1.9,0.9c-0.6,0.6-0.8,1.1-0.8,2.1v7.8h-1.8V359
		c0-0.8-0.3-1.5-0.8-1.9c-0.5-0.5-1.1-0.8-1.9-0.8c-0.8,0-1.5,0.3-1.9,0.8c-0.6,0.6-0.8,1.1-0.8,2.1v7.8h-1.8v-0.3H120.8z"/>
	<path class="st9" d="M144.3,367c-0.6,0-1-0.1-1.6-0.3c-0.5-0.1-0.9-0.5-1.1-0.8c-0.3-0.3-0.6-0.8-0.8-1.1c-0.1-0.5-0.3-0.9-0.3-1.5
		c0-0.8,0.1-1.4,0.5-1.8c0.3-0.6,0.8-0.9,1.5-1.1c0.6-0.3,1.4-0.5,2.3-0.5h3.3v-1.1c0-0.8-0.3-1.4-0.8-1.8c-0.5-0.5-1.1-0.6-1.9-0.6
		c-1.4,0-2.3,0.5-2.5,1.5h-1.8c0.1-1,0.6-1.8,1.4-2.3c0.8-0.6,1.8-0.8,3.1-0.8s2.4,0.3,3.1,0.9c0.9,0.6,1.1,1.6,1.1,3v8.2h-2.1v-1.6
		l0,0C147,366.5,145.9,367,144.3,367z M144.8,365.3c0.9,0,1.6-0.3,2.3-0.8c0.6-0.5,0.9-1.1,0.9-1.9v-1.4h-3.1
		c-0.9,0-1.5,0.1-1.8,0.6c-0.5,0.3-0.6,0.9-0.6,1.5c0,0.8,0.3,1.1,0.8,1.6C143.4,365.2,144,365.3,144.8,365.3z"/>
	<path class="st9" d="M154.3,354.8v-3h1.8v3h2.6v1.5h-2.6v7.2c0,0.5,0,0.9,0.1,1.1s0.3,0.5,0.6,0.6s0.8,0.1,1.1,0.1s0.6,0,0.9,0v1.5
		c-0.3,0-0.8,0.1-1.4,0.1c-0.8,0-1.1,0-1.6-0.1s-0.8-0.3-1-0.6c-0.3-0.3-0.5-0.6-0.5-1c-0.1-0.5-0.1-0.9-0.1-1.5v-7.2h-1.8V355
		L154.3,354.8L154.3,354.8z"/>
	<path class="st9" d="M162.2,351c0-0.5,0.1-0.8,0.5-0.9c0.3-0.3,0.6-0.5,0.9-0.5c0.5,0,0.8,0.1,0.9,0.5c0.3,0.3,0.5,0.6,0.5,0.9
		s0,0.5-0.1,0.8c-0.1,0.1-0.3,0.3-0.5,0.5c-0.1,0.1-0.5,0.1-0.8,0.1c-0.5,0-0.8-0.1-0.9-0.5C162.3,351.8,162.2,351.4,162.2,351z
		 M162.7,366.7v-12.1h1.8v12.1H162.7z"/>
	<path class="st9" d="M168.4,361.8v-2.1c0-1.6,0.5-2.9,1.4-3.8s2.1-1.4,3.5-1.4s2.5,0.3,3.3,1c0.8,0.8,1.1,1.5,1.1,2.4h-1.8
		c0-0.1-0.1-0.5-0.1-0.6c-0.1-0.1-0.3-0.5-0.5-0.6c-0.1-0.1-0.5-0.5-0.9-0.6c-0.3-0.1-0.8-0.1-1.1-0.1c-1,0-1.8,0.3-2.4,0.9
		c-0.6,0.6-0.8,1.5-0.8,2.6v2.1c0,0.8,0.1,1.4,0.5,1.8c0.3,0.6,0.6,0.9,1,1.1c0.5,0.3,1,0.5,1.6,0.5c1.6,0,2.5-0.6,2.9-1.6h1.8
		c0,0.9-0.5,1.6-1.1,2.4c-0.8,0.8-1.9,1-3.3,1c-1.5,0-2.6-0.5-3.5-1.4C168.8,364.6,168.4,363.5,168.4,361.8z"/>
	<path class="st9" d="M180.6,358.2c0-1.1,0.5-2.1,1.1-2.6c0.9-0.6,1.9-0.9,3.1-0.9c0.6,0,1.1,0.1,1.8,0.3c0.6,0.1,0.9,0.5,1.4,0.8
		c0.3,0.3,0.6,0.6,0.9,1c0.3,0.5,0.3,0.9,0.3,1.4h-1.5c0-0.3-0.1-0.6-0.3-0.9c-0.1-0.3-0.5-0.5-0.9-0.8c-0.5-0.1-0.9-0.3-1.4-0.3
		s-0.9,0.1-1.4,0.1c-0.5,0.1-0.8,0.3-0.9,0.6c-0.1,0.3-0.3,0.6-0.3,1c0,0.3,0,0.6,0.1,0.8c0.1,0.1,0.3,0.3,0.5,0.5s0.3,0.1,0.6,0.3
		c0.3,0.1,0.6,0.1,0.8,0.1c0.1,0,0.5,0.1,0.8,0.1c0,0,0,0,0.1,0c0,0,0,0,0.1,0s0,0,0.1,0c0.5,0,0.8,0.1,1,0.1c0.3,0.1,0.6,0.1,1,0.3
		c0.3,0.1,0.6,0.3,0.9,0.5s0.5,0.3,0.6,0.6c0.1,0.3,0.3,0.5,0.5,0.8c0.1,0.3,0.1,0.6,0.1,1c0,1.1-0.5,2.1-1.4,2.6
		c-0.9,0.6-1.9,1-3.4,1c-1.4,0-2.4-0.3-3.1-0.9c-0.8-0.6-1.1-1.4-1.1-2.4h1.8c0.1,1.1,1,1.8,2.6,1.8c0.6,0,1.1-0.1,1.6-0.3
		c0.5-0.1,0.8-0.5,0.9-0.8c0.1-0.3,0.3-0.6,0.3-1c0-0.3,0-0.5-0.1-0.8c-0.1-0.1-0.3-0.3-0.5-0.5s-0.5-0.3-0.8-0.3
		c-0.3-0.1-0.6-0.1-0.8-0.3c-0.1,0-0.6-0.1-0.9-0.1c-0.6-0.1-1-0.1-1.4-0.3c-0.3-0.1-0.8-0.1-1-0.5c-0.5-0.1-0.8-0.3-0.9-0.6
		c-0.1-0.1-0.5-0.5-0.6-0.9C181.1,358.5,180.6,358.7,180.6,358.2z"/>
</g>
<path class="st21" d="M635.6,683c0,3-5,4.6-6.9,7.3c-2.6-1-5.2-2.5-7.1-4.4c0.1-0.4,0.4-0.7,0.5-1C627.4,676.6,635.6,677,635.6,683z
	"/>
<g>
	<path class="st1" d="M736.3,803H10.7c-3.4,0-5.6-1.9-4.1-3.5l37.2-41.9c0.8-0.8,2.4-1.4,4.1-1.4h651.2c1.8,0,3.4,0.5,4.1,1.4
		l37.2,41.9C741.9,801.1,739.7,803,736.3,803z"/>
	<path class="st22" d="M589.8,750.9c-5.6-3-16.9-1.8-14.4,6.1l0,0c0.5,1,5,5.9,5.8,8.5c0.9,3.3-2.2,11.1-2.2,11.1s-2.7,1.7-1.4,3
		c0.1,0.1,0.3,0.1,0.4,0.1h5.1c0.3,0,0.5-0.1,0.8-0.3c1.3-1.3,5.4-6.7,6.9-11.1c0.8-2.4,2-8.5,2-8.5
		C593.5,757.7,591.9,752.1,589.8,750.9z"/>
	<path class="st22" d="M533.5,752.5c4.2,3.7,3.5,9.3,1,12.8c-4.7,8.1-10.2,13.2-11.5,14.4c-0.1,0.1-0.4,0.3-0.7,0.3h-5
		c-0.3,0-0.5-0.3-0.5-0.5c0-0.8,0.1-2.2,2.4-2.7c1.4-2.9,2.5-6,3-9.3l2.6-16C527.6,750,531,750.4,533.5,752.5z"/>
	<g>
		<path class="st23" d="M631,683c0,3-5,4.6-6.9,7.3c-0.1,0.3-0.3,0.5-0.4,0.7c-0.4,0.8-0.7,1.6-0.8,2.4c-0.8,4.4,0.8,9.9,0,15.6
			c-1.6,11.6-10.7,18.8-14.9,20.9c-0.3,0.1-0.3,0.4-0.3,0.5c0.4,1.3,0.5,3,0.5,4.8c0,5-0.9,11.1-1.4,13.5c-1.3,5.9,1.3,11.6,1.6,15
			c0.1,2.1-5.2,13.7-7.2,15.7c-0.3,0.1-0.4,0.3-0.8,0.3h-5.1c-0.1,0-0.3,0-0.4-0.1c-1.4-1.4,1.2-3,1.2-3l2.2-11.4
			c0-0.1,0-0.3-0.1-0.4c-0.7-0.9-3.1-2.7-5.8-5.1c-1.4-1.3-2.9-2.6-4.2-3.9c-0.1-0.1-0.4-0.3-0.8-0.3c-1.7,0.4-6.4,1-12.2,1.4
			c-9.5,0.8-21.8,1.4-28,0.8c-0.1,0-0.1,0-0.3,0c-0.4,0.1-0.7,0.5-0.5,0.9c1.4,5.5,2.5,12.6,1.8,16.3c-0.5,2.7-2.6,4.7-2.7,4.7h-5.1
			c-0.3,0-0.5-0.1-0.5-0.5c-0.1-1.3,1.3-2.1,1.3-2.1c-1.4-5.6-3.9-8.6-6.8-12c-2.5-2.7-5.2-5.8-8-10.5c-0.7-1-1.2-2.2-1.8-3.4
			c-1.2-2.6-2.2-5.2-3.1-8c-1.2-3.7-4.3-6.3-8.1-6.8c-6.3-0.9-9.3-4.6-9.4-7.7c0-2.9,3.3-3.5,3.4-5.4c0-1.4,0.5-2.7,1.2-3.9
			c2.1-3.9,6.1-6.5,6.1-6.5l1-4.3c0-1.3,1.4-2.4,2.6-1.6c9.2,5.9,9.3,10.9,13.3,13.1c0.3,0.1,0.7,0.3,0.9,0.5
			c2.7,1.3,6.4,2,10.6,2.1c17.4,1,44.6-4.4,58.9-1c5.8,1.2,13.7-7.6,14-17.5c0.1-5-0.7-9.7-0.3-13.7c0.1-1.6,0.5-3.1,1.2-4.6
			c0.1-0.4,0.4-0.7,0.5-1C622.8,676.6,631,677,631,683z"/>
	</g>
	<path class="st21" d="M532.7,722.3c-3.7-0.3-7.1-1.7-9.8-4.1c-3.9-3.4-4.6-1.2-8.4,0.8c-1.8,0.9-3.9,1.2-5.8,0.5
		c2.1-3.9,6.1-6.5,6.1-6.5l1-4.3c0-1.3,1.4-2.4,2.6-1.6c9.2,5.9,9.3,10.9,13.3,13.1c0.3,0.1,0.7,0.3,0.9,0.5
		C532.7,721.1,532.7,721.7,532.7,722.3z"/>
	<path class="st21" d="M622.9,708.9c-1.6,11.6-10.7,18.8-14.9,20.9c-0.3,0.1-0.3,0.4-0.3,0.5c0.4,1.3,0.5,3,0.5,4.8
		c-8.6-0.7-17.3-2.1-25,1.4c-5.2,2.5-9.9,7.2-15.8,6.8c-4.2-0.3-7.7-3.1-10.7-6c-3.9-3.8-7.7-7.8-11.1-12c-0.5-0.7-1.4-1.6-2.4-2.6
		c17.4,1,44.6-4.4,58.9-1c5.8,1.2,13.7-7.6,14-17.5c0.1-5-0.7-9.7-0.3-13.7c2.4,1.2,4.6,2.5,7.1,3
		C622.1,697.8,623.7,703.3,622.9,708.9z"/>
	<path class="st5" d="M531,718.6c-2.5,8.8-11.1,16.5-14.4,19.1c-0.4,0.4-0.5,1-0.3,1.4c0.7,1,2.1,2.4,3.1,2.4c0.1,0,0.4-0.1,0.5-0.1
		c6.8-4.4,12.3-11.5,15.2-20.7C535.4,719.9,531.2,718,531,718.6L531,718.6z"/>
	<circle class="st5" cx="503.5" cy="727.1" r="1.4"/>
	<circle class="st24" cx="510.8" cy="723.3" r="1.2"/>
	<g>
		<path class="st25" d="M421.5,665.1h-8.6v101.6l8.6-17.3c4.7,0,8.6-3.9,8.6-8.6v-67.1C430.3,668.9,426.3,665.1,421.5,665.1z"/>
		<path class="st21" d="M421.5,673.7c0-4.7-3.9-8.6-8.6-8.6h-91.6c-4.7,0-8.6,3.9-8.6,8.6v67c0,4.7,3.9,8.6,8.6,8.6l50.1,17.3
			l41.5-17.3c4.7,0,8.6-3.9,8.6-8.6l-21.6-33.5L421.5,673.7z"/>
		<path class="st26" d="M425.2,766.7v21.6h9.4c4.8,0,8.6-3.9,8.6-8.6L425.2,766.7z"/>
		<path class="st22" d="M322.3,771.1l-22.6,8.6c0,4.8,3.9,8.6,8.6,8.6h47.9l15.2-13.9l15.2,13.9h38.6c4.8,0,8.6-3.9,8.6-8.6v-8.6
			H322.3z"/>
		<path class="st26" d="M356.2,771.1h30.3v17.3h-30.3V771.1z"/>
		<path class="st22" d="M432.5,754.6c-1.3-3.1-4.4-5.2-8-5.2h-9.4l18.7,30.3h9.4L432.5,754.6z"/>
		<path class="st27" d="M423.1,754.6l1.4,3.4l-6.8,4.3l10.5,4.3l5.6,12.9H299.7l10.7-25.1c1.3-3.1,4.4-5.2,8-5.2h96.7
			C418.5,749.3,421.6,751.4,423.1,754.6L423.1,754.6z"/>
		<path class="st9" d="M412.9,673.7l-24.6,33.5l24.6,33.5h8.6v-67H412.9L412.9,673.7z"/>
		<path class="st9" d="M321.3,673.7h91.6v67h-91.6V673.7z"/>
		<path class="st25" d="M428.2,766.7l-3.8-8.6h-106l-3.7,8.6H428.2z"/>
	</g>
	<g>
		<g>
			<path class="st28" d="M282.3,738l-3.3,2.5h-15l-1.7-2.5l3.4-5c0.4-0.5,1-0.9,1.6-0.9h9.9c0.7,0,1.3,0.3,1.6,0.9L282.3,738z"/>
			<path class="st29" d="M278.9,733c-0.4-0.5-1-0.9-1.6-0.9H275c0.7,0,1.3,0.3,1.6,0.9l3.4,5h2.4L278.9,733z"/>
		</g>
		<g>
			<path class="st21" d="M293.2,742.2v20.4c0,0.9-0.8,1.7-1.7,1.7h-38.2c-0.9,0-1.7-0.8-1.7-1.7v-20.4c0-0.9,0.8-1.7,1.7-1.7h38.2
				C292.4,740.5,293.2,741.2,293.2,742.2z"/>
			<path class="st25" d="M291.5,740.5h-2c0.9,0,1.7,0.8,1.7,1.7v20.4c0,0.9-0.8,1.7-1.7,1.7h2c0.9,0,1.7-0.8,1.7-1.7v-20.4
				C293.2,741.2,292.4,740.5,291.5,740.5z"/>
		</g>
		<path class="st27" d="M293.2,739.7v3.8h-41.6v-3.8c0-0.9,0.8-1.7,1.7-1.7h38.2C292.4,738,293.2,738.8,293.2,739.7L293.2,739.7z"/>
		<path class="st22" d="M291.5,738h-2c0.9,0,1.7,0.8,1.7,1.7v3.8h2v-3.8C293.2,738.8,292.4,738,291.5,738z"/>
		<g>
			<path class="st25" d="M288.9,741.4h-2c-0.4,0-0.7-0.3-0.7-0.7s0.3-0.7,0.7-0.7h2c0.4,0,0.7,0.3,0.7,0.7
				C289.5,741.1,289.3,741.4,288.9,741.4z"/>
		</g>
		<path class="st28" d="M260.1,738h-5.2v-1.3c0-0.5,0.4-0.9,0.9-0.9h3.3c0.5,0,0.9,0.4,0.9,0.9L260.1,738L260.1,738z"/>
		<circle class="st28" cx="272.4" cy="751.3" r="10.7"/>
		<path class="st25" d="M272.4,740.5c-0.3,0-0.7,0-0.9,0c5.5,0.5,9.8,5.1,9.8,10.7c0,5.6-4.3,10.2-9.8,10.7c0.3,0,0.7,0,0.9,0
			c5.9,0,10.7-4.8,10.7-10.7S278.3,740.5,272.4,740.5L272.4,740.5z"/>
		<circle class="st30" cx="272.4" cy="751.3" r="8"/>
		<path class="st31" d="M272.4,743.3c-0.4,0-0.7,0-1,0c3.9,0.5,6.9,3.8,6.9,7.8c0,4.1-3,7.3-6.9,7.8c0.4,0,0.7,0,1,0
			c4.4,0,8-3.5,8-8C280.4,746.9,276.7,743.3,272.4,743.3L272.4,743.3z"/>
		<g>
			<g>
				<path class="st25" d="M288.1,761.6c-0.4,0-0.7-0.3-0.7-0.7v-0.3c0-0.4,0.3-0.7,0.7-0.7c0.4,0,0.7,0.3,0.7,0.7v0.3
					C288.7,761.4,288.5,761.6,288.1,761.6z"/>
			</g>
			<g>
				<path class="st25" d="M256.7,761.6c-0.4,0-0.7-0.3-0.7-0.7v-0.3c0-0.4,0.3-0.7,0.7-0.7c0.4,0,0.7,0.3,0.7,0.7v0.3
					C257.2,761.4,256.9,761.6,256.7,761.6z"/>
			</g>
		</g>
	</g>
</g>
<g>
	<path class="st1" d="M737.9,604v8.6c0,6.6-5.4,12-12,12h-339L373.5,638l-13.4-13.4h-339c-6.6,0-12-5.4-12-12V604h-3v8.6
		c0,8.3,6.7,15,15,15h337.8l14.6,14.6l14.6-14.6h337.8c8.3,0,15-6.7,15-15V604H737.9z"/>
</g>
<path class="st1" d="M721.3,376.9H565.1c-10.8,0-19.6-8.2-19.6-18.4l0,0c0-10.1,8.7-18.4,19.6-18.4h156.2c10.8,0,19.6,8.2,19.6,18.4
	l0,0C740.9,368.7,732.2,376.9,721.3,376.9z"/>
<g class="st20">
	<path class="st9" d="M574.3,364.8h-1.6v-15.5h1.8l5.2,12.5l0,0l5.2-12.5h1.8V365h-1.6v-11.6h-0.1l-4.5,10.4H579l-4.5-10.4h-0.1
		L574.3,364.8C574.2,364.8,574.3,364.8,574.3,364.8z"/>
	<path class="st9" d="M595.5,365.1c-1.6,0-2.8-0.4-3.7-1.3s-1.3-2.2-1.3-3.9V358c0-1.6,0.4-2.8,1.3-3.7c0.9-0.9,2.1-1.5,3.6-1.5
		s2.7,0.4,3.6,1.5c0.9,0.9,1.3,2.2,1.3,3.7v1.5h-7.9v0.6c0,1,0.3,1.8,0.9,2.5c0.6,0.6,1.3,1,2.4,1c0.7,0,1.3-0.1,1.8-0.4
		c0.4-0.3,0.7-0.6,0.9-1h1.9c0,0.3-0.1,0.7-0.4,1c-0.1,0.3-0.4,0.6-0.9,1c-0.3,0.3-0.9,0.6-1.3,0.7
		C596.8,365,596.2,365.1,595.5,365.1z M592.3,358h6.1v-0.1c0-0.7-0.1-1.3-0.4-1.8c-0.3-0.4-0.6-0.9-1-1.2c-0.4-0.3-1-0.4-1.6-0.4
		c-0.9,0-1.6,0.3-2.2,0.9s-0.9,1.5-0.9,2.5V358L592.3,358z"/>
	<path class="st9" d="M603.8,364.8v-12h1.8v2.2h0.1c0.4-1.6,1.8-2.4,3.7-2.4c1.2,0,2.2,0.3,3,1c0.7,0.7,1,1.6,1,3v8.2h-1.8v-7.7
		c0-0.9-0.3-1.6-0.7-2.2c-0.4-0.4-1.2-0.7-1.9-0.7c-1,0-1.9,0.3-2.5,1s-0.9,1.6-0.9,2.8v6.7C605.6,364.8,603.8,364.8,603.8,364.8z"
		/>
	<path class="st9" d="M618.1,352.9v-3h1.8v3h2.7v1.5h-2.7v7.1c0,0.4,0,0.9,0.1,1.2c0.1,0.3,0.3,0.4,0.6,0.6c0.3,0.1,0.7,0.1,1.2,0.1
		c0.3,0,0.6,0,0.9,0v1.5c-0.3,0-0.7,0.1-1.3,0.1c-0.7,0-1.2,0-1.6-0.1s-0.7-0.3-1-0.6c-0.3-0.3-0.4-0.6-0.4-1s-0.1-0.9-0.1-1.5v-7.1
		h-1.8v-1.5L618.1,352.9L618.1,352.9z"/>
	<path class="st9" d="M629.3,365.1c-0.6,0-1-0.1-1.6-0.3c-0.4-0.1-0.9-0.4-1.2-0.7c-0.3-0.3-0.6-0.7-0.7-1.2
		c-0.1-0.5-0.3-0.9-0.3-1.5c0-0.7,0.1-1.3,0.4-1.8c0.3-0.6,0.7-0.9,1.5-1.2c0.6-0.3,1.3-0.4,2.2-0.4h3.3v-1.2c0-0.7-0.3-1.3-0.7-1.8
		c-0.4-0.4-1.2-0.6-1.9-0.6c-1.3,0-2.2,0.4-2.5,1.5h-1.9c0.1-1,0.6-1.8,1.3-2.2c0.7-0.6,1.8-0.7,3.1-0.7c1.3,0,2.4,0.3,3.1,0.9
		c0.9,0.6,1.2,1.6,1.2,3v8.2h-1.9v-1.6l0,0C632.1,364.5,630.8,365.1,629.3,365.1z M629.8,363.5c0.9,0,1.6-0.3,2.2-0.7
		c0.6-0.6,0.9-1.2,0.9-1.9v-1.3h-3.1c-0.9,0-1.5,0.1-1.8,0.6c-0.4,0.3-0.6,0.9-0.6,1.5c0,0.7,0.3,1.2,0.7,1.6
		C628.5,363.3,629.1,363.5,629.8,363.5z"/>
	<path class="st9" d="M638.8,364.8v-16.4h1.8v16.4H638.8z"/>
	<path class="st9" d="M650.2,364.8v-16.4h1.8v6.7h0.1c0-0.1,0.1-0.4,0.3-0.6c0.1-0.1,0.3-0.4,0.4-0.6c0.1-0.1,0.4-0.4,0.7-0.6
		c0.3-0.1,0.6-0.3,1-0.4s0.9-0.1,1.3-0.1c1.2,0,2.2,0.3,3,1c0.7,0.7,1,1.6,1,3v8.2H658v-7.6c0-0.9-0.3-1.6-0.7-2.2s-1.2-0.7-2.1-0.7
		c-1,0-1.9,0.3-2.4,1c-0.6,0.7-0.9,1.6-0.9,2.8v6.7L650.2,364.8L650.2,364.8z"/>
	<path class="st9" d="M668.5,365.1c-1.6,0-2.8-0.4-3.7-1.3s-1.3-2.2-1.3-3.9V358c0-1.6,0.4-2.8,1.3-3.7c0.9-0.9,2.1-1.5,3.6-1.5
		s2.7,0.4,3.6,1.5c0.9,0.9,1.3,2.2,1.3,3.7v1.5h-7.9v0.6c0,1,0.3,1.8,0.9,2.5c0.6,0.6,1.3,1,2.4,1c0.7,0,1.3-0.1,1.8-0.4
		c0.4-0.3,0.7-0.6,0.9-1h1.9c0,0.3-0.1,0.7-0.4,1c-0.1,0.3-0.4,0.6-0.9,1c-0.3,0.3-0.9,0.6-1.3,0.7
		C669.8,365,669.1,365.1,668.5,365.1z M665.2,358h6.1v-0.1c0-0.7-0.1-1.3-0.4-1.8c-0.3-0.6-0.6-0.9-1-1.2c-0.4-0.3-1-0.4-1.6-0.4
		c-0.9,0-1.6,0.3-2.2,0.9s-0.9,1.5-0.9,2.5V358L665.2,358z"/>
	<path class="st9" d="M680,365.1c-0.6,0-1-0.1-1.6-0.3c-0.4-0.1-0.9-0.4-1.2-0.7c-0.3-0.3-0.6-0.7-0.7-1.2c-0.1-0.4-0.3-0.9-0.3-1.5
		c0-0.7,0.1-1.3,0.4-1.8c0.3-0.6,0.7-0.9,1.5-1.2c0.6-0.3,1.3-0.4,2.2-0.4h3.3v-1.2c0-0.7-0.3-1.3-0.7-1.8c-0.4-0.4-1.2-0.6-1.9-0.6
		c-1.3,0-2.2,0.4-2.5,1.5h-1.8c0.1-1,0.6-1.8,1.3-2.2c0.7-0.6,1.8-0.7,3.1-0.7c1.3,0,2.4,0.3,3.1,0.9c0.9,0.6,1.2,1.6,1.2,3v8.2
		h-1.8v-1.6l0,0C682.7,364.5,681.5,365.1,680,365.1z M680.3,363.5c0.9,0,1.6-0.3,2.2-0.7c0.6-0.6,0.9-1.2,0.9-1.9v-1.3h-3.1
		c-0.9,0-1.5,0.1-1.8,0.6c-0.4,0.3-0.6,0.9-0.6,1.5c0,0.7,0.3,1.2,0.7,1.6C679.1,363.3,679.7,363.5,680.3,363.5z"/>
	<path class="st9" d="M689.2,364.8v-16.4h1.8v16.4H689.2z"/>
	<path class="st9" d="M696,352.9v-3h1.8v3h2.7v1.5h-2.7v7.1c0,0.4,0,0.9,0.1,1.2c0.1,0.3,0.3,0.4,0.6,0.6c0.3,0.1,0.7,0.1,1.2,0.1
		c0.3,0,0.6,0,0.9,0v1.5c-0.3,0-0.7,0.1-1.3,0.1c-0.7,0-1.2,0-1.6-0.1s-0.7-0.3-1-0.6c-0.3-0.3-0.4-0.6-0.4-1
		c-0.1-0.4-0.1-0.9-0.1-1.5v-7.1h-1.8v-1.5L696,352.9L696,352.9z"/>
	<path class="st9" d="M704.1,364.8v-16.4h1.8v6.7h0.1c0-0.1,0.1-0.4,0.3-0.6c0.1-0.1,0.3-0.4,0.4-0.6c0.1-0.1,0.4-0.4,0.7-0.6
		c0.3-0.1,0.6-0.3,1-0.4s0.9-0.1,1.3-0.1c1.2,0,2.2,0.3,3,1c0.7,0.7,1,1.6,1,3v8.2h-1.8v-7.6c0-0.9-0.3-1.6-0.7-2.2
		s-1.2-0.7-2.1-0.7c-1,0-1.9,0.3-2.4,1c-0.6,0.7-0.9,1.6-0.9,2.8v6.7L704.1,364.8L704.1,364.8z"/>
</g>
</svg>
