<?xml version="1.0" encoding="utf-8"?>
<!-- Generator: Adobe Illustrator 24.2.1, SVG Export Plug-In . SVG Version: 6.00 Build 0)  -->
<svg version="1.1" xmlns="http://www.w3.org/2000/svg" xmlns:xlink="http://www.w3.org/1999/xlink" x="0px" y="0px"
	 viewBox="0 0 713.02 331.08" style="enable-background:new 0 0 713.02 331.08;" xml:space="preserve">
<style type="text/css">
	.st0{fill:#C6C6C6;stroke:#C6C6C6;stroke-width:1.8769;stroke-miterlimit:10;}
	
		.st1{fill:none;stroke:#C6C6C6;stroke-width:1.8769;stroke-miterlimit:10;stroke-dasharray:1.0797,1.0797,1.0797,1.0797,1.0797,1.0797;}
	.st2{fill:#02ACBB;stroke:#02ACBB;stroke-width:1.8769;stroke-miterlimit:10;}
	.st3{fill:none;stroke:#898989;stroke-width:1.4077;stroke-miterlimit:10;}
	.st4{fill:#898989;}
	.st5{fill:none;stroke:#B1E5E5;stroke-width:1.4077;stroke-miterlimit:10;}
	.st6{fill:none;stroke:#02ACBB;stroke-width:1.4077;stroke-miterlimit:10;}
	.st7{fill:none;stroke:#FB809F;stroke-width:1.4077;stroke-miterlimit:10;}
	.st8{fill:#02ACBB;}
	.st9{font-family:'Galvji-Bold';}
	.st10{font-size:13.9019px;}
	.st11{fill:#FB809F;}
	.st12{fill:#B1E5E5;}
	.st13{fill:none;stroke:#02ACBB;stroke-width:1.2643;stroke-miterlimit:10;}
	.st14{fill:none;stroke:#02ACBB;stroke-width:1.4042;stroke-miterlimit:10;}
	.st15{fill:#FFFFFF;}
</style>
<g id="Capa_2">
</g>
<g id="Capa_1">
	<g>
		<g>
			<circle class="st0" cx="282.12" cy="126.53" r="1.8"/>
			<circle class="st0" cx="310.57" cy="112.39" r="1.8"/>
			<circle class="st0" cx="342.46" cy="102.11" r="1.8"/>
			<circle class="st0" cx="387.76" cy="127.05" r="1.8"/>
			<circle class="st0" cx="379.12" cy="159.85" r="1.8"/>
			<circle class="st0" cx="371.47" cy="98.51" r="1.8"/>
			<circle class="st0" cx="360.12" cy="117.92" r="1.8"/>
			<circle class="st0" cx="315.96" cy="84.04" r="1.8"/>
			<circle class="st0" cx="299.9" cy="96.71" r="1.8"/>
			<circle class="st0" cx="271.7" cy="96.71" r="1.8"/>
			<circle class="st0" cx="252.93" cy="130.13" r="1.8"/>
			<circle class="st0" cx="260.71" cy="151.37" r="1.8"/>
			<circle class="st0" cx="269.91" cy="182.53" r="1.8"/>
			<circle class="st0" cx="367.87" cy="190.9" r="1.8"/>
			<circle class="st0" cx="399.55" cy="130.13" r="1.8"/>
			<circle class="st0" cx="403.14" cy="210.02" r="1.8"/>
			<circle class="st0" cx="321.47" cy="231.89" r="1.8"/>
			<circle class="st0" cx="260.71" cy="218.08" r="1.8"/>
			<circle class="st0" cx="287.68" cy="216.29" r="1.8"/>
			<circle class="st0" cx="251.13" cy="192.7" r="1.8"/>
			<circle class="st0" cx="373.26" cy="231.02" r="1.8"/>
			<circle class="st0" cx="410.58" cy="166.41" r="1.8"/>
			<circle class="st0" cx="391.61" cy="194.01" r="1.8"/>
			<circle class="st0" cx="347.01" cy="258.47" r="1.8"/>
			<circle class="st0" cx="344.26" cy="232.44" r="1.8"/>
			<circle class="st0" cx="389.88" cy="148.4" r="1.8"/>
			<circle class="st0" cx="385.96" cy="181.72" r="1.8"/>
			<circle class="st0" cx="378.3" cy="120.38" r="1.8"/>
			<circle class="st0" cx="374.71" cy="212.77" r="1.8"/>
			<circle class="st0" cx="406.38" cy="152" r="1.8"/>
			<circle class="st0" cx="409.98" cy="231.89" r="1.8"/>
			<circle class="st0" cx="380.1" cy="252.89" r="1.8"/>
			<circle class="st0" cx="417.42" cy="188.28" r="1.8"/>
			<circle class="st0" cx="386.54" cy="209.17" r="1.8"/>
			<circle class="st0" cx="285.83" cy="199.86" r="1.8"/>
			<circle class="st0" cx="274.84" cy="168.16" r="1.8"/>
			<circle class="st0" cx="308.46" cy="220.03" r="1.8"/>
			<circle class="st0" cx="271.43" cy="135.31" r="1.8"/>
			<circle class="st0" cx="269.41" cy="203.81" r="1.8"/>
			<circle class="st0" cx="231.35" cy="133.48" r="1.8"/>
			<circle class="st0" cx="249.09" cy="101.56" r="1.8"/>
			<circle class="st0" cx="256.39" cy="173.07" r="1.8"/>
			<circle class="st0" cx="247.75" cy="152.72" r="1.8"/>
			<circle class="st0" cx="368.87" cy="223.9" r="1.8"/>
			<circle class="st0" cx="335.55" cy="219.98" r="1.8"/>
			<circle class="st0" cx="396.89" cy="225.7" r="1.8"/>
			<circle class="st0" cx="304.5" cy="208.73" r="1.8"/>
			<circle class="st0" cx="365.27" cy="240.41" r="1.8"/>
			<circle class="st0" cx="285.38" cy="244" r="1.8"/>
			<circle class="st0" cx="272.98" cy="218.08" r="1.8"/>
			<circle class="st0" cx="328.99" cy="251.44" r="1.8"/>
			<circle class="st0" cx="308.09" cy="230.67" r="1.8"/>
			<circle class="st0" cx="381.57" cy="96.41" r="1.8"/>
			<circle class="st0" cx="377.65" cy="129.72" r="1.8"/>
			<circle class="st0" cx="369.99" cy="68.38" r="1.8"/>
			<circle class="st0" cx="366.4" cy="160.78" r="1.8"/>
			<circle class="st0" cx="398.07" cy="100" r="1.8"/>
			<circle class="st0" cx="401.67" cy="179.89" r="1.8"/>
			<circle class="st0" cx="371.79" cy="200.89" r="1.8"/>
			<circle class="st0" cx="409.11" cy="136.29" r="1.8"/>
			<circle class="st0" cx="393.41" cy="158.98" r="1.8"/>
			<circle class="st0" cx="368.33" cy="148.32" r="1.8"/>
			<circle class="st0" cx="347.54" cy="121.99" r="1.8"/>
			<circle class="st0" cx="396.89" cy="169.45" r="1.8"/>
			<circle class="st0" cx="333.54" cy="92.08" r="1.8"/>
			<circle class="st0" cx="354.12" cy="157.45" r="1.8"/>
			<circle class="st0" cx="295.08" cy="103.51" r="1.8"/>
			<circle class="st0" cx="301.36" cy="67.53" r="1.8"/>
			<circle class="st0" cx="279.32" cy="108.03" r="1.8"/>
			<circle class="st0" cx="320.57" cy="110.14" r="1.8"/>
			<circle class="st0" cx="243.31" cy="141.87" r="1.8"/>
			<circle class="st0" cx="252.93" cy="96.3" r="1.8"/>
			<circle class="st0" cx="236.5" cy="121.12" r="1.8"/>
			<circle class="st0" cx="226.13" cy="113.57" r="1.8"/>
			<circle class="st0" cx="246.55" cy="83.85" r="1.8"/>
			<circle class="st0" cx="255.79" cy="163.74" r="1.8"/>
			<circle class="st0" cx="257.59" cy="120.13" r="1.8"/>
			<circle class="st0" cx="241.51" cy="131.52" r="1.8"/>
			<circle class="st0" cx="237.06" cy="157.55" r="1.8"/>
			<circle class="st0" cx="241.84" cy="111.74" r="1.8"/>
			<circle class="st0" cx="228.51" cy="89.03" r="1.8"/>
			<circle class="st0" cx="236.5" cy="91.81" r="1.8"/>
			<circle class="st0" cx="250.15" cy="234.24" r="1.8"/>
			<circle class="st0" cx="247.75" cy="180.51" r="1.8"/>
			<circle class="st0" cx="232.26" cy="201.4" r="1.8"/>
			<circle class="st0" cx="223.13" cy="195.81" r="1.8"/>
			<circle class="st0" cx="243.55" cy="166.09" r="1.8"/>
			<circle class="st0" cx="247.15" cy="245.98" r="1.8"/>
			<circle class="st0" cx="254.59" cy="202.38" r="1.8"/>
			<circle class="st0" cx="233.82" cy="223.27" r="1.8"/>
			<circle class="st0" cx="234.06" cy="239.79" r="1.8"/>
			<circle class="st0" cx="238.84" cy="193.98" r="1.8"/>
			<circle class="st0" cx="225.51" cy="171.27" r="1.8"/>
			<circle class="st0" cx="233.5" cy="174.05" r="1.8"/>
			<circle class="st0" cx="277.52" cy="230.09" r="1.8"/>
			<circle class="st0" cx="274.78" cy="249.96" r="1.8"/>
			<circle class="st0" cx="261.44" cy="227.25" r="1.8"/>
			<circle class="st0" cx="261.69" cy="243.78" r="1.8"/>
			<circle class="st0" cx="306.97" cy="263.6" r="1.8"/>
			<circle class="st0" cx="294.27" cy="247.46" r="1.8"/>
			<circle class="st0" cx="319.67" cy="254.42" r="1.8"/>
			<circle class="st0" cx="310.82" cy="101.38" r="1.8"/>
			<circle class="st0" cx="283.61" cy="98.99" r="1.8"/>
			<circle class="st0" cx="295.47" cy="75.48" r="1.8"/>
			<circle class="st0" cx="281.72" cy="84.63" r="1.8"/>
			<circle class="st0" cx="366.4" cy="92.08" r="1.8"/>
			<circle class="st0" cx="356.28" cy="90.24" r="1.8"/>
			<circle class="st0" cx="355.63" cy="99.59" r="1.8"/>
			<circle class="st0" cx="307.96" cy="242.76" r="1.8"/>
			<circle class="st0" cx="375.85" cy="183.52" r="1.8"/>
			<circle class="st0" cx="375.92" cy="171.27" r="1.8"/>
			<circle class="st0" cx="365.3" cy="175.25" r="1.8"/>
			<circle class="st0" cx="327.19" cy="174.08" r="1.8"/>
			<circle class="st0" cx="329.59" cy="207.38" r="1.8"/>
			<circle class="st0" cx="388.08" cy="239.56" r="1.8"/>
			<circle class="st0" cx="412.38" cy="205.58" r="1.8"/>
			<circle class="st0" cx="361.84" cy="267.06" r="1.8"/>
			<circle class="st0" cx="403.47" cy="194.5" r="1.8"/>
			<circle class="st0" cx="210.4" cy="170.48" r="1.8"/>
			<circle class="st0" cx="383.37" cy="137.73" r="1.8"/>
			<circle class="st0" cx="420.93" cy="154.49" r="1.8"/>
			<circle class="st0" cx="418.28" cy="102.58" r="1.8"/>
			<circle class="st0" cx="400.51" cy="144.26" r="1.8"/>
			<circle class="st0" cx="420.93" cy="114.54" r="1.8"/>
			<circle class="st0" cx="343.55" cy="140.07" r="1.8"/>
			<circle class="st0" cx="429.92" cy="182.57" r="1.8"/>
			<circle class="st0" cx="385.96" cy="223.27" r="1.8"/>
			<circle class="st0" cx="426.33" cy="209.04" r="1.8"/>
			<circle class="st0" cx="202.09" cy="148.32" r="1.8"/>
			<circle class="st0" cx="210.4" cy="183.68" r="1.8"/>
			<circle class="st0" cx="202.09" cy="131.69" r="1.8"/>
			<circle class="st0" cx="198.17" cy="165" r="1.8"/>
			<circle class="st0" cx="218.14" cy="134.49" r="1.8"/>
			<circle class="st0" cx="222.19" cy="215.17" r="1.8"/>
			<circle class="st0" cx="215.62" cy="155.65" r="1.8"/>
			<circle class="st0" cx="228.51" cy="251.09" r="1.8"/>
			<circle class="st0" cx="223.99" cy="229.78" r="1.8"/>
			<circle class="st0" cx="331.42" cy="266.88" r="1.8"/>
			<circle class="st0" cx="377.65" cy="268.86" r="1.8"/>
			<circle class="st0" cx="354.49" cy="286.65" r="1.8"/>
			<circle class="st0" cx="320.97" cy="285.25" r="1.8"/>
			<circle class="st0" cx="347.15" cy="275.84" r="1.8"/>
			<circle class="st0" cx="313.62" cy="278.71" r="1.8"/>
			<circle class="st0" cx="323.67" cy="273.16" r="1.8"/>
			<circle class="st0" cx="208.57" cy="225.06" r="1.8"/>
			<circle class="st0" cx="299.19" cy="281.61" r="1.8"/>
			<circle class="st0" cx="352.65" cy="65.71" r="1.8"/>
			<circle class="st0" cx="310.82" cy="57.7" r="1.8"/>
			<circle class="st0" cx="347.34" cy="95.63" r="1.8"/>
			<circle class="st0" cx="331.53" cy="66.05" r="1.8"/>
			<circle class="st0" cx="331.74" cy="102.11" r="1.8"/>
			<circle class="st0" cx="271.18" cy="51.41" r="1.8"/>
			<circle class="st0" cx="293.03" cy="44.43" r="1.8"/>
			<circle class="st0" cx="323.81" cy="49.21" r="1.8"/>
			<circle class="st0" cx="337.46" cy="53.21" r="1.8"/>
			<circle class="st0" cx="410.13" cy="119.75" r="1.8"/>
			<circle class="st0" cx="438.09" cy="149.23" r="1.8"/>
			<circle class="st0" cx="348.27" cy="80.44" r="1.8"/>
			<circle class="st0" cx="427.66" cy="131.55" r="1.8"/>
			<circle class="st0" cx="404.94" cy="87.63" r="1.8"/>
			<circle class="st0" cx="208.6" cy="118.58" r="1.8"/>
			<circle class="st0" cx="439.88" cy="173.07" r="1.8"/>
			<circle class="st0" cx="425.39" cy="230.61" r="1.8"/>
			<circle class="st0" cx="416.48" cy="219.52" r="1.8"/>
			<circle class="st0" cx="259.71" cy="257.29" r="1.8"/>
			<circle class="st0" cx="206.78" cy="203.78" r="1.8"/>
			<circle class="st0" cx="267.61" cy="272.26" r="1.8"/>
			<circle class="st0" cx="240.46" cy="265.99" r="1.8"/>
			<circle class="st0" cx="295.85" cy="264.71" r="1.8"/>
			<circle class="st0" cx="361.84" cy="251.09" r="1.8"/>
			<circle class="st0" cx="284.95" cy="270.16" r="1.8"/>
			<circle class="st0" cx="396.84" cy="249.76" r="1.8"/>
			<circle class="st0" cx="410.96" cy="248.01" r="1.8"/>
			<circle class="st0" cx="287.28" cy="55.45" r="1.8"/>
			<circle class="st0" cx="383.97" cy="61.56" r="1.8"/>
			<circle class="st0" cx="241.51" cy="75.48" r="1.8"/>
			<circle class="st0" cx="267.76" cy="63.55" r="1.8"/>
			<circle class="st0" cx="230.46" cy="100.79" r="1.8"/>
			<circle class="st0" cx="272" cy="73.47" r="1.8"/>
			<circle class="st0" cx="362.55" cy="55.78" r="1.8"/>
			<circle class="st0" cx="244.67" cy="68.2" r="1.8"/>
			<circle class="st0" cx="258.83" cy="66.9" r="1.8"/>
			<circle class="st0" cx="386.53" cy="82.48" r="1.8"/>
			<circle class="st0" cx="317.76" cy="71.67" r="1.8"/>
			<circle class="st0" cx="348.8" cy="51.01" r="1.8"/>
			<circle class="st0" cx="394.61" cy="113.57" r="1.8"/>
			<circle class="st0" cx="341.75" cy="188.28" r="1.8"/>
			<circle class="st0" cx="319.18" cy="137.11" r="1.8"/>
			<circle class="st0" cx="293.03" cy="142.47" r="1.8"/>
			<path class="st1" d="M274.84,168.16c0,0,11.5-2.8,33.13,19.1"/>
			<polyline class="st1" points="315.96,84.04 310.82,101.38 320.57,110.14 310.57,112.39 347.54,121.99 			"/>
			<polyline class="st1" points="228.51,89.03 236.5,91.81 249.09,101.56 241.84,111.74 226.13,113.57 236.5,121.12 252.93,130.13 
				241.51,131.52 260.71,151.37 			"/>
			<path class="st1" d="M380.1,252.89l-14.83-12.48c0,0-17.1,11.74-21.01-7.96"/>
			<polyline class="st1" points="409.11,136.29 406.38,152 389.88,148.4 368.33,148.32 357.91,141.2 354.12,157.45 366.4,160.78 
				375.92,171.27 375.85,183.52 367.87,190.9 365.3,175.25 			"/>
			<path class="st1" d="M325.71,192.7l-21.21,16.03l31.05,11.25l-27.09,0.05c0,0,9.18,11.62,11.21,34.39l11.74,12.46
				c2.43,17.24,23.07,19.76,23.07,19.76l-33.52-1.39"/>
			<polyline class="st1" points="409.98,231.89 396.89,225.7 403.14,210.02 391.61,194.01 			"/>
			<polyline class="st1" points="243.31,141.87 247.75,152.72 260.71,151.37 			"/>
			<polyline class="st1" points="354.12,157.45 327.19,174.08 347.15,174.08 			"/>
			<polyline class="st1" points="233.82,223.27 251.13,192.7 254.59,202.38 269.41,203.81 269.91,182.53 293.6,187.93 			"/>
			<path class="st1" d="M388.34,209.17l-16.55-8.28l19.82-6.88l-5.65-12.29c0,0-3-19.31,7.45-22.74s17.18,7.44,17.18,7.44
				l6.84,21.87"/>
			<polyline class="st1" points="387.76,127.05 399.55,130.13 389.88,148.4 			"/>
			<path class="st1" d="M252.93,96.3c0,0,15.79,4.89,32.78,58.66"/>
			<polyline class="st1" points="198.17,165 210.4,183.68 206.78,203.78 223.13,195.81 232.26,201.4 238.84,193.98 247.75,180.51 
				243.55,166.09 255.79,163.74 274.84,168.16 			"/>
			<path class="st1" d="M208.57,225.06l15.42,4.72l10.07,10.01l13.09,6.19l3-11.74l11.29-6.99l-0.73-9.17c0,0,6.68-5.57,12.27,0
				c0,0,7.86,5.99,14.7-1.8"/>
			<path class="st1" d="M208.6,118.58c0,0,14.31-0.19,22.75,14.9l5.71,24.07l-3.56,16.5l14.26,6.46c0,0,8.7,11.5,22.15,2.03
				l4.93-14.37l10.87-13.2l-25-3.6l10.72-16.05l-13.84-15.18c0,0,20.45-10.83,14.11-23.42c-6.34-12.59-23.35-12.86-23.35-12.86"/>
			<path class="st1" d="M293.03,44.43l-21.85,6.98l-3.42,12.13l4.24,9.92l9.72,11.17l13.76-9.16c0,0,1.96,18.68-11.87,23.51
				l-4.29,9.05l2.8,18.5l12.97-23.03l4.82-6.79"/>
			<polyline class="st1" points="310.57,149.23 293.03,142.47 282.12,126.53 			"/>
			<line class="st1" x1="307.23" y1="170.48" x2="293.03" y2="142.47"/>
			<polyline class="st1" points="310.57,112.39 319.18,137.11 333.19,157.2 			"/>
			<polyline class="st1" points="335.55,219.98 329.59,207.38 341.75,188.28 			"/>
			<path class="st1" d="M347.54,121.99c0,0,5.92,11.82-3.99,18.08"/>
			<polyline class="st1" points="202.09,131.69 202.09,148.32 218.14,134.49 231.35,133.48 			"/>
			<polyline class="st1" points="210.4,170.48 215.62,155.65 225.51,171.27 233.5,174.05 			"/>
			<line class="st1" x1="222.19" y1="215.17" x2="223.99" y2="229.78"/>
			<polyline class="st1" points="228.51,251.09 240.46,265.99 259.71,257.29 247.15,245.98 			"/>
			<line class="st1" x1="295.85" y1="264.71" x2="294.27" y2="247.46"/>
			<polyline class="st1" points="328.99,251.44 321.47,231.89 335.55,219.98 344.26,232.44 371.79,200.89 346.06,204.62 
				374.71,212.77 368.87,223.9 375.06,231.02 			"/>
			<polyline class="st1" points="323.81,49.21 331.53,66.05 333.54,92.08 331.74,102.11 320.57,110.14 			"/>
			<polyline class="st1" points="383.97,61.56 386.53,82.48 398.07,100 381.57,96.41 366.4,92.08 			"/>
			<polyline class="st1" points="310.82,57.7 317.76,71.67 301.36,67.53 299.9,96.71 301.7,130.13 			"/>
			<line class="st1" x1="287.28" y1="55.45" x2="281.72" y2="84.63"/>
			<path class="st1" d="M244.67,68.2l14.16-1.31c0,0,10.84,9.03,12.88,29.82"/>
			<line class="st1" x1="230.46" y1="100.79" x2="236.5" y2="91.81"/>
			<path class="st1" d="M313.62,278.71l10.05-5.55l-16.7-9.56l-12.7-16.13c0,0-6.41,10.48-19.5,2.5l10.17,20.2
				c0,0,10.9,1.08,14.25,11.45c3.35,10.37-38.58,6.6-31.58-9.35c7-15.95-5.92-28.48-5.92-28.48l15.83-13.69l7.87,13.91l22.58-1.24
				c0,0,8.68-4.82,0.13-12.09c-8.55-7.27-22.27-30.81-22.27-30.81"/>
			<polyline class="st1" points="418.28,102.58 394.61,113.57 378.3,120.38 			"/>
			<path class="st1" d="M404.94,87.63l5.19,32.12l17.53,11.8l-6.72,22.93l17.15-5.26c0,0,7.16,12.15,1.8,23.84l-9.96,9.5
				c0,0-11.79-13.95-28.25-2.68l-4.78-10.44l-3.49-10.47"/>
			<polyline class="st1" points="426.33,209.04 425.39,230.61 416.48,219.52 412.38,205.58 403.47,194.5 391.61,194.01 			"/>
			<polyline class="st1" points="377.65,268.86 361.84,267.06 347.15,275.84 347.01,258.47 361.84,251.09 365.27,240.41 
				373.59,230.79 			"/>
			<polyline class="st1" points="410.96,248.01 396.84,249.76 388.08,239.56 385.96,223.27 386.54,209.17 			"/>
			<polyline class="st1" points="337.46,53.21 348.8,51.01 352.65,65.71 348.27,80.44 347.34,95.63 342.46,102.11 334.23,128.77 			
				"/>
			<polyline class="st1" points="362.55,55.78 369.99,68.38 366.4,92.08 356.28,90.24 355.63,99.59 360.12,117.92 347.54,121.99 
				334.23,128.77 377.65,129.72 378.3,120.38 371.47,98.51 			"/>
			<line class="st1" x1="420.93" y1="114.54" x2="410.13" y2="119.75"/>
			<g>
				<circle class="st2" cx="301.01" cy="129.47" r="3.6"/>
				<circle class="st2" cx="309.88" cy="148.57" r="3.6"/>
				<circle class="st2" cx="357.22" cy="140.54" r="3.6"/>
				<circle class="st2" cx="333.54" cy="128.11" r="3.6"/>
				<circle class="st2" cx="306.53" cy="169.82" r="3.6"/>
				<circle class="st2" cx="346.45" cy="173.42" r="3.6"/>
				<circle class="st2" cx="285.02" cy="154.3" r="3.6"/>
				<circle class="st2" cx="332.49" cy="156.54" r="3.6"/>
				<circle class="st2" cx="325.02" cy="192.04" r="3.6"/>
				<circle class="st2" cx="292.9" cy="187.27" r="3.6"/>
				<circle class="st2" cx="345.36" cy="203.96" r="3.6"/>
			</g>
			<circle class="st2" cx="307.96" cy="187.27" r="3.6"/>
		</g>
		<g>
			<g>
				<g>
					<polyline class="st3" points="168.29,229.66 8.09,229.66 8.09,149.22 					"/>
					<g>
						<polygon class="st4" points="165.49,227.27 167.88,229.66 165.49,232.04 167.52,232.04 169.9,229.66 167.52,227.27 						"/>
					</g>
					<g>
						<polygon class="st4" points="10.48,152.03 8.09,149.64 5.71,152.03 5.71,150 8.09,147.61 10.48,150 						"/>
					</g>
				</g>
			</g>
			<g>
				<g>
					
						<rect x="37.66" y="142.55" transform="matrix(-1.836970e-16 1 -1 -1.836970e-16 211.9863 117.0614)" class="st5" width="19.6" height="43.94"/>
					<line class="st5" x1="108.49" y1="164.52" x2="69.43" y2="164.52"/>
					<line class="st5" x1="25.49" y1="164.27" x2="12.24" y2="164.27"/>
					<line class="st5" x1="52" y1="154.72" x2="52" y2="174.32"/>
				</g>
				<g>
					
						<rect x="83.94" y="171.2" transform="matrix(-1.836970e-16 1 -1 -1.836970e-16 281.7346 94.6846)" class="st6" width="19.17" height="34.02"/>
					<line class="st6" x1="148.73" y1="188.21" x2="110.54" y2="188.21"/>
					<line class="st6" x1="76.51" y1="187.96" x2="54.6" y2="187.96"/>
					<line class="st6" x1="85.99" y1="178.62" x2="85.99" y2="197.8"/>
				</g>
				<g>
					
						<rect x="118.67" y="194.56" transform="matrix(-1.836970e-16 1 -1 -1.836970e-16 341.2147 84.7062)" class="st7" width="19.17" height="36.8"/>
					<line class="st7" x1="165.75" y1="212.96" x2="146.65" y2="212.96"/>
					<line class="st7" x1="109.85" y1="212.71" x2="71.62" y2="212.71"/>
					<line class="st7" x1="124.66" y1="203.37" x2="124.66" y2="222.55"/>
				</g>
			</g>
			<g>
				<path class="st6" d="M169.87,43.14c-26.9,0-26.9,38.59-53.8,38.59c-26.9,0-26.9-38.59-53.8-38.59c-26.9,0-26.9,38.59-53.8,38.59
					"/>
				<path class="st6" d="M8.94,43.14c26.89,0,26.89,38.59,53.79,38.59c26.9,0,26.9-38.59,53.79-38.59c26.9,0,26.9,38.59,53.8,38.59"
					/>
				<path class="st6" d="M116.52,43.14c26.9,0,26.9,38.59,53.8,38.59"/>
				<path class="st6" d="M67.19,81.35"/>
				<path class="st7" d="M57.09,81.11c1.74,0.4,3.61,0.62,5.63,0.62c1.58,0,3.06-0.13,4.46-0.38"/>
			</g>
			<circle class="st3" cx="61.71" cy="79.76" r="10.85"/>
			<g>
				<line class="st6" x1="169.87" y1="115.91" x2="8.47" y2="115.91"/>
				<line class="st7" x1="98.21" y1="115.91" x2="78.43" y2="115.91"/>
			</g>
			<g>
				<line class="st6" x1="169.87" y1="109.52" x2="8.47" y2="109.52"/>
				<line class="st7" x1="98.21" y1="109.52" x2="78.43" y2="109.52"/>
			</g>
			<g>
				<g>
					<polyline class="st3" points="61.47,90.72 61.47,97.05 87.87,97.05 87.87,101.52 					"/>
					<g>
						<polygon class="st4" points="85.48,98.72 87.87,101.1 90.25,98.72 90.25,100.74 87.87,103.13 85.48,100.74 						"/>
					</g>
				</g>
			</g>
			<g>
				<g>
					<line class="st3" x1="88.32" y1="121.47" x2="88.32" y2="138.53"/>
					<g>
						<polygon class="st4" points="85.93,135.73 88.32,138.12 90.7,135.73 90.7,137.75 88.32,140.14 85.93,137.75 						"/>
					</g>
				</g>
			</g>
			<g>
				<g>
					<g>
						<path class="st6" d="M23.32,254.09c5.21,0,5.21,10.17,10.41,10.17c5.21,0,5.21-10.17,10.41-10.17
							c5.21,0,5.21,10.17,10.41,10.17c5.21,0,5.21-10.17,10.41-10.17"/>
					</g>
					<path class="st6" d="M23.56,264.26c5.21,0,5.21-10.17,10.41-10.17c5.21,0,5.21,10.17,10.41,10.17
						c5.21,0,5.21-10.17,10.41-10.17s5.21,10.17,10.41,10.17"/>
				</g>
				<g>
					<path class="st6" d="M43,278.28c5.21,0,5.21,10.17,10.41,10.17c5.21,0,5.21-10.17,10.41-10.17c5.21,0,5.21,10.17,10.41,10.17
						c5.21,0,5.21-10.17,10.41-10.17"/>
				</g>
				<path class="st6" d="M103.55,257.98c0.81,3.43-1.3,6.87-4.73,7.68c-1.88,0.45-3.77,0.01-5.22-1.04
					c-0.76,0.88-1.79,1.54-3.01,1.83c-3.07,0.73-6.15-1.17-6.88-4.24c-0.29-1.23-0.16-2.46,0.29-3.53c-0.89-0.76-1.56-1.8-1.85-3.03
					c-0.73-3.07,1.17-6.15,4.24-6.88c1.93-0.46,3.85,0.12,5.21,1.37c0.64-0.71,1.49-1.24,2.5-1.48c2.62-0.62,5.25,1,5.87,3.62
					c0.11,0.48,0.15,0.95,0.12,1.41C101.77,254.49,103.09,256.02,103.55,257.98z"/>
				<g>
					<circle class="st6" cx="103.75" cy="278.37" r="2.67"/>
					<circle class="st6" cx="116.9" cy="278.37" r="2.67"/>
					<circle class="st6" cx="130.04" cy="270.85" r="2.67"/>
					<line class="st6" x1="106.43" y1="278.37" x2="114.22" y2="278.37"/>
					<circle class="st6" cx="130.04" cy="285.77" r="2.67"/>
					<line class="st6" x1="119.23" y1="279.68" x2="127.72" y2="284.46"/>
					<line class="st6" x1="119.22" y1="277.04" x2="127.72" y2="272.18"/>
				</g>
				<g>
					<text transform="matrix(0.9598 0 0 1 129.1307 260.851)" class="st8 st9 st10">CH</text>
					<text transform="matrix(0.5596 0 0 0.583 149.471 265.4799)" class="st8 st9 st10">3</text>
				</g>
			</g>
		</g>
		<g>
			<g>
				
					<rect x="534.05" y="36.12" transform="matrix(-1.836970e-16 1 -1 -1.836970e-16 618.1539 -462.5602)" class="st8" width="12.62" height="83.35"/>
				
					<rect x="546.69" y="48.76" transform="matrix(-1.836970e-16 1 -1 -1.836970e-16 630.7934 -475.1996)" class="st11" width="12.62" height="58.07"/>
				<g>
					<g>
						
							<rect x="683.63" y="62.63" transform="matrix(-1.836970e-16 1 -1 -1.836970e-16 767.7375 -612.1438)" class="st8" width="12.62" height="30.33"/>
						
							<rect x="669.6" y="76.66" transform="matrix(-1.836970e-16 1 -1 -1.836970e-16 753.7055 -598.1117)" class="st12" width="12.62" height="2.27"/>
					</g>
					
						<rect x="688.56" y="67.57" transform="matrix(-1.836970e-16 1 -1 -1.836970e-16 772.6721 -617.0783)" class="st11" width="12.62" height="20.46"/>
				</g>
			</g>
			
				<rect x="496.5" y="73.67" transform="matrix(-1.836970e-16 1 -1 -1.836970e-16 580.6038 -425.01)" class="st12" width="12.62" height="8.25"/>
			
				<rect x="477.21" y="41.18" transform="matrix(-1.836970e-16 1 -1 -1.836970e-16 539.8638 -427.1718)" class="st8" width="12.62" height="30.33"/>
			
				<rect x="468.4" y="49.99" transform="matrix(-1.836970e-16 1 -1 -1.836970e-16 531.0541 -418.362)" class="st12" width="12.62" height="12.71"/>
			
				<rect x="490.95" y="54.92" transform="matrix(-1.836970e-16 1 -1 -1.836970e-16 553.6039 -440.9119)" class="st11" width="12.62" height="2.85"/>
			<g>
				
					<rect x="626.79" y="14.67" transform="matrix(-1.836970e-16 1 -1 -1.836970e-16 689.4474 -576.7554)" class="st8" width="12.62" height="83.35"/>
				
					<rect x="602.45" y="39.01" transform="matrix(-1.836970e-16 1 -1 -1.836970e-16 665.1056 -552.4136)" class="st12" width="12.62" height="34.66"/>
				
					<rect x="665.63" y="53.51" transform="matrix(-1.836970e-16 1 -1 -1.836970e-16 728.285 -615.5929)" class="st11" width="12.62" height="5.67"/>
			</g>
			<g>
				
					<rect x="518.88" y="59.89" transform="matrix(-1.836970e-16 1 -1 -1.836970e-16 641.9234 -408.4603)" class="st8" width="12.62" height="113.68"/>
				
					<rect x="477.21" y="101.57" transform="matrix(-1.836970e-16 1 -1 -1.836970e-16 600.2494 -366.7863)" class="st8" width="12.62" height="30.33"/>
				
					<rect x="468.4" y="110.38" transform="matrix(-1.836970e-16 1 -1 -1.836970e-16 591.4396 -357.9765)" class="st12" width="12.62" height="12.71"/>
				
					<rect x="490.95" y="115.31" transform="matrix(-1.836970e-16 1 -1 -1.836970e-16 613.9895 -380.5264)" class="st11" width="12.62" height="2.85"/>
				
					<rect x="534.05" y="75.06" transform="matrix(-1.836970e-16 1 -1 -1.836970e-16 657.0886 -423.6255)" class="st8" width="12.62" height="83.35"/>
				
					<rect x="496.5" y="112.61" transform="matrix(-1.836970e-16 1 -1 -1.836970e-16 619.5385 -386.0753)" class="st12" width="12.62" height="8.25"/>
				
					<rect x="546.69" y="87.7" transform="matrix(-1.836970e-16 1 -1 -1.836970e-16 669.7281 -436.265)" class="st11" width="12.62" height="58.07"/>
			</g>
			<g>
				
					<rect x="641.96" y="59.89" transform="matrix(-1.836970e-16 1 -1 -1.836970e-16 764.9982 -531.535)" class="st8" width="12.62" height="113.68"/>
				<g>
					
						<rect x="626.79" y="75.06" transform="matrix(-1.836970e-16 1 -1 -1.836970e-16 749.833 -516.3699)" class="st8" width="12.62" height="83.35"/>
					
						<rect x="602.45" y="99.4" transform="matrix(-1.836970e-16 1 -1 -1.836970e-16 725.4911 -492.028)" class="st12" width="12.62" height="34.66"/>
					
						<rect x="665.63" y="113.9" transform="matrix(-1.836970e-16 1 -1 -1.836970e-16 788.6705 -555.2073)" class="st11" width="12.62" height="5.67"/>
				</g>
				<g>
					<g>
						
							<rect x="683.63" y="101.57" transform="matrix(-1.836970e-16 1 -1 -1.836970e-16 806.6722 -573.2091)" class="st8" width="12.62" height="30.33"/>
						
							<rect x="669.6" y="115.6" transform="matrix(-1.836970e-16 1 -1 -1.836970e-16 792.6402 -559.177)" class="st12" width="12.62" height="2.27"/>
					</g>
					
						<rect x="688.56" y="106.5" transform="matrix(-1.836970e-16 1 -1 -1.836970e-16 811.6068 -578.1436)" class="st11" width="12.62" height="20.46"/>
				</g>
			</g>
			<path class="st13" d="M498.68,86.29v0.67c0,0.42,0.78,0.76,1.75,0.76h79.85c0.96,0,1.75-0.34,1.75-0.76v-0.67"/>
			<path class="st13" d="M591.43,64.83v0.67c0,0.42,0.78,0.76,1.75,0.76h79.85c0.96,0,1.75-0.34,1.75-0.76v-0.67"/>
			<path class="st13" d="M468.35,64.83v0.67c0,0.42,0.78,0.76,1.75,0.76h26.84c0.96,0,1.75-0.34,1.75-0.76v-0.67"/>
			<path class="st13" d="M674.78,86.29v0.67c0,0.42,0.78,0.76,1.75,0.76h26.84c0.96,0,1.75-0.34,1.75-0.76v-0.67"/>
			<g>
				<g>
					<line class="st13" x1="483.52" y1="66.29" x2="483.52" y2="105.72"/>
					<g>
						<polygon class="st8" points="481.37,103.2 483.52,105.35 485.66,103.2 485.66,105.02 483.52,107.17 481.37,105.02 						"/>
					</g>
				</g>
			</g>
			<g>
				<g>
					<line class="st13" x1="540.36" y1="88.07" x2="540.36" y2="105.72"/>
					<g>
						<polygon class="st8" points="538.21,103.2 540.36,105.35 542.5,103.2 542.5,105.02 540.36,107.17 538.21,105.02 						"/>
					</g>
				</g>
			</g>
			<g>
				<g>
					<line class="st13" x1="633.1" y1="66.29" x2="633.1" y2="105.72"/>
					<g>
						<polygon class="st8" points="630.96,103.2 633.1,105.35 635.25,103.2 635.25,105.02 633.1,107.17 630.96,105.02 						"/>
					</g>
				</g>
			</g>
			<g>
				<g>
					<line class="st13" x1="689.94" y1="88.07" x2="689.94" y2="105.72"/>
					<g>
						<polygon class="st8" points="687.8,103.2 689.94,105.35 692.08,103.2 692.08,105.02 689.94,107.17 687.8,105.02 						"/>
					</g>
				</g>
			</g>
		</g>
		<g>
			<line class="st14" x1="530.87" y1="152.44" x2="549.28" y2="152.44"/>
			<polyline class="st14" points="549.28,177.69 530.87,177.69 530.87,165.94 			"/>
			<polyline class="st14" points="540.08,152.44 540.08,165.94 530.87,165.94 501.39,165.94 501.39,177.69 482.98,177.69 			"/>
			<polyline class="st14" points="492.55,177.69 492.55,200.71 474.14,200.71 			"/>
			<polyline class="st14" points="540.08,177.69 540.08,189.2 517.53,189.2 517.53,200.71 535.95,200.71 			"/>
			<line class="st14" x1="635.92" y1="152.31" x2="654.33" y2="152.31"/>
			<polyline class="st14" points="626.71,177.69 645.12,177.69 645.12,152.44 			"/>
			<polyline class="st14" points="635.92,177.69 635.92,189.2 577.52,189.2 577.52,200.71 559.1,200.71 559.1,189.2 540.08,189.2 
							"/>
			<polyline class="st14" points="645.12,165.07 671.14,165.07 671.14,177.69 689.56,177.69 			"/>
			<polyline class="st14" points="635.92,189.2 635.92,200.71 654.33,200.71 			"/>
			<polyline class="st14" points="680.9,177.69 680.9,200.71 699.32,200.71 			"/>
			<path class="st14" d="M645.41,200.71"/>
			<path class="st14" d="M690.11,200.71"/>
			<g>
				<rect x="525.79" y="147.35" class="st15" width="10.17" height="10.17"/>
				<path class="st8" d="M535.25,148.06v8.76h-8.76v-8.76H535.25 M536.65,146.65h-11.57v11.57h11.57V146.65L536.65,146.65z"/>
			</g>
			<g>
				<circle class="st15" cx="549.28" cy="152.44" r="5.08"/>
				<path class="st8" d="M549.28,148.06c2.42,0,4.38,1.97,4.38,4.38s-1.97,4.38-4.38,4.38s-4.38-1.97-4.38-4.38
					S546.87,148.06,549.28,148.06 M549.28,146.65c-3.2,0-5.79,2.59-5.79,5.79s2.59,5.79,5.79,5.79c3.19,0,5.78-2.59,5.78-5.79
					S552.48,146.65,549.28,146.65L549.28,146.65z"/>
			</g>
			<g>
				<rect x="630.83" y="147.23" class="st15" width="10.17" height="10.17"/>
				<path class="st8" d="M640.3,147.93v8.76h-8.76v-8.76H640.3 M641.7,146.52h-11.57v11.57h11.57V146.52L641.7,146.52z"/>
			</g>
			<g>
				<path class="st15" d="M654.33,157.39c-2.8,0-5.08-2.28-5.08-5.08s2.28-5.08,5.08-5.08s5.08,2.28,5.08,5.08
					S657.13,157.39,654.33,157.39z"/>
				<path class="st8" d="M654.33,147.93c2.42,0,4.38,1.97,4.38,4.38s-1.97,4.38-4.38,4.38s-4.38-1.97-4.38-4.38
					S651.92,147.93,654.33,147.93 M654.33,146.52c-3.19,0-5.79,2.59-5.79,5.79s2.59,5.79,5.79,5.79s5.79-2.59,5.79-5.79
					S657.53,146.52,654.33,146.52L654.33,146.52z"/>
			</g>
			<g>
				<g>
					<rect x="477.89" y="172.61" class="st15" width="10.17" height="10.17"/>
					<path class="st8" d="M487.36,173.31v8.76h-8.76v-8.76H487.36 M488.76,171.91h-11.57v11.57h11.57V171.91L488.76,171.91z"/>
				</g>
				<g>
					<path class="st15" d="M501.39,182.78c-2.8,0-5.08-2.28-5.08-5.08s2.28-5.08,5.08-5.08s5.08,2.28,5.08,5.08
						S504.2,182.78,501.39,182.78z"/>
					<path class="st8" d="M501.39,173.31c2.42,0,4.38,1.97,4.38,4.38c0,2.42-1.97,4.38-4.38,4.38s-4.38-1.97-4.38-4.38
						C497.01,175.28,498.98,173.31,501.39,173.31 M501.39,171.91c-3.2,0-5.79,2.59-5.79,5.79c0,3.19,2.59,5.79,5.79,5.79
						c3.19,0,5.78-2.59,5.78-5.79C507.18,174.5,504.59,171.91,501.39,171.91L501.39,171.91z"/>
				</g>
				<g>
					<rect x="525.79" y="172.61" class="st15" width="10.17" height="10.17"/>
					<path class="st8" d="M535.25,173.31v8.76h-8.76v-8.76H535.25 M536.65,171.91h-11.57v11.57h11.57V171.91L536.65,171.91z"/>
				</g>
				<g>
					<path class="st15" d="M549.28,182.78c-2.8,0-5.08-2.28-5.08-5.08s2.28-5.08,5.08-5.08s5.08,2.28,5.08,5.08
						S552.09,182.78,549.28,182.78z"/>
					<path class="st8" d="M549.28,173.31c2.42,0,4.38,1.97,4.38,4.38c0,2.42-1.97,4.38-4.38,4.38s-4.38-1.97-4.38-4.38
						C544.9,175.28,546.87,173.31,549.28,173.31 M549.28,171.91c-3.2,0-5.79,2.59-5.79,5.79c0,3.19,2.59,5.79,5.79,5.79
						c3.19,0,5.78-2.59,5.78-5.79C555.07,174.5,552.48,171.91,549.28,171.91L549.28,171.91z"/>
				</g>
			</g>
			<g>
				<rect x="512.45" y="195.63" class="st15" width="10.17" height="10.17"/>
				<path class="st8" d="M521.92,196.33v8.76h-8.76v-8.76H521.92 M523.32,194.93h-11.57v11.57h11.57V194.93L523.32,194.93z"/>
			</g>
			<g>
				<circle class="st15" cx="535.95" cy="200.71" r="5.08"/>
				<path class="st8" d="M535.95,196.33c2.42,0,4.38,1.97,4.38,4.38s-1.97,4.38-4.38,4.38s-4.38-1.97-4.38-4.38
					S533.54,196.33,535.95,196.33 M535.95,194.93c-3.19,0-5.79,2.59-5.79,5.79s2.59,5.79,5.79,5.79s5.79-2.59,5.79-5.79
					S539.15,194.93,535.95,194.93L535.95,194.93z"/>
			</g>
			<g>
				<rect x="469.06" y="195.63" class="st15" width="10.17" height="10.17"/>
				<path class="st8" d="M478.52,196.33v8.76h-8.76v-8.76H478.52 M479.92,194.93h-11.57v11.57h11.57V194.93L479.92,194.93z"/>
			</g>
			<g>
				<path class="st15" d="M492.55,205.8c-2.8,0-5.08-2.28-5.08-5.08s2.28-5.08,5.08-5.08s5.08,2.28,5.08,5.08
					S495.36,205.8,492.55,205.8z"/>
				<path class="st8" d="M492.55,196.33c2.42,0,4.38,1.97,4.38,4.38s-1.97,4.38-4.38,4.38s-4.38-1.97-4.38-4.38
					S490.14,196.33,492.55,196.33 M492.55,194.93c-3.19,0-5.79,2.59-5.79,5.79s2.59,5.79,5.79,5.79s5.79-2.59,5.79-5.79
					S495.75,194.93,492.55,194.93L492.55,194.93z"/>
			</g>
			<g>
				<rect x="675.82" y="195.63" class="st15" width="10.17" height="10.17"/>
				<path class="st8" d="M685.28,196.33v8.76h-8.76v-8.76H685.28 M686.69,194.93h-11.57v11.57h11.57V194.93L686.69,194.93z"/>
			</g>
			<g>
				<circle class="st15" cx="699.32" cy="200.71" r="5.08"/>
				<path class="st8" d="M699.32,196.33c2.42,0,4.38,1.97,4.38,4.38s-1.97,4.38-4.38,4.38s-4.38-1.97-4.38-4.38
					S696.91,196.33,699.32,196.33 M699.32,194.93c-3.19,0-5.78,2.59-5.78,5.79s2.59,5.79,5.78,5.79c3.2,0,5.79-2.59,5.79-5.79
					S702.52,194.93,699.32,194.93L699.32,194.93z"/>
			</g>
			<g>
				<rect x="630.83" y="195.63" class="st15" width="10.17" height="10.17"/>
				<path class="st8" d="M640.3,196.33v8.76h-8.76v-8.76H640.3 M641.7,194.93h-11.57v11.57h11.57V194.93L641.7,194.93z"/>
			</g>
			<g>
				<path class="st15" d="M654.33,205.8c-2.8,0-5.08-2.28-5.08-5.08s2.28-5.08,5.08-5.08s5.08,2.28,5.08,5.08
					S657.13,205.8,654.33,205.8z"/>
				<path class="st8" d="M654.33,196.33c2.42,0,4.38,1.97,4.38,4.38s-1.97,4.38-4.38,4.38s-4.38-1.97-4.38-4.38
					S651.92,196.33,654.33,196.33 M654.33,194.93c-3.19,0-5.79,2.59-5.79,5.79s2.59,5.79,5.79,5.79s5.79-2.59,5.79-5.79
					S657.53,194.93,654.33,194.93L654.33,194.93z"/>
			</g>
			<g>
				<rect x="554.02" y="195.63" class="st15" width="10.17" height="10.17"/>
				<path class="st8" d="M563.48,196.33v8.76h-8.76v-8.76H563.48 M564.89,194.93h-11.57v11.57h11.57V194.93L564.89,194.93z"/>
			</g>
			<g>
				<circle class="st15" cx="577.52" cy="200.71" r="5.08"/>
				<path class="st8" d="M577.52,196.33c2.42,0,4.38,1.97,4.38,4.38s-1.97,4.38-4.38,4.38s-4.38-1.97-4.38-4.38
					S575.11,196.33,577.52,196.33 M577.52,194.93c-3.2,0-5.79,2.59-5.79,5.79s2.59,5.79,5.79,5.79c3.19,0,5.78-2.59,5.78-5.79
					S580.72,194.93,577.52,194.93L577.52,194.93z"/>
			</g>
			<g>
				<rect x="621.62" y="172.61" class="st15" width="10.17" height="10.17"/>
				<path class="st8" d="M631.09,173.31v8.76h-8.76v-8.76H631.09 M632.49,171.91h-11.57v11.57h11.57V171.91L632.49,171.91z"/>
			</g>
			<g>
				<path class="st15" d="M645.12,182.78c-2.8,0-5.08-2.28-5.08-5.08s2.28-5.08,5.08-5.08s5.08,2.28,5.08,5.08
					S647.93,182.78,645.12,182.78z"/>
				<path class="st8" d="M645.12,173.31c2.42,0,4.38,1.97,4.38,4.38c0,2.42-1.97,4.38-4.38,4.38s-4.38-1.97-4.38-4.38
					C640.74,175.28,642.71,173.31,645.12,173.31 M645.12,171.91c-3.19,0-5.79,2.59-5.79,5.79c0,3.19,2.59,5.79,5.79,5.79
					s5.79-2.59,5.79-5.79C650.91,174.5,648.32,171.91,645.12,171.91L645.12,171.91z"/>
			</g>
			<g>
				<rect x="666.06" y="172.61" class="st15" width="10.17" height="10.17"/>
				<path class="st8" d="M675.52,173.31v8.76h-8.76v-8.76H675.52 M676.92,171.91h-11.57v11.57h11.57V171.91L676.92,171.91z"/>
			</g>
			<g>
				<path class="st15" d="M689.56,182.78c-2.8,0-5.08-2.28-5.08-5.08s2.28-5.08,5.08-5.08s5.08,2.28,5.08,5.08
					S692.36,182.78,689.56,182.78z"/>
				<path class="st8" d="M689.56,173.31c2.42,0,4.38,1.97,4.38,4.38c0,2.42-1.97,4.38-4.38,4.38s-4.38-1.97-4.38-4.38
					C685.17,175.28,687.14,173.31,689.56,173.31 M689.56,171.91c-3.2,0-5.79,2.59-5.79,5.79c0,3.19,2.59,5.79,5.79,5.79
					c3.19,0,5.78-2.59,5.78-5.79C695.34,174.5,692.75,171.91,689.56,171.91L689.56,171.91z"/>
			</g>
		</g>
		<g>
			<g>
				<g>
					<polyline class="st3" points="487.45,231.59 487.45,287.56 538.87,287.56 					"/>
					<g>
						<polygon class="st4" points="485.07,234.39 487.45,232 489.84,234.39 489.84,232.37 487.45,229.98 485.07,232.37 						"/>
					</g>
					<g>
						<polygon class="st4" points="536.07,289.95 538.46,287.56 536.07,285.17 538.09,285.17 540.48,287.56 538.09,289.95 						"/>
					</g>
				</g>
			</g>
			<g>
				<line class="st3" x1="505.29" y1="257.75" x2="505.29" y2="281.29"/>
				<rect x="500.62" y="263.28" class="st11" width="9.33" height="12.49"/>
				<line class="st3" x1="522.64" y1="236.25" x2="522.64" y2="265"/>
				<rect x="517.98" y="242.99" class="st8" width="9.33" height="15.26"/>
			</g>
			<g>
				<g>
					<polyline class="st3" points="564.52,231.59 564.52,287.56 615.94,287.56 					"/>
					<g>
						<polygon class="st4" points="562.13,234.39 564.52,232 566.9,234.39 566.9,232.37 564.52,229.98 562.13,232.37 						"/>
					</g>
					<g>
						<polygon class="st4" points="613.13,289.95 615.52,287.56 613.13,285.17 615.16,285.17 617.55,287.56 615.16,289.95 						"/>
					</g>
				</g>
			</g>
			<g>
				<line class="st3" x1="582.36" y1="236.06" x2="582.36" y2="259.6"/>
				<rect x="577.69" y="241.58" class="st11" width="9.33" height="12.49"/>
				<line class="st3" x1="599.71" y1="252.73" x2="599.71" y2="281.48"/>
				<rect x="595.04" y="259.48" class="st8" width="9.33" height="15.26"/>
			</g>
			<g>
				<g>
					<path class="st8" d="M480.54,253.59l1.76-0.91l-1.28-2.47c-1.15-2.21-3.41-3.58-5.9-3.58c-2.49,0-4.75,1.37-5.9,3.58
						l-1.28,2.47l1.76,0.91l1.28-2.47c0.12-0.23,0.26-0.45,0.41-0.65l-1.41,8.36h1.92v2.73h1.98v-2.73h2.5v2.73h1.98v-2.73h1.92
						l-1.41-8.36c0.15,0.2,0.29,0.42,0.41,0.65L480.54,253.59z M476.57,248.84l1.36,8.02h-5.61l1.36-8.02
						c0.46-0.15,0.95-0.23,1.45-0.23C475.62,248.61,476.11,248.69,476.57,248.84L476.57,248.84z"/>
					<path class="st8" d="M475.12,245.6c2.15,0,3.9-1.75,3.9-3.9s-1.75-3.9-3.9-3.9c-2.15,0-3.9,1.75-3.9,3.9
						S472.96,245.6,475.12,245.6z M475.12,239.77c1.06,0,1.92,0.86,1.92,1.92c0,1.06-0.86,1.92-1.92,1.92s-1.92-0.86-1.92-1.92
						C473.19,240.64,474.06,239.77,475.12,239.77z"/>
				</g>
				<g>
					<path class="st11" d="M475.12,271.43c-1.39,0-2.64,0.76-3.28,1.99l-0.71,1.37l0.98,0.51l0.55-1.07v5.51h1.1v-2.32h2.72v2.32
						h1.1v-5.51l0.55,1.07l0.98-0.51l-0.71-1.37C477.76,272.19,476.5,271.43,475.12,271.43L475.12,271.43z M473.75,272.92
						c0.4-0.25,0.87-0.38,1.36-0.38s0.96,0.14,1.36,0.38v3.41h-2.72V272.92z"/>
					<path class="st11" d="M475.12,270.86c1.2,0,2.17-0.97,2.17-2.17s-0.97-2.17-2.17-2.17c-1.2,0-2.17,0.97-2.17,2.17
						S473.92,270.86,475.12,270.86z M475.12,267.62c0.59,0,1.07,0.48,1.07,1.07s-0.48,1.07-1.07,1.07c-0.59,0-1.07-0.48-1.07-1.07
						S474.53,267.62,475.12,267.62z"/>
				</g>
			</g>
			<g>
				<g>
					<path class="st8" d="M555.56,275.31l0.98-0.51l-0.71-1.37c-0.64-1.23-1.9-1.99-3.28-1.99c-1.39,0-2.64,0.76-3.28,1.99
						l-0.71,1.37l0.98,0.51l0.71-1.37c0.07-0.13,0.14-0.25,0.23-0.36l-0.79,4.65h1.07v1.52h1.1v-1.52h1.39v1.52h1.1v-1.52h1.07
						l-0.79-4.65c0.08,0.11,0.16,0.23,0.23,0.36L555.56,275.31z M553.35,272.66l0.75,4.46h-3.12l0.75-4.46
						c0.26-0.08,0.53-0.13,0.81-0.13C552.82,272.53,553.09,272.58,553.35,272.66L553.35,272.66z"/>
					<path class="st8" d="M552.54,270.86c1.2,0,2.17-0.97,2.17-2.17s-0.97-2.17-2.17-2.17c-1.2,0-2.17,0.97-2.17,2.17
						S551.35,270.86,552.54,270.86z M552.54,267.62c0.59,0,1.07,0.48,1.07,1.07s-0.48,1.07-1.07,1.07c-0.59,0-1.07-0.48-1.07-1.07
						S551.95,267.62,552.54,267.62z"/>
				</g>
				<g>
					<path class="st11" d="M552.54,246.63c-2.49,0-4.75,1.37-5.9,3.58l-1.28,2.47l1.76,0.91l1-1.92v9.9h1.98v-4.17h4.89v4.17h1.98
						v-9.9l1,1.92l1.76-0.91l-1.28-2.47C557.29,248,555.03,246.63,552.54,246.63L552.54,246.63z M550.1,249.3
						c0.72-0.44,1.56-0.69,2.45-0.69c0.88,0,1.73,0.25,2.45,0.69v6.13h-4.89V249.3z"/>
					<path class="st11" d="M552.54,245.6c2.15,0,3.9-1.75,3.9-3.9c0-2.15-1.75-3.9-3.9-3.9c-2.15,0-3.9,1.75-3.9,3.9
						C548.64,243.85,550.39,245.6,552.54,245.6z M552.54,239.77c1.06,0,1.92,0.86,1.92,1.92c0,1.06-0.86,1.92-1.92,1.92
						s-1.92-0.86-1.92-1.92C550.62,240.64,551.48,239.77,552.54,239.77z"/>
				</g>
			</g>
			<g>
				<g>
					<g>
						<path class="st11" d="M640.2,231.52c1.28,0,2.4,0.9,2.66,2.15l4.19,19.58c0.43,2.02,2.24,3.48,4.31,3.48
							c2.11,0,3.93-1.5,4.33-3.58l3.55-19.12c0.28-1.45,1.55-2.5,3.03-2.5c0.25,0,0.5,0.03,0.74,0.09c0.81,0.2,1.49,0.7,1.92,1.41
							c0.42,0.71,0.54,1.54,0.33,2.35l-4.6,18.32c-0.86,3.31-0.89,6.82-0.09,10.14l4.73,19.98c0.3,1.26-0.39,2.56-1.61,3.02
							c-0.3,0.11-0.6,0.17-0.91,0.17c-1.22,0-2.26-0.82-2.53-2l-4.33-19.13c-0.47-2.04-2.27-3.47-4.36-3.47
							c-2.11,0-3.91,1.44-4.37,3.5l-4.23,18.98c-0.28,1.23-1.39,2.12-2.66,2.12c-0.23,0-0.45-0.03-0.68-0.09
							c-1.43-0.36-2.32-1.83-1.98-3.26l4.61-19.39c0.76-3.19,0.76-6.55,0-9.74l-4.72-19.69c-0.17-0.72-0.05-1.46,0.35-2.09
							c0.4-0.63,1.03-1.06,1.76-1.2C639.84,231.54,640.02,231.52,640.2,231.52 M640.2,230.12c-0.27,0-0.54,0.03-0.82,0.08
							c-2.3,0.46-3.75,2.73-3.21,5l4.72,19.69c0.72,2.99,0.72,6.1,0,9.08l-4.61,19.39c-0.52,2.19,0.81,4.39,3,4.95
							c0.34,0.09,0.69,0.13,1.02,0.13c1.89,0,3.6-1.3,4.03-3.22l4.23-18.98c0.31-1.4,1.56-2.39,3-2.39c1.43,0,2.67,0.98,2.99,2.37
							l4.33,19.12c0.43,1.87,2.1,3.1,3.9,3.1c0.47,0,0.94-0.08,1.41-0.26c1.89-0.71,2.96-2.71,2.49-4.67l-4.73-19.98
							c-0.75-3.11-0.72-6.36,0.08-9.47l4.61-18.33c0.63-2.42-0.85-4.88-3.28-5.48c-0.36-0.09-0.72-0.13-1.08-0.13
							c-2.1,0-4,1.48-4.41,3.64l-3.55,19.13c-0.27,1.41-1.51,2.43-2.94,2.43c-1.41,0-2.64-0.99-2.93-2.37l-4.19-19.58
							C643.83,231.45,642.12,230.12,640.2,230.12L640.2,230.12z"/>
					</g>
				</g>
				<g>
					<g>
						<path class="st11" d="M678.52,231.52c1.28,0,2.4,0.9,2.66,2.15l4.19,19.58c0.43,2.02,2.24,3.48,4.31,3.48
							c2.11,0,3.93-1.5,4.33-3.58l3.55-19.12c0.28-1.45,1.55-2.5,3.03-2.5c0.25,0,0.5,0.03,0.74,0.09c0.81,0.2,1.49,0.7,1.92,1.41
							c0.42,0.71,0.54,1.54,0.33,2.35l-4.6,18.32c-0.86,3.31-0.89,6.82-0.09,10.14l4.73,19.98c0.3,1.26-0.39,2.56-1.61,3.02
							c-0.3,0.11-0.6,0.17-0.91,0.17c-1.22,0-2.26-0.82-2.53-2l-4.33-19.13c-0.47-2.04-2.27-3.47-4.36-3.47
							c-2.11,0-3.91,1.44-4.37,3.5l-4.23,18.98c-0.28,1.23-1.39,2.12-2.66,2.12c-0.23,0-0.45-0.03-0.68-0.09
							c-1.43-0.36-2.32-1.83-1.98-3.26l4.61-19.39c0.76-3.19,0.76-6.55,0-9.74l-4.72-19.69c-0.17-0.72-0.05-1.46,0.35-2.09
							c0.4-0.63,1.03-1.06,1.76-1.2C678.16,231.54,678.34,231.52,678.52,231.52 M678.52,230.12c-0.27,0-0.54,0.03-0.82,0.08
							c-2.3,0.46-3.75,2.73-3.21,5l4.72,19.69c0.72,2.99,0.72,6.1,0,9.08l-4.61,19.39c-0.52,2.19,0.81,4.39,3,4.95
							c0.34,0.09,0.69,0.13,1.02,0.13c1.89,0,3.6-1.3,4.03-3.22l4.23-18.98c0.31-1.4,1.56-2.39,3-2.39c1.43,0,2.67,0.98,2.99,2.37
							l4.33,19.12c0.43,1.87,2.1,3.1,3.9,3.1c0.47,0,0.94-0.08,1.41-0.26c1.89-0.71,2.96-2.71,2.49-4.67l-4.73-19.98
							c-0.75-3.11-0.72-6.36,0.08-9.47l4.61-18.33c0.63-2.42-0.85-4.88-3.28-5.48c-0.36-0.09-0.72-0.13-1.08-0.13
							c-2.1,0-4,1.48-4.41,3.64l-3.55,19.13c-0.27,1.41-1.51,2.43-2.94,2.43c-1.41,0-2.64-0.99-2.93-2.37l-4.19-19.58
							C682.15,231.45,680.44,230.12,678.52,230.12L678.52,230.12z"/>
					</g>
				</g>
			</g>
		</g>
		<g>
			<path class="st8" d="M205.57,326.12h-98.73c-6.44,0-11.66-5.22-11.66-11.66v0c0-6.44,5.22-11.66,11.66-11.66h98.73
				c6.44,0,11.66,5.22,11.66,11.66v0C217.23,320.9,212.01,326.12,205.57,326.12z"/>
			<g>
				<path class="st15" d="M118.37,318.49h-1.06v-9.87h1.11l3.34,7.91h0.04l3.32-7.91h1.12v9.87h-1.05v-7.36h-0.07l-2.82,6.6h-1.04
					l-2.84-6.6h-0.05V318.49z"/>
				<path class="st15" d="M135.01,310.89v7.59h-1.13v-1.26h-0.07c-0.13,0.37-0.38,0.69-0.77,0.97c-0.38,0.28-0.88,0.42-1.49,0.42
					c-0.81,0-1.45-0.19-1.92-0.58c-0.47-0.39-0.7-1-0.7-1.82v-5.32h1.15v5.02c0,1.14,0.58,1.71,1.73,1.71
					c0.58,0,1.08-0.18,1.47-0.55c0.4-0.37,0.59-0.81,0.59-1.31v-4.87H135.01z"/>
				<path class="st15" d="M137.71,318.49v-10.4h1.15v10.4H137.71z"/>
				<path class="st15" d="M141.93,310.89v-1.91h1.14v1.91h1.73v0.97h-1.73v4.56c0,0.31,0.04,0.55,0.12,0.72
					c0.08,0.17,0.2,0.28,0.38,0.35c0.18,0.06,0.43,0.1,0.76,0.1c0.2,0,0.4-0.01,0.58-0.03v0.94c-0.18,0.04-0.47,0.05-0.88,0.05
					c-0.44,0-0.8-0.04-1.07-0.12s-0.49-0.22-0.64-0.41c-0.15-0.19-0.25-0.42-0.31-0.67c-0.06-0.25-0.08-0.58-0.08-0.97v-4.51h-1.16
					v-0.97H141.93z"/>
				<path class="st15" d="M146.89,308.53c0-0.25,0.08-0.45,0.25-0.61c0.17-0.16,0.37-0.24,0.61-0.24c0.25,0,0.45,0.08,0.61,0.24
					c0.16,0.16,0.24,0.37,0.24,0.61c0,0.17-0.04,0.32-0.11,0.45c-0.07,0.13-0.18,0.23-0.31,0.3c-0.13,0.07-0.28,0.1-0.44,0.1
					c-0.24,0-0.44-0.08-0.61-0.24C146.97,308.97,146.89,308.77,146.89,308.53z M147.18,318.49v-7.59h1.14v7.59H147.18z"/>
				<path class="st15" d="M155.15,314.94h-4.55v-1.02h4.55V314.94z"/>
				<path class="st15" d="M160.09,310.77c0.95,0,1.72,0.29,2.32,0.88c0.6,0.59,0.9,1.4,0.9,2.43v1.2c0,1.03-0.3,1.84-0.9,2.44
					c-0.6,0.59-1.37,0.89-2.31,0.89c-0.96,0-1.74-0.29-2.33-0.88c-0.59-0.59-0.89-1.4-0.89-2.44v-1.2c0-1,0.3-1.8,0.91-2.41
					S159.16,310.77,160.09,310.77z M158,314.21v0.95c0,0.5,0.08,0.93,0.25,1.3s0.41,0.64,0.72,0.84c0.31,0.2,0.69,0.3,1.12,0.3
					c0.65,0,1.16-0.22,1.52-0.66c0.37-0.44,0.55-1.03,0.55-1.78v-0.95c0-0.74-0.19-1.33-0.56-1.77c-0.37-0.44-0.88-0.66-1.51-0.66
					s-1.14,0.22-1.52,0.67C158.19,312.89,158,313.48,158,314.21z"/>
				<path class="st15" d="M165.59,318.49v-7.59h1.13v1.2h0.07c0.29-0.88,0.97-1.32,2.05-1.32c0.28,0,0.54,0.04,0.78,0.11
					c0.24,0.07,0.44,0.17,0.62,0.3c0.17,0.13,0.32,0.28,0.45,0.45c0.12,0.17,0.21,0.36,0.27,0.56h0.06
					c0.17-0.42,0.45-0.76,0.84-1.02c0.39-0.27,0.88-0.4,1.46-0.4c0.79,0,1.41,0.21,1.85,0.61c0.44,0.41,0.66,0.99,0.66,1.75v5.35
					h-1.14v-5.08c0-0.5-0.14-0.89-0.42-1.2c-0.28-0.3-0.69-0.45-1.22-0.45c-0.51,0-0.93,0.17-1.27,0.52
					c-0.34,0.35-0.5,0.78-0.5,1.31v4.9h-1.13v-5c0-0.51-0.15-0.92-0.46-1.24c-0.31-0.32-0.72-0.48-1.24-0.48
					c-0.5,0-0.91,0.17-1.24,0.51c-0.33,0.34-0.49,0.78-0.49,1.3v4.91H165.59z"/>
				<path class="st15" d="M178.37,308.53c0-0.25,0.08-0.45,0.25-0.61c0.17-0.16,0.37-0.24,0.61-0.24c0.25,0,0.45,0.08,0.61,0.24
					c0.16,0.16,0.24,0.37,0.24,0.61c0,0.17-0.04,0.32-0.11,0.45c-0.07,0.13-0.18,0.23-0.31,0.3c-0.13,0.07-0.28,0.1-0.44,0.1
					c-0.24,0-0.44-0.08-0.61-0.24C178.45,308.97,178.37,308.77,178.37,308.53z M178.66,318.49v-7.59h1.14v7.59H178.66z"/>
				<path class="st15" d="M182.28,315.35v-1.33c0-0.99,0.28-1.78,0.83-2.37c0.56-0.59,1.31-0.88,2.28-0.88
					c0.88,0,1.57,0.23,2.07,0.68c0.5,0.45,0.76,0.97,0.78,1.55h-1.14c-0.03-0.13-0.07-0.25-0.13-0.38
					c-0.06-0.12-0.15-0.25-0.27-0.39c-0.12-0.14-0.29-0.25-0.52-0.33c-0.23-0.08-0.49-0.12-0.78-0.12c-0.65,0-1.14,0.21-1.48,0.61
					c-0.34,0.41-0.51,0.96-0.51,1.67v1.3c0,0.44,0.08,0.83,0.24,1.16c0.16,0.33,0.39,0.58,0.69,0.76s0.66,0.26,1.07,0.26
					c0.99,0,1.57-0.35,1.75-1.06h1.14c-0.03,0.57-0.29,1.07-0.78,1.5c-0.49,0.43-1.2,0.64-2.12,0.64c-0.96,0-1.72-0.29-2.28-0.89
					C182.56,317.13,182.28,316.34,182.28,315.35z"/>
				<path class="st15" d="M190.05,313.05c0-0.75,0.26-1.32,0.79-1.7c0.53-0.39,1.19-0.58,1.97-0.58c0.39,0,0.76,0.05,1.09,0.16
					s0.61,0.25,0.84,0.44s0.41,0.4,0.53,0.66s0.19,0.54,0.19,0.84h-1.06c-0.02-0.2-0.08-0.38-0.2-0.55
					c-0.12-0.17-0.3-0.32-0.55-0.43c-0.25-0.12-0.55-0.18-0.89-0.18c-0.31,0-0.59,0.05-0.83,0.14c-0.24,0.09-0.43,0.23-0.57,0.42
					s-0.21,0.41-0.21,0.65c0,0.18,0.04,0.33,0.11,0.46c0.07,0.13,0.16,0.23,0.25,0.3c0.09,0.07,0.23,0.14,0.41,0.21
					s0.33,0.11,0.44,0.13c0.12,0.02,0.28,0.05,0.5,0.1c0.02,0,0.03,0,0.05,0.01c0.02,0,0.03,0.01,0.05,0.01s0.04,0.01,0.05,0.02
					c0.27,0.04,0.5,0.09,0.69,0.14c0.19,0.05,0.4,0.11,0.62,0.18c0.22,0.07,0.4,0.16,0.54,0.26c0.15,0.1,0.28,0.22,0.42,0.37
					s0.23,0.31,0.29,0.5c0.06,0.2,0.09,0.41,0.09,0.65c0,0.74-0.27,1.31-0.82,1.73c-0.54,0.42-1.26,0.62-2.16,0.62
					c-0.83,0-1.5-0.18-2.01-0.55c-0.51-0.37-0.77-0.88-0.77-1.54h1.12c0.11,0.76,0.68,1.14,1.71,1.14c0.41,0,0.75-0.06,1.03-0.17
					s0.48-0.26,0.59-0.44s0.18-0.39,0.18-0.64c0-0.17-0.03-0.32-0.1-0.45c-0.07-0.13-0.15-0.23-0.25-0.31
					c-0.1-0.08-0.24-0.15-0.44-0.22c-0.19-0.07-0.36-0.12-0.5-0.15c-0.14-0.03-0.35-0.08-0.61-0.13c-0.35-0.07-0.63-0.13-0.83-0.18
					s-0.43-0.13-0.69-0.24c-0.26-0.11-0.45-0.23-0.59-0.37c-0.13-0.13-0.25-0.31-0.34-0.53S190.05,313.35,190.05,313.05z"/>
			</g>
			<path class="st8" d="M647.74,326.12H525.31c-6.44,0-11.66-5.22-11.66-11.66v0c0-6.44,5.22-11.66,11.66-11.66h122.43
				c6.44,0,11.66,5.22,11.66,11.66v0C659.4,320.9,654.18,326.12,647.74,326.12z"/>
			<g>
				<path class="st15" d="M534.32,315.84h1.16c0.05,0.53,0.3,0.96,0.73,1.3c0.43,0.34,1.02,0.5,1.77,0.5c0.7,0,1.26-0.16,1.69-0.49
					c0.43-0.32,0.64-0.76,0.64-1.32c0-0.41-0.13-0.75-0.39-1.01c-0.26-0.26-0.68-0.46-1.24-0.61l-1.77-0.47
					c-0.67-0.17-1.21-0.47-1.64-0.88c-0.43-0.42-0.64-0.97-0.64-1.67c0-0.59,0.16-1.1,0.49-1.54c0.33-0.44,0.74-0.76,1.24-0.97
					c0.5-0.21,1.05-0.31,1.64-0.31c0.42,0,0.83,0.06,1.21,0.17c0.38,0.11,0.74,0.27,1.07,0.49c0.33,0.21,0.59,0.51,0.79,0.88
					c0.2,0.37,0.3,0.79,0.32,1.26h-1.16c-0.05-0.52-0.27-0.94-0.65-1.26c-0.38-0.32-0.92-0.48-1.6-0.48c-0.64,0-1.17,0.15-1.57,0.44
					c-0.4,0.29-0.6,0.71-0.6,1.25c0,0.76,0.47,1.26,1.4,1.51l1.73,0.46c0.83,0.23,1.46,0.55,1.9,0.96s0.66,0.98,0.66,1.71
					c0,0.94-0.34,1.66-1.03,2.17s-1.56,0.76-2.62,0.76c-0.61,0-1.15-0.09-1.62-0.26s-0.83-0.41-1.09-0.69
					c-0.26-0.29-0.46-0.59-0.59-0.91C534.4,316.51,534.33,316.18,534.32,315.84z"/>
				<path class="st15" d="M546.49,318.61c-0.99,0-1.77-0.3-2.33-0.89s-0.84-1.4-0.84-2.42v-1.23c0-1,0.29-1.8,0.86-2.4
					c0.58-0.6,1.32-0.9,2.23-0.9c0.91,0,1.65,0.3,2.23,0.9c0.58,0.6,0.86,1.4,0.86,2.4V315h-5.04v0.38c0,0.64,0.18,1.17,0.54,1.59
					c0.36,0.42,0.86,0.62,1.5,0.62c0.44,0,0.81-0.09,1.11-0.27c0.3-0.18,0.49-0.4,0.57-0.65h1.2c-0.04,0.21-0.12,0.43-0.25,0.64
					c-0.13,0.21-0.31,0.42-0.54,0.62s-0.52,0.36-0.89,0.49C547.34,318.55,546.93,318.61,546.49,318.61z M544.46,314.13h3.89v-0.13
					c0-0.44-0.08-0.83-0.24-1.17c-0.16-0.34-0.39-0.59-0.68-0.77c-0.29-0.18-0.63-0.27-1.02-0.27c-0.58,0-1.05,0.2-1.41,0.6
					c-0.36,0.4-0.54,0.94-0.54,1.61V314.13z"/>
				<path class="st15" d="M556.06,318.49l-1.87-2.89h-0.04l-1.87,2.89h-1.3l2.58-3.75l-2.59-3.85h1.37l1.83,2.88h0.04l1.88-2.88h1.3
					l-2.58,3.72l2.62,3.87H556.06z"/>
				<path class="st15" d="M565.3,310.77c0.59,0,1.07,0.12,1.45,0.36s0.63,0.53,0.77,0.87h0.05v-3.91h1.14v10.4h-1.08v-1.2h-0.06
					c-0.1,0.34-0.35,0.65-0.76,0.91c-0.41,0.27-0.92,0.4-1.55,0.4c-0.88,0-1.58-0.28-2.12-0.85c-0.54-0.57-0.81-1.33-0.81-2.28
					v-1.57c0-0.93,0.27-1.68,0.81-2.26C563.68,311.06,564.4,310.77,565.3,310.77z M565.45,311.78c-0.62,0-1.1,0.21-1.46,0.63
					s-0.54,1.01-0.54,1.77v1c0,0.76,0.18,1.35,0.55,1.78c0.37,0.42,0.86,0.64,1.49,0.64s1.13-0.21,1.5-0.61
					c0.38-0.41,0.56-0.97,0.56-1.67v-1.42c0-0.61-0.2-1.11-0.59-1.51C566.57,311.98,566.07,311.78,565.45,311.78z"/>
				<path class="st15" d="M571.27,308.53c0-0.25,0.08-0.45,0.25-0.61c0.17-0.16,0.37-0.24,0.61-0.24c0.25,0,0.45,0.08,0.62,0.24
					c0.16,0.16,0.24,0.37,0.24,0.61c0,0.17-0.04,0.32-0.11,0.45s-0.18,0.23-0.31,0.3c-0.13,0.07-0.28,0.1-0.44,0.1
					c-0.24,0-0.44-0.08-0.61-0.24C571.36,308.97,571.27,308.77,571.27,308.53z M571.56,318.49v-7.59h1.14v7.59H571.56z"/>
				<path class="st15" d="M576.2,318.49v-6.62h-1.29v-0.97h1.29v-0.76c0-0.73,0.18-1.27,0.54-1.61s0.95-0.51,1.76-0.51
					c0.29,0,0.56,0.02,0.82,0.05v0.96c-0.15-0.02-0.38-0.03-0.68-0.03c-0.48,0-0.82,0.09-1.02,0.26s-0.3,0.5-0.3,0.97v0.66h1.77
					v0.97h-1.77v6.62H576.2z"/>
				<path class="st15" d="M581.92,318.49v-6.62h-1.29v-0.97h1.29v-0.76c0-0.73,0.18-1.27,0.54-1.61s0.95-0.51,1.76-0.51
					c0.29,0,0.56,0.02,0.82,0.05v0.96c-0.15-0.02-0.38-0.03-0.68-0.03c-0.48,0-0.82,0.09-1.02,0.26s-0.3,0.5-0.3,0.97v0.66h1.77
					v0.97h-1.77v6.62H581.92z"/>
				<path class="st15" d="M589.78,318.61c-0.99,0-1.77-0.3-2.33-0.89s-0.84-1.4-0.84-2.42v-1.23c0-1,0.29-1.8,0.86-2.4
					c0.58-0.6,1.32-0.9,2.23-0.9c0.91,0,1.65,0.3,2.23,0.9c0.58,0.6,0.86,1.4,0.86,2.4V315h-5.04v0.38c0,0.64,0.18,1.17,0.54,1.59
					c0.36,0.42,0.86,0.62,1.5,0.62c0.44,0,0.81-0.09,1.11-0.27c0.3-0.18,0.49-0.4,0.57-0.65h1.2c-0.04,0.21-0.12,0.43-0.25,0.64
					c-0.13,0.21-0.31,0.42-0.54,0.62s-0.52,0.36-0.89,0.49C590.63,318.55,590.23,318.61,589.78,318.61z M587.75,314.13h3.89v-0.13
					c0-0.44-0.08-0.83-0.24-1.17c-0.16-0.34-0.39-0.59-0.68-0.77c-0.29-0.18-0.63-0.27-1.02-0.27c-0.58,0-1.05,0.2-1.41,0.6
					c-0.36,0.4-0.54,0.94-0.54,1.61V314.13z"/>
				<path class="st15" d="M595.15,318.49v-7.59h1.13v1.18h0.06c0.13-0.34,0.36-0.64,0.7-0.9s0.81-0.39,1.43-0.39
					c0.09,0,0.24,0.01,0.45,0.03v1.05c-0.11-0.02-0.31-0.03-0.58-0.03c-0.44,0-0.82,0.09-1.13,0.26c-0.31,0.17-0.54,0.39-0.69,0.67
					s-0.22,0.58-0.22,0.93v4.8H595.15z"/>
				<path class="st15" d="M603.5,318.61c-0.99,0-1.77-0.3-2.33-0.89s-0.84-1.4-0.84-2.42v-1.23c0-1,0.29-1.8,0.86-2.4
					c0.58-0.6,1.32-0.9,2.23-0.9c0.91,0,1.65,0.3,2.23,0.9c0.58,0.6,0.86,1.4,0.86,2.4V315h-5.04v0.38c0,0.64,0.18,1.17,0.54,1.59
					c0.36,0.42,0.86,0.62,1.5,0.62c0.44,0,0.81-0.09,1.11-0.27c0.3-0.18,0.49-0.4,0.57-0.65h1.2c-0.04,0.21-0.12,0.43-0.25,0.64
					c-0.13,0.21-0.31,0.42-0.54,0.62s-0.52,0.36-0.89,0.49C604.35,318.55,603.94,318.61,603.5,318.61z M601.47,314.13h3.89v-0.13
					c0-0.44-0.08-0.83-0.24-1.17c-0.16-0.34-0.39-0.59-0.68-0.77c-0.29-0.18-0.63-0.27-1.02-0.27c-0.58,0-1.05,0.2-1.41,0.6
					c-0.36,0.4-0.54,0.94-0.54,1.61V314.13z"/>
				<path class="st15" d="M608.73,318.49v-7.59h1.13v1.4h0.07c0.32-1.01,1.09-1.52,2.31-1.52c0.79,0,1.42,0.21,1.89,0.64
					c0.47,0.43,0.7,1.05,0.7,1.86v5.22h-1.14v-4.86c0-0.61-0.15-1.07-0.45-1.39c-0.3-0.32-0.72-0.48-1.27-0.48
					c-0.69,0-1.22,0.23-1.58,0.69s-0.54,1.05-0.54,1.77v4.26H608.73z"/>
				<path class="st15" d="M617.07,315.35v-1.33c0-0.99,0.28-1.78,0.83-2.37c0.56-0.59,1.31-0.88,2.28-0.88
					c0.88,0,1.57,0.23,2.07,0.68c0.5,0.45,0.76,0.97,0.78,1.55h-1.14c-0.03-0.13-0.07-0.25-0.13-0.38
					c-0.06-0.12-0.15-0.25-0.27-0.39c-0.12-0.14-0.29-0.25-0.52-0.33c-0.23-0.08-0.49-0.12-0.78-0.12c-0.65,0-1.14,0.21-1.48,0.61
					c-0.34,0.41-0.51,0.96-0.51,1.67v1.3c0,0.44,0.08,0.83,0.24,1.16c0.16,0.33,0.39,0.58,0.69,0.76c0.3,0.17,0.66,0.26,1.07,0.26
					c0.99,0,1.57-0.35,1.75-1.06h1.14c-0.03,0.57-0.29,1.07-0.78,1.5c-0.49,0.43-1.2,0.64-2.12,0.64c-0.96,0-1.72-0.29-2.28-0.89
					C617.34,317.13,617.07,316.34,617.07,315.35z"/>
				<path class="st15" d="M628.02,318.61c-0.99,0-1.77-0.3-2.33-0.89s-0.84-1.4-0.84-2.42v-1.23c0-1,0.29-1.8,0.86-2.4
					c0.58-0.6,1.32-0.9,2.23-0.9c0.91,0,1.65,0.3,2.23,0.9c0.58,0.6,0.86,1.4,0.86,2.4V315h-5.04v0.38c0,0.64,0.18,1.17,0.54,1.59
					c0.36,0.42,0.86,0.62,1.5,0.62c0.44,0,0.81-0.09,1.11-0.27c0.3-0.18,0.49-0.4,0.57-0.65h1.2c-0.04,0.21-0.12,0.43-0.25,0.64
					c-0.13,0.21-0.31,0.42-0.54,0.62s-0.52,0.36-0.89,0.49C628.86,318.55,628.46,318.61,628.02,318.61z M625.98,314.13h3.89v-0.13
					c0-0.44-0.08-0.83-0.24-1.17c-0.16-0.34-0.39-0.59-0.68-0.77c-0.29-0.18-0.63-0.27-1.02-0.27c-0.58,0-1.05,0.2-1.41,0.6
					c-0.36,0.4-0.54,0.94-0.54,1.61V314.13z"/>
				<path class="st15" d="M632.87,313.05c0-0.75,0.26-1.32,0.79-1.7c0.53-0.39,1.19-0.58,1.97-0.58c0.39,0,0.76,0.05,1.09,0.16
					s0.61,0.25,0.84,0.44s0.41,0.4,0.53,0.66s0.19,0.54,0.19,0.84h-1.06c-0.02-0.2-0.08-0.38-0.2-0.55
					c-0.12-0.17-0.3-0.32-0.55-0.43c-0.25-0.12-0.55-0.18-0.89-0.18c-0.31,0-0.59,0.05-0.83,0.14s-0.43,0.23-0.57,0.42
					c-0.14,0.19-0.21,0.41-0.21,0.65c0,0.18,0.04,0.33,0.11,0.46c0.07,0.13,0.16,0.23,0.25,0.3c0.09,0.07,0.23,0.14,0.41,0.21
					s0.33,0.11,0.44,0.13c0.12,0.02,0.28,0.05,0.51,0.1c0.02,0,0.03,0,0.05,0.01c0.01,0,0.03,0.01,0.05,0.01
					c0.02,0,0.04,0.01,0.05,0.02c0.27,0.04,0.5,0.09,0.69,0.14c0.19,0.05,0.4,0.11,0.62,0.18c0.22,0.07,0.4,0.16,0.54,0.26
					c0.15,0.1,0.29,0.22,0.42,0.37c0.13,0.14,0.23,0.31,0.29,0.5s0.09,0.41,0.09,0.65c0,0.74-0.27,1.31-0.82,1.73
					c-0.54,0.42-1.26,0.62-2.16,0.62c-0.83,0-1.5-0.18-2.01-0.55s-0.77-0.88-0.77-1.54h1.12c0.11,0.76,0.68,1.14,1.71,1.14
					c0.41,0,0.75-0.06,1.03-0.17c0.28-0.12,0.48-0.26,0.59-0.44c0.12-0.18,0.18-0.39,0.18-0.64c0-0.17-0.03-0.32-0.1-0.45
					c-0.07-0.13-0.15-0.23-0.25-0.31c-0.1-0.08-0.24-0.15-0.44-0.22c-0.19-0.07-0.36-0.12-0.5-0.15c-0.14-0.03-0.35-0.08-0.62-0.13
					c-0.35-0.07-0.63-0.13-0.83-0.18s-0.43-0.13-0.69-0.24c-0.26-0.11-0.45-0.23-0.59-0.37c-0.13-0.13-0.25-0.31-0.34-0.53
					S632.87,313.35,632.87,313.05z"/>
			</g>
		</g>
		<g>
			<path class="st11" d="M158.84,28.28H19.57c-6.44,0-11.66-5.22-11.66-11.66v0c0-6.44,5.22-11.66,11.66-11.66h139.26
				c6.44,0,11.66,5.22,11.66,11.66v0C170.5,23.06,165.27,28.28,158.84,28.28z"/>
			<g>
				<path class="st15" d="M24.92,17.99h1.16c0.05,0.53,0.3,0.96,0.73,1.3c0.43,0.34,1.02,0.5,1.77,0.5c0.7,0,1.26-0.16,1.69-0.49
					c0.43-0.32,0.64-0.76,0.64-1.32c0-0.41-0.13-0.75-0.4-1.01c-0.26-0.26-0.68-0.46-1.24-0.61l-1.77-0.47
					c-0.66-0.17-1.21-0.47-1.64-0.88c-0.43-0.42-0.64-0.97-0.64-1.67c0-0.59,0.16-1.1,0.49-1.54c0.33-0.44,0.74-0.76,1.24-0.97
					c0.5-0.21,1.05-0.31,1.64-0.31c0.43,0,0.83,0.06,1.21,0.17c0.38,0.11,0.74,0.27,1.07,0.49c0.33,0.21,0.59,0.51,0.79,0.88
					c0.2,0.37,0.3,0.79,0.32,1.26h-1.16c-0.05-0.52-0.27-0.94-0.65-1.26c-0.38-0.32-0.92-0.48-1.6-0.48c-0.64,0-1.17,0.15-1.57,0.44
					c-0.4,0.29-0.6,0.71-0.6,1.25c0,0.76,0.47,1.26,1.4,1.51l1.73,0.47c0.83,0.23,1.46,0.55,1.9,0.96c0.44,0.41,0.66,0.98,0.66,1.71
					c0,0.94-0.34,1.66-1.03,2.17s-1.56,0.76-2.62,0.76c-0.61,0-1.15-0.09-1.61-0.26c-0.47-0.17-0.83-0.41-1.09-0.69
					s-0.46-0.59-0.59-0.91S24.93,18.33,24.92,17.99z"/>
				<path class="st15" d="M34.66,13.04v-1.91h1.14v1.91h1.73v0.97H35.8v4.56c0,0.31,0.04,0.55,0.12,0.72
					c0.08,0.17,0.2,0.28,0.38,0.35c0.18,0.06,0.43,0.1,0.76,0.1c0.2,0,0.4-0.01,0.58-0.03v0.94c-0.18,0.04-0.47,0.05-0.88,0.05
					c-0.44,0-0.8-0.04-1.07-0.12c-0.28-0.08-0.49-0.22-0.64-0.41c-0.15-0.19-0.25-0.42-0.31-0.67c-0.06-0.25-0.08-0.58-0.08-0.97
					v-4.51H33.5v-0.97H34.66z"/>
				<path class="st15" d="M41.76,20.76c-0.36,0-0.69-0.06-1-0.17s-0.57-0.27-0.78-0.47c-0.21-0.2-0.38-0.44-0.5-0.73
					s-0.19-0.61-0.19-0.96c0-0.44,0.1-0.83,0.3-1.16s0.5-0.59,0.91-0.77c0.41-0.19,0.89-0.28,1.45-0.28h2.03v-0.78
					c0-0.5-0.15-0.88-0.44-1.12c-0.29-0.24-0.71-0.37-1.25-0.37c-0.88,0-1.41,0.3-1.61,0.91h-1.1c0.06-0.64,0.34-1.12,0.82-1.44
					c0.48-0.33,1.13-0.49,1.94-0.49c0.82,0,1.49,0.2,2.01,0.61c0.52,0.41,0.78,1.04,0.78,1.89v5.22h-1.11v-1.02h-0.04
					C43.49,20.38,42.76,20.76,41.76,20.76z M42.05,19.78c0.54,0,1-0.17,1.37-0.5c0.37-0.33,0.55-0.75,0.55-1.24v-0.88h-2.01
					c-0.52,0-0.9,0.12-1.14,0.35c-0.24,0.23-0.37,0.53-0.37,0.91c0,0.44,0.16,0.78,0.47,1.02C41.23,19.66,41.61,19.78,42.05,19.78z"
					/>
				<path class="st15" d="M48.12,13.04v-1.91h1.14v1.91h1.73v0.97h-1.73v4.56c0,0.31,0.04,0.55,0.12,0.72
					c0.08,0.17,0.2,0.28,0.38,0.35c0.18,0.06,0.43,0.1,0.76,0.1c0.2,0,0.4-0.01,0.58-0.03v0.94c-0.18,0.04-0.47,0.05-0.88,0.05
					c-0.44,0-0.8-0.04-1.07-0.12c-0.28-0.08-0.49-0.22-0.64-0.41c-0.15-0.19-0.25-0.42-0.31-0.67c-0.06-0.25-0.08-0.58-0.08-0.97
					v-4.51h-1.16v-0.97H48.12z"/>
				<path class="st15" d="M53.08,10.68c0-0.25,0.08-0.45,0.25-0.61c0.17-0.16,0.37-0.24,0.61-0.24c0.25,0,0.45,0.08,0.61,0.24
					c0.16,0.16,0.24,0.37,0.24,0.61c0,0.17-0.04,0.32-0.11,0.45c-0.07,0.13-0.18,0.23-0.31,0.3c-0.13,0.07-0.28,0.1-0.44,0.1
					c-0.24,0-0.44-0.08-0.61-0.24C53.17,11.12,53.08,10.92,53.08,10.68z M53.37,20.64v-7.59h1.14v7.59H53.37z"/>
				<path class="st15" d="M56.99,15.2c0-0.75,0.26-1.32,0.79-1.7c0.53-0.39,1.19-0.58,1.97-0.58c0.39,0,0.76,0.05,1.09,0.16
					s0.61,0.25,0.84,0.44c0.23,0.18,0.41,0.4,0.53,0.66c0.12,0.26,0.19,0.54,0.19,0.84h-1.06c-0.02-0.2-0.08-0.38-0.2-0.55
					s-0.3-0.32-0.55-0.44s-0.55-0.18-0.89-0.18c-0.31,0-0.59,0.05-0.83,0.14c-0.24,0.09-0.43,0.23-0.57,0.42
					c-0.14,0.19-0.21,0.41-0.21,0.65c0,0.18,0.04,0.33,0.11,0.46c0.07,0.13,0.16,0.23,0.25,0.3c0.09,0.07,0.23,0.14,0.41,0.21
					c0.18,0.07,0.33,0.11,0.44,0.13c0.12,0.02,0.28,0.06,0.5,0.1c0.02,0,0.03,0,0.05,0.01s0.03,0.01,0.05,0.01s0.04,0.01,0.05,0.02
					c0.27,0.04,0.5,0.09,0.69,0.14c0.19,0.05,0.4,0.11,0.62,0.18c0.22,0.07,0.4,0.16,0.54,0.26c0.15,0.1,0.28,0.22,0.42,0.37
					c0.13,0.14,0.23,0.31,0.29,0.5c0.06,0.19,0.09,0.41,0.09,0.65c0,0.74-0.27,1.31-0.82,1.73c-0.54,0.42-1.26,0.62-2.16,0.62
					c-0.83,0-1.5-0.18-2.01-0.55c-0.51-0.37-0.77-0.88-0.77-1.54h1.12c0.11,0.76,0.68,1.14,1.71,1.14c0.41,0,0.75-0.06,1.03-0.17
					s0.48-0.26,0.59-0.44c0.12-0.18,0.18-0.39,0.18-0.64c0-0.17-0.03-0.32-0.1-0.45c-0.07-0.13-0.15-0.23-0.25-0.31
					c-0.1-0.08-0.24-0.15-0.44-0.22c-0.19-0.07-0.36-0.12-0.5-0.15c-0.14-0.03-0.35-0.08-0.61-0.13c-0.35-0.07-0.63-0.13-0.83-0.18
					c-0.2-0.05-0.43-0.13-0.69-0.24c-0.26-0.11-0.45-0.23-0.59-0.37c-0.13-0.14-0.25-0.31-0.34-0.52
					C57.03,15.76,56.99,15.5,56.99,15.2z"/>
				<path class="st15" d="M65.19,13.04v-1.91h1.14v1.91h1.73v0.97h-1.73v4.56c0,0.31,0.04,0.55,0.12,0.72
					c0.08,0.17,0.2,0.28,0.38,0.35c0.18,0.06,0.43,0.1,0.76,0.1c0.2,0,0.4-0.01,0.58-0.03v0.94c-0.18,0.04-0.47,0.05-0.88,0.05
					c-0.44,0-0.8-0.04-1.07-0.12c-0.28-0.08-0.49-0.22-0.64-0.41c-0.15-0.19-0.25-0.42-0.31-0.67c-0.06-0.25-0.08-0.58-0.08-0.97
					v-4.51h-1.16v-0.97H65.19z"/>
				<path class="st15" d="M70.15,10.68c0-0.25,0.08-0.45,0.25-0.61c0.17-0.16,0.37-0.24,0.61-0.24c0.25,0,0.45,0.08,0.61,0.24
					c0.16,0.16,0.24,0.37,0.24,0.61c0,0.17-0.04,0.32-0.11,0.45c-0.07,0.13-0.18,0.23-0.31,0.3c-0.13,0.07-0.28,0.1-0.44,0.1
					c-0.24,0-0.44-0.08-0.61-0.24C70.24,11.12,70.15,10.92,70.15,10.68z M70.44,20.64v-7.59h1.14v7.59H70.44z"/>
				<path class="st15" d="M74.06,17.5v-1.33c0-0.99,0.28-1.78,0.83-2.37c0.56-0.59,1.31-0.88,2.28-0.88c0.88,0,1.57,0.23,2.07,0.68
					c0.5,0.45,0.76,0.97,0.78,1.55h-1.14c-0.03-0.13-0.07-0.25-0.13-0.38c-0.06-0.12-0.15-0.25-0.27-0.39
					c-0.12-0.14-0.29-0.25-0.52-0.33c-0.23-0.08-0.49-0.12-0.78-0.12c-0.65,0-1.14,0.21-1.48,0.61c-0.34,0.41-0.51,0.96-0.51,1.66
					v1.3c0,0.44,0.08,0.83,0.24,1.16s0.39,0.58,0.69,0.76c0.3,0.18,0.66,0.26,1.07,0.26c0.99,0,1.57-0.35,1.75-1.06h1.14
					c-0.03,0.57-0.29,1.07-0.78,1.5c-0.49,0.43-1.2,0.64-2.12,0.64c-0.96,0-1.72-0.3-2.28-0.89C74.34,19.29,74.06,18.49,74.06,17.5z
					"/>
				<path class="st15" d="M84.24,20.76c-0.36,0-0.69-0.06-1-0.17s-0.57-0.27-0.78-0.47c-0.21-0.2-0.38-0.44-0.5-0.73
					s-0.19-0.61-0.19-0.96c0-0.44,0.1-0.83,0.3-1.16s0.5-0.59,0.91-0.77c0.41-0.19,0.89-0.28,1.45-0.28h2.03v-0.78
					c0-0.5-0.15-0.88-0.44-1.12c-0.29-0.24-0.71-0.37-1.25-0.37c-0.88,0-1.41,0.3-1.61,0.91h-1.1c0.06-0.64,0.34-1.12,0.82-1.44
					c0.48-0.33,1.13-0.49,1.94-0.49c0.82,0,1.49,0.2,2.01,0.61c0.52,0.41,0.78,1.04,0.78,1.89v5.22h-1.11v-1.02h-0.04
					C85.97,20.38,85.23,20.76,84.24,20.76z M84.52,19.78c0.54,0,1-0.17,1.37-0.5c0.37-0.33,0.55-0.75,0.55-1.24v-0.88h-2.01
					c-0.52,0-0.9,0.12-1.14,0.35c-0.24,0.23-0.37,0.53-0.37,0.91c0,0.44,0.16,0.78,0.47,1.02C83.71,19.66,84.08,19.78,84.52,19.78z"
					/>
				<path class="st15" d="M90.25,20.64v-10.4h1.15v10.4H90.25z"/>
				<path class="st15" d="M100.1,22.48c0.7,0,1.22-0.17,1.57-0.52c0.35-0.35,0.53-0.84,0.53-1.48v-1.16h-0.07
					c-0.1,0.22-0.25,0.42-0.45,0.6c-0.2,0.18-0.44,0.32-0.74,0.43c-0.29,0.11-0.61,0.16-0.95,0.16c-0.56,0-1.07-0.12-1.53-0.37
					c-0.46-0.25-0.82-0.61-1.09-1.09s-0.41-1.04-0.41-1.67v-1.29c0-0.47,0.08-0.9,0.24-1.31s0.37-0.74,0.64-1s0.59-0.48,0.96-0.62
					c0.37-0.15,0.76-0.22,1.19-0.22c0.53,0,1,0.13,1.4,0.38c0.4,0.25,0.67,0.54,0.81,0.88h0.05v-1.14h1.08v7.42
					c0,1.01-0.29,1.76-0.87,2.27c-0.58,0.51-1.39,0.76-2.42,0.76c-0.9,0-1.6-0.19-2.09-0.57c-0.49-0.38-0.76-0.87-0.83-1.46h1.19
					c0.05,0.28,0.24,0.52,0.55,0.72C99.18,22.38,99.59,22.48,100.1,22.48z M100.21,13.93c-0.32,0-0.62,0.06-0.88,0.17
					c-0.27,0.12-0.49,0.28-0.67,0.49s-0.32,0.47-0.42,0.77c-0.1,0.3-0.14,0.63-0.14,0.99v0.74c0,0.71,0.2,1.28,0.59,1.73
					s0.91,0.66,1.53,0.66c0.61,0,1.09-0.21,1.44-0.63c0.35-0.42,0.52-0.92,0.52-1.5v-1.22c0-0.6-0.18-1.11-0.54-1.54
					C101.29,14.15,100.81,13.93,100.21,13.93z"/>
				<path class="st15" d="M108.64,20.76c-0.99,0-1.77-0.3-2.33-0.89c-0.56-0.6-0.84-1.4-0.84-2.42v-1.23c0-1,0.29-1.8,0.86-2.4
					c0.58-0.6,1.32-0.9,2.23-0.9s1.65,0.3,2.23,0.9c0.58,0.6,0.86,1.4,0.86,2.4v0.93h-5.04v0.39c0,0.64,0.18,1.17,0.53,1.59
					c0.36,0.42,0.86,0.62,1.5,0.62c0.44,0,0.81-0.09,1.11-0.27c0.3-0.18,0.49-0.4,0.57-0.65h1.2c-0.04,0.21-0.12,0.43-0.25,0.64
					c-0.13,0.21-0.31,0.42-0.54,0.62s-0.52,0.36-0.89,0.49C109.49,20.7,109.09,20.76,108.64,20.76z M106.61,16.28h3.89v-0.13
					c0-0.44-0.08-0.83-0.24-1.17c-0.16-0.34-0.39-0.59-0.68-0.77s-0.63-0.27-1.02-0.27c-0.58,0-1.05,0.2-1.41,0.6
					c-0.36,0.4-0.53,0.94-0.53,1.61V16.28z"/>
				<path class="st15" d="M113.87,20.64v-7.59H115v1.4h0.07c0.32-1.01,1.09-1.52,2.31-1.52c0.79,0,1.42,0.21,1.89,0.64
					c0.47,0.43,0.7,1.05,0.7,1.86v5.22h-1.14v-4.86c0-0.61-0.15-1.07-0.45-1.39s-0.72-0.48-1.27-0.48c-0.69,0-1.22,0.23-1.58,0.69
					c-0.36,0.46-0.54,1.05-0.54,1.77v4.26H113.87z"/>
				<path class="st15" d="M125.39,20.76c-0.99,0-1.77-0.3-2.33-0.89c-0.56-0.6-0.84-1.4-0.84-2.42v-1.23c0-1,0.29-1.8,0.86-2.4
					c0.58-0.6,1.32-0.9,2.23-0.9s1.65,0.3,2.23,0.9c0.58,0.6,0.86,1.4,0.86,2.4v0.93h-5.04v0.39c0,0.64,0.18,1.17,0.53,1.59
					c0.36,0.42,0.86,0.62,1.5,0.62c0.44,0,0.81-0.09,1.11-0.27c0.3-0.18,0.49-0.4,0.57-0.65h1.2c-0.04,0.21-0.12,0.43-0.25,0.64
					c-0.13,0.21-0.31,0.42-0.54,0.62s-0.52,0.36-0.89,0.49C126.23,20.7,125.83,20.76,125.39,20.76z M123.35,16.28h3.89v-0.13
					c0-0.44-0.08-0.83-0.24-1.17c-0.16-0.34-0.39-0.59-0.68-0.77s-0.63-0.27-1.02-0.27c-0.58,0-1.05,0.2-1.41,0.6
					c-0.36,0.4-0.53,0.94-0.53,1.61V16.28z"/>
				<path class="st15" d="M131,13.04v-1.91h1.14v1.91h1.73v0.97h-1.73v4.56c0,0.31,0.04,0.55,0.12,0.72
					c0.08,0.17,0.2,0.28,0.38,0.35c0.18,0.06,0.43,0.1,0.76,0.1c0.2,0,0.4-0.01,0.58-0.03v0.94c-0.18,0.04-0.47,0.05-0.88,0.05
					c-0.44,0-0.8-0.04-1.07-0.12c-0.28-0.08-0.49-0.22-0.64-0.41c-0.15-0.19-0.25-0.42-0.31-0.67c-0.06-0.25-0.08-0.58-0.08-0.97
					v-4.51h-1.16v-0.97H131z"/>
				<path class="st15" d="M135.96,10.68c0-0.25,0.08-0.45,0.25-0.61c0.17-0.16,0.37-0.24,0.61-0.24c0.25,0,0.45,0.08,0.61,0.24
					c0.16,0.16,0.24,0.37,0.24,0.61c0,0.17-0.04,0.32-0.11,0.45c-0.07,0.13-0.18,0.23-0.31,0.3c-0.13,0.07-0.28,0.1-0.44,0.1
					c-0.24,0-0.44-0.08-0.61-0.24C136.05,11.12,135.96,10.92,135.96,10.68z M136.26,20.64v-7.59h1.14v7.59H136.26z"/>
				<path class="st15" d="M139.87,17.5v-1.33c0-0.99,0.28-1.78,0.83-2.37c0.56-0.59,1.31-0.88,2.28-0.88c0.88,0,1.57,0.23,2.07,0.68
					c0.5,0.45,0.76,0.97,0.78,1.55h-1.14c-0.03-0.13-0.07-0.25-0.13-0.38c-0.06-0.12-0.15-0.25-0.27-0.39
					c-0.12-0.14-0.29-0.25-0.52-0.33c-0.23-0.08-0.49-0.12-0.78-0.12c-0.65,0-1.14,0.21-1.48,0.61c-0.34,0.41-0.51,0.96-0.51,1.66
					v1.3c0,0.44,0.08,0.83,0.24,1.16s0.39,0.58,0.69,0.76c0.3,0.18,0.66,0.26,1.07,0.26c0.99,0,1.57-0.35,1.75-1.06h1.14
					c-0.03,0.57-0.29,1.07-0.78,1.5c-0.49,0.43-1.2,0.64-2.12,0.64c-0.96,0-1.72-0.3-2.28-0.89
					C140.15,19.29,139.87,18.49,139.87,17.5z"/>
				<path class="st15" d="M147.64,15.2c0-0.75,0.26-1.32,0.79-1.7c0.53-0.39,1.19-0.58,1.97-0.58c0.39,0,0.76,0.05,1.09,0.16
					s0.61,0.25,0.84,0.44c0.23,0.18,0.41,0.4,0.53,0.66c0.12,0.26,0.19,0.54,0.19,0.84H152c-0.02-0.2-0.08-0.38-0.2-0.55
					s-0.3-0.32-0.55-0.44s-0.55-0.18-0.89-0.18c-0.31,0-0.59,0.05-0.83,0.14c-0.24,0.09-0.43,0.23-0.57,0.42
					c-0.14,0.19-0.21,0.41-0.21,0.65c0,0.18,0.04,0.33,0.11,0.46c0.07,0.13,0.16,0.23,0.25,0.3c0.09,0.07,0.23,0.14,0.41,0.21
					c0.18,0.07,0.33,0.11,0.44,0.13c0.12,0.02,0.28,0.06,0.5,0.1c0.02,0,0.03,0,0.05,0.01s0.03,0.01,0.05,0.01s0.04,0.01,0.05,0.02
					c0.27,0.04,0.5,0.09,0.69,0.14c0.19,0.05,0.4,0.11,0.62,0.18c0.22,0.07,0.4,0.16,0.54,0.26c0.15,0.1,0.28,0.22,0.42,0.37
					c0.13,0.14,0.23,0.31,0.29,0.5c0.06,0.19,0.09,0.41,0.09,0.65c0,0.74-0.27,1.31-0.82,1.73c-0.54,0.42-1.26,0.62-2.16,0.62
					c-0.83,0-1.5-0.18-2.01-0.55c-0.51-0.37-0.77-0.88-0.77-1.54h1.12c0.11,0.76,0.68,1.14,1.71,1.14c0.41,0,0.75-0.06,1.03-0.17
					s0.48-0.26,0.59-0.44c0.12-0.18,0.18-0.39,0.18-0.64c0-0.17-0.03-0.32-0.1-0.45c-0.07-0.13-0.15-0.23-0.25-0.31
					c-0.1-0.08-0.24-0.15-0.44-0.22c-0.19-0.07-0.36-0.12-0.5-0.15c-0.14-0.03-0.35-0.08-0.61-0.13c-0.35-0.07-0.63-0.13-0.83-0.18
					c-0.2-0.05-0.43-0.13-0.69-0.24c-0.26-0.11-0.45-0.23-0.59-0.37c-0.13-0.14-0.25-0.31-0.34-0.52
					C147.69,15.76,147.64,15.5,147.64,15.2z"/>
			</g>
			<path class="st11" d="M663.92,28.28H509.12c-6.05,0-10.95-4.9-10.95-10.95v-1.42c0-6.05,4.9-10.95,10.95-10.95h154.79
				c6.05,0,10.95,4.9,10.95,10.95v1.42C674.87,23.37,669.97,28.28,663.92,28.28z"/>
			<g>
				<path class="st15" d="M520.78,10.76h3.54c0.93,0,1.68,0.28,2.25,0.84s0.86,1.29,0.86,2.21c0,0.91-0.29,1.65-0.86,2.2
					c-0.57,0.55-1.32,0.83-2.25,0.83h-2.38v3.8h-1.16V10.76z M521.94,11.8v4h1.55c0.31,0,0.58-0.01,0.81-0.04
					c0.23-0.02,0.46-0.06,0.68-0.11c0.22-0.05,0.4-0.12,0.54-0.22c0.15-0.1,0.28-0.22,0.39-0.37s0.2-0.33,0.25-0.53
					c0.05-0.21,0.08-0.45,0.08-0.72c0-0.64-0.17-1.13-0.51-1.48c-0.34-0.35-0.82-0.52-1.45-0.52H521.94z"/>
				<path class="st15" d="M532.21,12.92c0.95,0,1.72,0.29,2.32,0.88c0.6,0.59,0.9,1.4,0.9,2.43v1.2c0,1.03-0.3,1.84-0.9,2.44
					s-1.37,0.89-2.31,0.89c-0.96,0-1.74-0.29-2.33-0.88c-0.59-0.59-0.89-1.4-0.89-2.44v-1.2c0-1,0.3-1.8,0.91-2.41
					C530.51,13.23,531.28,12.92,532.21,12.92z M530.12,16.36v0.95c0,0.5,0.08,0.93,0.25,1.3c0.17,0.36,0.41,0.64,0.72,0.84
					s0.69,0.3,1.12,0.3c0.65,0,1.16-0.22,1.52-0.66s0.55-1.03,0.55-1.78v-0.95c0-0.74-0.19-1.33-0.56-1.77
					c-0.37-0.44-0.88-0.66-1.51-0.66s-1.14,0.22-1.52,0.67C530.31,15.05,530.12,15.63,530.12,16.36z"/>
				<path class="st15" d="M541.1,20.76c-1.09,0-1.82-0.42-2.19-1.25h-0.05v3.78h-1.14V13.04h1.08v1.2h0.06
					c0.14-0.38,0.4-0.69,0.8-0.94s0.89-0.38,1.49-0.38c0.89,0,1.59,0.29,2.12,0.87c0.53,0.58,0.79,1.36,0.79,2.35v1.4
					c0,1-0.27,1.78-0.81,2.36C542.72,20.48,542,20.76,541.1,20.76z M540.95,19.75c0.61,0,1.09-0.21,1.45-0.63
					c0.36-0.42,0.54-1.04,0.54-1.86v-0.84c0-0.81-0.18-1.43-0.54-1.85c-0.36-0.42-0.86-0.63-1.5-0.63s-1.13,0.21-1.5,0.61
					s-0.54,0.96-0.54,1.66v1.41c0,0.62,0.19,1.13,0.57,1.53S540.32,19.75,540.95,19.75z"/>
				<path class="st15" d="M552.38,13.04v7.59h-1.13v-1.26h-0.07c-0.13,0.37-0.38,0.69-0.77,0.97c-0.38,0.28-0.88,0.42-1.49,0.42
					c-0.81,0-1.45-0.19-1.92-0.58c-0.47-0.39-0.7-1-0.7-1.82v-5.32h1.15v5.02c0,1.14,0.58,1.71,1.73,1.71
					c0.58,0,1.08-0.19,1.47-0.56c0.4-0.37,0.59-0.81,0.59-1.31v-4.87H552.38z"/>
				<path class="st15" d="M555.08,20.64v-10.4h1.15v10.4H555.08z"/>
				<path class="st15" d="M560.95,20.76c-0.36,0-0.69-0.06-1-0.17c-0.31-0.12-0.57-0.27-0.78-0.47c-0.21-0.2-0.38-0.44-0.51-0.73
					s-0.19-0.61-0.19-0.96c0-0.44,0.1-0.83,0.3-1.16s0.5-0.59,0.91-0.77c0.41-0.19,0.89-0.28,1.45-0.28h2.03v-0.78
					c0-0.5-0.15-0.88-0.44-1.12s-0.71-0.37-1.25-0.37c-0.88,0-1.41,0.3-1.61,0.91h-1.1c0.06-0.64,0.34-1.12,0.82-1.44
					c0.48-0.33,1.13-0.49,1.94-0.49c0.82,0,1.49,0.2,2.01,0.61c0.52,0.41,0.78,1.04,0.78,1.89v5.22h-1.11v-1.02h-0.04
					C562.68,20.38,561.94,20.76,560.95,20.76z M561.23,19.78c0.54,0,1-0.17,1.37-0.5c0.37-0.33,0.55-0.75,0.55-1.24v-0.88h-2.01
					c-0.52,0-0.9,0.12-1.14,0.35c-0.24,0.23-0.37,0.53-0.37,0.91c0,0.44,0.16,0.78,0.46,1.02
					C560.42,19.66,560.79,19.78,561.23,19.78z"/>
				<path class="st15" d="M567.31,13.04v-1.91h1.14v1.91h1.73v0.97h-1.73v4.56c0,0.31,0.04,0.55,0.12,0.72
					c0.08,0.17,0.2,0.28,0.38,0.35c0.17,0.06,0.43,0.1,0.76,0.1c0.2,0,0.4-0.01,0.58-0.03v0.94c-0.18,0.04-0.47,0.05-0.88,0.05
					c-0.44,0-0.8-0.04-1.07-0.12c-0.28-0.08-0.49-0.22-0.64-0.41c-0.15-0.19-0.25-0.42-0.31-0.67c-0.05-0.25-0.08-0.58-0.08-0.97
					v-4.51h-1.16v-0.97H567.31z"/>
				<path class="st15" d="M572.27,10.68c0-0.25,0.08-0.45,0.25-0.61c0.17-0.16,0.37-0.24,0.61-0.24c0.25,0,0.45,0.08,0.62,0.24
					c0.16,0.16,0.24,0.37,0.24,0.61c0,0.17-0.04,0.32-0.11,0.45s-0.18,0.23-0.31,0.3c-0.13,0.07-0.28,0.1-0.44,0.1
					c-0.24,0-0.44-0.08-0.61-0.24C572.35,11.12,572.27,10.92,572.27,10.68z M572.56,20.64v-7.59h1.14v7.59H572.56z"/>
				<path class="st15" d="M579.4,12.92c0.95,0,1.72,0.29,2.32,0.88c0.6,0.59,0.9,1.4,0.9,2.43v1.2c0,1.03-0.3,1.84-0.9,2.44
					s-1.37,0.89-2.31,0.89c-0.96,0-1.74-0.29-2.33-0.88c-0.59-0.59-0.89-1.4-0.89-2.44v-1.2c0-1,0.3-1.8,0.91-2.41
					C577.69,13.23,578.46,12.92,579.4,12.92z M577.31,16.36v0.95c0,0.5,0.08,0.93,0.25,1.3c0.17,0.36,0.41,0.64,0.72,0.84
					s0.69,0.3,1.12,0.3c0.65,0,1.16-0.22,1.52-0.66s0.55-1.03,0.55-1.78v-0.95c0-0.74-0.19-1.33-0.56-1.77
					c-0.37-0.44-0.88-0.66-1.51-0.66s-1.14,0.22-1.52,0.67C577.5,15.05,577.31,15.63,577.31,16.36z"/>
				<path class="st15" d="M584.9,20.64v-7.59h1.13v1.4h0.07c0.32-1.01,1.09-1.52,2.31-1.52c0.79,0,1.42,0.21,1.89,0.64
					c0.47,0.43,0.7,1.05,0.7,1.86v5.22h-1.14v-4.86c0-0.61-0.15-1.07-0.45-1.39s-0.72-0.48-1.27-0.48c-0.69,0-1.22,0.23-1.58,0.69
					s-0.54,1.05-0.54,1.77v4.26H584.9z"/>
				<path class="st15" d="M599.62,22.48c0.7,0,1.22-0.17,1.58-0.52c0.35-0.35,0.53-0.84,0.53-1.48v-1.16h-0.07
					c-0.1,0.22-0.25,0.42-0.45,0.6s-0.44,0.32-0.74,0.43c-0.29,0.11-0.61,0.16-0.95,0.16c-0.56,0-1.07-0.12-1.53-0.37
					s-0.82-0.61-1.09-1.09c-0.27-0.48-0.41-1.04-0.41-1.67v-1.29c0-0.47,0.08-0.9,0.24-1.31s0.37-0.74,0.64-1s0.59-0.48,0.96-0.62
					c0.37-0.15,0.76-0.22,1.19-0.22c0.53,0,1,0.13,1.4,0.38s0.67,0.54,0.81,0.88h0.05v-1.14h1.08v7.42c0,1.01-0.29,1.76-0.87,2.27
					c-0.58,0.51-1.39,0.76-2.42,0.76c-0.9,0-1.6-0.19-2.09-0.57c-0.49-0.38-0.76-0.87-0.83-1.46h1.19c0.05,0.28,0.24,0.52,0.55,0.72
					S599.12,22.48,599.62,22.48z M599.74,13.93c-0.32,0-0.62,0.06-0.88,0.17s-0.49,0.28-0.67,0.49s-0.32,0.47-0.42,0.77
					c-0.1,0.3-0.14,0.63-0.14,0.99v0.74c0,0.71,0.2,1.28,0.59,1.73s0.91,0.66,1.53,0.66c0.61,0,1.09-0.21,1.44-0.63
					c0.35-0.42,0.53-0.92,0.53-1.5v-1.22c0-0.6-0.18-1.11-0.54-1.54C600.81,14.15,600.33,13.93,599.74,13.93z"/>
				<path class="st15" d="M608.17,20.76c-0.99,0-1.77-0.3-2.33-0.89c-0.56-0.6-0.84-1.4-0.84-2.42v-1.23c0-1,0.29-1.8,0.86-2.4
					c0.58-0.6,1.32-0.9,2.23-0.9c0.91,0,1.65,0.3,2.23,0.9c0.58,0.6,0.86,1.4,0.86,2.4v0.93h-5.04v0.39c0,0.64,0.18,1.17,0.54,1.59
					s0.86,0.62,1.5,0.62c0.44,0,0.81-0.09,1.11-0.27c0.3-0.18,0.49-0.4,0.57-0.65h1.2c-0.04,0.21-0.12,0.43-0.25,0.64
					c-0.13,0.21-0.31,0.42-0.54,0.62s-0.52,0.36-0.89,0.49C609.02,20.7,608.61,20.76,608.17,20.76z M606.14,16.28h3.89v-0.13
					c0-0.44-0.08-0.83-0.24-1.17c-0.16-0.34-0.39-0.59-0.68-0.77s-0.63-0.27-1.02-0.27c-0.58,0-1.05,0.2-1.41,0.6
					c-0.36,0.4-0.54,0.94-0.54,1.61V16.28z"/>
				<path class="st15" d="M613.4,20.64v-7.59h1.13v1.4h0.07c0.32-1.01,1.09-1.52,2.31-1.52c0.79,0,1.42,0.21,1.89,0.64
					c0.47,0.43,0.7,1.05,0.7,1.86v5.22h-1.14v-4.86c0-0.61-0.15-1.07-0.45-1.39s-0.72-0.48-1.27-0.48c-0.69,0-1.22,0.23-1.58,0.69
					s-0.54,1.05-0.54,1.77v4.26H613.4z"/>
				<path class="st15" d="M624.91,20.76c-0.99,0-1.77-0.3-2.33-0.89c-0.56-0.6-0.84-1.4-0.84-2.42v-1.23c0-1,0.29-1.8,0.86-2.4
					c0.58-0.6,1.32-0.9,2.23-0.9c0.91,0,1.65,0.3,2.23,0.9c0.58,0.6,0.86,1.4,0.86,2.4v0.93h-5.04v0.39c0,0.64,0.18,1.17,0.54,1.59
					s0.86,0.62,1.5,0.62c0.44,0,0.81-0.09,1.11-0.27c0.3-0.18,0.49-0.4,0.57-0.65h1.2c-0.04,0.21-0.12,0.43-0.25,0.64
					c-0.13,0.21-0.31,0.42-0.54,0.62s-0.52,0.36-0.89,0.49C625.76,20.7,625.35,20.76,624.91,20.76z M622.88,16.28h3.89v-0.13
					c0-0.44-0.08-0.83-0.24-1.17c-0.16-0.34-0.39-0.59-0.68-0.77s-0.63-0.27-1.02-0.27c-0.58,0-1.05,0.2-1.41,0.6
					c-0.36,0.4-0.54,0.94-0.54,1.61V16.28z"/>
				<path class="st15" d="M630.53,13.04v-1.91h1.14v1.91h1.73v0.97h-1.73v4.56c0,0.31,0.04,0.55,0.12,0.72
					c0.08,0.17,0.2,0.28,0.38,0.35c0.17,0.06,0.43,0.1,0.76,0.1c0.2,0,0.4-0.01,0.58-0.03v0.94c-0.18,0.04-0.47,0.05-0.88,0.05
					c-0.44,0-0.8-0.04-1.07-0.12c-0.28-0.08-0.49-0.22-0.64-0.41c-0.15-0.19-0.25-0.42-0.31-0.67c-0.05-0.25-0.08-0.58-0.08-0.97
					v-4.51h-1.16v-0.97H630.53z"/>
				<path class="st15" d="M635.49,10.68c0-0.25,0.08-0.45,0.25-0.61c0.17-0.16,0.37-0.24,0.61-0.24c0.25,0,0.45,0.08,0.62,0.24
					c0.16,0.16,0.24,0.37,0.24,0.61c0,0.17-0.04,0.32-0.11,0.45s-0.18,0.23-0.31,0.3c-0.13,0.07-0.28,0.1-0.44,0.1
					c-0.24,0-0.44-0.08-0.61-0.24C635.57,11.12,635.49,10.92,635.49,10.68z M635.78,20.64v-7.59h1.14v7.59H635.78z"/>
				<path class="st15" d="M639.4,17.5v-1.33c0-0.99,0.28-1.78,0.83-2.37c0.56-0.59,1.31-0.88,2.28-0.88c0.88,0,1.57,0.23,2.07,0.68
					c0.5,0.45,0.76,0.97,0.78,1.55h-1.14c-0.03-0.13-0.07-0.25-0.13-0.38c-0.06-0.12-0.15-0.25-0.27-0.39
					c-0.12-0.14-0.29-0.25-0.52-0.33c-0.23-0.08-0.49-0.12-0.78-0.12c-0.65,0-1.14,0.21-1.48,0.61c-0.34,0.41-0.51,0.96-0.51,1.66
					v1.3c0,0.44,0.08,0.83,0.24,1.16s0.39,0.58,0.69,0.76c0.3,0.18,0.66,0.26,1.07,0.26c0.99,0,1.57-0.35,1.75-1.06h1.14
					c-0.03,0.57-0.29,1.07-0.78,1.5c-0.49,0.43-1.2,0.64-2.12,0.64c-0.96,0-1.72-0.3-2.28-0.89C639.68,19.29,639.4,18.49,639.4,17.5
					z"/>
				<path class="st15" d="M647.17,15.2c0-0.75,0.26-1.32,0.79-1.7c0.53-0.39,1.19-0.58,1.97-0.58c0.39,0,0.76,0.05,1.09,0.16
					s0.61,0.25,0.84,0.44c0.23,0.18,0.41,0.4,0.53,0.66c0.12,0.26,0.19,0.54,0.19,0.84h-1.06c-0.02-0.2-0.08-0.38-0.2-0.55
					s-0.3-0.32-0.55-0.44c-0.25-0.12-0.55-0.18-0.89-0.18c-0.31,0-0.59,0.05-0.83,0.14c-0.24,0.09-0.43,0.23-0.57,0.42
					c-0.14,0.19-0.21,0.41-0.21,0.65c0,0.18,0.04,0.33,0.11,0.46c0.07,0.13,0.16,0.23,0.25,0.3c0.09,0.07,0.23,0.14,0.41,0.21
					c0.18,0.07,0.33,0.11,0.44,0.13c0.12,0.02,0.28,0.06,0.51,0.1c0.02,0,0.03,0,0.05,0.01c0.01,0,0.03,0.01,0.05,0.01
					c0.02,0,0.04,0.01,0.05,0.02c0.27,0.04,0.5,0.09,0.69,0.14c0.19,0.05,0.4,0.11,0.62,0.18c0.22,0.07,0.4,0.16,0.54,0.26
					c0.15,0.1,0.29,0.22,0.42,0.37c0.13,0.14,0.23,0.31,0.29,0.5s0.09,0.41,0.09,0.65c0,0.74-0.27,1.31-0.82,1.73
					c-0.54,0.42-1.26,0.62-2.16,0.62c-0.83,0-1.5-0.18-2.01-0.55c-0.51-0.37-0.77-0.88-0.77-1.54h1.12
					c0.11,0.76,0.68,1.14,1.71,1.14c0.41,0,0.75-0.06,1.03-0.17c0.28-0.12,0.48-0.26,0.59-0.44c0.12-0.18,0.18-0.39,0.18-0.64
					c0-0.17-0.03-0.32-0.1-0.45c-0.07-0.13-0.15-0.23-0.25-0.31c-0.1-0.08-0.24-0.15-0.44-0.22s-0.36-0.12-0.5-0.15
					c-0.14-0.03-0.35-0.08-0.62-0.13c-0.35-0.07-0.63-0.13-0.83-0.18c-0.2-0.05-0.43-0.13-0.69-0.24s-0.45-0.23-0.59-0.37
					c-0.13-0.14-0.25-0.31-0.34-0.52C647.22,15.76,647.17,15.5,647.17,15.2z"/>
			</g>
		</g>
		<path class="st11" d="M440.88,243.63h-119.4c-6.44,0-11.66-5.22-11.66-11.66v0c0-6.44,5.22-11.66,11.66-11.66h119.4
			c6.44,0,11.66,5.22,11.66,11.66v0C452.55,238.41,447.32,243.63,440.88,243.63z"/>
		<g>
			<path class="st15" d="M332.54,235.99v-9.87h3.65c0.81,0,1.46,0.22,1.96,0.65c0.5,0.43,0.75,1.03,0.75,1.78
				c0,0.57-0.14,1.04-0.42,1.41c-0.28,0.37-0.66,0.62-1.15,0.78v0.04c0.34,0.06,0.65,0.16,0.92,0.29c0.27,0.14,0.5,0.31,0.67,0.53
				c0.17,0.21,0.31,0.46,0.4,0.73c0.09,0.28,0.14,0.58,0.14,0.9c0,0.89-0.31,1.57-0.94,2.05c-0.63,0.48-1.46,0.72-2.5,0.72H332.54z
				 M333.71,227.15v3.24h1.55c0.84,0,1.46-0.13,1.87-0.38s0.61-0.68,0.61-1.26c0-0.53-0.16-0.93-0.47-1.19
				c-0.32-0.26-0.72-0.4-1.23-0.4H333.71z M333.71,231.42v3.51h1.75c0.35,0,0.66-0.01,0.92-0.04s0.52-0.07,0.77-0.15
				s0.45-0.17,0.61-0.29c0.16-0.12,0.29-0.28,0.39-0.49c0.1-0.2,0.15-0.45,0.15-0.73c0-0.6-0.19-1.05-0.58-1.36
				c-0.38-0.31-0.9-0.46-1.55-0.46H333.71z"/>
			<path class="st15" d="M341.56,226.03c0-0.25,0.08-0.45,0.25-0.61c0.17-0.16,0.37-0.24,0.61-0.24c0.25,0,0.45,0.08,0.62,0.24
				c0.16,0.16,0.24,0.37,0.24,0.61c0,0.17-0.04,0.32-0.11,0.45s-0.18,0.23-0.31,0.3c-0.13,0.07-0.28,0.1-0.44,0.1
				c-0.24,0-0.44-0.08-0.61-0.24C341.64,226.47,341.56,226.27,341.56,226.03z M341.85,235.99v-7.59h1.14v7.59H341.85z"/>
			<path class="st15" d="M348.69,228.27c0.95,0,1.72,0.29,2.32,0.88c0.6,0.59,0.9,1.4,0.9,2.43v1.2c0,1.03-0.3,1.84-0.9,2.44
				s-1.37,0.89-2.31,0.89c-0.96,0-1.74-0.29-2.33-0.88c-0.59-0.59-0.89-1.4-0.89-2.44v-1.2c0-1,0.3-1.8,0.91-2.41
				C346.98,228.58,347.75,228.27,348.69,228.27z M346.6,231.72v0.95c0,0.5,0.08,0.93,0.25,1.3c0.17,0.36,0.41,0.64,0.72,0.84
				s0.69,0.3,1.12,0.3c0.65,0,1.16-0.22,1.52-0.66c0.37-0.44,0.55-1.03,0.55-1.78v-0.95c0-0.74-0.19-1.33-0.56-1.77
				c-0.37-0.44-0.88-0.66-1.51-0.66s-1.14,0.22-1.52,0.67S346.6,230.99,346.6,231.72z"/>
			<path class="st15" d="M354.09,226.03c0-0.25,0.08-0.45,0.25-0.61c0.17-0.16,0.37-0.24,0.61-0.24c0.25,0,0.45,0.08,0.62,0.24
				c0.16,0.16,0.24,0.37,0.24,0.61c0,0.17-0.04,0.32-0.11,0.45s-0.18,0.23-0.31,0.3c-0.13,0.07-0.28,0.1-0.44,0.1
				c-0.24,0-0.44-0.08-0.61-0.24C354.17,226.47,354.09,226.27,354.09,226.03z M354.38,235.99v-7.59h1.14v7.59H354.38z"/>
			<path class="st15" d="M358.37,235.99v-7.59h1.13v1.4h0.07c0.32-1.01,1.09-1.52,2.31-1.52c0.79,0,1.42,0.21,1.89,0.64
				c0.47,0.43,0.7,1.05,0.7,1.86v5.22h-1.14v-4.86c0-0.61-0.15-1.07-0.45-1.39c-0.3-0.32-0.72-0.48-1.27-0.48
				c-0.69,0-1.22,0.23-1.58,0.69s-0.54,1.05-0.54,1.77v4.26H358.37z"/>
			<path class="st15" d="M367.73,235.99v-6.62h-1.29v-0.97h1.29v-0.76c0-0.73,0.18-1.27,0.54-1.61s0.95-0.51,1.76-0.51
				c0.29,0,0.56,0.02,0.82,0.05v0.96c-0.15-0.02-0.38-0.03-0.68-0.03c-0.48,0-0.82,0.09-1.02,0.26s-0.3,0.5-0.3,0.97v0.66h1.77v0.97
				h-1.77v6.62H367.73z"/>
			<path class="st15" d="M375.65,228.27c0.95,0,1.72,0.29,2.32,0.88c0.6,0.59,0.9,1.4,0.9,2.43v1.2c0,1.03-0.3,1.84-0.9,2.44
				s-1.37,0.89-2.31,0.89c-0.96,0-1.74-0.29-2.33-0.88c-0.59-0.59-0.89-1.4-0.89-2.44v-1.2c0-1,0.3-1.8,0.91-2.41
				C373.94,228.58,374.71,228.27,375.65,228.27z M373.55,231.72v0.95c0,0.5,0.08,0.93,0.25,1.3c0.17,0.36,0.41,0.64,0.72,0.84
				s0.69,0.3,1.12,0.3c0.65,0,1.16-0.22,1.52-0.66c0.37-0.44,0.55-1.03,0.55-1.78v-0.95c0-0.74-0.19-1.33-0.56-1.77
				c-0.37-0.44-0.88-0.66-1.51-0.66s-1.14,0.22-1.52,0.67S373.55,230.99,373.55,231.72z"/>
			<path class="st15" d="M381.29,235.99v-7.59h1.13v1.18h0.06c0.13-0.34,0.36-0.64,0.7-0.9s0.81-0.39,1.43-0.39
				c0.09,0,0.24,0.01,0.45,0.03v1.05c-0.11-0.02-0.31-0.03-0.58-0.03c-0.44,0-0.82,0.09-1.13,0.26c-0.31,0.17-0.54,0.39-0.69,0.67
				s-0.22,0.58-0.22,0.93v4.8H381.29z"/>
			<path class="st15" d="M386.83,235.99v-7.59h1.13v1.2h0.07c0.29-0.88,0.97-1.32,2.05-1.32c0.28,0,0.54,0.04,0.78,0.11
				c0.24,0.07,0.44,0.17,0.62,0.3c0.17,0.13,0.32,0.28,0.45,0.45s0.21,0.36,0.27,0.56h0.06c0.17-0.42,0.45-0.76,0.84-1.02
				s0.88-0.4,1.47-0.4c0.79,0,1.41,0.21,1.85,0.61c0.44,0.41,0.66,0.99,0.66,1.75v5.35h-1.14v-5.08c0-0.5-0.14-0.89-0.42-1.2
				c-0.28-0.3-0.69-0.45-1.22-0.45c-0.51,0-0.93,0.17-1.27,0.52c-0.34,0.35-0.5,0.78-0.5,1.31v4.9h-1.13v-5
				c0-0.51-0.15-0.92-0.46-1.24c-0.31-0.32-0.72-0.48-1.24-0.48c-0.5,0-0.91,0.17-1.24,0.51c-0.33,0.34-0.49,0.78-0.49,1.3v4.91
				H386.83z"/>
			<path class="st15" d="M401.74,236.11c-0.36,0-0.69-0.06-1-0.17c-0.31-0.12-0.57-0.27-0.78-0.47c-0.21-0.2-0.38-0.44-0.51-0.73
				c-0.12-0.29-0.19-0.61-0.19-0.96c0-0.44,0.1-0.83,0.3-1.16c0.2-0.33,0.5-0.58,0.91-0.77s0.89-0.28,1.45-0.28h2.03v-0.78
				c0-0.5-0.15-0.88-0.44-1.12c-0.29-0.24-0.71-0.37-1.25-0.37c-0.88,0-1.41,0.3-1.61,0.91h-1.1c0.06-0.64,0.34-1.12,0.82-1.45
				c0.48-0.33,1.13-0.49,1.94-0.49c0.82,0,1.49,0.2,2.01,0.61c0.52,0.41,0.78,1.04,0.78,1.89v5.22h-1.11v-1.02h-0.04
				C403.47,235.73,402.73,236.11,401.74,236.11z M402.02,235.13c0.54,0,1-0.17,1.37-0.5c0.37-0.33,0.55-0.75,0.55-1.24v-0.88h-2.01
				c-0.52,0-0.9,0.12-1.14,0.35c-0.24,0.23-0.37,0.53-0.37,0.91c0,0.44,0.16,0.78,0.46,1.02
				C401.21,235.01,401.58,235.13,402.02,235.13z"/>
			<path class="st15" d="M408.1,228.39v-1.91h1.14v1.91h1.73v0.97h-1.73v4.56c0,0.31,0.04,0.55,0.12,0.72
				c0.08,0.17,0.2,0.28,0.38,0.35c0.17,0.06,0.43,0.1,0.76,0.1c0.2,0,0.4-0.01,0.58-0.03V236c-0.18,0.04-0.47,0.05-0.88,0.05
				c-0.44,0-0.8-0.04-1.07-0.12c-0.28-0.08-0.49-0.22-0.64-0.41c-0.15-0.19-0.25-0.42-0.31-0.67c-0.05-0.25-0.08-0.58-0.08-0.97
				v-4.51h-1.16v-0.97H408.1z"/>
			<path class="st15" d="M413.06,226.03c0-0.25,0.08-0.45,0.25-0.61c0.17-0.16,0.37-0.24,0.61-0.24c0.25,0,0.45,0.08,0.62,0.24
				c0.16,0.16,0.24,0.37,0.24,0.61c0,0.17-0.04,0.32-0.11,0.45s-0.18,0.23-0.31,0.3c-0.13,0.07-0.28,0.1-0.44,0.1
				c-0.24,0-0.44-0.08-0.61-0.24C413.14,226.47,413.06,226.27,413.06,226.03z M413.35,235.99v-7.59h1.14v7.59H413.35z"/>
			<path class="st15" d="M416.97,232.85v-1.33c0-0.99,0.28-1.78,0.83-2.37c0.56-0.59,1.31-0.88,2.28-0.88
				c0.88,0,1.57,0.23,2.07,0.68c0.5,0.45,0.76,0.97,0.78,1.55h-1.14c-0.03-0.13-0.07-0.25-0.13-0.38c-0.06-0.12-0.15-0.25-0.27-0.39
				c-0.12-0.14-0.29-0.25-0.52-0.33c-0.23-0.08-0.49-0.12-0.78-0.12c-0.65,0-1.14,0.21-1.48,0.61c-0.34,0.41-0.51,0.96-0.51,1.67
				v1.3c0,0.44,0.08,0.83,0.24,1.16c0.16,0.33,0.39,0.58,0.69,0.76c0.3,0.17,0.66,0.26,1.07,0.26c0.99,0,1.57-0.35,1.75-1.06h1.14
				c-0.03,0.57-0.29,1.07-0.78,1.5c-0.49,0.43-1.2,0.64-2.12,0.64c-0.96,0-1.72-0.29-2.28-0.89
				C417.24,234.64,416.97,233.84,416.97,232.85z"/>
			<path class="st15" d="M424.74,230.55c0-0.75,0.26-1.32,0.79-1.7c0.53-0.39,1.19-0.58,1.97-0.58c0.39,0,0.76,0.05,1.09,0.16
				s0.61,0.25,0.84,0.44s0.41,0.4,0.53,0.66s0.19,0.54,0.19,0.84h-1.06c-0.02-0.2-0.08-0.38-0.2-0.55c-0.12-0.17-0.3-0.32-0.55-0.43
				c-0.25-0.12-0.55-0.18-0.89-0.18c-0.31,0-0.59,0.05-0.83,0.14s-0.43,0.23-0.57,0.42c-0.14,0.19-0.21,0.41-0.21,0.65
				c0,0.18,0.04,0.33,0.11,0.46c0.07,0.13,0.16,0.23,0.25,0.3c0.09,0.07,0.23,0.14,0.41,0.21s0.33,0.11,0.44,0.13
				c0.12,0.02,0.28,0.05,0.51,0.1c0.02,0,0.03,0,0.05,0.01c0.01,0,0.03,0.01,0.05,0.01c0.02,0,0.04,0.01,0.05,0.02
				c0.27,0.04,0.5,0.09,0.69,0.14c0.19,0.05,0.4,0.11,0.62,0.18c0.22,0.07,0.4,0.16,0.54,0.26c0.15,0.1,0.29,0.22,0.42,0.37
				c0.13,0.14,0.23,0.31,0.29,0.5s0.09,0.41,0.09,0.65c0,0.74-0.27,1.31-0.82,1.73c-0.54,0.42-1.26,0.62-2.16,0.62
				c-0.83,0-1.5-0.18-2.01-0.55s-0.77-0.88-0.77-1.54h1.12c0.11,0.76,0.68,1.14,1.71,1.14c0.41,0,0.75-0.06,1.03-0.17
				c0.28-0.12,0.48-0.26,0.59-0.44c0.12-0.18,0.18-0.39,0.18-0.64c0-0.17-0.03-0.32-0.1-0.45c-0.07-0.13-0.15-0.23-0.25-0.31
				c-0.1-0.08-0.24-0.15-0.44-0.22c-0.19-0.07-0.36-0.12-0.5-0.15c-0.14-0.03-0.35-0.08-0.62-0.13c-0.35-0.07-0.63-0.13-0.83-0.18
				s-0.43-0.13-0.69-0.24c-0.26-0.11-0.45-0.23-0.59-0.37c-0.13-0.13-0.25-0.31-0.34-0.53S424.74,230.85,424.74,230.55z"/>
		</g>
		<path class="st8" d="M294.94,83.15h-92.79c-6.44,0-11.66-5.22-11.66-11.66v0c0-6.44,5.22-11.66,11.66-11.66h92.79
			c6.44,0,11.66,5.22,11.66,11.66v0C306.6,77.93,301.38,83.15,294.94,83.15z"/>
		<g>
			<path class="st15" d="M204.98,75.51h-1.06v-9.87h1.11l3.34,7.91h0.04l3.32-7.91h1.12v9.87h-1.05v-7.36h-0.07l-2.82,6.6h-1.04
				l-2.84-6.6h-0.05V75.51z"/>
			<path class="st15" d="M218.41,75.63c-0.99,0-1.77-0.3-2.33-0.89c-0.56-0.6-0.84-1.4-0.84-2.42V71.1c0-1,0.29-1.8,0.86-2.4
				c0.58-0.6,1.32-0.9,2.23-0.9s1.65,0.3,2.23,0.9c0.58,0.6,0.86,1.4,0.86,2.4v0.93h-5.04v0.39c0,0.64,0.18,1.17,0.53,1.59
				c0.36,0.42,0.86,0.62,1.5,0.62c0.44,0,0.81-0.09,1.11-0.27c0.3-0.18,0.49-0.4,0.57-0.65h1.2c-0.04,0.21-0.12,0.43-0.25,0.64
				c-0.13,0.21-0.31,0.42-0.54,0.62s-0.52,0.36-0.89,0.49C219.26,75.57,218.85,75.63,218.41,75.63z M216.38,71.15h3.89v-0.13
				c0-0.44-0.08-0.83-0.24-1.17c-0.16-0.34-0.39-0.59-0.68-0.77s-0.63-0.27-1.02-0.27c-0.58,0-1.05,0.2-1.41,0.6
				c-0.36,0.4-0.53,0.94-0.53,1.61V71.15z"/>
			<path class="st15" d="M223.64,75.51v-7.59h1.13v1.4h0.07c0.32-1.01,1.09-1.52,2.31-1.52c0.79,0,1.42,0.21,1.89,0.64
				c0.47,0.43,0.7,1.05,0.7,1.86v5.22h-1.14v-4.86c0-0.61-0.15-1.07-0.45-1.39s-0.72-0.48-1.27-0.48c-0.69,0-1.22,0.23-1.58,0.69
				c-0.36,0.46-0.54,1.05-0.54,1.77v4.26H223.64z"/>
			<path class="st15" d="M232.74,67.91v-1.91h1.14v1.91h1.73v0.97h-1.73v4.56c0,0.31,0.04,0.55,0.12,0.72
				c0.08,0.17,0.2,0.28,0.38,0.35c0.18,0.06,0.43,0.1,0.76,0.1c0.2,0,0.4-0.01,0.58-0.03v0.94c-0.18,0.04-0.47,0.05-0.88,0.05
				c-0.44,0-0.8-0.04-1.07-0.12c-0.28-0.08-0.49-0.22-0.64-0.41c-0.15-0.19-0.25-0.42-0.31-0.67c-0.06-0.25-0.08-0.58-0.08-0.97
				v-4.51h-1.16v-0.97H232.74z"/>
			<path class="st15" d="M239.83,75.63c-0.36,0-0.69-0.06-1-0.17s-0.57-0.27-0.78-0.47c-0.21-0.2-0.38-0.44-0.5-0.73
				s-0.19-0.61-0.19-0.96c0-0.44,0.1-0.83,0.3-1.16s0.5-0.59,0.91-0.77c0.41-0.19,0.89-0.28,1.45-0.28h2.03V70.3
				c0-0.5-0.15-0.88-0.44-1.12c-0.29-0.24-0.71-0.37-1.25-0.37c-0.88,0-1.41,0.3-1.61,0.91h-1.1c0.06-0.64,0.34-1.12,0.82-1.44
				c0.48-0.33,1.13-0.49,1.94-0.49c0.82,0,1.49,0.2,2.01,0.61c0.52,0.41,0.78,1.04,0.78,1.89v5.22h-1.11v-1.02h-0.04
				C241.57,75.25,240.83,75.63,239.83,75.63z M240.12,74.65c0.54,0,1-0.17,1.37-0.5c0.37-0.33,0.55-0.75,0.55-1.24v-0.88h-2.01
				c-0.52,0-0.9,0.12-1.14,0.35c-0.24,0.23-0.37,0.53-0.37,0.91c0,0.44,0.16,0.78,0.47,1.02C239.31,74.53,239.68,74.65,240.12,74.65
				z"/>
			<path class="st15" d="M245.85,75.51v-10.4h1.15v10.4H245.85z"/>
			<path class="st15" d="M253.07,75.51v-10.4h1.14v4.21h0.05c0.04-0.12,0.08-0.24,0.15-0.36c0.06-0.12,0.16-0.25,0.29-0.4
				c0.13-0.14,0.28-0.27,0.44-0.38c0.17-0.11,0.38-0.2,0.64-0.28c0.26-0.07,0.54-0.11,0.85-0.11c0.77,0,1.38,0.22,1.85,0.65
				c0.47,0.43,0.7,1.05,0.7,1.86v5.2h-1.15v-4.84c0-0.6-0.15-1.07-0.46-1.4c-0.31-0.33-0.74-0.49-1.29-0.49
				c-0.66,0-1.18,0.23-1.54,0.69c-0.36,0.46-0.54,1.05-0.54,1.77v4.26H253.07z"/>
			<path class="st15" d="M264.62,75.63c-0.99,0-1.77-0.3-2.33-0.89c-0.56-0.6-0.84-1.4-0.84-2.42V71.1c0-1,0.29-1.8,0.86-2.4
				c0.58-0.6,1.32-0.9,2.23-0.9s1.65,0.3,2.23,0.9c0.58,0.6,0.86,1.4,0.86,2.4v0.93h-5.04v0.39c0,0.64,0.18,1.17,0.53,1.59
				c0.36,0.42,0.86,0.62,1.5,0.62c0.44,0,0.81-0.09,1.11-0.27c0.3-0.18,0.49-0.4,0.57-0.65h1.2c-0.04,0.21-0.12,0.43-0.25,0.64
				c-0.13,0.21-0.31,0.42-0.54,0.62s-0.52,0.36-0.89,0.49C265.46,75.57,265.06,75.63,264.62,75.63z M262.58,71.15h3.89v-0.13
				c0-0.44-0.08-0.83-0.24-1.17c-0.16-0.34-0.39-0.59-0.68-0.77s-0.63-0.27-1.02-0.27c-0.58,0-1.05,0.2-1.41,0.6
				c-0.36,0.4-0.53,0.94-0.53,1.61V71.15z"/>
			<path class="st15" d="M271.88,75.63c-0.36,0-0.69-0.06-1-0.17s-0.57-0.27-0.78-0.47c-0.21-0.2-0.38-0.44-0.5-0.73
				s-0.19-0.61-0.19-0.96c0-0.44,0.1-0.83,0.3-1.16s0.5-0.59,0.91-0.77c0.41-0.19,0.89-0.28,1.45-0.28h2.03V70.3
				c0-0.5-0.15-0.88-0.44-1.12c-0.29-0.24-0.71-0.37-1.25-0.37c-0.88,0-1.41,0.3-1.61,0.91h-1.1c0.06-0.64,0.34-1.12,0.82-1.44
				c0.48-0.33,1.13-0.49,1.94-0.49c0.82,0,1.49,0.2,2.01,0.61c0.52,0.41,0.78,1.04,0.78,1.89v5.22h-1.11v-1.02h-0.04
				C273.61,75.25,272.87,75.63,271.88,75.63z M272.16,74.65c0.54,0,1-0.17,1.37-0.5c0.37-0.33,0.55-0.75,0.55-1.24v-0.88h-2.01
				c-0.52,0-0.9,0.12-1.14,0.35c-0.24,0.23-0.37,0.53-0.37,0.91c0,0.44,0.16,0.78,0.47,1.02C271.35,74.53,271.72,74.65,272.16,74.65
				z"/>
			<path class="st15" d="M277.89,75.51v-10.4h1.15v10.4H277.89z"/>
			<path class="st15" d="M282.11,67.91v-1.91h1.14v1.91h1.73v0.97h-1.73v4.56c0,0.31,0.04,0.55,0.12,0.72
				c0.08,0.17,0.2,0.28,0.38,0.35c0.17,0.06,0.43,0.1,0.76,0.1c0.2,0,0.4-0.01,0.58-0.03v0.94c-0.18,0.04-0.47,0.05-0.88,0.05
				c-0.44,0-0.8-0.04-1.07-0.12c-0.28-0.08-0.49-0.22-0.64-0.41c-0.15-0.19-0.25-0.42-0.31-0.67c-0.05-0.25-0.08-0.58-0.08-0.97
				v-4.51h-1.16v-0.97H282.11z"/>
			<path class="st15" d="M287.2,75.51v-10.4h1.14v4.21h0.05c0.04-0.12,0.08-0.24,0.15-0.36c0.06-0.12,0.16-0.25,0.29-0.4
				c0.13-0.14,0.28-0.27,0.45-0.38s0.38-0.2,0.64-0.28c0.26-0.07,0.54-0.11,0.85-0.11c0.77,0,1.38,0.22,1.85,0.65
				c0.47,0.43,0.7,1.05,0.7,1.86v5.2h-1.15v-4.84c0-0.6-0.15-1.07-0.46-1.4s-0.74-0.49-1.29-0.49c-0.67,0-1.18,0.23-1.54,0.69
				s-0.54,1.05-0.54,1.77v4.26H287.2z"/>
		</g>
	</g>
</g>
</svg>
