<?xml version="1.0" encoding="utf-8"?>
<!-- Generator: Adobe Illustrator 24.2.1, SVG Export Plug-In . SVG Version: 6.00 Build 0)  -->
<svg version="1.1" id="Capa_1" xmlns="http://www.w3.org/2000/svg" xmlns:xlink="http://www.w3.org/1999/xlink" x="0px" y="0px"
	 viewBox="0 0 747 527.4" style="enable-background:new 0 0 747 527.4;" xml:space="preserve">
<style type="text/css">
	.st0{fill:none;stroke:#02ACBB;stroke-width:1.494;stroke-miterlimit:10;}
	.st1{fill:none;stroke:#FB809F;stroke-width:1.494;stroke-miterlimit:10;}
	.st2{fill:none;stroke:#898989;stroke-width:1.494;stroke-miterlimit:10;}
	.st3{fill:#898989;}
	.st4{fill:none;stroke:#02ACBB;stroke-width:1.6205;stroke-miterlimit:10;}
	.st5{fill:#02ACBB;}
	.st6{font-family:'Galvji-Bold';}
	.st7{font-size:16.0033px;}
	.st8{font-size:9.3299px;}
	.st9{fill:none;stroke:#B1E5E5;stroke-width:1.494;stroke-miterlimit:10;}
	.st10{enable-background:new    ;}
	.st11{fill:#FFFFFF;}
	.st12{fill:#FB809F;}
	.st13{fill:none;stroke:#02ACBB;stroke-width:1.4903;stroke-miterlimit:10;}
	.st14{fill:#B1E5E5;}
	.st15{fill:none;stroke:#02ACBB;stroke-width:1.3418;stroke-miterlimit:10;}
	.st16{fill:#C6C6C6;stroke:#C6C6C6;stroke-width:1.992;stroke-miterlimit:10;}
	
		.st17{fill:none;stroke:#C6C6C6;stroke-width:1.992;stroke-miterlimit:10;stroke-dasharray:1.1459,1.1459,1.1459,1.1459,1.1459,1.1459;}
	.st18{fill:#02ACBB;stroke:#02ACBB;stroke-width:1.992;stroke-miterlimit:10;}
	.st19{fill:#C6C6C6;}
	.st20{fill:#E8E8E8;}
	.st21{fill:#7F7F7F;}
	.st22{fill:#6D6D6D;}
	.st23{fill:#686868;}
	.st24{fill:#A3A3A3;}
	.st25{fill:#DDDDDD;}
	.st26{fill:#9B9B9B;}
	.st27{fill:#818181;}
	.st28{fill:#BADDDD;}
	.st29{fill:#7DC7C9;}
</style>
<g id="Capa_2_1_">
</g>
<g>
	<g>
		<path class="st0" d="M174.5,45.2c-28.5,0-28.5,41-57.1,41s-28.5-41-57.1-41s-28.5,41-57.1,41"/>
		<path class="st0" d="M3.7,45.2c28.5,0,28.5,41,57.1,41s28.5-41,57.1-41c28.5,0,28.5,41,57.1,41"/>
		<path class="st0" d="M117.9,45.2c28.5,0,28.5,41,57.1,41"/>
		<path class="st0" d="M65.5,85.7"/>
		<path class="st1" d="M54.8,85.5c1.8,0.4,3.8,0.7,6,0.7c1.7,0,3.2-0.1,4.7-0.4"/>
	</g>
	<circle class="st2" cx="60.3" cy="84" r="11.5"/>
	<g>
		<line class="st0" x1="175.1" y1="122.4" x2="3.8" y2="122.4"/>
		<line class="st1" x1="99.1" y1="122.4" x2="78.1" y2="122.4"/>
	</g>
	<g>
		<line class="st0" x1="175.1" y1="115.6" x2="3.8" y2="115.6"/>
		<line class="st1" x1="99.1" y1="115.6" x2="78.1" y2="115.6"/>
	</g>
	<g>
		<g>
			<polyline class="st2" points="60.1,95.7 60.1,102.4 88.1,102.4 88.1,107.1 			"/>
			<g>
				<polygon class="st3" points="85.5,104.2 88.1,106.7 90.6,104.2 90.6,106.3 88.1,108.8 85.5,106.3 				"/>
			</g>
		</g>
	</g>
	<g>
		<g>
			<line class="st2" x1="88.6" y1="128.3" x2="88.6" y2="146.4"/>
			<g>
				<polygon class="st3" points="86,143.4 88.6,146 91.1,143.4 91.1,145.6 88.6,148.1 86,145.6 				"/>
			</g>
		</g>
	</g>
	<g>
		<g>
			<g>
				<path class="st4" d="M7.8,267.6c6,0,6,11.7,11.9,11.7s6-11.7,11.9-11.7s6,11.7,11.9,11.7s6-11.7,11.9-11.7"/>
			</g>
			<path class="st4" d="M8,279.3c6,0,6-11.7,11.9-11.7s6,11.7,11.9,11.7s6-11.7,11.9-11.7S50,279.3,56,279.3"/>
		</g>
		<g>
			<path class="st4" d="M30.5,295.4c6,0,6,11.7,11.9,11.7s6-11.7,11.9-11.7s6,11.7,11.9,11.7s6-11.7,11.9-11.7"/>
		</g>
		<path class="st4" d="M100.1,272.1c1,3.9-1.5,7.9-5.4,8.9c-2.2,0.5-4.3,0-6-1.2c-0.9,1-2.1,1.7-3.5,2.1c-3.6,0.9-7.1-1.3-7.9-4.9
			c-0.3-1.4-0.2-2.8,0.3-4c-1-0.9-1.8-2.1-2.2-3.5c-0.9-3.6,1.3-7.1,4.9-7.9c2.2-0.5,4.4,0.1,6,1.6c0.8-0.9,1.7-1.4,2.9-1.7
			c3-0.8,6.1,1.2,6.7,4.1c0.1,0.5,0.2,1.1,0.1,1.6C98,268.1,99.6,269.8,100.1,272.1z"/>
		<g>
			<circle class="st4" cx="100.3" cy="295.5" r="3"/>
			<circle class="st4" cx="115.5" cy="295.5" r="3"/>
			<circle class="st4" cx="130.6" cy="286.8" r="3"/>
			<line class="st4" x1="103.5" y1="295.5" x2="112.5" y2="295.5"/>
			<circle class="st4" cx="130.6" cy="304.1" r="3"/>
			<line class="st4" x1="118.2" y1="297" x2="128" y2="302.5"/>
			<line class="st4" x1="118.1" y1="294" x2="128" y2="288.4"/>
		</g>
		<g>
			<text transform="matrix(0.9598 0 0 1 129.5747 275.3286)" class="st5 st6 st7">CH</text>
			<text transform="matrix(0.9599 0 0 1 152.9907 280.6567)" class="st5 st6 st8">3</text>
		</g>
	</g>
	<g>
		<g>
			<g>
				<polyline class="st2" points="173.4,240.1 3.4,240.1 3.4,154.8 				"/>
				<g>
					<polygon class="st3" points="170.5,237.6 173,240.1 170.5,242.7 172.6,242.7 175.1,240.1 172.6,237.6 					"/>
				</g>
				<g>
					<polygon class="st3" points="5.9,157.7 3.4,155.2 0.9,157.7 0.9,155.6 3.4,153.1 5.9,155.6 					"/>
				</g>
			</g>
		</g>
		<g>
			<g>
				<rect x="21.9" y="160.6" class="st9" width="46.6" height="20.8"/>
				<line class="st9" x1="110" y1="171" x2="68.5" y2="171"/>
				<line class="st9" x1="21.9" y1="170.7" x2="7.8" y2="170.7"/>
				<line class="st9" x1="50" y1="160.6" x2="50" y2="181.4"/>
			</g>
			<g>
				<rect x="76" y="186" class="st0" width="36.1" height="20.3"/>
				<line class="st0" x1="152.7" y1="196.1" x2="112.1" y2="196.1"/>
				<line class="st0" x1="76" y1="195.9" x2="52.8" y2="195.9"/>
				<line class="st0" x1="86.1" y1="186" x2="86.1" y2="206.3"/>
			</g>
			<g>
				<rect x="111.4" y="212.2" class="st1" width="39.1" height="20.3"/>
				<line class="st1" x1="170.7" y1="222.4" x2="150.5" y2="222.4"/>
				<line class="st1" x1="111.4" y1="222.2" x2="70.8" y2="222.2"/>
				<line class="st1" x1="127.1" y1="212.2" x2="127.1" y2="232.6"/>
			</g>
		</g>
	</g>
</g>
<g>
	<path class="st5" d="M120.4,350.6H15.6c-6.8,0-12.4-5.5-12.4-12.4l0,0c0-6.8,5.5-12.4,12.4-12.4h104.8c6.8,0,12.4,5.5,12.4,12.4
		l0,0C132.8,345.1,127.2,350.6,120.4,350.6z"/>
	<g class="st10">
		<path class="st11" d="M27.8,342.5h-1.1V332h1.2l3.5,8.4l0,0l3.5-8.4h1.2v10.5H35v-7.8h-0.1l-3,7h-1.1l-3-7h-0.1L27.8,342.5
			L27.8,342.5z"/>
		<path class="st11" d="M45.5,334.4v8.1h-1.2v-1.3h-0.1c-0.1,0.4-0.4,0.7-0.8,1c-0.4,0.3-0.9,0.4-1.6,0.4c-0.9,0-1.5-0.2-2-0.6
			s-0.7-1.1-0.7-1.9v-5.6h1.2v5.3c0,1.2,0.6,1.8,1.8,1.8c0.6,0,1.1-0.2,1.6-0.6c0.4-0.4,0.6-0.9,0.6-1.4v-5.2L45.5,334.4L45.5,334.4
			z"/>
		<path class="st11" d="M48.4,342.5v-11h1.2v11H48.4z"/>
		<path class="st11" d="M52.9,334.4v-2h1.2v2h1.8v1h-1.8v4.8c0,0.3,0,0.6,0.1,0.8c0.1,0.2,0.2,0.3,0.4,0.4s0.5,0.1,0.8,0.1
			c0.2,0,0.4,0,0.6,0v1c-0.2,0-0.5,0.1-0.9,0.1c-0.5,0-0.8,0-1.1-0.1s-0.5-0.2-0.7-0.4c-0.2-0.2-0.3-0.4-0.3-0.7
			c-0.1-0.3-0.1-0.6-0.1-1v-4.8h-1.2v-1L52.9,334.4L52.9,334.4z"/>
		<path class="st11" d="M58.1,331.9c0-0.3,0.1-0.5,0.3-0.6s0.4-0.3,0.6-0.3c0.3,0,0.5,0.1,0.6,0.3c0.2,0.2,0.3,0.4,0.3,0.6
			s0,0.3-0.1,0.5s-0.2,0.2-0.3,0.3c-0.1,0.1-0.3,0.1-0.5,0.1c-0.3,0-0.5-0.1-0.6-0.3C58.2,332.4,58.1,332.2,58.1,331.9z M58.4,342.5
			v-8.1h1.2v8.1H58.4z"/>
		<path class="st11" d="M66.9,338.7h-4.8v-1.1h4.8V338.7z"/>
		<path class="st11" d="M72.1,334.3c1,0,1.8,0.3,2.5,0.9s1,1.5,1,2.6v1.3c0,1.1-0.3,2-1,2.6c-0.6,0.6-1.5,0.9-2.5,0.9
			s-1.8-0.3-2.5-0.9c-0.6-0.6-0.9-1.5-0.9-2.6v-1.3c0-1.1,0.3-1.9,1-2.6C70.3,334.6,71.1,334.3,72.1,334.3z M69.9,338v1
			c0,0.5,0.1,1,0.3,1.4s0.4,0.7,0.8,0.9c0.3,0.2,0.7,0.3,1.2,0.3c0.7,0,1.2-0.2,1.6-0.7c0.4-0.5,0.6-1.1,0.6-1.9v-1
			c0-0.8-0.2-1.4-0.6-1.9c-0.4-0.5-0.9-0.7-1.6-0.7c-0.7,0-1.2,0.2-1.6,0.7C70.1,336.6,69.9,337.2,69.9,338z"/>
		<path class="st11" d="M78,342.5v-8.1h1.2v1.3h0.1c0.3-0.9,1-1.4,2.2-1.4c0.3,0,0.6,0,0.8,0.1c0.3,0.1,0.5,0.2,0.7,0.3
			c0.2,0.1,0.3,0.3,0.5,0.5c0.1,0.2,0.2,0.4,0.3,0.6h0.1c0.2-0.4,0.5-0.8,0.9-1.1c0.4-0.3,0.9-0.4,1.5-0.4c0.8,0,1.5,0.2,2,0.6
			s0.7,1.1,0.7,1.9v5.7h-1.2v-5.4c0-0.5-0.1-0.9-0.4-1.3c-0.3-0.3-0.7-0.5-1.3-0.5c-0.5,0-1,0.2-1.3,0.6c-0.4,0.4-0.5,0.8-0.5,1.4
			v5.2h-1.2v-5.3c0-0.5-0.2-1-0.5-1.3s-0.8-0.5-1.3-0.5s-1,0.2-1.3,0.5c-0.4,0.4-0.5,0.8-0.5,1.4v5.2L78,342.5L78,342.5z"/>
		<path class="st11" d="M91.5,331.9c0-0.3,0.1-0.5,0.3-0.6s0.4-0.3,0.6-0.3c0.3,0,0.5,0.1,0.6,0.3c0.2,0.2,0.3,0.4,0.3,0.6
			s0,0.3-0.1,0.5c-0.1,0.1-0.2,0.2-0.3,0.3c-0.1,0.1-0.3,0.1-0.5,0.1c-0.3,0-0.5-0.1-0.6-0.3C91.6,332.4,91.5,332.2,91.5,331.9z
			 M91.8,342.5v-8.1H93v8.1H91.8z"/>
		<path class="st11" d="M95.7,339.2v-1.4c0-1.1,0.3-1.9,0.9-2.5c0.6-0.6,1.4-0.9,2.4-0.9c0.9,0,1.7,0.2,2.2,0.7s0.8,1,0.8,1.6h-1.2
			c0-0.1-0.1-0.3-0.1-0.4c-0.1-0.1-0.2-0.3-0.3-0.4s-0.3-0.3-0.6-0.4s-0.5-0.1-0.8-0.1c-0.7,0-1.2,0.2-1.6,0.6
			c-0.4,0.4-0.5,1-0.5,1.8v1.4c0,0.5,0.1,0.9,0.3,1.2c0.2,0.4,0.4,0.6,0.7,0.8c0.3,0.2,0.7,0.3,1.1,0.3c1.1,0,1.7-0.4,1.9-1.1h1.2
			c0,0.6-0.3,1.1-0.8,1.6s-1.3,0.7-2.2,0.7c-1,0-1.8-0.3-2.4-0.9C96,341.1,95.7,340.2,95.7,339.2z"/>
		<path class="st11" d="M103.9,336.7c0-0.8,0.3-1.4,0.8-1.8c0.6-0.4,1.3-0.6,2.1-0.6c0.4,0,0.8,0.1,1.2,0.2s0.6,0.3,0.9,0.5
			c0.2,0.2,0.4,0.4,0.6,0.7c0.1,0.3,0.2,0.6,0.2,0.9h-1.1c0-0.2-0.1-0.4-0.2-0.6c-0.1-0.2-0.3-0.3-0.6-0.5c-0.3-0.1-0.6-0.2-0.9-0.2
			c-0.3,0-0.6,0.1-0.9,0.1c-0.3,0.1-0.5,0.2-0.6,0.4c-0.1,0.2-0.2,0.4-0.2,0.7c0,0.2,0,0.4,0.1,0.5s0.2,0.2,0.3,0.3
			c0.1,0.1,0.2,0.1,0.4,0.2s0.4,0.1,0.5,0.1s0.3,0.1,0.5,0.1c0,0,0,0,0.1,0c0,0,0,0,0.1,0s0,0,0.1,0c0.3,0,0.5,0.1,0.7,0.1
			c0.2,0.1,0.4,0.1,0.7,0.2c0.2,0.1,0.4,0.2,0.6,0.3c0.2,0.1,0.3,0.2,0.4,0.4c0.1,0.2,0.2,0.3,0.3,0.5s0.1,0.4,0.1,0.7
			c0,0.8-0.3,1.4-0.9,1.8c-0.6,0.4-1.3,0.7-2.3,0.7c-0.9,0-1.6-0.2-2.1-0.6s-0.8-0.9-0.8-1.6h1.2c0.1,0.8,0.7,1.2,1.8,1.2
			c0.4,0,0.8-0.1,1.1-0.2s0.5-0.3,0.6-0.5s0.2-0.4,0.2-0.7c0-0.2,0-0.3-0.1-0.5c-0.1-0.1-0.2-0.2-0.3-0.3s-0.3-0.2-0.5-0.2
			c-0.2-0.1-0.4-0.1-0.5-0.2c-0.1,0-0.4-0.1-0.6-0.1c-0.4-0.1-0.7-0.1-0.9-0.2s-0.5-0.1-0.7-0.3c-0.3-0.1-0.5-0.2-0.6-0.4
			c-0.1-0.1-0.3-0.3-0.4-0.6C104,337.3,103.9,337.1,103.9,336.7z"/>
	</g>
</g>
<g>
	<path class="st12" d="M163.4,26.5H15.6C8.8,26.5,3.2,21,3.2,14.1l0,0c0-6.8,5.5-12.4,12.4-12.4h147.8c6.8,0,12.4,5.5,12.4,12.4l0,0
		C175.8,21,170.2,26.5,163.4,26.5z"/>
	<g class="st10">
		<path class="st11" d="M21.3,15.6h1.2c0.1,0.6,0.3,1,0.8,1.4s1.1,0.5,1.9,0.5c0.7,0,1.3-0.2,1.8-0.5s0.7-0.8,0.7-1.4
			c0-0.4-0.1-0.8-0.4-1.1S26.6,14,26,13.9l-2-0.5c-0.7-0.2-1.3-0.5-1.7-0.9c-0.5-0.4-0.7-1-0.7-1.8c0-0.6,0.2-1.2,0.5-1.6
			s0.8-0.8,1.3-1s1.1-0.3,1.7-0.3c0.5,0,0.9,0.1,1.3,0.2c0.4,0.1,0.8,0.3,1.1,0.5c0.4,0.2,0.6,0.5,0.8,0.9c0.2,0.4,0.3,0.8,0.3,1.3
			h-1.2c-0.1-0.6-0.3-1-0.7-1.3c-0.4-0.3-1-0.5-1.7-0.5s-1.2,0.2-1.7,0.5c-0.4,0.3-0.6,0.8-0.6,1.3c0,0.8,0.5,1.3,1.5,1.6l1.8,0.5
			c0.9,0.2,1.5,0.6,2,1s0.7,1,0.7,1.8c0,1-0.4,1.8-1.1,2.3s-1.7,0.8-2.8,0.8c-0.6,0-1.2-0.1-1.7-0.3c-0.5-0.2-0.9-0.4-1.2-0.7
			c-0.3-0.3-0.5-0.6-0.6-1C21.4,16.3,21.3,16,21.3,15.6z"/>
		<path class="st11" d="M31.6,10.3v-2h1.2v2h1.8v1h-1.8v4.8c0,0.3,0,0.6,0.1,0.8c0.1,0.2,0.2,0.3,0.4,0.4s0.5,0.1,0.8,0.1
			c0.2,0,0.4,0,0.6,0v1c-0.2,0-0.5,0.1-0.9,0.1c-0.5,0-0.8,0-1.1-0.1S32.2,18.2,32,18s-0.3-0.4-0.3-0.7s-0.1-0.6-0.1-1v-4.8h-1.2v-1
			L31.6,10.3L31.6,10.3z"/>
		<path class="st11" d="M39.1,18.5c-0.4,0-0.7-0.1-1.1-0.2c-0.3-0.1-0.6-0.3-0.8-0.5s-0.4-0.5-0.5-0.8s-0.2-0.6-0.2-1
			c0-0.5,0.1-0.9,0.3-1.2c0.2-0.4,0.5-0.6,1-0.8c0.4-0.2,0.9-0.3,1.5-0.3h2.2v-0.8c0-0.5-0.2-0.9-0.5-1.2s-0.8-0.4-1.3-0.4
			c-0.9,0-1.5,0.3-1.7,1h-1.2c0.1-0.7,0.4-1.2,0.9-1.5c0.5-0.4,1.2-0.5,2.1-0.5c0.9,0,1.6,0.2,2.1,0.6c0.6,0.4,0.8,1.1,0.8,2v5.5
			h-1.2v-1.1l0,0C41,18.1,40.2,18.5,39.1,18.5z M39.4,17.5c0.6,0,1.1-0.2,1.5-0.5c0.4-0.4,0.6-0.8,0.6-1.3v-0.9h-2.1
			c-0.6,0-1,0.1-1.2,0.4s-0.4,0.6-0.4,1c0,0.5,0.2,0.8,0.5,1.1C38.6,17.4,39,17.5,39.4,17.5z"/>
		<path class="st11" d="M45.9,10.3v-2h1.2v2h1.8v1h-1.8v4.8c0,0.3,0,0.6,0.1,0.8c0.1,0.2,0.2,0.3,0.4,0.4s0.5,0.1,0.8,0.1
			c0.2,0,0.4,0,0.6,0v1c-0.2,0-0.5,0.1-0.9,0.1c-0.5,0-0.8,0-1.1-0.1s-0.5-0.2-0.7-0.4c-0.2-0.2-0.3-0.4-0.3-0.7s-0.1-0.6-0.1-1
			v-4.8h-1.2v-1L45.9,10.3L45.9,10.3z"/>
		<path class="st11" d="M51.2,7.8c0-0.3,0.1-0.5,0.3-0.6c0.2-0.2,0.4-0.3,0.6-0.3c0.3,0,0.5,0.1,0.6,0.3C52.9,7.3,53,7.6,53,7.8
			c0,0.2,0,0.3-0.1,0.5c-0.1,0.1-0.2,0.2-0.3,0.3s-0.3,0.1-0.5,0.1c-0.3,0-0.5-0.1-0.6-0.3C51.2,8.3,51.2,8.1,51.2,7.8z M51.5,18.4
			v-8.1h1.2v8.1H51.5z"/>
		<path class="st11" d="M55.3,12.6c0-0.8,0.3-1.4,0.8-1.8c0.6-0.4,1.3-0.6,2.1-0.6c0.4,0,0.8,0.1,1.2,0.2s0.6,0.3,0.9,0.5
			c0.2,0.2,0.4,0.4,0.6,0.7c0.1,0.3,0.2,0.6,0.2,0.9H60c0-0.2-0.1-0.4-0.2-0.6c-0.1-0.2-0.3-0.3-0.6-0.5c-0.3-0.1-0.6-0.2-0.9-0.2
			c-0.3,0-0.6,0.1-0.9,0.1c-0.3,0.1-0.5,0.2-0.6,0.4s-0.2,0.4-0.2,0.7c0,0.2,0,0.4,0.1,0.5s0.2,0.2,0.3,0.3s0.2,0.1,0.4,0.2
			s0.4,0.1,0.5,0.1s0.3,0.1,0.5,0.1c0,0,0,0,0.1,0c0,0,0,0,0.1,0c0,0,0,0,0.1,0c0.3,0,0.5,0.1,0.7,0.1c0.2,0.1,0.4,0.1,0.7,0.2
			c0.2,0.1,0.4,0.2,0.6,0.3c0.2,0.1,0.3,0.2,0.4,0.4s0.2,0.3,0.3,0.5s0.1,0.4,0.1,0.7c0,0.8-0.3,1.4-0.9,1.8
			c-0.6,0.4-1.3,0.7-2.3,0.7c-0.9,0-1.6-0.2-2.1-0.6s-0.8-0.9-0.8-1.6h1.2c0.1,0.8,0.7,1.2,1.8,1.2c0.4,0,0.8-0.1,1.1-0.2
			s0.5-0.3,0.6-0.5s0.2-0.4,0.2-0.7c0-0.2,0-0.3-0.1-0.5c-0.1-0.1-0.2-0.2-0.3-0.3s-0.3-0.2-0.5-0.2C59,15.1,58.8,15,58.7,15
			s-0.4-0.1-0.6-0.1c-0.4-0.1-0.7-0.1-0.9-0.2c-0.2-0.1-0.5-0.1-0.7-0.3c-0.3-0.1-0.5-0.2-0.6-0.4c-0.1-0.1-0.3-0.3-0.4-0.6
			C55.3,13.2,55.3,12.9,55.3,12.6z"/>
		<path class="st11" d="M64,10.3v-2h1.2v2H67v1h-1.8v4.8c0,0.3,0,0.6,0.1,0.8c0.1,0.2,0.2,0.3,0.4,0.4c0.2,0.1,0.5,0.1,0.8,0.1
			c0.2,0,0.4,0,0.6,0v1c-0.2,0-0.5,0.1-0.9,0.1c-0.5,0-0.8,0-1.1-0.1c-0.3-0.1-0.5-0.2-0.7-0.4c-0.2-0.2-0.3-0.4-0.3-0.7
			C64,17,64,16.7,64,16.3v-4.8h-1.2v-1L64,10.3L64,10.3z"/>
		<path class="st11" d="M69.3,7.8c0-0.3,0.1-0.5,0.3-0.6C69.8,7,70,6.9,70.2,6.9c0.3,0,0.5,0.1,0.6,0.3c0.2,0.2,0.3,0.4,0.3,0.6
			s0,0.3-0.1,0.5c-0.1,0.1-0.2,0.2-0.3,0.3c-0.1,0.1-0.3,0.1-0.5,0.1c-0.3,0-0.5-0.1-0.6-0.3C69.4,8.3,69.3,8.1,69.3,7.8z
			 M69.6,18.4v-8.1h1.2v8.1H69.6z"/>
		<path class="st11" d="M73.4,15.1v-1.4c0-1.1,0.3-1.9,0.9-2.5s1.4-0.9,2.4-0.9c0.9,0,1.7,0.2,2.2,0.7s0.8,1,0.8,1.6h-1.2
			c0-0.1-0.1-0.3-0.1-0.4c-0.1-0.1-0.2-0.3-0.3-0.4c-0.1-0.1-0.3-0.3-0.6-0.4c-0.2-0.1-0.5-0.1-0.8-0.1c-0.7,0-1.2,0.2-1.6,0.6
			c-0.4,0.4-0.5,1-0.5,1.8v1.4c0,0.5,0.1,0.9,0.3,1.2c0.2,0.4,0.4,0.6,0.7,0.8c0.3,0.2,0.7,0.3,1.1,0.3c1.1,0,1.7-0.4,1.9-1.1h1.2
			c0,0.6-0.3,1.1-0.8,1.6s-1.3,0.7-2.2,0.7c-1,0-1.8-0.3-2.4-0.9C73.7,17,73.4,16.1,73.4,15.1z"/>
		<path class="st11" d="M84.2,18.5c-0.4,0-0.7-0.1-1.1-0.2c-0.3-0.1-0.6-0.3-0.8-0.5c-0.2-0.2-0.4-0.5-0.5-0.8s-0.2-0.6-0.2-1
			c0-0.5,0.1-0.9,0.3-1.2c0.2-0.4,0.5-0.6,1-0.8c0.4-0.2,0.9-0.3,1.5-0.3h2.2v-0.8c0-0.5-0.2-0.9-0.5-1.2s-0.8-0.4-1.3-0.4
			c-0.9,0-1.5,0.3-1.7,1h-1.2c0.1-0.7,0.4-1.2,0.9-1.5c0.5-0.4,1.2-0.5,2.1-0.5s1.6,0.2,2.1,0.6c0.6,0.4,0.8,1.1,0.8,2v5.5h-1.2
			v-1.1l0,0C86.1,18.1,85.3,18.5,84.2,18.5z M84.5,17.5c0.6,0,1.1-0.2,1.5-0.5c0.4-0.4,0.6-0.8,0.6-1.3v-0.9h-2.1
			c-0.6,0-1,0.1-1.2,0.4c-0.3,0.2-0.4,0.6-0.4,1c0,0.5,0.2,0.8,0.5,1.1C83.7,17.4,84.1,17.5,84.5,17.5z"/>
		<path class="st11" d="M90.6,18.4v-11h1.2v11H90.6z"/>
		<path class="st11" d="M101.1,20.3c0.7,0,1.3-0.2,1.7-0.6c0.4-0.4,0.6-0.9,0.6-1.6V17h-0.1c-0.1,0.2-0.3,0.4-0.5,0.6
			s-0.5,0.3-0.8,0.5c-0.3,0.1-0.6,0.2-1,0.2c-0.6,0-1.1-0.1-1.6-0.4s-0.9-0.6-1.2-1.2c-0.3-0.5-0.4-1.1-0.4-1.8v-1.4
			c0-0.5,0.1-1,0.3-1.4c0.2-0.4,0.4-0.8,0.7-1.1c0.3-0.3,0.6-0.5,1-0.7s0.8-0.2,1.3-0.2c0.6,0,1.1,0.1,1.5,0.4s0.7,0.6,0.9,0.9h0.1
			v-1.2h1.1v7.9c0,1.1-0.3,1.9-0.9,2.4s-1.5,0.8-2.6,0.8c-1,0-1.7-0.2-2.2-0.6s-0.8-0.9-0.9-1.5h1.3c0.1,0.3,0.3,0.6,0.6,0.8
			C100.1,20.2,100.5,20.3,101.1,20.3z M101.2,11.3c-0.3,0-0.7,0.1-0.9,0.2c-0.3,0.1-0.5,0.3-0.7,0.5s-0.3,0.5-0.4,0.8
			s-0.1,0.7-0.1,1.1v0.8c0,0.8,0.2,1.4,0.6,1.8c0.4,0.5,1,0.7,1.6,0.7s1.2-0.2,1.5-0.7c0.4-0.4,0.6-1,0.6-1.6v-1.3
			c0-0.6-0.2-1.2-0.6-1.6C102.3,11.5,101.8,11.3,101.2,11.3z"/>
		<path class="st11" d="M110.1,18.5c-1.1,0-1.9-0.3-2.5-0.9s-0.9-1.5-0.9-2.6v-1.3c0-1.1,0.3-1.9,0.9-2.5s1.4-1,2.4-1s1.8,0.3,2.4,1
			s0.9,1.5,0.9,2.5v1H108v0.4c0,0.7,0.2,1.2,0.6,1.7c0.4,0.4,0.9,0.7,1.6,0.7c0.5,0,0.9-0.1,1.2-0.3s0.5-0.4,0.6-0.7h1.3
			c0,0.2-0.1,0.5-0.3,0.7c-0.1,0.2-0.3,0.4-0.6,0.7c-0.2,0.2-0.6,0.4-0.9,0.5C111,18.5,110.6,18.5,110.1,18.5z M108,13.8h4.1v-0.1
			c0-0.5-0.1-0.9-0.3-1.2c-0.2-0.4-0.4-0.6-0.7-0.8c-0.3-0.2-0.7-0.3-1.1-0.3c-0.6,0-1.1,0.2-1.5,0.6s-0.6,1-0.6,1.7L108,13.8
			L108,13.8z"/>
		<path class="st11" d="M115.7,18.4v-8.1h1.2v1.5h0.1c0.3-1.1,1.2-1.6,2.5-1.6c0.8,0,1.5,0.2,2,0.7s0.7,1.1,0.7,2v5.5H121v-5.2
			c0-0.6-0.2-1.1-0.5-1.5c-0.3-0.3-0.8-0.5-1.3-0.5c-0.7,0-1.3,0.2-1.7,0.7c-0.4,0.5-0.6,1.1-0.6,1.9v4.5L115.7,18.4L115.7,18.4z"/>
		<path class="st11" d="M127.9,18.5c-1.1,0-1.9-0.3-2.5-0.9s-0.9-1.5-0.9-2.6v-1.3c0-1.1,0.3-1.9,0.9-2.5s1.4-1,2.4-1s1.8,0.3,2.4,1
			c0.6,0.6,0.9,1.5,0.9,2.5v1h-5.3v0.4c0,0.7,0.2,1.2,0.6,1.7c0.4,0.4,0.9,0.7,1.6,0.7c0.5,0,0.9-0.1,1.2-0.3
			c0.3-0.2,0.5-0.4,0.6-0.7h1.3c0,0.2-0.1,0.5-0.3,0.7c-0.1,0.2-0.3,0.4-0.6,0.7s-0.6,0.4-0.9,0.5C128.8,18.5,128.4,18.5,127.9,18.5
			z M125.7,13.8h4.1v-0.1c0-0.5-0.1-0.9-0.3-1.2c-0.2-0.4-0.4-0.6-0.7-0.8s-0.7-0.3-1.1-0.3c-0.6,0-1.1,0.2-1.5,0.6s-0.6,1-0.6,1.7
			L125.7,13.8L125.7,13.8z"/>
		<path class="st11" d="M133.9,10.3v-2h1.2v2h1.8v1h-1.8v4.8c0,0.3,0,0.6,0.1,0.8c0.1,0.2,0.2,0.3,0.4,0.4s0.5,0.1,0.8,0.1
			c0.2,0,0.4,0,0.6,0v1c-0.2,0-0.5,0.1-0.9,0.1c-0.5,0-0.8,0-1.1-0.1s-0.5-0.2-0.7-0.4c-0.2-0.2-0.3-0.4-0.3-0.7
			c-0.1-0.3-0.1-0.6-0.1-1v-4.8h-1.2v-1L133.9,10.3L133.9,10.3z"/>
		<path class="st11" d="M139.1,7.8c0-0.3,0.1-0.5,0.3-0.6c0.2-0.2,0.4-0.3,0.6-0.3c0.3,0,0.5,0.1,0.6,0.3c0.2,0.2,0.3,0.4,0.3,0.6
			s0,0.3-0.1,0.5c-0.1,0.1-0.2,0.2-0.3,0.3s-0.3,0.1-0.5,0.1c-0.3,0-0.5-0.1-0.6-0.3C139.2,8.3,139.1,8.1,139.1,7.8z M139.4,18.4
			v-8.1h1.2v8.1H139.4z"/>
		<path class="st11" d="M143.3,15.1v-1.4c0-1.1,0.3-1.9,0.9-2.5c0.6-0.6,1.4-0.9,2.4-0.9c0.9,0,1.7,0.2,2.2,0.7s0.8,1,0.8,1.6h-1.2
			c0-0.1-0.1-0.3-0.1-0.4c-0.1-0.1-0.2-0.3-0.3-0.4c-0.1-0.1-0.3-0.3-0.6-0.4c-0.2-0.1-0.5-0.1-0.8-0.1c-0.7,0-1.2,0.2-1.6,0.6
			c-0.4,0.4-0.5,1-0.5,1.8v1.4c0,0.5,0.1,0.9,0.3,1.2c0.2,0.4,0.4,0.6,0.7,0.8c0.3,0.2,0.7,0.3,1.1,0.3c1.1,0,1.7-0.4,1.9-1.1h1.2
			c0,0.6-0.3,1.1-0.8,1.6s-1.3,0.7-2.2,0.7c-1,0-1.8-0.3-2.4-0.9C143.6,17,143.3,16.1,143.3,15.1z"/>
		<path class="st11" d="M151.5,12.6c0-0.8,0.3-1.4,0.8-1.8c0.6-0.4,1.3-0.6,2.1-0.6c0.4,0,0.8,0.1,1.2,0.2s0.6,0.3,0.9,0.5
			c0.2,0.2,0.4,0.4,0.6,0.7s0.2,0.6,0.2,0.9h-1.1c0-0.2-0.1-0.4-0.2-0.6s-0.3-0.3-0.6-0.5c-0.3-0.1-0.6-0.2-0.9-0.2
			c-0.3,0-0.6,0.1-0.9,0.1c-0.3,0.1-0.5,0.2-0.6,0.4s-0.2,0.4-0.2,0.7c0,0.2,0,0.4,0.1,0.5s0.2,0.2,0.3,0.3s0.2,0.1,0.4,0.2
			c0.2,0.1,0.4,0.1,0.5,0.1s0.3,0.1,0.5,0.1c0,0,0,0,0.1,0c0,0,0,0,0.1,0c0,0,0,0,0.1,0c0.3,0,0.5,0.1,0.7,0.1
			c0.2,0.1,0.4,0.1,0.7,0.2c0.2,0.1,0.4,0.2,0.6,0.3c0.2,0.1,0.3,0.2,0.4,0.4c0.1,0.2,0.2,0.3,0.3,0.5s0.1,0.4,0.1,0.7
			c0,0.8-0.3,1.4-0.9,1.8c-0.6,0.4-1.3,0.7-2.3,0.7c-0.9,0-1.6-0.2-2.1-0.6s-0.8-0.9-0.8-1.6h1.2c0.1,0.8,0.7,1.2,1.8,1.2
			c0.4,0,0.8-0.1,1.1-0.2s0.5-0.3,0.6-0.5s0.2-0.4,0.2-0.7c0-0.2,0-0.3-0.1-0.5c-0.1-0.1-0.2-0.2-0.3-0.3s-0.3-0.2-0.5-0.2
			c-0.2-0.1-0.4-0.1-0.5-0.2c-0.1,0-0.4-0.1-0.6-0.1c-0.4-0.1-0.7-0.1-0.9-0.2c-0.2-0.1-0.5-0.1-0.7-0.3s-0.5-0.2-0.6-0.4
			c-0.1-0.1-0.3-0.3-0.4-0.6C151.6,13.2,151.5,12.9,151.5,12.6z"/>
	</g>
</g>
<g>
	<g>
		<line class="st13" x1="558.2" y1="157.5" x2="577.8" y2="157.5"/>
		<polyline class="st13" points="577.8,184.3 558.2,184.3 558.2,171.8 		"/>
		<polyline class="st13" points="568,157.5 568,171.8 558.2,171.8 527,171.8 527,184.3 507.4,184.3 		"/>
		<polyline class="st13" points="517.6,184.3 517.6,208.7 498,208.7 		"/>
		<polyline class="st13" points="568,184.3 568,196.5 544.1,196.5 544.1,208.7 563.6,208.7 		"/>
		<line class="st13" x1="669.7" y1="157.3" x2="689.3" y2="157.3"/>
		<polyline class="st13" points="660,184.3 679.5,184.3 679.5,157.5 		"/>
		<polyline class="st13" points="669.7,184.3 669.7,196.5 607.7,196.5 607.7,208.7 588.2,208.7 588.2,196.5 568,196.5 		"/>
		<polyline class="st13" points="679.5,170.9 707.1,170.9 707.1,184.3 726.7,184.3 		"/>
		<polyline class="st13" points="669.7,196.5 669.7,208.7 689.3,208.7 		"/>
		<polyline class="st13" points="717.5,184.3 717.5,208.7 737,208.7 		"/>
		<path class="st13" d="M679.8,208.7"/>
		<path class="st13" d="M727.2,208.7"/>
		<g>
			<rect x="552.8" y="152.1" class="st11" width="10.8" height="10.8"/>
			<path class="st5" d="M562.9,152.8v9.3h-9.3v-9.3H562.9 M564.4,151.3h-12.3v12.3h12.3V151.3L564.4,151.3z"/>
		</g>
		<g>
			<circle class="st11" cx="577.8" cy="157.5" r="5.4"/>
			<path class="st5" d="M577.8,152.8c2.6,0,4.6,2.1,4.6,4.6c0,2.6-2.1,4.6-4.6,4.6c-2.6,0-4.6-2.1-4.6-4.6
				C573.1,154.9,575.2,152.8,577.8,152.8 M577.8,151.3c-3.4,0-6.1,2.7-6.1,6.1s2.7,6.1,6.1,6.1c3.4,0,6.1-2.7,6.1-6.1
				S581.2,151.3,577.8,151.3L577.8,151.3z"/>
		</g>
		<g>
			<rect x="664.3" y="151.9" class="st11" width="10.8" height="10.8"/>
			<path class="st5" d="M674.4,152.7v9.3h-9.3v-9.3H674.4 M675.9,151.2h-12.3v12.3h12.3V151.2L675.9,151.2z"/>
		</g>
		<g>
			<path class="st11" d="M689.3,162.7c-3,0-5.4-2.4-5.4-5.4s2.4-5.4,5.4-5.4s5.4,2.4,5.4,5.4S692.2,162.7,689.3,162.7z"/>
			<path class="st5" d="M689.3,152.7c2.6,0,4.6,2.1,4.6,4.6c0,2.6-2.1,4.6-4.6,4.6s-4.6-2.1-4.6-4.6
				C684.6,154.8,686.7,152.7,689.3,152.7 M689.3,151.2c-3.4,0-6.1,2.7-6.1,6.1s2.7,6.1,6.1,6.1c3.4,0,6.1-2.7,6.1-6.1
				S692.7,151.2,689.3,151.2L689.3,151.2z"/>
		</g>
		<g>
			<g>
				<rect x="502" y="178.9" class="st11" width="10.8" height="10.8"/>
				<path class="st5" d="M512.1,179.6v9.3h-9.3v-9.3H512.1 M513.5,178.1h-12.3v12.3h12.3V178.1L513.5,178.1z"/>
			</g>
			<g>
				<circle class="st11" cx="527" cy="184.3" r="5.4"/>
				<path class="st5" d="M527,179.6c2.6,0,4.6,2.1,4.6,4.6c0,2.6-2.1,4.6-4.6,4.6s-4.6-2.1-4.6-4.6
					C522.3,181.7,524.4,179.6,527,179.6 M527,178.1c-3.4,0-6.1,2.7-6.1,6.1s2.7,6.1,6.1,6.1c3.4,0,6.1-2.7,6.1-6.1
					S530.3,178.1,527,178.1L527,178.1z"/>
			</g>
			<g>
				<rect x="552.8" y="178.9" class="st11" width="10.8" height="10.8"/>
				<path class="st5" d="M562.9,179.6v9.3h-9.3v-9.3H562.9 M564.4,178.1h-12.3v12.3h12.3V178.1L564.4,178.1z"/>
			</g>
			<g>
				<circle class="st11" cx="577.8" cy="184.3" r="5.4"/>
				<path class="st5" d="M577.8,179.6c2.6,0,4.6,2.1,4.6,4.6c0,2.6-2.1,4.6-4.6,4.6c-2.6,0-4.6-2.1-4.6-4.6
					C573.1,181.7,575.2,179.6,577.8,179.6 M577.8,178.1c-3.4,0-6.1,2.7-6.1,6.1s2.7,6.1,6.1,6.1c3.4,0,6.1-2.7,6.1-6.1
					S581.2,178.1,577.8,178.1L577.8,178.1z"/>
			</g>
		</g>
		<g>
			<rect x="538.7" y="203.3" class="st11" width="10.8" height="10.8"/>
			<path class="st5" d="M548.7,204.1v9.3h-9.3v-9.3H548.7 M550.2,202.6h-12.3v12.3h12.3V202.6L550.2,202.6z"/>
		</g>
		<g>
			<path class="st11" d="M563.6,214.1c-3,0-5.4-2.4-5.4-5.4s2.4-5.4,5.4-5.4s5.4,2.4,5.4,5.4S566.6,214.1,563.6,214.1z"/>
			<path class="st5" d="M563.6,204.1c2.6,0,4.6,2.1,4.6,4.6c0,2.6-2.1,4.6-4.6,4.6s-4.6-2.1-4.6-4.6S561.1,204.1,563.6,204.1
				 M563.6,202.6c-3.4,0-6.1,2.7-6.1,6.1c0,3.4,2.7,6.1,6.1,6.1c3.4,0,6.1-2.7,6.1-6.1C569.8,205.3,567,202.6,563.6,202.6
				L563.6,202.6z"/>
		</g>
		<g>
			<rect x="492.6" y="203.3" class="st11" width="10.8" height="10.8"/>
			<path class="st5" d="M502.7,204.1v9.3h-9.3v-9.3H502.7 M504.2,202.6h-12.3v12.3h12.3V202.6L504.2,202.6z"/>
		</g>
		<g>
			<path class="st11" d="M517.6,214.1c-3,0-5.4-2.4-5.4-5.4s2.4-5.4,5.4-5.4s5.4,2.4,5.4,5.4S520.6,214.1,517.6,214.1z"/>
			<path class="st5" d="M517.6,204.1c2.6,0,4.6,2.1,4.6,4.6c0,2.6-2.1,4.6-4.6,4.6c-2.6,0-4.6-2.1-4.6-4.6
				C512.9,206.2,515,204.1,517.6,204.1 M517.6,202.6c-3.4,0-6.1,2.7-6.1,6.1c0,3.4,2.7,6.1,6.1,6.1s6.1-2.7,6.1-6.1
				C523.7,205.3,521,202.6,517.6,202.6L517.6,202.6z"/>
		</g>
		<g>
			<rect x="712.1" y="203.3" class="st11" width="10.8" height="10.8"/>
			<path class="st5" d="M722.1,204.1v9.3h-9.3v-9.3H722.1 M723.6,202.6h-12.3v12.3h12.3V202.6L723.6,202.6z"/>
		</g>
		<g>
			<path class="st11" d="M737,214.1c-3,0-5.4-2.4-5.4-5.4s2.4-5.4,5.4-5.4s5.4,2.4,5.4,5.4S740,214.1,737,214.1z"/>
			<path class="st5" d="M737,204.1c2.6,0,4.6,2.1,4.6,4.6c0,2.6-2.1,4.6-4.6,4.6s-4.6-2.1-4.6-4.6S734.5,204.1,737,204.1 M737,202.6
				c-3.4,0-6.1,2.7-6.1,6.1c0,3.4,2.7,6.1,6.1,6.1c3.4,0,6.1-2.7,6.1-6.1C743.2,205.3,740.4,202.6,737,202.6L737,202.6z"/>
		</g>
		<g>
			<rect x="664.3" y="203.3" class="st11" width="10.8" height="10.8"/>
			<path class="st5" d="M674.4,204.1v9.3h-9.3v-9.3H674.4 M675.9,202.6h-12.3v12.3h12.3V202.6L675.9,202.6z"/>
		</g>
		<g>
			<path class="st11" d="M689.3,214.1c-3,0-5.4-2.4-5.4-5.4s2.4-5.4,5.4-5.4s5.4,2.4,5.4,5.4S692.2,214.1,689.3,214.1z"/>
			<path class="st5" d="M689.3,204.1c2.6,0,4.6,2.1,4.6,4.6c0,2.6-2.1,4.6-4.6,4.6s-4.6-2.1-4.6-4.6
				C684.6,206.2,686.7,204.1,689.3,204.1 M689.3,202.6c-3.4,0-6.1,2.7-6.1,6.1c0,3.4,2.7,6.1,6.1,6.1c3.4,0,6.1-2.7,6.1-6.1
				C695.4,205.3,692.7,202.6,689.3,202.6L689.3,202.6z"/>
		</g>
		<g>
			<rect x="582.8" y="203.3" class="st11" width="10.8" height="10.8"/>
			<path class="st5" d="M592.9,204.1v9.3h-9.3v-9.3H592.9 M594.3,202.6H582v12.3h12.3V202.6L594.3,202.6z"/>
		</g>
		<g>
			<path class="st11" d="M607.7,214.1c-3,0-5.4-2.4-5.4-5.4s2.4-5.4,5.4-5.4s5.4,2.4,5.4,5.4C613.1,211.7,610.7,214.1,607.7,214.1z"
				/>
			<path class="st5" d="M607.7,204.1c2.6,0,4.6,2.1,4.6,4.6c0,2.6-2.1,4.6-4.6,4.6s-4.6-2.1-4.6-4.6
				C603.1,206.2,605.2,204.1,607.7,204.1 M607.7,202.6c-3.4,0-6.1,2.7-6.1,6.1c0,3.4,2.7,6.1,6.1,6.1c3.4,0,6.1-2.7,6.1-6.1
				C613.9,205.3,611.1,202.6,607.7,202.6L607.7,202.6z"/>
		</g>
		<g>
			<rect x="654.6" y="178.9" class="st11" width="10.8" height="10.8"/>
			<path class="st5" d="M664.6,179.6v9.3h-9.3v-9.3H664.6 M666.1,178.1h-12.3v12.3h12.3V178.1L666.1,178.1z"/>
		</g>
		<g>
			<circle class="st11" cx="679.5" cy="184.3" r="5.4"/>
			<path class="st5" d="M679.5,179.6c2.6,0,4.6,2.1,4.6,4.6c0,2.6-2.1,4.6-4.6,4.6s-4.6-2.1-4.6-4.6S676.9,179.6,679.5,179.6
				 M679.5,178.1c-3.4,0-6.1,2.7-6.1,6.1s2.7,6.1,6.1,6.1c3.4,0,6.1-2.7,6.1-6.1S682.9,178.1,679.5,178.1L679.5,178.1z"/>
		</g>
		<g>
			<rect x="701.7" y="178.9" class="st11" width="10.8" height="10.8"/>
			<path class="st5" d="M711.8,179.6v9.3h-9.3v-9.3H711.8 M713.3,178.1H701v12.3h12.3V178.1L713.3,178.1z"/>
		</g>
		<g>
			<circle class="st11" cx="726.7" cy="184.3" r="5.4"/>
			<path class="st5" d="M726.7,179.6c2.6,0,4.6,2.1,4.6,4.6c0,2.6-2.1,4.6-4.6,4.6s-4.6-2.1-4.6-4.6
				C722,181.7,724.1,179.6,726.7,179.6 M726.7,178.1c-3.4,0-6.1,2.7-6.1,6.1s2.7,6.1,6.1,6.1c3.4,0,6.1-2.7,6.1-6.1
				S730,178.1,726.7,178.1L726.7,178.1z"/>
		</g>
	</g>
	<g>
		<g>
			<g>
				<polyline class="st2" points="512.2,241.5 512.2,300.9 566.7,300.9 				"/>
				<g>
					<polygon class="st3" points="509.6,244.5 512.2,241.9 514.7,244.5 514.7,242.3 512.2,239.8 509.6,242.3 					"/>
				</g>
				<g>
					<polygon class="st3" points="563.8,303.4 566.3,300.9 563.8,298.4 565.9,298.4 568.4,300.9 565.9,303.4 					"/>
				</g>
			</g>
		</g>
		<g>
			<line class="st2" x1="531.1" y1="269.3" x2="531.1" y2="294.2"/>
			<rect x="526.1" y="275.1" class="st12" width="9.9" height="13.3"/>
			<line class="st2" x1="549.5" y1="246.4" x2="549.5" y2="276.9"/>
			<rect x="544.6" y="253.6" class="st5" width="9.9" height="16.2"/>
		</g>
		<g>
			<g>
				<polyline class="st2" points="594,241.5 594,300.9 648.5,300.9 				"/>
				<g>
					<polygon class="st3" points="591.4,244.5 594,241.9 596.5,244.5 596.5,242.3 594,239.8 591.4,242.3 					"/>
				</g>
				<g>
					<polygon class="st3" points="645.5,303.4 648.1,300.9 645.5,298.4 647.7,298.4 650.2,300.9 647.7,303.4 					"/>
				</g>
			</g>
		</g>
		<g>
			<line class="st2" x1="612.9" y1="246.2" x2="612.9" y2="271.2"/>
			<rect x="607.9" y="252.1" class="st12" width="9.9" height="13.3"/>
			<line class="st2" x1="631.3" y1="263.9" x2="631.3" y2="294.4"/>
			<rect x="626.3" y="271.1" class="st5" width="9.9" height="16.2"/>
		</g>
		<g>
			<g>
				<path class="st5" d="M504.8,264.8l1.9-1l-1.4-2.6c-1.2-2.3-3.6-3.8-6.3-3.8c-2.6,0-5,1.5-6.3,3.8l-1.4,2.6l1.9,1l1.4-2.6
					c0.1-0.2,0.3-0.5,0.4-0.7l-1.5,8.9h2v2.9h2.1v-2.9h2.7v2.9h2.1v-2.9h2l-1.5-8.9c0.2,0.2,0.3,0.4,0.4,0.7L504.8,264.8z
					 M500.6,259.8l1.4,8.5h-6l1.4-8.5c0.5-0.2,1-0.2,1.5-0.2C499.6,259.5,500.1,259.6,500.6,259.8L500.6,259.8z"/>
				<path class="st5" d="M499.1,256.3c2.3,0,4.1-1.9,4.1-4.1s-1.9-4.1-4.1-4.1c-2.3,0-4.1,1.9-4.1,4.1
					C494.9,254.5,496.8,256.3,499.1,256.3z M499.1,250.2c1.1,0,2,0.9,2,2s-0.9,2-2,2s-2-0.9-2-2S497.9,250.2,499.1,250.2z"/>
			</g>
			<g>
				<path class="st12" d="M499.1,283.8c-1.5,0-2.8,0.8-3.5,2.1l-0.8,1.5l1,0.5l0.6-1.1v5.8h1.2v-2.5h2.9v2.5h1.2v-5.8l0.6,1.1l1-0.5
					l-0.8-1.5C501.9,284.6,500.5,283.8,499.1,283.8L499.1,283.8z M497.6,285.3c0.4-0.3,0.9-0.4,1.4-0.4s1,0.1,1.4,0.4v3.6h-2.9
					L497.6,285.3L497.6,285.3z"/>
				<path class="st12" d="M499.1,283.2c1.3,0,2.3-1,2.3-2.3s-1-2.3-2.3-2.3s-2.3,1-2.3,2.3S497.8,283.2,499.1,283.2z M499.1,279.7
					c0.6,0,1.1,0.5,1.1,1.1s-0.5,1.1-1.1,1.1s-1.1-0.5-1.1-1.1S498.4,279.7,499.1,279.7z"/>
			</g>
		</g>
		<g>
			<g>
				<path class="st5" d="M584.4,287.9l1-0.5l-0.8-1.5c-0.7-1.3-2-2.1-3.5-2.1s-2.8,0.8-3.5,2.1l-0.8,1.5l1,0.5l0.8-1.5
					c0.1-0.1,0.1-0.3,0.2-0.4l-0.8,4.9h1.1v1.6h1.2v-1.6h1.5v1.6h1.2v-1.6h1.1l-0.8-4.9c0.1,0.1,0.2,0.2,0.2,0.4L584.4,287.9z
					 M582.1,285.1l0.8,4.7h-3.3l0.8-4.7c0.3-0.1,0.6-0.1,0.9-0.1C581.5,284.9,581.8,285,582.1,285.1L582.1,285.1z"/>
				<path class="st5" d="M581.2,283.2c1.3,0,2.3-1,2.3-2.3s-1-2.3-2.3-2.3s-2.3,1-2.3,2.3S580,283.2,581.2,283.2z M581.2,279.7
					c0.6,0,1.1,0.5,1.1,1.1s-0.5,1.1-1.1,1.1s-1.1-0.5-1.1-1.1S580.6,279.7,581.2,279.7z"/>
			</g>
			<g>
				<path class="st12" d="M581.2,257.4c-2.6,0-5,1.5-6.3,3.8l-1.4,2.6l1.9,1l1.1-2v10.5h2.1v-4.4h5.2v4.4h2.1v-10.5l1.1,2l1.9-1
					l-1.4-2.6C586.3,258.9,583.9,257.4,581.2,257.4L581.2,257.4z M578.6,260.3c0.8-0.5,1.7-0.7,2.6-0.7c0.9,0,1.8,0.3,2.6,0.7v6.5
					h-5.2L578.6,260.3L578.6,260.3z"/>
				<path class="st12" d="M581.2,256.3c2.3,0,4.1-1.9,4.1-4.1s-1.9-4.1-4.1-4.1c-2.3,0-4.1,1.9-4.1,4.1S579,256.3,581.2,256.3z
					 M581.2,250.2c1.1,0,2,0.9,2,2s-0.9,2-2,2s-2-0.9-2-2S580.1,250.2,581.2,250.2z"/>
			</g>
		</g>
		<g>
			<g>
				<g>
					<path class="st12" d="M674.3,241.4c1.4,0,2.5,1,2.8,2.3l4.4,20.8c0.5,2.1,2.4,3.7,4.6,3.7c2.2,0,4.2-1.6,4.6-3.8l3.8-20.3
						c0.3-1.5,1.6-2.7,3.2-2.7c0.3,0,0.5,0,0.8,0.1c0.9,0.2,1.6,0.7,2,1.5s0.6,1.6,0.4,2.5l-4.9,19.4c-0.9,3.5-0.9,7.2-0.1,10.8
						l5,21.2c0.3,1.3-0.4,2.7-1.7,3.2c-0.3,0.1-0.6,0.2-1,0.2c-1.3,0-2.4-0.9-2.7-2.1l-4.6-20.3c-0.5-2.2-2.4-3.7-4.6-3.7
						c-2.2,0-4.1,1.5-4.6,3.7l-4.5,20.1c-0.3,1.3-1.5,2.2-2.8,2.2c-0.2,0-0.5,0-0.7-0.1c-1.5-0.4-2.5-1.9-2.1-3.5l4.9-20.6
						c0.8-3.4,0.8-7,0-10.3l-5-20.9c-0.2-0.8-0.1-1.5,0.4-2.2s1.1-1.1,1.9-1.3C673.9,241.4,674.1,241.4,674.3,241.4 M674.3,239.9
						c-0.3,0-0.6,0-0.9,0.1c-2.4,0.5-4,2.9-3.4,5.3l5,20.9c0.8,3.2,0.8,6.5,0,9.6l-4.9,20.6c-0.6,2.3,0.9,4.7,3.2,5.3
						c0.4,0.1,0.7,0.1,1.1,0.1c2,0,3.8-1.4,4.3-3.4l4.5-20.1c0.3-1.5,1.7-2.5,3.2-2.5s2.8,1,3.2,2.5l4.6,20.3c0.5,2,2.2,3.3,4.1,3.3
						c0.5,0,1-0.1,1.5-0.3c2-0.8,3.1-2.9,2.6-5l-5-21.2c-0.8-3.3-0.8-6.7,0.1-10.1l4.9-19.5c0.7-2.6-0.9-5.2-3.5-5.8
						c-0.4-0.1-0.8-0.1-1.1-0.1c-2.2,0-4.2,1.6-4.7,3.9l-3.8,20.3c-0.3,1.5-1.6,2.6-3.1,2.6s-2.8-1.1-3.1-2.5l-4.4-20.8
						C678.1,241.3,676.3,239.9,674.3,239.9L674.3,239.9z"/>
				</g>
			</g>
			<g>
				<g>
					<path class="st12" d="M715,241.4c1.4,0,2.5,1,2.8,2.3l4.4,20.8c0.5,2.1,2.4,3.7,4.6,3.7c2.2,0,4.2-1.6,4.6-3.8l3.8-20.3
						c0.3-1.5,1.6-2.7,3.2-2.7c0.3,0,0.5,0,0.8,0.1c0.9,0.2,1.6,0.7,2,1.5s0.6,1.6,0.4,2.5l-4.9,19.4c-0.9,3.5-0.9,7.2-0.1,10.8
						l5,21.2c0.3,1.3-0.4,2.7-1.7,3.2c-0.3,0.1-0.6,0.2-1,0.2c-1.3,0-2.4-0.9-2.7-2.1l-4.6-20.3c-0.5-2.2-2.4-3.7-4.6-3.7
						c-2.2,0-4.1,1.5-4.6,3.7l-4.5,20.1c-0.3,1.3-1.5,2.2-2.8,2.2c-0.2,0-0.5,0-0.7-0.1c-1.5-0.4-2.5-1.9-2.1-3.5l4.9-20.6
						c0.8-3.4,0.8-7,0-10.3l-5-20.9c-0.2-0.8-0.1-1.5,0.4-2.2s1.1-1.1,1.9-1.3C714.6,241.4,714.8,241.4,715,241.4 M715,239.9
						c-0.3,0-0.6,0-0.9,0.1c-2.4,0.5-4,2.9-3.4,5.3l5,20.9c0.8,3.2,0.8,6.5,0,9.6l-4.9,20.6c-0.6,2.3,0.9,4.7,3.2,5.3
						c0.4,0.1,0.7,0.1,1.1,0.1c2,0,3.8-1.4,4.3-3.4l4.5-20.1c0.3-1.5,1.7-2.5,3.2-2.5s2.8,1,3.2,2.5l4.6,20.3c0.5,2,2.2,3.3,4.1,3.3
						c0.5,0,1-0.1,1.5-0.3c2-0.8,3.1-2.9,2.6-5l-5-21.2c-0.8-3.3-0.8-6.7,0.1-10.1l4.9-19.5c0.7-2.6-0.9-5.2-3.5-5.8
						c-0.4-0.1-0.8-0.1-1.1-0.1c-2.2,0-4.2,1.6-4.7,3.9l-3.8,20.3c-0.3,1.5-1.6,2.6-3.1,2.6s-2.8-1.1-3.1-2.5l-4.4-20.8
						C718.8,241.3,717,239.9,715,239.9L715,239.9z"/>
				</g>
			</g>
		</g>
	</g>
	<g>
		<g>
			<rect x="524.1" y="71.6" class="st5" width="88.5" height="13.4"/>
			<rect x="550.9" y="71.6" class="st12" width="61.6" height="13.4"/>
			<g>
				<g>
					<rect x="711" y="71.6" class="st5" width="32.2" height="13.4"/>
					<rect x="711" y="71.6" class="st14" width="2.4" height="13.4"/>
				</g>
				<rect x="721.4" y="71.6" class="st12" width="21.7" height="13.4"/>
			</g>
		</g>
		<rect x="524.1" y="71.6" class="st14" width="8.8" height="13.4"/>
		<rect x="491.9" y="48.8" class="st5" width="32.2" height="13.4"/>
		<rect x="491.9" y="48.8" class="st14" width="13.5" height="13.4"/>
		<rect x="521" y="48.8" class="st12" width="3" height="13.4"/>
		<g>
			<rect x="622.5" y="48.8" class="st5" width="88.5" height="13.4"/>
			<rect x="622.5" y="48.8" class="st14" width="36.8" height="13.4"/>
			<rect x="705" y="48.8" class="st12" width="6" height="13.4"/>
		</g>
		<g>
			<rect x="491.9" y="112.9" class="st5" width="120.6" height="13.4"/>
			<rect x="491.9" y="112.9" class="st5" width="32.2" height="13.4"/>
			<rect x="491.9" y="112.9" class="st14" width="13.5" height="13.4"/>
			<rect x="521.1" y="112.9" class="st12" width="3" height="13.4"/>
			<rect x="524.1" y="112.9" class="st5" width="88.5" height="13.4"/>
			<rect x="524.1" y="112.9" class="st14" width="8.8" height="13.4"/>
			<rect x="550.9" y="112.9" class="st12" width="61.6" height="13.4"/>
		</g>
		<g>
			<rect x="622.5" y="112.9" class="st5" width="120.6" height="13.4"/>
			<g>
				<rect x="622.5" y="112.9" class="st5" width="88.5" height="13.4"/>
				<rect x="622.5" y="112.9" class="st14" width="36.8" height="13.4"/>
				<rect x="705" y="112.9" class="st12" width="6" height="13.4"/>
			</g>
			<g>
				<g>
					<rect x="711" y="112.9" class="st5" width="32.2" height="13.4"/>
					<rect x="711" y="112.9" class="st14" width="2.4" height="13.4"/>
				</g>
				<rect x="721.4" y="112.9" class="st12" width="21.7" height="13.4"/>
			</g>
		</g>
		<path class="st15" d="M524.1,87.3V88c0,0.4,0.8,0.8,1.9,0.8h84.7c1,0,1.9-0.4,1.9-0.8v-0.7"/>
		<path class="st15" d="M622.5,64.5v0.7c0,0.4,0.8,0.8,1.9,0.8h84.7c1,0,1.9-0.4,1.9-0.8v-0.7"/>
		<path class="st15" d="M491.9,64.5v0.7c0,0.4,0.8,0.8,1.9,0.8h28.5c1,0,1.9-0.4,1.9-0.8v-0.7"/>
		<path class="st15" d="M711,87.3V88c0,0.4,0.8,0.8,1.9,0.8h28.5c1,0,1.9-0.4,1.9-0.8v-0.7"/>
		<g>
			<g>
				<line class="st15" x1="508" y1="66" x2="508" y2="107.9"/>
				<g>
					<polygon class="st5" points="505.7,105.2 508,107.5 510.3,105.2 510.3,107.2 508,109.4 505.7,107.2 					"/>
				</g>
			</g>
		</g>
		<g>
			<g>
				<line class="st15" x1="568.3" y1="89.2" x2="568.3" y2="107.9"/>
				<g>
					<polygon class="st5" points="566,105.2 568.3,107.5 570.6,105.2 570.6,107.2 568.3,109.4 566,107.2 					"/>
				</g>
			</g>
		</g>
		<g>
			<g>
				<line class="st15" x1="666.7" y1="66" x2="666.7" y2="107.9"/>
				<g>
					<polygon class="st5" points="664.5,105.2 666.7,107.5 669,105.2 669,107.2 666.7,109.4 664.5,107.2 					"/>
				</g>
			</g>
		</g>
		<g>
			<g>
				<line class="st15" x1="727.1" y1="89.2" x2="727.1" y2="107.9"/>
				<g>
					<polygon class="st5" points="724.8,105.2 727.1,107.5 729.3,105.2 729.3,107.2 727.1,109.4 724.8,107.2 					"/>
				</g>
			</g>
		</g>
	</g>
</g>
<g>
	<path class="st5" d="M731,350.6H601c-6.8,0-12.4-5.5-12.4-12.4l0,0c0-6.8,5.5-12.4,12.4-12.4h129.9c6.8,0,12.4,5.5,12.4,12.4l0,0
		C743.3,345.1,737.8,350.6,731,350.6z"/>
	<g class="st10">
		<path class="st11" d="M610.6,339.7h1.2c0.1,0.6,0.3,1,0.8,1.4s1.1,0.5,1.9,0.5c0.7,0,1.3-0.2,1.8-0.5s0.7-0.8,0.7-1.4
			c0-0.4-0.1-0.8-0.4-1.1c-0.3-0.3-0.7-0.5-1.3-0.6l-1.9-0.5c-0.7-0.2-1.3-0.5-1.7-0.9c-0.5-0.4-0.7-1-0.7-1.8
			c0-0.6,0.2-1.2,0.5-1.6c0.4-0.5,0.8-0.8,1.3-1s1.1-0.3,1.7-0.3c0.5,0,0.9,0.1,1.3,0.2c0.4,0.1,0.8,0.3,1.1,0.5
			c0.4,0.2,0.6,0.5,0.8,0.9s0.3,0.8,0.3,1.3h-1.2c-0.1-0.6-0.3-1-0.7-1.3s-1-0.5-1.7-0.5s-1.2,0.2-1.7,0.5c-0.4,0.3-0.6,0.8-0.6,1.3
			c0,0.8,0.5,1.3,1.5,1.6l1.8,0.5c0.9,0.2,1.5,0.6,2,1s0.7,1,0.7,1.8c0,1-0.4,1.8-1.1,2.3c-0.7,0.5-1.7,0.8-2.8,0.8
			c-0.6,0-1.2-0.1-1.7-0.3c-0.5-0.2-0.9-0.4-1.2-0.7c-0.3-0.3-0.5-0.6-0.6-1C610.7,340.4,610.6,340.1,610.6,339.7z"/>
		<path class="st11" d="M623.5,342.6c-1.1,0-1.9-0.3-2.5-0.9s-0.9-1.5-0.9-2.6v-1.3c0-1.1,0.3-1.9,0.9-2.5c0.6-0.6,1.4-1,2.4-1
			s1.8,0.3,2.4,1c0.6,0.6,0.9,1.5,0.9,2.5v1h-5.3v0.4c0,0.7,0.2,1.2,0.6,1.7c0.4,0.4,0.9,0.7,1.6,0.7c0.5,0,0.9-0.1,1.2-0.3
			c0.3-0.2,0.5-0.4,0.6-0.7h1.3c0,0.2-0.1,0.5-0.3,0.7c-0.1,0.2-0.3,0.4-0.6,0.7s-0.6,0.4-0.9,0.5
			C624.4,342.6,624,342.6,623.5,342.6z M621.4,337.9h4.1v-0.1c0-0.5-0.1-0.9-0.3-1.2c-0.2-0.4-0.4-0.6-0.7-0.8
			c-0.3-0.2-0.7-0.3-1.1-0.3c-0.6,0-1.1,0.2-1.5,0.6S621.3,337.1,621.4,337.9L621.4,337.9L621.4,337.9z"/>
		<path class="st11" d="M633.7,342.5l-2-3.1l0,0l-2,3.1h-1.4l2.7-4l-2.7-4.1h1.5l1.9,3.1l0,0l2-3.1h1.4l-2.7,3.9l2.8,4.1
			L633.7,342.5L633.7,342.5z"/>
		<path class="st11" d="M643.5,334.3c0.6,0,1.1,0.1,1.5,0.4s0.7,0.6,0.8,0.9h0.1v-4.1h1.2v11H646v-1.3h-0.1c-0.1,0.4-0.4,0.7-0.8,1
			c-0.4,0.3-1,0.4-1.6,0.4c-0.9,0-1.7-0.3-2.2-0.9c-0.6-0.6-0.9-1.4-0.9-2.4v-1.7c0-1,0.3-1.8,0.9-2.4
			C641.8,334.6,642.5,334.3,643.5,334.3z M643.6,335.4c-0.7,0-1.2,0.2-1.5,0.7s-0.6,1.1-0.6,1.9v1.1c0,0.8,0.2,1.4,0.6,1.9
			c0.4,0.4,0.9,0.7,1.6,0.7s1.2-0.2,1.6-0.6c0.4-0.4,0.6-1,0.6-1.8v-1.5c0-0.6-0.2-1.2-0.6-1.6C644.8,335.6,644.3,335.4,643.6,335.4
			z"/>
		<path class="st11" d="M649.8,331.9c0-0.3,0.1-0.5,0.3-0.6s0.4-0.3,0.6-0.3c0.3,0,0.5,0.1,0.6,0.3c0.2,0.2,0.3,0.4,0.3,0.6
			s0,0.3-0.1,0.5s-0.2,0.2-0.3,0.3c-0.1,0.1-0.3,0.1-0.5,0.1c-0.3,0-0.5-0.1-0.6-0.3C649.9,332.4,649.8,332.2,649.8,331.9z
			 M650.1,342.5v-8.1h1.2v8.1H650.1z"/>
		<path class="st11" d="M655.1,342.5v-7h-1.4v-1h1.4v-0.8c0-0.8,0.2-1.3,0.6-1.7c0.4-0.4,1-0.5,1.9-0.5c0.3,0,0.6,0,0.9,0.1v1
			c-0.2,0-0.4,0-0.7,0c-0.5,0-0.9,0.1-1.1,0.3c-0.2,0.2-0.3,0.5-0.3,1v0.7h1.9v1h-1.9v7L655.1,342.5L655.1,342.5z"/>
		<path class="st11" d="M661.1,342.5v-7h-1.4v-1h1.4v-0.8c0-0.8,0.2-1.3,0.6-1.7c0.4-0.4,1-0.5,1.9-0.5c0.3,0,0.6,0,0.9,0.1v1
			c-0.2,0-0.4,0-0.7,0c-0.5,0-0.9,0.1-1.1,0.3c-0.2,0.2-0.3,0.5-0.3,1v0.7h1.9v1h-1.9v7L661.1,342.5L661.1,342.5z"/>
		<path class="st11" d="M669.5,342.6c-1.1,0-1.9-0.3-2.5-0.9s-0.9-1.5-0.9-2.6v-1.3c0-1.1,0.3-1.9,0.9-2.5c0.6-0.6,1.4-1,2.4-1
			s1.8,0.3,2.4,1c0.6,0.6,0.9,1.5,0.9,2.5v1h-5.3v0.4c0,0.7,0.2,1.2,0.6,1.7c0.4,0.4,0.9,0.7,1.6,0.7c0.5,0,0.9-0.1,1.2-0.3
			c0.3-0.2,0.5-0.4,0.6-0.7h1.3c0,0.2-0.1,0.5-0.3,0.7c-0.1,0.2-0.3,0.4-0.6,0.7s-0.6,0.4-0.9,0.5
			C670.4,342.6,669.9,342.6,669.5,342.6z M667.3,337.9h4.1v-0.1c0-0.5-0.1-0.9-0.3-1.2c-0.2-0.4-0.4-0.6-0.7-0.8
			c-0.3-0.2-0.7-0.3-1.1-0.3c-0.6,0-1.1,0.2-1.5,0.6S667.2,337.1,667.3,337.9L667.3,337.9L667.3,337.9z"/>
		<path class="st11" d="M675.2,342.5v-8.1h1.2v1.3h0.1c0.1-0.4,0.4-0.7,0.7-1c0.4-0.3,0.9-0.4,1.5-0.4c0.1,0,0.3,0,0.5,0v1.1
			c-0.1,0-0.3,0-0.6,0c-0.5,0-0.9,0.1-1.2,0.3c-0.3,0.2-0.6,0.4-0.7,0.7s-0.2,0.6-0.2,1v5.1H675.2L675.2,342.5z"/>
		<path class="st11" d="M684,342.6c-1.1,0-1.9-0.3-2.5-0.9s-0.9-1.5-0.9-2.6v-1.3c0-1.1,0.3-1.9,0.9-2.5c0.6-0.6,1.4-1,2.4-1
			s1.8,0.3,2.4,1c0.6,0.6,0.9,1.5,0.9,2.5v1h-5.3v0.4c0,0.7,0.2,1.2,0.6,1.7c0.4,0.4,0.9,0.7,1.6,0.7c0.5,0,0.9-0.1,1.2-0.3
			c0.3-0.2,0.5-0.4,0.6-0.7h1.3c0,0.2-0.1,0.5-0.3,0.7c-0.1,0.2-0.3,0.4-0.6,0.7s-0.6,0.4-0.9,0.5
			C684.9,342.6,684.5,342.6,684,342.6z M681.9,337.9h4.1v-0.1c0-0.5-0.1-0.9-0.3-1.2c-0.2-0.4-0.4-0.6-0.7-0.8
			c-0.3-0.2-0.7-0.3-1.1-0.3c-0.6,0-1.1,0.2-1.5,0.6S681.8,337.1,681.9,337.9L681.9,337.9L681.9,337.9z"/>
		<path class="st11" d="M689.6,342.5v-8.1h1.2v1.5h0.1c0.3-1.1,1.2-1.6,2.5-1.6c0.8,0,1.5,0.2,2,0.7s0.7,1.1,0.7,2v5.5h-1.2v-5.2
			c0-0.6-0.2-1.1-0.5-1.5c-0.3-0.3-0.8-0.5-1.3-0.5c-0.7,0-1.3,0.2-1.7,0.7s-0.6,1.1-0.6,1.9v4.5h-1.2V342.5z"/>
		<path class="st11" d="M698.4,339.2v-1.4c0-1.1,0.3-1.9,0.9-2.5c0.6-0.6,1.4-0.9,2.4-0.9c0.9,0,1.7,0.2,2.2,0.7s0.8,1,0.8,1.6h-1.2
			c0-0.1-0.1-0.3-0.1-0.4c-0.1-0.1-0.2-0.3-0.3-0.4s-0.3-0.3-0.6-0.4s-0.5-0.1-0.8-0.1c-0.7,0-1.2,0.2-1.6,0.6
			c-0.4,0.4-0.5,1-0.5,1.8v1.4c0,0.5,0.1,0.9,0.3,1.2c0.2,0.4,0.4,0.6,0.7,0.8c0.3,0.2,0.7,0.3,1.1,0.3c1.1,0,1.7-0.4,1.9-1.1h1.2
			c0,0.6-0.3,1.1-0.8,1.6s-1.3,0.7-2.2,0.7c-1,0-1.8-0.3-2.4-0.9C698.7,341.1,698.4,340.2,698.4,339.2z"/>
		<path class="st11" d="M710,342.6c-1.1,0-1.9-0.3-2.5-0.9s-0.9-1.5-0.9-2.6v-1.3c0-1.1,0.3-1.9,0.9-2.5c0.6-0.6,1.4-1,2.4-1
			s1.8,0.3,2.4,1c0.6,0.6,0.9,1.5,0.9,2.5v1h-5.4v0.4c0,0.7,0.2,1.2,0.6,1.7c0.4,0.4,0.9,0.7,1.6,0.7c0.5,0,0.9-0.1,1.2-0.3
			c0.3-0.2,0.5-0.4,0.6-0.7h1.3c0,0.2-0.1,0.5-0.3,0.7c-0.1,0.2-0.3,0.4-0.6,0.7s-0.6,0.4-0.9,0.5
			C710.9,342.6,710.5,342.6,710,342.6z M707.9,337.9h4.1v-0.1c0-0.5-0.1-0.9-0.3-1.2c-0.2-0.4-0.4-0.6-0.7-0.8
			c-0.3-0.2-0.7-0.3-1.1-0.3c-0.6,0-1.1,0.2-1.5,0.6S707.8,337.1,707.9,337.9L707.9,337.9L707.9,337.9z"/>
		<path class="st11" d="M715.2,336.7c0-0.8,0.3-1.4,0.8-1.8c0.6-0.4,1.3-0.6,2.1-0.6c0.4,0,0.8,0.1,1.2,0.2s0.6,0.3,0.9,0.5
			c0.2,0.2,0.4,0.4,0.6,0.7c0.1,0.3,0.2,0.6,0.2,0.9h-1.1c0-0.2-0.1-0.4-0.2-0.6c-0.1-0.2-0.3-0.3-0.6-0.5c-0.3-0.1-0.6-0.2-0.9-0.2
			c-0.3,0-0.6,0.1-0.9,0.1c-0.3,0.1-0.5,0.2-0.6,0.4c-0.1,0.2-0.2,0.4-0.2,0.7c0,0.2,0,0.4,0.1,0.5s0.2,0.2,0.3,0.3
			c0.1,0.1,0.2,0.1,0.4,0.2s0.4,0.1,0.5,0.1s0.3,0.1,0.5,0.1c0,0,0,0,0.1,0c0,0,0,0,0.1,0s0,0,0.1,0c0.3,0,0.5,0.1,0.7,0.1
			c0.2,0.1,0.4,0.1,0.7,0.2c0.2,0.1,0.4,0.2,0.6,0.3c0.2,0.1,0.3,0.2,0.4,0.4c0.1,0.2,0.2,0.3,0.3,0.5s0.1,0.4,0.1,0.7
			c0,0.8-0.3,1.4-0.9,1.8c-0.6,0.4-1.3,0.7-2.3,0.7c-0.9,0-1.6-0.2-2.1-0.6s-0.8-0.9-0.8-1.6h1.2c0.1,0.8,0.7,1.2,1.8,1.2
			c0.4,0,0.8-0.1,1.1-0.2s0.5-0.3,0.6-0.5s0.2-0.4,0.2-0.7c0-0.2,0-0.3-0.1-0.5c-0.1-0.1-0.2-0.2-0.3-0.3c-0.1-0.1-0.3-0.2-0.5-0.2
			c-0.2-0.1-0.4-0.1-0.5-0.2c-0.1,0-0.4-0.1-0.6-0.1c-0.4-0.1-0.7-0.1-0.9-0.2s-0.5-0.1-0.7-0.3c-0.3-0.1-0.5-0.2-0.6-0.4
			c-0.1-0.1-0.3-0.3-0.4-0.6C715.2,337.3,715.2,337.1,715.2,336.7z"/>
	</g>
</g>
<g>
	<path class="st12" d="M731.6,26.5H567.4c-6.4,0-11.6-5.2-11.6-11.6v-1.5c0-6.4,5.2-11.6,11.6-11.6h164.3c6.4,0,11.6,5.2,11.6,11.6
		v1.5C743.3,21.3,738.1,26.5,731.6,26.5z"/>
	<g class="st10">
		<path class="st11" d="M579.7,7.9h3.8c1,0,1.8,0.3,2.4,0.9c0.6,0.6,0.9,1.4,0.9,2.3c0,1-0.3,1.8-0.9,2.3s-1.4,0.9-2.4,0.9H581v4
			h-1.2L579.7,7.9L579.7,7.9z M581,9v4.2h1.6c0.3,0,0.6,0,0.9,0c0.2,0,0.5-0.1,0.7-0.1s0.4-0.1,0.6-0.2c0.2-0.1,0.3-0.2,0.4-0.4
			c0.1-0.2,0.2-0.4,0.3-0.6c0.1-0.2,0.1-0.5,0.1-0.8c0-0.7-0.2-1.2-0.5-1.6c-0.4-0.4-0.9-0.6-1.5-0.6C583.5,9,581,9,581,9z"/>
		<path class="st11" d="M591.9,10.2c1,0,1.8,0.3,2.5,0.9c0.6,0.6,1,1.5,1,2.6V15c0,1.1-0.3,2-1,2.6c-0.6,0.6-1.5,0.9-2.5,0.9
			s-1.8-0.3-2.5-0.9c-0.6-0.6-0.9-1.5-0.9-2.6v-1.3c0-1.1,0.3-1.9,1-2.6C590.1,10.5,590.9,10.2,591.9,10.2z M589.6,13.9v1
			c0,0.5,0.1,1,0.3,1.4s0.4,0.7,0.8,0.9c0.3,0.2,0.7,0.3,1.2,0.3c0.7,0,1.2-0.2,1.6-0.7c0.4-0.5,0.6-1.1,0.6-1.9v-1
			c0-0.8-0.2-1.4-0.6-1.9c-0.4-0.5-0.9-0.7-1.6-0.7c-0.7,0-1.2,0.2-1.6,0.7C589.8,12.5,589.6,13.1,589.6,13.9z"/>
		<path class="st11" d="M601.3,18.5c-1.2,0-1.9-0.4-2.3-1.3h-0.1v4h-1.2V10.3h1.1v1.3h0.1c0.1-0.4,0.4-0.7,0.8-1
			c0.4-0.3,0.9-0.4,1.6-0.4c0.9,0,1.7,0.3,2.2,0.9c0.6,0.6,0.8,1.4,0.8,2.5v1.5c0,1.1-0.3,1.9-0.9,2.5
			C603,18.2,602.3,18.5,601.3,18.5z M601.1,17.5c0.6,0,1.2-0.2,1.5-0.7c0.4-0.4,0.6-1.1,0.6-2v-0.9c0-0.9-0.2-1.5-0.6-2
			c-0.4-0.4-0.9-0.7-1.6-0.7s-1.2,0.2-1.6,0.6c-0.4,0.4-0.6,1-0.6,1.8v1.5c0,0.7,0.2,1.2,0.6,1.6C599.9,17.2,600.5,17.5,601.1,17.5z
			"/>
		<path class="st11" d="M613.3,10.3v8.1h-1.2v-1.3H612c-0.1,0.4-0.4,0.7-0.8,1c-0.4,0.3-0.9,0.4-1.6,0.4c-0.9,0-1.5-0.2-2-0.6
			s-0.7-1.1-0.7-1.9v-5.6h1.2v5.3c0,1.2,0.6,1.8,1.8,1.8c0.6,0,1.1-0.2,1.6-0.6c0.4-0.4,0.6-0.9,0.6-1.4v-5.2
			C612.1,10.3,613.3,10.3,613.3,10.3z"/>
		<path class="st11" d="M616.1,18.4v-11h1.2v11H616.1z"/>
		<path class="st11" d="M622.4,18.5c-0.4,0-0.7-0.1-1.1-0.2c-0.3-0.1-0.6-0.3-0.8-0.5s-0.4-0.5-0.5-0.8s-0.2-0.6-0.2-1
			c0-0.5,0.1-0.9,0.3-1.2c0.2-0.4,0.5-0.6,1-0.8c0.4-0.2,0.9-0.3,1.5-0.3h2.2v-0.8c0-0.5-0.2-0.9-0.5-1.2s-0.8-0.4-1.3-0.4
			c-0.9,0-1.5,0.3-1.7,1h-1.2c0.1-0.7,0.4-1.2,0.9-1.5c0.5-0.4,1.2-0.5,2.1-0.5c0.9,0,1.6,0.2,2.1,0.6c0.6,0.4,0.8,1.1,0.8,2v5.5
			h-1.2v-1.1l0,0C624.2,18.1,623.4,18.5,622.4,18.5z M622.7,17.5c0.6,0,1.1-0.2,1.5-0.5c0.4-0.4,0.6-0.8,0.6-1.3v-0.9h-2.1
			c-0.6,0-1,0.1-1.2,0.4s-0.4,0.6-0.4,1c0,0.5,0.2,0.8,0.5,1.1C621.8,17.4,622.2,17.5,622.7,17.5z"/>
		<path class="st11" d="M629.1,10.3v-2h1.2v2h1.8v1h-1.8v4.8c0,0.3,0,0.6,0.1,0.8c0.1,0.2,0.2,0.3,0.4,0.4s0.5,0.1,0.8,0.1
			c0.2,0,0.4,0,0.6,0v1c-0.2,0-0.5,0.1-0.9,0.1c-0.5,0-0.8,0-1.1-0.1s-0.5-0.2-0.7-0.4c-0.2-0.2-0.3-0.4-0.3-0.7
			c-0.1-0.3-0.1-0.6-0.1-1v-4.8h-1.2v-1L629.1,10.3L629.1,10.3z"/>
		<path class="st11" d="M634.4,7.8c0-0.3,0.1-0.5,0.3-0.6c0.2-0.2,0.4-0.3,0.6-0.3c0.3,0,0.5,0.1,0.6,0.3c0.2,0.2,0.3,0.4,0.3,0.6
			s0,0.3-0.1,0.5c-0.1,0.1-0.2,0.2-0.3,0.3s-0.3,0.1-0.5,0.1c-0.3,0-0.5-0.1-0.6-0.3C634.5,8.3,634.4,8.1,634.4,7.8z M634.7,18.4
			v-8.1h1.2v8.1H634.7z"/>
		<path class="st11" d="M641.9,10.2c1,0,1.8,0.3,2.5,0.9c0.6,0.6,1,1.5,1,2.6V15c0,1.1-0.3,2-1,2.6c-0.6,0.6-1.5,0.9-2.5,0.9
			s-1.8-0.3-2.5-0.9c-0.6-0.6-0.9-1.5-0.9-2.6v-1.3c0-1.1,0.3-1.9,1-2.6C640.1,10.5,641,10.2,641.9,10.2z M639.7,13.9v1
			c0,0.5,0.1,1,0.3,1.4s0.4,0.7,0.8,0.9c0.3,0.2,0.7,0.3,1.2,0.3c0.7,0,1.2-0.2,1.6-0.7c0.4-0.5,0.6-1.1,0.6-1.9v-1
			c0-0.8-0.2-1.4-0.6-1.9c-0.4-0.5-0.9-0.7-1.6-0.7c-0.7,0-1.2,0.2-1.6,0.7C639.9,12.5,639.7,13.1,639.7,13.9z"/>
		<path class="st11" d="M647.8,18.4v-8.1h1.2v1.5h0.1c0.3-1.1,1.2-1.6,2.5-1.6c0.8,0,1.5,0.2,2,0.7s0.7,1.1,0.7,2v5.5h-1.2v-5.2
			c0-0.6-0.2-1.1-0.5-1.5c-0.3-0.3-0.8-0.5-1.3-0.5c-0.7,0-1.3,0.2-1.7,0.7S649,13,649,13.8v4.5L647.8,18.4L647.8,18.4z"/>
		<path class="st11" d="M663.4,20.3c0.7,0,1.3-0.2,1.7-0.6s0.6-0.9,0.6-1.6V17h-0.1c-0.1,0.2-0.3,0.4-0.5,0.6s-0.5,0.3-0.8,0.5
			c-0.3,0.1-0.6,0.2-1,0.2c-0.6,0-1.1-0.1-1.6-0.4s-0.9-0.6-1.2-1.2c-0.3-0.5-0.4-1.1-0.4-1.8v-1.4c0-0.5,0.1-1,0.3-1.4
			s0.4-0.8,0.7-1.1s0.6-0.5,1-0.7s0.8-0.2,1.3-0.2c0.6,0,1.1,0.1,1.5,0.4s0.7,0.6,0.9,0.9h0.1v-1.2h1.1v7.9c0,1.1-0.3,1.9-0.9,2.4
			c-0.6,0.5-1.5,0.8-2.6,0.8c-1,0-1.7-0.2-2.2-0.6s-0.8-0.9-0.9-1.5h1.3c0.1,0.3,0.3,0.6,0.6,0.8S662.9,20.3,663.4,20.3z
			 M663.5,11.3c-0.3,0-0.7,0.1-0.9,0.2c-0.3,0.1-0.5,0.3-0.7,0.5s-0.3,0.5-0.4,0.8c-0.1,0.3-0.1,0.7-0.1,1.1v0.8
			c0,0.8,0.2,1.4,0.6,1.8c0.4,0.5,1,0.7,1.6,0.7s1.2-0.2,1.5-0.7c0.4-0.4,0.6-1,0.6-1.6v-1.3c0-0.6-0.2-1.2-0.6-1.6
			C664.7,11.5,664.2,11.3,663.5,11.3z"/>
		<path class="st11" d="M672.5,18.5c-1.1,0-1.9-0.3-2.5-0.9s-0.9-1.5-0.9-2.6v-1.3c0-1.1,0.3-1.9,0.9-2.5c0.6-0.6,1.4-1,2.4-1
			s1.8,0.3,2.4,1s0.9,1.5,0.9,2.5v1h-5.3v0.4c0,0.7,0.2,1.2,0.6,1.7c0.4,0.4,0.9,0.7,1.6,0.7c0.5,0,0.9-0.1,1.2-0.3
			c0.3-0.2,0.5-0.4,0.6-0.7h1.3c0,0.2-0.1,0.5-0.3,0.7c-0.1,0.2-0.3,0.4-0.6,0.7s-0.6,0.4-0.9,0.5C673.4,18.5,672.9,18.5,672.5,18.5
			z M670.3,13.8h4.1v-0.1c0-0.5-0.1-0.9-0.3-1.2c-0.2-0.4-0.4-0.6-0.7-0.8s-0.7-0.3-1.1-0.3c-0.6,0-1.1,0.2-1.5,0.6
			c-0.4,0.4-0.6,1-0.6,1.7L670.3,13.8L670.3,13.8z"/>
		<path class="st11" d="M678,18.4v-8.1h1.2v1.5h0.1c0.3-1.1,1.2-1.6,2.5-1.6c0.8,0,1.5,0.2,2,0.7s0.7,1.1,0.7,2v5.5h-1.2v-5.2
			c0-0.6-0.2-1.1-0.5-1.5c-0.3-0.3-0.8-0.5-1.3-0.5c-0.7,0-1.3,0.2-1.7,0.7s-0.6,1.1-0.6,1.9v4.5L678,18.4L678,18.4z"/>
		<path class="st11" d="M690.3,18.5c-1.1,0-1.9-0.3-2.5-0.9s-0.9-1.5-0.9-2.6v-1.3c0-1.1,0.3-1.9,0.9-2.5c0.6-0.6,1.4-1,2.4-1
			s1.8,0.3,2.4,1s0.9,1.5,0.9,2.5v1h-5.3v0.4c0,0.7,0.2,1.2,0.6,1.7c0.4,0.4,0.9,0.7,1.6,0.7c0.5,0,0.9-0.1,1.2-0.3s0.5-0.4,0.6-0.7
			h1.3c0,0.2-0.1,0.5-0.3,0.7c-0.1,0.2-0.3,0.4-0.6,0.7s-0.6,0.4-0.9,0.5C691.1,18.5,690.7,18.5,690.3,18.5z M688.1,13.8h4.1v-0.1
			c0-0.5-0.1-0.9-0.3-1.2c-0.2-0.4-0.4-0.6-0.7-0.8s-0.7-0.3-1.1-0.3c-0.6,0-1.1,0.2-1.5,0.6c-0.4,0.4-0.6,1-0.6,1.7L688.1,13.8
			L688.1,13.8z"/>
		<path class="st11" d="M696.2,10.3v-2h1.2v2h1.8v1h-1.8v4.8c0,0.3,0,0.6,0.1,0.8c0.1,0.2,0.2,0.3,0.4,0.4s0.5,0.1,0.8,0.1
			c0.2,0,0.4,0,0.6,0v1c-0.2,0-0.5,0.1-0.9,0.1c-0.5,0-0.8,0-1.1-0.1s-0.5-0.2-0.7-0.4c-0.2-0.2-0.3-0.4-0.3-0.7
			c-0.1-0.3-0.1-0.6-0.1-1v-4.8H695v-1L696.2,10.3L696.2,10.3z"/>
		<path class="st11" d="M701.5,7.8c0-0.3,0.1-0.5,0.3-0.6c0.2-0.2,0.4-0.3,0.6-0.3c0.3,0,0.5,0.1,0.6,0.3c0.2,0.2,0.3,0.4,0.3,0.6
			s0,0.3-0.1,0.5c-0.1,0.1-0.2,0.2-0.3,0.3s-0.3,0.1-0.5,0.1c-0.3,0-0.5-0.1-0.6-0.3C701.6,8.3,701.5,8.1,701.5,7.8z M701.8,18.4
			v-8.1h1.2v8.1H701.8z"/>
		<path class="st11" d="M705.6,15.1v-1.4c0-1.1,0.3-1.9,0.9-2.5c0.6-0.6,1.4-0.9,2.4-0.9c0.9,0,1.7,0.2,2.2,0.7s0.8,1,0.8,1.6h-1.2
			c0-0.1-0.1-0.3-0.1-0.4c-0.1-0.1-0.2-0.3-0.3-0.4c-0.1-0.1-0.3-0.3-0.6-0.4c-0.2-0.1-0.5-0.1-0.8-0.1c-0.7,0-1.2,0.2-1.6,0.6
			c-0.4,0.4-0.5,1-0.5,1.8v1.4c0,0.5,0.1,0.9,0.3,1.2c0.2,0.4,0.4,0.6,0.7,0.8c0.3,0.2,0.7,0.3,1.1,0.3c1.1,0,1.7-0.4,1.9-1.1h1.2
			c0,0.6-0.3,1.1-0.8,1.6s-1.3,0.7-2.2,0.7c-1,0-1.8-0.3-2.4-0.9C705.9,17,705.6,16.1,705.6,15.1z"/>
		<path class="st11" d="M713.9,12.6c0-0.8,0.3-1.4,0.8-1.8c0.6-0.4,1.3-0.6,2.1-0.6c0.4,0,0.8,0.1,1.2,0.2c0.4,0.1,0.6,0.3,0.9,0.5
			s0.4,0.4,0.6,0.7s0.2,0.6,0.2,0.9h-1.1c0-0.2-0.1-0.4-0.2-0.6c-0.1-0.2-0.3-0.3-0.6-0.5c-0.3-0.1-0.6-0.2-0.9-0.2
			c-0.3,0-0.6,0.1-0.9,0.1s-0.5,0.2-0.6,0.4s-0.2,0.4-0.2,0.7c0,0.2,0,0.4,0.1,0.5s0.2,0.2,0.3,0.3s0.2,0.1,0.4,0.2s0.4,0.1,0.5,0.1
			s0.3,0.1,0.5,0.1c0,0,0,0,0.1,0c0,0,0,0,0.1,0c0,0,0,0,0.1,0c0.3,0,0.5,0.1,0.7,0.1c0.2,0.1,0.4,0.1,0.7,0.2
			c0.2,0.1,0.4,0.2,0.6,0.3c0.2,0.1,0.3,0.2,0.4,0.4c0.1,0.2,0.2,0.3,0.3,0.5s0.1,0.4,0.1,0.7c0,0.8-0.3,1.4-0.9,1.8
			c-0.6,0.4-1.3,0.7-2.3,0.7c-0.9,0-1.6-0.2-2.1-0.6s-0.8-0.9-0.8-1.6h1.2c0.1,0.8,0.7,1.2,1.8,1.2c0.4,0,0.8-0.1,1.1-0.2
			s0.5-0.3,0.6-0.5s0.2-0.4,0.2-0.7c0-0.2,0-0.3-0.1-0.5c-0.1-0.1-0.2-0.2-0.3-0.3s-0.3-0.2-0.5-0.2c-0.2-0.1-0.4-0.1-0.5-0.2
			c-0.1,0-0.4-0.1-0.7-0.1c-0.4-0.1-0.7-0.1-0.9-0.2c-0.2-0.1-0.5-0.1-0.7-0.3s-0.5-0.2-0.6-0.4c-0.1-0.1-0.3-0.3-0.4-0.6
			C713.9,13.2,713.9,12.9,713.9,12.6z"/>
	</g>
</g>
<g>
	<g>
		<circle class="st16" cx="293.8" cy="134.7" r="1.9"/>
		<circle class="st16" cx="324" cy="119.7" r="1.9"/>
		<circle class="st16" cx="357.9" cy="108.8" r="1.9"/>
		<circle class="st16" cx="406" cy="135.2" r="1.9"/>
		<circle class="st16" cx="396.8" cy="170" r="1.9"/>
		<circle class="st16" cx="388.7" cy="104.9" r="1.9"/>
		<circle class="st16" cx="376.6" cy="125.6" r="1.9"/>
		<circle class="st16" cx="329.8" cy="89.6" r="1.9"/>
		<circle class="st16" cx="312.7" cy="103" r="1.9"/>
		<circle class="st16" cx="282.8" cy="103" r="1.9"/>
		<circle class="st16" cx="262.9" cy="138.5" r="1.9"/>
		<circle class="st16" cx="271.1" cy="161" r="1.9"/>
		<circle class="st16" cx="280.9" cy="194.1" r="1.9"/>
		<circle class="st16" cx="384.8" cy="203" r="1.9"/>
		<circle class="st16" cx="418.5" cy="138.5" r="1.9"/>
		<circle class="st16" cx="422.3" cy="223.3" r="1.9"/>
		<circle class="st16" cx="335.6" cy="246.5" r="1.9"/>
		<circle class="st16" cx="271.1" cy="231.9" r="1.9"/>
		<circle class="st16" cx="299.7" cy="229.9" r="1.9"/>
		<circle class="st16" cx="260.9" cy="204.9" r="1.9"/>
		<circle class="st16" cx="390.6" cy="245.6" r="1.9"/>
		<circle class="st16" cx="430.2" cy="177" r="1.9"/>
		<circle class="st16" cx="410" cy="206.3" r="1.9"/>
		<circle class="st16" cx="362.7" cy="274.7" r="1.9"/>
		<circle class="st16" cx="359.8" cy="247.1" r="1.9"/>
		<circle class="st16" cx="408.2" cy="157.9" r="1.9"/>
		<circle class="st16" cx="404" cy="193.3" r="1.9"/>
		<circle class="st16" cx="395.9" cy="128.2" r="1.9"/>
		<circle class="st16" cx="392.1" cy="226.2" r="1.9"/>
		<circle class="st16" cx="425.7" cy="161.7" r="1.9"/>
		<circle class="st16" cx="429.5" cy="246.5" r="1.9"/>
		<circle class="st16" cx="397.8" cy="268.8" r="1.9"/>
		<circle class="st16" cx="437.4" cy="200.2" r="1.9"/>
		<circle class="st16" cx="404.7" cy="222.4" r="1.9"/>
		<circle class="st16" cx="297.8" cy="212.5" r="1.9"/>
		<circle class="st16" cx="286.1" cy="178.9" r="1.9"/>
		<circle class="st16" cx="321.8" cy="233.9" r="1.9"/>
		<circle class="st16" cx="282.5" cy="144" r="1.9"/>
		<circle class="st16" cx="280.3" cy="216.7" r="1.9"/>
		<circle class="st16" cx="240" cy="142.1" r="1.9"/>
		<circle class="st16" cx="258.8" cy="108.2" r="1.9"/>
		<circle class="st16" cx="266.5" cy="184.1" r="1.9"/>
		<circle class="st16" cx="257.4" cy="162.5" r="1.9"/>
		<circle class="st16" cx="385.9" cy="238" r="1.9"/>
		<circle class="st16" cx="350.5" cy="233.9" r="1.9"/>
		<circle class="st16" cx="415.6" cy="239.9" r="1.9"/>
		<circle class="st16" cx="317.6" cy="221.9" r="1.9"/>
		<circle class="st16" cx="382.1" cy="255.5" r="1.9"/>
		<circle class="st16" cx="297.3" cy="259.4" r="1.9"/>
		<circle class="st16" cx="284.1" cy="231.9" r="1.9"/>
		<circle class="st16" cx="343.6" cy="267.3" r="1.9"/>
		<circle class="st16" cx="321.4" cy="245.2" r="1.9"/>
		<circle class="st16" cx="399.4" cy="102.7" r="1.9"/>
		<circle class="st16" cx="395.2" cy="138.1" r="1.9"/>
		<circle class="st16" cx="387.1" cy="73" r="1.9"/>
		<circle class="st16" cx="383.3" cy="171" r="1.9"/>
		<circle class="st16" cx="416.9" cy="106.5" r="1.9"/>
		<circle class="st16" cx="420.7" cy="191.3" r="1.9"/>
		<circle class="st16" cx="389" cy="213.6" r="1.9"/>
		<circle class="st16" cx="428.6" cy="145" r="1.9"/>
		<circle class="st16" cx="412" cy="169.1" r="1.9"/>
		<circle class="st16" cx="385.3" cy="157.8" r="1.9"/>
		<circle class="st16" cx="363.3" cy="129.9" r="1.9"/>
		<circle class="st16" cx="415.6" cy="180.2" r="1.9"/>
		<circle class="st16" cx="348.4" cy="98.1" r="1.9"/>
		<circle class="st16" cx="370.3" cy="167.5" r="1.9"/>
		<circle class="st16" cx="307.6" cy="110.2" r="1.9"/>
		<circle class="st16" cx="314.3" cy="72.1" r="1.9"/>
		<circle class="st16" cx="290.9" cy="115.1" r="1.9"/>
		<circle class="st16" cx="334.6" cy="117.3" r="1.9"/>
		<circle class="st16" cx="252.6" cy="151" r="1.9"/>
		<circle class="st16" cx="262.9" cy="102.6" r="1.9"/>
		<circle class="st16" cx="245.4" cy="128.9" r="1.9"/>
		<circle class="st16" cx="234.4" cy="120.9" r="1.9"/>
		<circle class="st16" cx="256.1" cy="89.4" r="1.9"/>
		<circle class="st16" cx="265.9" cy="174.2" r="1.9"/>
		<circle class="st16" cx="267.8" cy="127.9" r="1.9"/>
		<circle class="st16" cx="250.7" cy="140" r="1.9"/>
		<circle class="st16" cx="246" cy="167.6" r="1.9"/>
		<circle class="st16" cx="251.1" cy="119" r="1.9"/>
		<circle class="st16" cx="236.9" cy="94.9" r="1.9"/>
		<circle class="st16" cx="245.4" cy="97.8" r="1.9"/>
		<circle class="st16" cx="259.9" cy="249" r="1.9"/>
		<circle class="st16" cx="257.4" cy="192" r="1.9"/>
		<circle class="st16" cx="240.9" cy="214.1" r="1.9"/>
		<circle class="st16" cx="231.2" cy="208.2" r="1.9"/>
		<circle class="st16" cx="252.9" cy="176.7" r="1.9"/>
		<circle class="st16" cx="256.7" cy="261.5" r="1.9"/>
		<circle class="st16" cx="264.6" cy="215.2" r="1.9"/>
		<circle class="st16" cx="242.6" cy="237.3" r="1.9"/>
		<circle class="st16" cx="242.8" cy="254.9" r="1.9"/>
		<circle class="st16" cx="247.9" cy="206.3" r="1.9"/>
		<circle class="st16" cx="233.8" cy="182.2" r="1.9"/>
		<circle class="st16" cx="242.2" cy="185.1" r="1.9"/>
		<circle class="st16" cx="289" cy="244.6" r="1.9"/>
		<circle class="st16" cx="286" cy="265.7" r="1.9"/>
		<circle class="st16" cx="271.9" cy="241.6" r="1.9"/>
		<circle class="st16" cx="272.2" cy="259.1" r="1.9"/>
		<circle class="st16" cx="320.2" cy="280.2" r="1.9"/>
		<circle class="st16" cx="306.7" cy="263" r="1.9"/>
		<circle class="st16" cx="333.7" cy="270.4" r="1.9"/>
		<circle class="st16" cx="324.3" cy="108" r="1.9"/>
		<circle class="st16" cx="295.4" cy="105.4" r="1.9"/>
		<circle class="st16" cx="308" cy="80.5" r="1.9"/>
		<circle class="st16" cx="293.4" cy="90.2" r="1.9"/>
		<circle class="st16" cx="383.3" cy="98.1" r="1.9"/>
		<circle class="st16" cx="372.5" cy="96.2" r="1.9"/>
		<circle class="st16" cx="371.9" cy="106.1" r="1.9"/>
		<circle class="st16" cx="321.3" cy="258" r="1.9"/>
		<circle class="st16" cx="393.3" cy="195.2" r="1.9"/>
		<circle class="st16" cx="393.4" cy="182.2" r="1.9"/>
		<circle class="st16" cx="382.1" cy="186.4" r="1.9"/>
		<circle class="st16" cx="341.7" cy="185.1" r="1.9"/>
		<circle class="st16" cx="344.2" cy="220.5" r="1.9"/>
		<circle class="st16" cx="406.3" cy="254.6" r="1.9"/>
		<circle class="st16" cx="432.1" cy="218.6" r="1.9"/>
		<circle class="st16" cx="378.4" cy="283.8" r="1.9"/>
		<circle class="st16" cx="422.6" cy="206.8" r="1.9"/>
		<circle class="st16" cx="217.7" cy="181.3" r="1.9"/>
		<circle class="st16" cx="401.3" cy="146.6" r="1.9"/>
		<circle class="st16" cx="441.2" cy="164.4" r="1.9"/>
		<circle class="st16" cx="438.3" cy="109.3" r="1.9"/>
		<circle class="st16" cx="419.5" cy="153.5" r="1.9"/>
		<circle class="st16" cx="441.2" cy="122" r="1.9"/>
		<circle class="st16" cx="359" cy="149" r="1.9"/>
		<circle class="st16" cx="450.7" cy="194.2" r="1.9"/>
		<circle class="st16" cx="404" cy="237.3" r="1.9"/>
		<circle class="st16" cx="446.9" cy="222.2" r="1.9"/>
		<circle class="st16" cx="208.9" cy="157.8" r="1.9"/>
		<circle class="st16" cx="217.7" cy="195.3" r="1.9"/>
		<circle class="st16" cx="208.9" cy="140.2" r="1.9"/>
		<circle class="st16" cx="204.8" cy="175.5" r="1.9"/>
		<circle class="st16" cx="225.9" cy="143.1" r="1.9"/>
		<circle class="st16" cx="230.2" cy="228.8" r="1.9"/>
		<circle class="st16" cx="223.3" cy="165.6" r="1.9"/>
		<circle class="st16" cx="236.9" cy="266.9" r="1.9"/>
		<circle class="st16" cx="232.1" cy="244.3" r="1.9"/>
		<circle class="st16" cx="346.2" cy="283.6" r="1.9"/>
		<circle class="st16" cx="395.2" cy="285.7" r="1.9"/>
		<circle class="st16" cx="370.6" cy="304.6" r="1.9"/>
		<circle class="st16" cx="335.1" cy="303.1" r="1.9"/>
		<circle class="st16" cx="362.9" cy="293.2" r="1.9"/>
		<circle class="st16" cx="327.3" cy="296.2" r="1.9"/>
		<circle class="st16" cx="337.9" cy="290.3" r="1.9"/>
		<circle class="st16" cx="215.8" cy="239.3" r="1.9"/>
		<circle class="st16" cx="312" cy="299.3" r="1.9"/>
		<circle class="st16" cx="368.7" cy="70.1" r="1.9"/>
		<circle class="st16" cx="324.3" cy="61.6" r="1.9"/>
		<circle class="st16" cx="363.1" cy="101.9" r="1.9"/>
		<circle class="st16" cx="346.3" cy="70.5" r="1.9"/>
		<circle class="st16" cx="346.5" cy="108.8" r="1.9"/>
		<circle class="st16" cx="282.2" cy="55" r="1.9"/>
		<circle class="st16" cx="305.4" cy="47.6" r="1.9"/>
		<circle class="st16" cx="338.1" cy="52.6" r="1.9"/>
		<circle class="st16" cx="352.6" cy="56.9" r="1.9"/>
		<circle class="st16" cx="429.7" cy="127.5" r="1.9"/>
		<circle class="st16" cx="459.4" cy="158.8" r="1.9"/>
		<circle class="st16" cx="364" cy="85.8" r="1.9"/>
		<circle class="st16" cx="448.3" cy="140" r="1.9"/>
		<circle class="st16" cx="424.2" cy="93.4" r="1.9"/>
		<circle class="st16" cx="215.8" cy="126.3" r="1.9"/>
		<circle class="st16" cx="461.3" cy="184.1" r="1.9"/>
		<circle class="st16" cx="445.9" cy="245.1" r="1.9"/>
		<circle class="st16" cx="436.4" cy="233.4" r="1.9"/>
		<circle class="st16" cx="270.1" cy="273.5" r="1.9"/>
		<circle class="st16" cx="213.9" cy="216.7" r="1.9"/>
		<circle class="st16" cx="278.4" cy="289.3" r="1.9"/>
		<circle class="st16" cx="249.6" cy="282.7" r="1.9"/>
		<circle class="st16" cx="308.4" cy="281.3" r="1.9"/>
		<circle class="st16" cx="378.4" cy="266.9" r="1.9"/>
		<circle class="st16" cx="296.8" cy="287.1" r="1.9"/>
		<circle class="st16" cx="415.6" cy="265.5" r="1.9"/>
		<circle class="st16" cx="430.6" cy="263.6" r="1.9"/>
		<circle class="st16" cx="299.3" cy="59.3" r="1.9"/>
		<circle class="st16" cx="401.9" cy="65.7" r="1.9"/>
		<circle class="st16" cx="250.7" cy="80.5" r="1.9"/>
		<circle class="st16" cx="278.6" cy="67.8" r="1.9"/>
		<circle class="st16" cx="239" cy="107.4" r="1.9"/>
		<circle class="st16" cx="283.1" cy="78.4" r="1.9"/>
		<circle class="st16" cx="379.2" cy="59.6" r="1.9"/>
		<circle class="st16" cx="254.1" cy="72.8" r="1.9"/>
		<circle class="st16" cx="269.1" cy="71.4" r="1.9"/>
		<circle class="st16" cx="404.6" cy="87.9" r="1.9"/>
		<circle class="st16" cx="331.7" cy="76.5" r="1.9"/>
		<circle class="st16" cx="364.6" cy="54.5" r="1.9"/>
		<circle class="st16" cx="413.2" cy="120.9" r="1.9"/>
		<circle class="st16" cx="357.1" cy="200.2" r="1.9"/>
		<circle class="st16" cx="333.2" cy="145.9" r="1.9"/>
		<circle class="st16" cx="305.4" cy="151.6" r="1.9"/>
		<path class="st17" d="M286.1,178.9c0,0,12.2-3,35.2,20.3"/>
		<polyline class="st17" points="329.8,89.6 324.3,108 334.6,117.3 324,119.7 363.3,129.9 		"/>
		<polyline class="st17" points="236.9,94.9 245.4,97.8 258.8,108.2 251.1,119 234.4,120.9 245.4,128.9 262.9,138.5 250.7,140 
			271.1,161 		"/>
		<path class="st17" d="M397.8,268.8l-15.7-13.2c0,0-18.1,12.5-22.3-8.4"/>
		<polyline class="st17" points="428.6,145 425.7,161.7 408.2,157.9 385.3,157.8 374.3,150.3 370.3,167.5 383.3,171 393.4,182.2 
			393.3,195.2 384.8,203 382.1,186.4 		"/>
		<path class="st17" d="M340.1,204.9l-22.5,17l33,11.9l-28.8,0.1c0,0,9.7,12.3,11.9,36.5l12.5,13.2c2.6,18.3,24.5,21,24.5,21
			l-35.6-1.5"/>
		<polyline class="st17" points="429.5,246.5 415.6,239.9 422.3,223.3 410,206.3 		"/>
		<polyline class="st17" points="252.6,151 257.4,162.5 271.1,161 		"/>
		<polyline class="st17" points="370.3,167.5 341.7,185.1 362.9,185.1 		"/>
		<polyline class="st17" points="242.6,237.3 260.9,204.9 264.6,215.2 280.3,216.7 280.9,194.1 306,199.8 		"/>
		<path class="st17" d="M406.6,222.4l-17.6-8.8l21-7.3l-6-13c0,0-3.2-20.5,7.9-24.1s18.2,7.9,18.2,7.9l7.3,23.2"/>
		<polyline class="st17" points="406,135.2 418.5,138.5 408.2,157.9 		"/>
		<path class="st17" d="M262.9,102.6c0,0,16.8,5.2,34.8,62.3"/>
		<polyline class="st17" points="204.8,175.5 217.7,195.3 213.9,216.7 231.2,208.2 240.9,214.1 247.9,206.3 257.4,192 252.9,176.7 
			265.9,174.2 286.1,178.9 		"/>
		<path class="st17" d="M215.8,239.3l16.4,5l10.7,10.6l13.9,6.6L260,249l12-7.4l-0.8-9.7c0,0,7.1-5.9,13,0c0,0,8.3,6.4,15.6-1.9"/>
		<path class="st17" d="M215.8,126.3c0,0,15.2-0.2,24.1,15.8l6.1,25.5l-3.8,17.5l15.1,6.9c0,0,9.2,12.2,23.5,2.2l5.2-15.3l11.5-14
			l-26.5-3.8l11.4-17l-14.6-16.2c0,0,21.7-11.5,15-24.9S258,89.4,258,89.4"/>
		<path class="st17" d="M305.4,47.6L282.2,55l-3.6,12.8l4.5,10.5l10.3,11.9l14.6-9.7c0,0,2.1,19.8-12.6,25l-4.6,9.6l3,19.6
			l13.8-24.4l5.1-7.2"/>
		<polyline class="st17" points="324,158.8 305.4,151.6 293.8,134.7 		"/>
		<line class="st17" x1="320.5" y1="181.3" x2="305.4" y2="151.6"/>
		<polyline class="st17" points="324,119.7 333.2,145.9 348,167.2 		"/>
		<polyline class="st17" points="350.5,233.9 344.2,220.5 357.1,200.2 		"/>
		<path class="st17" d="M363.3,129.9c0,0,6.3,12.5-4.2,19.2"/>
		<polyline class="st17" points="208.9,140.2 208.9,157.8 225.9,143.1 240,142.1 		"/>
		<polyline class="st17" points="217.7,181.3 223.3,165.6 233.8,182.2 242.2,185.1 		"/>
		<line class="st17" x1="230.2" y1="228.8" x2="232.1" y2="244.3"/>
		<polyline class="st17" points="236.9,266.9 249.6,282.7 270.1,273.5 256.7,261.5 		"/>
		<line class="st17" x1="308.4" y1="281.3" x2="306.7" y2="263"/>
		<polyline class="st17" points="343.6,267.3 335.6,246.5 350.5,233.9 359.8,247.1 389,213.6 361.7,217.6 392.1,226.2 385.9,238 
			392.5,245.6 		"/>
		<polyline class="st17" points="338.1,52.6 346.3,70.5 348.4,98.1 346.5,108.8 334.6,117.3 		"/>
		<polyline class="st17" points="401.9,65.7 404.6,87.9 416.9,106.5 399.4,102.7 383.3,98.1 		"/>
		<polyline class="st17" points="324.3,61.6 331.7,76.5 314.3,72.1 312.7,103 314.6,138.5 		"/>
		<line class="st17" x1="299.3" y1="59.3" x2="293.4" y2="90.2"/>
		<path class="st17" d="M254.1,72.8l15-1.4c0,0,11.5,9.6,13.7,31.6"/>
		<line class="st17" x1="239" y1="107.4" x2="245.4" y2="97.8"/>
		<path class="st17" d="M327.3,296.2l10.7-5.9l-17.7-10.1l-13.5-17.1c0,0-6.8,11.1-20.7,2.7l10.8,21.4c0,0,11.6,1.1,15.1,12.2
			s-40.9,7-33.5-9.9s-6.3-30.2-6.3-30.2l16.8-14.5l8.4,14.8l24-1.3c0,0,9.2-5.1,0.1-12.8s-23.6-32.7-23.6-32.7"/>
		<polyline class="st17" points="438.3,109.3 413.2,120.9 395.9,128.2 		"/>
		<path class="st17" d="M424.2,93.4l5.5,34.1l18.6,12.5l-7.1,24.3l18.2-5.6c0,0,7.6,12.9,1.9,25.3l-10.6,10.1c0,0-12.5-14.8-30-2.8
			l-5.1-11.1l-3.7-11.1"/>
		<polyline class="st17" points="446.9,222.2 445.9,245.1 436.4,233.4 432.1,218.6 422.6,206.8 410,206.3 		"/>
		<polyline class="st17" points="395.2,285.7 378.4,283.8 362.9,293.2 362.7,274.7 378.4,266.9 382.1,255.5 390.9,245.3 		"/>
		<polyline class="st17" points="430.6,263.6 415.6,265.5 406.3,254.6 404,237.3 404.7,222.4 		"/>
		<polyline class="st17" points="352.6,56.9 364.6,54.5 368.7,70.1 364,85.8 363.1,101.9 357.9,108.8 349.1,137.1 		"/>
		<polyline class="st17" points="379.2,59.6 387.1,73 383.3,98.1 372.5,96.2 371.9,106.1 376.6,125.6 363.3,129.9 349.1,137.1 
			395.2,138.1 395.9,128.2 388.7,104.9 		"/>
		<line class="st17" x1="441.2" y1="122" x2="429.7" y2="127.5"/>
		<g>
			<circle class="st18" cx="313.9" cy="137.8" r="3.8"/>
			<circle class="st18" cx="323.3" cy="158.1" r="3.8"/>
			<circle class="st18" cx="373.5" cy="149.6" r="3.8"/>
			<circle class="st18" cx="348.4" cy="136.4" r="3.8"/>
			<circle class="st18" cx="319.8" cy="180.6" r="3.8"/>
			<circle class="st18" cx="362.1" cy="184.4" r="3.8"/>
			<circle class="st18" cx="296.9" cy="164.2" r="3.8"/>
			<circle class="st18" cx="347.3" cy="166.5" r="3.8"/>
			<circle class="st18" cx="339.4" cy="204.2" r="3.8"/>
			<circle class="st18" cx="305.3" cy="199.1" r="3.8"/>
			<circle class="st18" cx="361" cy="216.9" r="3.8"/>
		</g>
		<circle class="st18" cx="321.3" cy="199.1" r="3.8"/>
	</g>
	<g>
		<path class="st12" d="M396.2,350.6H269.5c-6.8,0-12.4-5.5-12.4-12.4l0,0c0-6.8,5.5-12.4,12.4-12.4h126.7c6.8,0,12.4,5.5,12.4,12.4
			l0,0C408.6,345,403.1,350.6,396.2,350.6z"/>
		<g class="st10">
			<path class="st11" d="M280.8,343.8v-10.5h3.9c0.9,0,1.5,0.2,2.1,0.7c0.5,0.5,0.8,1.1,0.8,1.9c0,0.6-0.1,1.1-0.4,1.5
				s-0.7,0.7-1.2,0.8l0,0c0.4,0.1,0.7,0.2,1,0.3s0.5,0.3,0.7,0.6c0.2,0.2,0.3,0.5,0.4,0.8c0.1,0.3,0.1,0.6,0.1,1
				c0,0.9-0.3,1.7-1,2.2s-1.5,0.8-2.7,0.8L280.8,343.8L280.8,343.8z M282,334.5v3.4h1.6c0.9,0,1.6-0.1,2-0.4s0.6-0.7,0.6-1.3
				s-0.2-1-0.5-1.3c-0.3-0.3-0.8-0.4-1.3-0.4H282L282,334.5z M282,339v3.7h1.9c0.4,0,0.7,0,1,0s0.6-0.1,0.8-0.2
				c0.3-0.1,0.5-0.2,0.6-0.3c0.2-0.1,0.3-0.3,0.4-0.5c0.1-0.2,0.2-0.5,0.2-0.8c0-0.6-0.2-1.1-0.6-1.4s-1-0.5-1.6-0.5H282L282,339z"
				/>
			<path class="st11" d="M290.3,333.3c0-0.3,0.1-0.5,0.3-0.6c0.2-0.2,0.4-0.3,0.6-0.3c0.3,0,0.5,0.1,0.6,0.3
				c0.1,0.2,0.3,0.4,0.3,0.6s0,0.3-0.1,0.5c-0.1,0.1-0.2,0.2-0.3,0.3c-0.1,0.1-0.3,0.1-0.5,0.1c-0.3,0-0.5-0.1-0.6-0.3
				C290.4,333.8,290.3,333.5,290.3,333.3z M290.6,343.8v-8.1h1.2v8.1H290.6z"/>
			<path class="st11" d="M297.9,335.7c1,0,1.8,0.3,2.5,0.9c0.7,0.6,1,1.5,1,2.6v1.3c0,1.1-0.3,2-1,2.6c-0.6,0.6-1.5,0.9-2.5,0.9
				s-1.8-0.3-2.5-0.9c-0.6-0.6-0.9-1.5-0.9-2.6v-1.3c0-1.1,0.3-1.9,1-2.6C296.1,336,296.9,335.7,297.9,335.7z M295.8,339.3v1
				c0,0.5,0.1,1,0.3,1.4c0.2,0.4,0.4,0.7,0.8,0.9c0.3,0.2,0.7,0.3,1.2,0.3c0.7,0,1.2-0.2,1.6-0.7s0.6-1.1,0.6-1.9v-1
				c0-0.8-0.2-1.4-0.6-1.9s-0.9-0.7-1.6-0.7s-1.2,0.2-1.6,0.7C295.9,337.9,295.8,338.5,295.8,339.3z"/>
			<path class="st11" d="M303.6,333.3c0-0.3,0.1-0.5,0.3-0.6s0.4-0.3,0.6-0.3c0.3,0,0.5,0.1,0.6,0.3c0.2,0.2,0.3,0.4,0.3,0.6
				s0,0.3-0.1,0.5c-0.1,0.1-0.2,0.2-0.3,0.3c-0.1,0.1-0.3,0.1-0.5,0.1c-0.3,0-0.5-0.1-0.6-0.3C303.8,333.8,303.6,333.5,303.6,333.3z
				 M303.9,343.8v-8.1h1.2v8.1H303.9z"/>
			<path class="st11" d="M308.2,343.8v-8.1h1.2v1.5h0.1c0.3-1.1,1.2-1.6,2.5-1.6c0.8,0,1.5,0.2,2,0.7s0.7,1.1,0.7,2v5.5h-1.2v-5.2
				c0-0.6-0.2-1.1-0.5-1.5c-0.3-0.3-0.8-0.5-1.3-0.5c-0.7,0-1.3,0.2-1.7,0.7c-0.4,0.5-0.6,1.1-0.6,1.9v4.5h-1.2V343.8z"/>
			<path class="st11" d="M318.1,343.8v-7h-1.4v-1h1.4V335c0-0.8,0.2-1.3,0.6-1.7s1-0.5,1.9-0.5c0.3,0,0.6,0,0.9,0.1v1
				c-0.2,0-0.4,0-0.7,0c-0.5,0-0.9,0.1-1.1,0.3c-0.2,0.2-0.3,0.5-0.3,1v0.7h1.9v1h-1.9v7L318.1,343.8L318.1,343.8z"/>
			<path class="st11" d="M326.5,335.7c1,0,1.8,0.3,2.5,0.9c0.6,0.6,1,1.5,1,2.6v1.3c0,1.1-0.3,2-1,2.6c-0.6,0.6-1.5,0.9-2.5,0.9
				s-1.8-0.3-2.5-0.9c-0.6-0.6-0.9-1.5-0.9-2.6v-1.3c0-1.1,0.3-1.9,1-2.6C324.8,336,325.5,335.7,326.5,335.7z M324.3,339.3v1
				c0,0.5,0.1,1,0.3,1.4c0.2,0.4,0.4,0.7,0.8,0.9c0.3,0.2,0.7,0.3,1.2,0.3c0.7,0,1.2-0.2,1.6-0.7s0.6-1.1,0.6-1.9v-1
				c0-0.8-0.2-1.4-0.6-1.9s-0.9-0.7-1.6-0.7s-1.2,0.2-1.6,0.7C324.5,337.9,324.3,338.5,324.3,339.3z"/>
			<path class="st11" d="M332.5,343.8v-8.1h1.2v1.3h0.1c0.1-0.4,0.4-0.7,0.7-1c0.4-0.3,0.9-0.4,1.5-0.4c0.1,0,0.3,0,0.5,0v1.1
				c-0.1,0-0.3,0-0.6,0c-0.5,0-0.9,0.1-1.2,0.3c-0.3,0.2-0.6,0.4-0.7,0.7c-0.2,0.3-0.2,0.6-0.2,1v5.1L332.5,343.8L332.5,343.8z"/>
			<path class="st11" d="M338.4,343.8v-8.1h1.2v1.3h0.1c0.3-0.9,1-1.4,2.2-1.4c0.3,0,0.6,0,0.8,0.1c0.3,0.1,0.5,0.2,0.7,0.3
				s0.3,0.3,0.5,0.5c0.1,0.2,0.2,0.4,0.3,0.6h0.1c0.2-0.4,0.5-0.8,0.9-1.1c0.4-0.3,0.9-0.4,1.5-0.4c0.8,0,1.5,0.2,2,0.6
				s0.7,1.1,0.7,1.9v5.7H348v-5.4c0-0.5-0.1-0.9-0.4-1.3c-0.3-0.3-0.7-0.5-1.3-0.5c-0.5,0-1,0.2-1.3,0.6c-0.4,0.4-0.5,0.8-0.5,1.4
				v5.2h-1.2v-5.3c0-0.5-0.2-1-0.5-1.3c-0.3-0.3-0.8-0.5-1.3-0.5s-1,0.2-1.3,0.5c-0.4,0.4-0.5,0.8-0.5,1.4v5.2H338.4z"/>
			<path class="st11" d="M354.2,344c-0.4,0-0.7-0.1-1.1-0.2c-0.3-0.1-0.6-0.3-0.8-0.5c-0.2-0.2-0.4-0.5-0.5-0.8
				c-0.1-0.3-0.2-0.6-0.2-1c0-0.5,0.1-0.9,0.3-1.2c0.2-0.4,0.5-0.6,1-0.8c0.4-0.2,0.9-0.3,1.5-0.3h2.2v-0.8c0-0.5-0.2-0.9-0.5-1.2
				c-0.3-0.3-0.8-0.4-1.3-0.4c-0.9,0-1.5,0.3-1.7,1h-1.2c0.1-0.7,0.4-1.2,0.9-1.5c0.5-0.4,1.2-0.5,2.1-0.5s1.6,0.2,2.1,0.6
				c0.6,0.4,0.8,1.1,0.8,2v5.5h-1.2v-1.1l0,0C356,343.6,355.3,344,354.2,344z M354.5,342.9c0.6,0,1.1-0.2,1.5-0.5
				c0.4-0.3,0.6-0.8,0.6-1.3v-0.9h-2.1c-0.6,0-1,0.1-1.2,0.4c-0.3,0.2-0.4,0.6-0.4,1c0,0.5,0.2,0.8,0.5,1.1
				C353.6,342.8,354,342.9,354.5,342.9z"/>
			<path class="st11" d="M360.9,335.8v-2h1.2v2h1.8v1h-1.8v4.8c0,0.3,0,0.6,0.1,0.8c0.1,0.2,0.2,0.3,0.4,0.4
				c0.2,0.1,0.5,0.1,0.8,0.1c0.2,0,0.4,0,0.6,0v1c-0.2,0-0.5,0.1-0.9,0.1c-0.5,0-0.8,0-1.1-0.1c-0.3-0.1-0.5-0.2-0.7-0.4
				c-0.2-0.2-0.3-0.4-0.3-0.7c-0.1-0.3-0.1-0.6-0.1-1V337h-1.2v-1L360.9,335.8L360.9,335.8z"/>
			<path class="st11" d="M366.2,333.3c0-0.3,0.1-0.5,0.3-0.6c0.2-0.2,0.4-0.3,0.6-0.3c0.3,0,0.5,0.1,0.6,0.3
				c0.2,0.2,0.3,0.4,0.3,0.6s0,0.3-0.1,0.5c-0.1,0.1-0.2,0.2-0.3,0.3c-0.1,0.1-0.3,0.1-0.5,0.1c-0.3,0-0.5-0.1-0.6-0.3
				C366.3,333.8,366.2,333.5,366.2,333.3z M366.5,343.8v-8.1h1.2v8.1H366.5z"/>
			<path class="st11" d="M370.4,340.5v-1.4c0-1.1,0.3-1.9,0.9-2.5s1.4-0.9,2.4-0.9c0.9,0,1.7,0.2,2.2,0.7s0.8,1,0.8,1.6h-1.2
				c0-0.1-0.1-0.3-0.1-0.4c-0.1-0.1-0.2-0.3-0.3-0.4c-0.1-0.1-0.3-0.3-0.6-0.4c-0.2-0.1-0.5-0.1-0.8-0.1c-0.7,0-1.2,0.2-1.6,0.6
				c-0.4,0.4-0.5,1-0.5,1.8v1.4c0,0.5,0.1,0.9,0.3,1.2c0.2,0.4,0.4,0.6,0.7,0.8c0.3,0.2,0.7,0.3,1.1,0.3c1.1,0,1.7-0.4,1.9-1.1h1.2
				c0,0.6-0.3,1.1-0.8,1.6s-1.3,0.7-2.2,0.7c-1,0-1.8-0.3-2.4-0.9C370.8,342.4,370.4,341.6,370.4,340.5z"/>
			<path class="st11" d="M378.6,338.1c0-0.8,0.3-1.4,0.8-1.8c0.6-0.4,1.3-0.6,2.1-0.6c0.4,0,0.8,0.1,1.2,0.2
				c0.4,0.1,0.6,0.3,0.9,0.5c0.2,0.2,0.4,0.4,0.6,0.7c0.2,0.3,0.2,0.6,0.2,0.9h-1.1c0-0.2-0.1-0.4-0.2-0.6c-0.1-0.2-0.3-0.3-0.6-0.5
				c-0.3-0.1-0.6-0.2-0.9-0.2s-0.6,0.1-0.9,0.1c-0.3,0.1-0.5,0.2-0.6,0.4c-0.1,0.2-0.2,0.4-0.2,0.7c0,0.2,0,0.4,0.1,0.5
				s0.2,0.2,0.3,0.3s0.2,0.1,0.4,0.2c0.2,0.1,0.4,0.1,0.5,0.1s0.3,0.1,0.5,0.1c0,0,0,0,0.1,0c0,0,0,0,0.1,0s0,0,0.1,0
				c0.3,0,0.5,0.1,0.7,0.1c0.2,0.1,0.4,0.1,0.7,0.2c0.2,0.1,0.4,0.2,0.6,0.3s0.3,0.2,0.4,0.4c0.1,0.2,0.2,0.3,0.3,0.5
				c0.1,0.2,0.1,0.4,0.1,0.7c0,0.8-0.3,1.4-0.9,1.8s-1.3,0.7-2.3,0.7c-0.9,0-1.6-0.2-2.1-0.6s-0.8-0.9-0.8-1.6h1.2
				c0.1,0.8,0.7,1.2,1.8,1.2c0.4,0,0.8-0.1,1.1-0.2c0.3-0.1,0.5-0.3,0.6-0.5c0.1-0.2,0.2-0.4,0.2-0.7c0-0.2,0-0.3-0.1-0.5
				c-0.1-0.1-0.2-0.2-0.3-0.3c-0.1-0.1-0.3-0.2-0.5-0.2c-0.2-0.1-0.4-0.1-0.5-0.2c-0.1,0-0.4-0.1-0.6-0.1c-0.4-0.1-0.7-0.1-0.9-0.2
				c-0.2-0.1-0.5-0.1-0.7-0.3c-0.3-0.1-0.5-0.2-0.6-0.4c-0.1-0.1-0.3-0.3-0.4-0.6C379,338.3,378.6,338.4,378.6,338.1z"/>
		</g>
	</g>
	<g>
		<path class="st5" d="M386.1,26.5H279.6c-7.4,0-13.4-5.5-13.4-12.4l0,0c0-6.8,5.9-12.4,13.4-12.4h106.5c7.4,0,13.4,5.5,13.4,12.4
			l0,0C399.5,21,393.6,26.5,386.1,26.5z"/>
		<g class="st10">
			<path class="st11" d="M286.5,19.5h-1.1V9.1h1.2l3.5,8.4l0,0l3.5-8.4h1.2v10.5h-1.1v-7.8h-0.1l-3,7h-1.1l-3-7h-0.1v7.7
				C286.4,19.5,286.5,19.5,286.5,19.5z"/>
			<path class="st11" d="M300.7,19.7c-1.1,0-1.9-0.3-2.5-0.9s-0.9-1.5-0.9-2.6v-1.3c0-1.1,0.3-1.9,0.9-2.5c0.6-0.6,1.4-1,2.4-1
				s1.8,0.3,2.4,1c0.6,0.6,0.9,1.5,0.9,2.5v1h-5.3v0.4c0,0.7,0.2,1.2,0.6,1.7c0.4,0.4,0.9,0.7,1.6,0.7c0.5,0,0.9-0.1,1.2-0.3
				c0.3-0.2,0.5-0.4,0.6-0.7h1.3c0,0.2-0.1,0.5-0.3,0.7c-0.1,0.2-0.3,0.4-0.6,0.7c-0.2,0.2-0.6,0.4-0.9,0.5
				C301.6,19.6,301.2,19.7,300.7,19.7z M298.6,14.9h4.1v-0.1c0-0.5-0.1-0.9-0.3-1.2c-0.2-0.3-0.4-0.6-0.7-0.8
				c-0.3-0.2-0.7-0.3-1.1-0.3c-0.6,0-1.1,0.2-1.5,0.6s-0.6,1-0.6,1.7L298.6,14.9L298.6,14.9z"/>
			<path class="st11" d="M306.3,19.5v-8.1h1.2v1.5h0.1c0.3-1.1,1.2-1.6,2.5-1.6c0.8,0,1.5,0.2,2,0.7s0.7,1.1,0.7,2v5.5h-1.2v-5.2
				c0-0.6-0.2-1.1-0.5-1.5c-0.3-0.3-0.8-0.5-1.3-0.5c-0.7,0-1.3,0.2-1.7,0.7s-0.6,1.1-0.6,1.9v4.5C307.5,19.5,306.3,19.5,306.3,19.5
				z"/>
			<path class="st11" d="M315.9,11.5v-2h1.2v2h1.8v1h-1.8v4.8c0,0.3,0,0.6,0.1,0.8s0.2,0.3,0.4,0.4c0.2,0.1,0.5,0.1,0.8,0.1
				c0.2,0,0.4,0,0.6,0v1c-0.2,0-0.5,0.1-0.9,0.1c-0.5,0-0.8,0-1.1-0.1c-0.3-0.1-0.5-0.2-0.7-0.4c-0.2-0.2-0.3-0.4-0.3-0.7
				s-0.1-0.6-0.1-1v-4.8h-1.2v-1L315.9,11.5L315.9,11.5z"/>
			<path class="st11" d="M323.5,19.7c-0.4,0-0.7-0.1-1.1-0.2c-0.3-0.1-0.6-0.3-0.8-0.5c-0.2-0.2-0.4-0.5-0.5-0.8s-0.2-0.6-0.2-1
				c0-0.5,0.1-0.9,0.3-1.2c0.2-0.4,0.5-0.6,1-0.8c0.4-0.2,0.9-0.3,1.5-0.3h2.2v-0.8c0-0.5-0.2-0.9-0.5-1.2c-0.3-0.3-0.8-0.4-1.3-0.4
				c-0.9,0-1.5,0.3-1.7,1h-1.3c0.1-0.7,0.4-1.2,0.9-1.5c0.5-0.4,1.2-0.5,2.1-0.5s1.6,0.2,2.1,0.6c0.6,0.4,0.8,1.1,0.8,2v5.5h-1.2
				v-1.1l0,0C325.3,19.3,324.5,19.7,323.5,19.7z M323.8,18.6c0.6,0,1.1-0.2,1.5-0.5c0.4-0.4,0.6-0.8,0.6-1.3v-0.9h-2.1
				c-0.6,0-1,0.1-1.2,0.4c-0.3,0.2-0.4,0.6-0.4,1c0,0.5,0.2,0.8,0.5,1.1C322.9,18.5,323.3,18.6,323.8,18.6z"/>
			<path class="st11" d="M329.8,19.5v-11h1.2v11H329.8z"/>
			<path class="st11" d="M337.5,19.5v-11h1.2V13h0.1c0-0.1,0.1-0.3,0.2-0.4s0.2-0.3,0.3-0.4c0.1-0.1,0.3-0.3,0.5-0.4
				s0.4-0.2,0.7-0.3c0.3-0.1,0.6-0.1,0.9-0.1c0.8,0,1.5,0.2,2,0.7s0.7,1.1,0.7,2v5.5h-1.2v-5.1c0-0.6-0.2-1.1-0.5-1.5
				s-0.8-0.5-1.4-0.5c-0.7,0-1.3,0.2-1.6,0.7c-0.4,0.5-0.6,1.1-0.6,1.9v4.5L337.5,19.5L337.5,19.5z"/>
			<path class="st11" d="M349.8,19.7c-1.1,0-1.9-0.3-2.5-0.9s-0.9-1.5-0.9-2.6v-1.3c0-1.1,0.3-1.9,0.9-2.5s1.4-1,2.4-1
				s1.8,0.3,2.4,1c0.6,0.6,0.9,1.5,0.9,2.5v1h-5.3v0.4c0,0.7,0.2,1.2,0.6,1.7c0.4,0.4,0.9,0.7,1.6,0.7c0.5,0,0.9-0.1,1.2-0.3
				c0.3-0.2,0.5-0.4,0.6-0.7h1.3c0,0.2-0.1,0.5-0.3,0.7c-0.1,0.2-0.3,0.4-0.6,0.7c-0.2,0.2-0.6,0.4-0.9,0.5
				C350.7,19.6,350.2,19.7,349.8,19.7z M347.6,14.9h4.1v-0.1c0-0.5-0.1-0.9-0.3-1.2c-0.2-0.4-0.4-0.6-0.7-0.8
				c-0.3-0.2-0.7-0.3-1.1-0.3c-0.6,0-1.1,0.2-1.5,0.6s-0.6,1-0.6,1.7L347.6,14.9L347.6,14.9z"/>
			<path class="st11" d="M357.5,19.7c-0.4,0-0.7-0.1-1.1-0.2c-0.3-0.1-0.6-0.3-0.8-0.5c-0.2-0.2-0.4-0.5-0.5-0.8s-0.2-0.6-0.2-1
				c0-0.5,0.1-0.9,0.3-1.2c0.2-0.4,0.5-0.6,1-0.8c0.4-0.2,0.9-0.3,1.5-0.3h2.2v-0.8c0-0.5-0.2-0.9-0.5-1.2c-0.3-0.3-0.8-0.4-1.3-0.4
				c-0.9,0-1.5,0.3-1.7,1h-1.2c0.1-0.7,0.4-1.2,0.9-1.5c0.5-0.4,1.2-0.5,2.1-0.5s1.6,0.2,2.1,0.6c0.6,0.4,0.8,1.1,0.8,2v5.5h-1.2
				v-1.1l0,0C359.3,19.3,358.5,19.7,357.5,19.7z M357.8,18.6c0.6,0,1.1-0.2,1.5-0.5c0.4-0.4,0.6-0.8,0.6-1.3v-0.9h-2.1
				c-0.6,0-1,0.1-1.2,0.4c-0.3,0.2-0.4,0.6-0.4,1c0,0.5,0.2,0.8,0.5,1.1C356.9,18.5,357.3,18.6,357.8,18.6z"/>
			<path class="st11" d="M363.8,19.5v-11h1.2v11H363.8z"/>
			<path class="st11" d="M368.3,11.5v-2h1.2v2h1.8v1h-1.8v4.8c0,0.3,0,0.6,0.1,0.8c0.1,0.2,0.2,0.3,0.4,0.4c0.2,0.1,0.5,0.1,0.8,0.1
				c0.2,0,0.4,0,0.6,0v1c-0.2,0-0.5,0.1-0.9,0.1c-0.5,0-0.8,0-1.1-0.1c-0.3-0.1-0.5-0.2-0.7-0.4c-0.2-0.2-0.3-0.4-0.3-0.7
				c-0.1-0.3-0.1-0.6-0.1-1v-4.8h-1.2v-1L368.3,11.5L368.3,11.5z"/>
			<path class="st11" d="M373.7,19.5v-11h1.2V13h0.1c0-0.1,0.1-0.3,0.2-0.4s0.2-0.3,0.3-0.4c0.1-0.1,0.3-0.3,0.5-0.4
				s0.4-0.2,0.7-0.3c0.3-0.1,0.6-0.1,0.9-0.1c0.8,0,1.5,0.2,2,0.7s0.7,1.1,0.7,2v5.5h-1.2v-5.1c0-0.6-0.2-1.1-0.5-1.5
				s-0.8-0.5-1.4-0.5c-0.7,0-1.3,0.2-1.6,0.7c-0.4,0.5-0.6,1.1-0.6,1.9v4.5L373.7,19.5L373.7,19.5z"/>
		</g>
	</g>
</g>
<g>
	<path class="st5" d="M744.7,363.4c-0.3,6.3-5.5,11.3-11.9,11.3H393.7l-20.2,20.2l-20.2-20.2H14.2c-6.4,0-11.6-5-11.9-11.3H0.9
		c0.3,7.1,6.2,12.8,13.4,12.8h338.5l20.8,20.8l20.8-20.8h338.5c7.2,0,13.1-5.7,13.4-12.8H744.7z"/>
</g>
<path class="st5" d="M740.8,525.8H6.2c-3.4,0-5.7-1.8-4.2-3.4l37.7-40.7c0.8-0.8,2.4-1.4,4.2-1.4h659.2c1.8,0,3.4,0.5,4.2,1.4
	l37.7,40.7C746.4,524,744.2,525.8,740.8,525.8z"/>
<path class="st19" d="M540.5,478c-4.3-2.3-12.9-1.4-11,4.7l0,0c0.4,0.8,3.8,4.5,4.4,6.5c0.7,2.5-1.7,8.5-1.7,8.5s-2.1,1.3-1.1,2.3
	c0.1,0.1,0.2,0.1,0.3,0.1h3.9c0.2,0,0.4-0.1,0.6-0.2c1-1,4.1-5.1,5.3-8.5c0.6-1.8,1.5-6.5,1.5-6.5
	C543.3,483.2,542.1,478.9,540.5,478z"/>
<path class="st19" d="M497.4,479.2c3.2,2.8,2.7,7.1,0.8,9.8c-3.6,6.2-7.8,10.1-8.8,11c-0.1,0.1-0.3,0.2-0.5,0.2h-3.8
	c-0.2,0-0.4-0.2-0.4-0.4c0-0.6,0.1-1.7,1.8-2.1c1.1-2.2,1.9-4.6,2.3-7.1l2-12.2C492.9,477.3,495.5,477.6,497.4,479.2z"/>
<g>
	<path class="st20" d="M572,426.1c0,2.3-3.8,3.5-5.3,5.6c-0.1,0.2-0.2,0.4-0.3,0.5c-0.3,0.6-0.5,1.2-0.6,1.8
		c-0.6,3.4,0.6,7.6,0,11.9c-1.2,8.9-8.2,14.4-11.4,16c-0.2,0.1-0.2,0.3-0.2,0.4c0.3,1,0.4,2.3,0.4,3.7c0,3.8-0.7,8.5-1.1,10.3
		c-1,4.5,1,8.9,1.2,11.5c0.1,1.6-4,10.5-5.5,12c-0.2,0.1-0.3,0.2-0.6,0.2h-3.9c-0.1,0-0.2,0-0.3-0.1c-1.1-1.1,0.9-2.3,0.9-2.3
		l1.7-8.7c0-0.1,0-0.2-0.1-0.3c-0.5-0.7-2.4-2.1-4.4-3.9c-1.1-1-2.2-2-3.2-3c-0.1-0.1-0.3-0.2-0.6-0.2c-1.3,0.3-4.9,0.8-9.3,1.1
		c-7.3,0.6-16.7,1.1-21.4,0.6c-0.1,0-0.1,0-0.2,0c-0.3,0.1-0.5,0.4-0.4,0.7c1.1,4.2,1.9,9.6,1.4,12.5c-0.4,2.1-2,3.6-2.1,3.6h-3.9
		c-0.2,0-0.4-0.1-0.4-0.4c-0.1-1,1-1.6,1-1.6c-1.1-4.3-3-6.6-5.2-9.2c-1.9-2.1-4-4.4-6.1-8c-0.5-0.8-0.9-1.7-1.4-2.6
		c-0.9-2-1.7-4-2.4-6.1c-0.9-2.8-3.3-4.8-6.2-5.2c-4.8-0.7-7.1-3.5-7.2-5.9c0-2.2,2.5-2.7,2.6-4.1c0-1.1,0.4-2.1,0.9-3
		c1.6-3,4.7-5,4.7-5l0.8-3.3c0-1,1.1-1.8,2-1.2c7,4.5,7.1,8.3,10.2,10c0.2,0.1,0.5,0.2,0.7,0.4c2.1,1,4.9,1.5,8.1,1.6
		c13.3,0.8,34.1-3.4,45-0.8c4.4,0.9,10.5-5.8,10.7-13.4c0.1-3.8-0.5-7.4-0.2-10.5c0.1-1.2,0.4-2.4,0.9-3.5c0.1-0.3,0.3-0.5,0.4-0.8
		C565.7,421.2,572,421.5,572,426.1z"/>
</g>
<path class="st21" d="M496.8,456.1c-2.8-0.2-5.4-1.3-7.5-3.1c-3-2.6-3.5-0.9-6.4,0.6c-1.4,0.7-3,0.9-4.4,0.4c1.6-3,4.7-5,4.7-5
	l0.8-3.3c0-1,1.1-1.8,2-1.2c7,4.5,7.1,8.3,10.2,10c0.2,0.1,0.5,0.2,0.7,0.4C496.8,455.2,496.8,455.7,496.8,456.1z"/>
<path class="st21" d="M565.8,445.9c-1.2,8.9-8.2,14.4-11.4,16c-0.2,0.1-0.2,0.3-0.2,0.4c0.3,1,0.4,2.3,0.4,3.7
	c-6.6-0.5-13.2-1.6-19.1,1.1c-4,1.9-7.6,5.5-12.1,5.2c-3.2-0.2-5.9-2.4-8.2-4.6c-3-2.9-5.9-6-8.5-9.2c-0.4-0.5-1.1-1.2-1.8-2
	c13.3,0.8,34.1-3.4,45-0.8c4.4,0.9,10.5-5.8,10.7-13.4c0.1-3.8-0.5-7.4-0.2-10.5c1.8,0.9,3.5,1.9,5.4,2.3
	C565.2,437.4,566.4,441.6,565.8,445.9z"/>
<path class="st21" d="M572,426.1c0,2.3-3.8,3.5-5.3,5.6c-2-0.8-4-1.9-5.4-3.4c0.1-0.3,0.3-0.5,0.4-0.8
	C565.7,421.2,572,421.5,572,426.1z"/>
<path class="st12" d="M495.5,453.3c-1.9,6.7-8.5,12.6-11,14.6c-0.3,0.3-0.4,0.8-0.2,1.1c0.5,0.8,1.6,1.8,2.4,1.8
	c0.1,0,0.3-0.1,0.4-0.1c5.2-3.4,9.4-8.8,11.6-15.8C498.9,454.3,495.7,452.8,495.5,453.3L495.5,453.3z"/>
<circle class="st12" cx="474.5" cy="459.8" r="1.1"/>
<circle class="st22" cx="480.1" cy="456.9" r="0.9"/>
<g>
	<path class="st23" d="M411.8,412.4h-6.6v77.7l6.6-13.2c3.6,0,6.6-3,6.6-6.6V419C418.5,415.3,415.5,412.4,411.8,412.4z"/>
	<path class="st21" d="M411.8,419c0-3.6-3-6.6-6.6-6.6h-70c-3.6,0-6.6,3-6.6,6.6v51.2c0,3.6,3,6.6,6.6,6.6l38.3,13.2l31.7-13.2
		c3.6,0,6.6-3,6.6-6.6l-16.5-25.6L411.8,419z"/>
	<path class="st24" d="M414.6,490.1v16.5h7.2c3.7,0,6.6-3,6.6-6.6L414.6,490.1z"/>
	<path class="st19" d="M336,493.4l-17.3,6.6c0,3.7,3,6.6,6.6,6.6h36.6l11.6-10.6l11.6,10.6h29.5c3.7,0,6.6-3,6.6-6.6v-6.6H336z"/>
	<path class="st24" d="M361.9,493.4h23.2v13.2h-23.2V493.4z"/>
	<path class="st19" d="M420.2,480.8c-1-2.4-3.4-4-6.1-4h-7.2l14.3,23.2h7.2L420.2,480.8z"/>
	<path class="st25" d="M413,480.8l1.1,2.6l-5.2,3.3l8,3.3l4.3,9.9H318.7l8.2-19.2c1-2.4,3.4-4,6.1-4h73.9
		C409.5,476.8,411.9,478.4,413,480.8L413,480.8z"/>
	<path class="st11" d="M405.2,419l-18.8,25.6l18.8,25.6h6.6V419H405.2L405.2,419z"/>
	<path class="st11" d="M335.2,419h70v51.2h-70V419z"/>
	<path class="st23" d="M416.9,490.1l-2.9-6.6h-81l-2.8,6.6H416.9z"/>
</g>
<g>
	<g>
		<path class="st26" d="M305.4,468.1l-2.5,1.9h-11.5l-1.3-1.9l2.6-3.8c0.3-0.4,0.8-0.7,1.2-0.7h7.6c0.5,0,1,0.2,1.2,0.7L305.4,468.1
			z"/>
		<path class="st27" d="M302.8,464.3c-0.3-0.4-0.8-0.7-1.2-0.7h-1.8c0.5,0,1,0.2,1.2,0.7l2.6,3.8h1.8L302.8,464.3z"/>
	</g>
	<g>
		<path class="st21" d="M313.7,471.3v15.6c0,0.7-0.6,1.3-1.3,1.3h-29.2c-0.7,0-1.3-0.6-1.3-1.3v-15.6c0-0.7,0.6-1.3,1.3-1.3h29.2
			C313.1,470,313.7,470.6,313.7,471.3z"/>
		<path class="st23" d="M312.4,470h-1.5c0.7,0,1.3,0.6,1.3,1.3v15.6c0,0.7-0.6,1.3-1.3,1.3h1.5c0.7,0,1.3-0.6,1.3-1.3v-15.6
			C313.7,470.6,313.1,470,312.4,470z"/>
	</g>
	<path class="st25" d="M313.7,469.4v2.9h-31.8v-2.9c0-0.7,0.6-1.3,1.3-1.3h29.2C313.1,468.1,313.7,468.7,313.7,469.4L313.7,469.4z"
		/>
	<path class="st19" d="M312.4,468.1h-1.5c0.7,0,1.3,0.6,1.3,1.3v2.9h1.5v-2.9C313.7,468.7,313.1,468.1,312.4,468.1z"/>
	<g>
		<path class="st23" d="M310.4,470.7h-1.5c-0.3,0-0.5-0.2-0.5-0.5s0.2-0.5,0.5-0.5h1.5c0.3,0,0.5,0.2,0.5,0.5
			S310.7,470.7,310.4,470.7z"/>
	</g>
	<path class="st26" d="M288.4,468.1h-4v-1c0-0.4,0.3-0.7,0.7-0.7h2.5c0.4,0,0.7,0.3,0.7,0.7L288.4,468.1L288.4,468.1z"/>
	<circle class="st26" cx="297.8" cy="478.3" r="8.2"/>
	<path class="st23" d="M297.8,470c-0.2,0-0.5,0-0.7,0c4.2,0.4,7.5,3.9,7.5,8.2s-3.3,7.8-7.5,8.2c0.2,0,0.5,0,0.7,0
		c4.5,0,8.2-3.7,8.2-8.2S302.3,470,297.8,470L297.8,470z"/>
	<circle class="st28" cx="297.8" cy="478.3" r="6.1"/>
	<path class="st29" d="M297.8,472.2c-0.3,0-0.5,0-0.8,0c3,0.4,5.3,2.9,5.3,6s-2.3,5.6-5.3,6c0.3,0,0.5,0,0.8,0
		c3.4,0,6.1-2.7,6.1-6.1C303.9,474.9,301.1,472.2,297.8,472.2L297.8,472.2z"/>
	<g>
		<g>
			<path class="st23" d="M309.8,486.2c-0.3,0-0.5-0.2-0.5-0.5v-0.2c0-0.3,0.2-0.5,0.5-0.5s0.5,0.2,0.5,0.5v0.2
				C310.3,486,310.1,486.2,309.8,486.2z"/>
		</g>
		<g>
			<path class="st23" d="M285.8,486.2c-0.3,0-0.5-0.2-0.5-0.5v-0.2c0-0.3,0.2-0.5,0.5-0.5s0.5,0.2,0.5,0.5v0.2
				C286.2,486,286,486.2,285.8,486.2z"/>
		</g>
	</g>
</g>
</svg>
